<svg width="260" height="135" viewBox="0 0 260 135" fill="none" xmlns="http://www.w3.org/2000/svg">
<g clip-path="url(#clip0)">
<rect width="260" height="135" fill="url(#paint0_linear)"/>
<path opacity="0.3" d="M206.559 58.8783C205.241 61.7035 202.792 63.3493 201.087 62.5544C199.382 61.7594 199.068 58.8247 200.385 55.9995C201.703 53.1743 227.72 5.43945 227.72 5.43945C227.72 5.43945 207.876 56.0531 206.559 58.8783Z" fill="url(#paint1_linear)"/>
<path opacity="0.1" d="M230.375 42.1217C229.645 43.6867 227.672 44.3109 225.967 43.516C224.262 42.7211 223.472 40.808 224.202 39.243C224.931 37.678 240.72 11.8779 240.72 11.8779C240.72 11.8779 231.105 40.5567 230.375 42.1217Z" fill="url(#paint2_linear)"/>
<path opacity="0.1" d="M200.505 34.09C199.88 35.4294 197.723 35.7454 195.687 34.7958C193.651 33.8463 192.506 31.9908 193.131 30.6514C193.755 29.3121 208.313 7.71924 208.313 7.71924C208.313 7.71924 201.13 32.7507 200.505 34.09Z" fill="url(#paint3_linear)"/>
<path d="M241.411 106.158C251.518 93.7019 249.615 75.4099 237.158 65.302C224.702 55.1941 206.41 57.0979 196.302 69.5543C186.194 82.0107 188.098 100.303 200.554 110.411C213.011 120.519 231.303 118.615 241.411 106.158Z" fill="#FDB125"/>
<path opacity="0.4" d="M209.79 60.3169C208.167 64.2113 205.571 67.7812 202.488 70.7832C199.567 73.5418 195.754 76.0569 191.697 77.6796C190.561 80.6816 189.912 83.8458 189.831 87.0101C199.892 86.361 209.709 78.8155 214.902 70.9455C217.254 67.3756 219.121 63.1566 219.121 58.8564C215.956 58.8564 212.792 59.3433 209.79 60.3169Z" fill="#FADCCB"/>
<path opacity="0.4" d="M224.719 59.4243C224.475 72.6492 212.386 84.6571 200.946 89.6875C197.539 91.1479 193.888 92.2026 190.237 92.5272C190.724 95.3669 191.535 98.1254 192.833 100.641C203.299 103.561 214.739 99.0991 222.772 92.2026C230.561 85.4685 236.808 75.3267 236.402 64.6981C232.913 62.0206 228.857 60.3168 224.719 59.4243Z" fill="#FADCCB"/>
<path opacity="0.4" d="M231.94 67.0507C231.94 69.4847 231.129 72.7301 231.129 75.1641C231.94 72.7301 234.374 71.1074 233.563 68.6734L234.374 69.4847C234.78 67.6998 235.185 65.9148 235.672 64.1299C233.644 62.6694 231.534 61.5336 229.344 60.7222C227.559 67.862 222.691 74.5151 219.851 80.8435C223.826 75.9755 227.883 71.9188 231.94 67.0507Z" fill="#FADCCB"/>
<path d="M212.224 92.203C209.465 93.0955 207.843 92.5275 205.165 92.2841C202.082 91.9596 200.865 93.5011 199.811 94.8804C198.35 95.6106 194.537 98.1258 193.563 98.2881C192.833 98.4503 195.673 99.424 197.782 99.8296C210.926 105.184 220.824 89.6067 223.907 85.55C224.232 85.1443 218.634 90.1746 212.224 92.203Z" fill="#FDB125"/>
<path opacity="0.5" d="M204.192 99.3428C205.581 99.3428 206.707 98.2167 206.707 96.8276C206.707 95.4385 205.581 94.3125 204.192 94.3125C202.803 94.3125 201.677 95.4385 201.677 96.8276C201.677 98.2167 202.803 99.3428 204.192 99.3428Z" fill="white"/>
<path opacity="0.4" d="M241.919 70.2153C239.648 87.4158 223.826 102.831 207.437 106.401C204.03 107.131 200.46 107.294 197.052 106.888C198.107 108.105 199.324 109.322 200.622 110.377C213.035 120.438 231.372 118.571 241.433 106.158C250.114 95.5293 249.952 80.6005 241.919 70.2153Z" fill="#FADCCB"/>
<path opacity="0.7" d="M214.09 111.675C215.713 110.052 217.336 109.241 218.958 108.43C213.928 109.403 209.303 111.999 204.516 112.973C212.062 117.273 221.068 117.922 228.938 115.001C233.644 109.809 236.97 102.994 238.431 96.1782C231.94 102.75 224.638 111.675 214.09 111.675Z" fill="#FADCCB"/>
<path opacity="0.5" d="M215.35 82.4643C220.265 76.8212 220.716 69.1689 216.357 65.3724C211.998 61.5758 204.48 63.0727 199.565 68.7157C194.65 74.3588 194.199 82.0111 198.558 85.8076C202.917 89.6042 210.435 88.1073 215.35 82.4643Z" fill="white"/>
<path opacity="0.2" d="M238.918 108.988C247.092 100.813 249.07 89.5372 243.335 83.8022C237.6 78.0673 226.324 80.0451 218.15 88.2197C209.975 96.3944 207.997 107.67 213.732 113.405C219.467 119.14 230.743 117.162 238.918 108.988Z" fill="#9B3B17"/>
<path opacity="0.5" d="M195.997 87.8215C197.376 79.5458 201.109 71.838 207.518 66.3209C213.198 61.3717 222.69 60.7226 229.911 60.966C218.39 56.2602 204.678 59.3433 196.403 69.5662C186.748 81.493 188.046 98.7746 199.161 109.079C195.835 102.02 194.942 93.9877 195.997 87.8215Z" fill="white"/>
<path d="M159.866 13.4327C159.866 9.32779 156.538 6.00012 152.433 6.00012C148.328 6.00012 145 9.32779 145 13.4327C145 17.5376 148.328 20.8652 152.433 20.8652C156.538 20.8652 159.866 17.5376 159.866 13.4327Z" fill="url(#paint4_radial)"/>
<path d="M35.8651 83.4327C35.8651 79.3278 32.5375 76.0001 28.4326 76.0001C24.3277 76.0001 21 79.3278 21 83.4327C21 87.5376 24.3277 90.8652 28.4326 90.8652C32.5375 90.8652 35.8651 87.5376 35.8651 83.4327Z" fill="url(#paint5_radial)"/>
<path d="M38.4 47.3252C38.4 45.7752 38.4 44.8252 38.4 43.3252H32.775V39.5002H39.125C39.125 38.0002 39.125 36.9752 39.125 35.5002C35.55 35.5002 31.8 35.5002 28.225 35.5002V53.0002C29.75 53.0002 31.275 53.0002 32.775 53.0002V47.3252H38.4ZM55.1805 46.8002C59.6055 43.8002 58.3555 35.5252 51.4805 35.5002C48.9305 35.5002 46.3305 35.5002 43.8055 35.5002C43.8055 41.3502 43.8055 47.1752 43.8055 53.0002C45.2555 53.0002 46.7805 53.0002 48.2805 53.0002V47.8502H50.6055L53.6055 53.0002H58.6055V52.3502L55.1805 46.8002ZM51.4805 43.8252H48.2805C48.2805 42.4252 48.2805 40.9252 48.2805 39.5002C49.3305 39.5002 50.4305 39.4752 51.4805 39.5002C54.0305 39.5252 53.9055 43.8252 51.4805 43.8252ZM79.4359 44.2752C79.4359 32.1752 61.4859 32.1752 61.4859 44.2752C61.4859 56.4002 79.4359 56.4002 79.4359 44.2752ZM66.0859 44.2752C66.0859 37.9752 74.8609 37.9752 74.8609 44.2752C74.8609 50.6252 66.0859 50.6252 66.0859 44.2752ZM97.5002 53.0252H99.1002V35.5002C97.5752 35.5002 96.0502 35.5002 94.5252 35.5002V44.0752L85.6752 35.4252H84.0502V53.0002C85.5752 53.0002 87.1252 53.0002 88.6752 53.0002V44.4002L97.5002 53.0252ZM107.382 39.5002V53.0002C108.857 53.0002 110.332 53.0002 111.807 53.0002V39.5002H116.082C116.082 38.1502 116.082 36.8252 116.082 35.5002H103.082C103.082 36.8252 103.082 38.1502 103.082 39.5002H107.382ZM131.02 35.5002C126.92 35.5002 124.145 35.5002 120.095 35.5002C120.095 41.3002 120.095 47.1502 120.095 53.0002C124.145 53.0002 127.145 53.0002 131.245 53.0002C131.245 51.6752 131.245 50.3252 131.245 49.0252C128.62 49.0252 127.12 49.0252 124.545 49.0252C124.545 47.9752 124.545 46.9752 124.545 45.9502H130.495C130.495 44.6252 130.495 43.3002 130.495 41.9752H124.545V39.5002C127.12 39.5002 128.42 39.5002 131.02 39.5002C131.02 38.1502 131.02 36.8002 131.02 35.5002ZM149.785 53.0252H151.385V35.5002C149.86 35.5002 148.335 35.5002 146.81 35.5002V44.0752L137.96 35.4252H136.335V53.0002C137.86 53.0002 139.41 53.0002 140.96 53.0002V44.4002L149.785 53.0252ZM163.692 35.5002H157.092V53.0002H163.692C175.092 52.9502 175.092 35.5502 163.692 35.5002ZM161.567 39.5752H163.692C169.267 39.5752 169.267 48.9252 163.692 48.9252H161.567V39.5752Z" fill="#FF77CF"/>
<path d="M36.4 47.3252C36.4 45.7752 36.4 44.8252 36.4 43.3252H30.775V39.5002H37.125C37.125 38.0002 37.125 36.9752 37.125 35.5002C33.55 35.5002 29.8 35.5002 26.225 35.5002V53.0002C27.75 53.0002 29.275 53.0002 30.775 53.0002V47.3252H36.4ZM53.1805 46.8002C57.6055 43.8002 56.3555 35.5252 49.4805 35.5002C46.9305 35.5002 44.3305 35.5002 41.8055 35.5002C41.8055 41.3502 41.8055 47.1752 41.8055 53.0002C43.2555 53.0002 44.7805 53.0002 46.2805 53.0002V47.8502H48.6055L51.6055 53.0002H56.6055V52.3502L53.1805 46.8002ZM49.4805 43.8252H46.2805C46.2805 42.4252 46.2805 40.9252 46.2805 39.5002C47.3305 39.5002 48.4305 39.4752 49.4805 39.5002C52.0305 39.5252 51.9055 43.8252 49.4805 43.8252ZM77.4359 44.2752C77.4359 32.1752 59.4859 32.1752 59.4859 44.2752C59.4859 56.4002 77.4359 56.4002 77.4359 44.2752ZM64.0859 44.2752C64.0859 37.9752 72.8609 37.9752 72.8609 44.2752C72.8609 50.6252 64.0859 50.6252 64.0859 44.2752ZM95.5002 53.0252H97.1002V35.5002C95.5752 35.5002 94.0502 35.5002 92.5252 35.5002V44.0752L83.6752 35.4252H82.0502V53.0002C83.5752 53.0002 85.1252 53.0002 86.6752 53.0002V44.4002L95.5002 53.0252ZM105.382 39.5002V53.0002C106.857 53.0002 108.332 53.0002 109.807 53.0002V39.5002H114.082C114.082 38.1502 114.082 36.8252 114.082 35.5002H101.082C101.082 36.8252 101.082 38.1502 101.082 39.5002H105.382ZM129.02 35.5002C124.92 35.5002 122.145 35.5002 118.095 35.5002C118.095 41.3002 118.095 47.1502 118.095 53.0002C122.145 53.0002 125.145 53.0002 129.245 53.0002C129.245 51.6752 129.245 50.3252 129.245 49.0252C126.62 49.0252 125.12 49.0252 122.545 49.0252C122.545 47.9752 122.545 46.9752 122.545 45.9502H128.495C128.495 44.6252 128.495 43.3002 128.495 41.9752H122.545V39.5002C125.12 39.5002 126.42 39.5002 129.02 39.5002C129.02 38.1502 129.02 36.8002 129.02 35.5002ZM147.785 53.0252H149.385V35.5002C147.86 35.5002 146.335 35.5002 144.81 35.5002V44.0752L135.96 35.4252H134.335V53.0002C135.86 53.0002 137.41 53.0002 138.96 53.0002V44.4002L147.785 53.0252ZM161.692 35.5002H155.092V53.0002H161.692C173.092 52.9502 173.092 35.5502 161.692 35.5002ZM159.567 39.5752H161.692C167.267 39.5752 167.267 48.9252 161.692 48.9252H159.567V39.5752Z" fill="white"/>
<path d="M0 99.9845H260C208.5 86.5034 197 95.3388 131 88.8051C93.8 85.1225 46.5 94.9845 0 99.9845Z" fill="#F8FBFF"/>
<rect x="-8" y="99" width="275" height="62" fill="#F8FBFF"/>
</g>
<defs>
<linearGradient id="paint0_linear" x1="260" y1="-9.86851e-06" x2="-15.0321" y2="88.0416" gradientUnits="userSpaceOnUse">
<stop offset="0.0223687" stop-color="#376A99"/>
<stop offset="0.536458" stop-color="#1F2666"/>
<stop offset="1" stop-color="#0C1249"/>
</linearGradient>
<linearGradient id="paint1_linear" x1="227.72" y1="5.43945" x2="201.087" y2="62.5544" gradientUnits="userSpaceOnUse">
<stop offset="0.228775" stop-color="#00F0FF" stop-opacity="0"/>
<stop offset="1" stop-color="#FF63CE"/>
</linearGradient>
<linearGradient id="paint2_linear" x1="240.72" y1="11.8779" x2="225.967" y2="43.516" gradientUnits="userSpaceOnUse">
<stop offset="0.228775" stop-color="white" stop-opacity="0"/>
<stop offset="1" stop-color="white"/>
</linearGradient>
<linearGradient id="paint3_linear" x1="208.313" y1="7.71924" x2="195.687" y2="34.7958" gradientUnits="userSpaceOnUse">
<stop offset="0.228775" stop-color="white" stop-opacity="0"/>
<stop offset="1" stop-color="white"/>
</linearGradient>
<radialGradient id="paint4_radial" cx="0" cy="0" r="1" gradientUnits="userSpaceOnUse" gradientTransform="translate(152.433 13.4327) scale(7.43256)">
<stop stop-color="white" stop-opacity="0.52"/>
<stop offset="0.395833" stop-color="white" stop-opacity="0.14"/>
<stop offset="0.677083" stop-color="white" stop-opacity="0"/>
</radialGradient>
<radialGradient id="paint5_radial" cx="0" cy="0" r="1" gradientUnits="userSpaceOnUse" gradientTransform="translate(28.4326 83.4327) scale(7.43256)">
<stop stop-color="white" stop-opacity="0.52"/>
<stop offset="0.395833" stop-color="white" stop-opacity="0.14"/>
<stop offset="0.677083" stop-color="white" stop-opacity="0"/>
</radialGradient>
<clipPath id="clip0">
<rect width="260" height="135" fill="white"/>
</clipPath>
</defs>
</svg>
