<svg width="260" height="100" viewBox="0 0 260 100" fill="none" xmlns="http://www.w3.org/2000/svg">
<g clip-path="url(#clip0)">
<g filter="url(#filter0_d)">
<path d="M0 15C0 6.71573 6.71573 0 15 0H245C253.284 0 260 6.71573 260 15V106H0V15Z" fill="url(#paint0_linear)"/>
<path d="M0 15C0 6.71573 6.71573 0 15 0H245C253.284 0 260 6.71573 260 15V106H0V15Z" fill="url(#paint1_linear)"/>
</g>
<path opacity="0.3" d="M206.559 58.8782C205.241 61.7034 202.792 63.3492 201.087 62.5543C199.382 61.7593 199.068 58.8246 200.385 55.9994C201.703 53.1742 227.72 5.43936 227.72 5.43936C227.72 5.43936 207.876 56.053 206.559 58.8782Z" fill="url(#paint2_linear)"/>
<path opacity="0.1" d="M230.375 42.1216C229.645 43.6866 227.672 44.3108 225.967 43.5159C224.262 42.721 223.472 40.8079 224.202 39.2429C224.931 37.6779 240.72 11.8778 240.72 11.8778C240.72 11.8778 231.105 40.5566 230.375 42.1216Z" fill="url(#paint3_linear)"/>
<path opacity="0.1" d="M200.505 34.0901C199.88 35.4295 197.723 35.7455 195.687 34.7959C193.651 33.8464 192.506 31.9909 193.131 30.6515C193.755 29.3122 208.313 7.7193 208.313 7.7193C208.313 7.7193 201.13 32.7508 200.505 34.0901Z" fill="url(#paint4_linear)"/>
<path d="M241.411 106.158C251.518 93.7019 249.615 75.4099 237.158 65.302C224.702 55.1941 206.41 57.0979 196.302 69.5543C186.194 82.0107 188.098 100.303 200.554 110.411C213.011 120.519 231.303 118.615 241.411 106.158Z" fill="#FDB125"/>
<path opacity="0.4" d="M209.79 60.3169C208.167 64.2113 205.571 67.7812 202.488 70.7832C199.567 73.5418 195.754 76.0569 191.697 77.6796C190.561 80.6816 189.912 83.8458 189.831 87.0101C199.892 86.361 209.709 78.8155 214.902 70.9455C217.254 67.3756 219.121 63.1566 219.121 58.8564C215.956 58.8564 212.792 59.3433 209.79 60.3169Z" fill="#FADCCB"/>
<path opacity="0.4" d="M224.719 59.4243C224.475 72.6492 212.386 84.6571 200.946 89.6875C197.539 91.1479 193.888 92.2026 190.237 92.5272C190.724 95.3669 191.535 98.1254 192.833 100.641C203.299 103.561 214.739 99.0991 222.772 92.2026C230.561 85.4685 236.808 75.3267 236.402 64.6981C232.913 62.0206 228.857 60.3168 224.719 59.4243Z" fill="#FADCCB"/>
<path opacity="0.4" d="M231.94 67.0509C231.94 69.4849 231.129 72.7303 231.129 75.1643C231.94 72.7303 234.374 71.1076 233.563 68.6736L234.374 69.4849C234.78 67.7 235.185 65.915 235.672 64.1301C233.644 62.6696 231.534 61.5338 229.344 60.7224C227.559 67.8622 222.691 74.5153 219.851 80.8437C223.826 75.9757 227.883 71.919 231.94 67.0509Z" fill="#FADCCB"/>
<path d="M212.224 92.2028C209.465 93.0953 207.843 92.5273 205.165 92.2839C202.082 91.9594 200.865 93.5009 199.811 94.8802C198.35 95.6104 194.537 98.1256 193.563 98.2879C192.833 98.4501 195.673 99.4238 197.782 99.8294C210.926 105.184 220.824 89.6065 223.907 85.5498C224.232 85.1441 218.634 90.1744 212.224 92.2028Z" fill="#FDB125"/>
<path opacity="0.5" d="M204.192 99.3426C205.581 99.3426 206.707 98.2165 206.707 96.8274C206.707 95.4383 205.581 94.3123 204.192 94.3123C202.803 94.3123 201.677 95.4383 201.677 96.8274C201.677 98.2165 202.803 99.3426 204.192 99.3426Z" fill="white"/>
<path opacity="0.4" d="M241.919 70.2153C239.648 87.4158 223.826 102.831 207.437 106.401C204.03 107.131 200.46 107.294 197.052 106.888C198.107 108.105 199.324 109.322 200.622 110.377C213.035 120.438 231.372 118.571 241.433 106.158C250.114 95.5293 249.952 80.6005 241.919 70.2153Z" fill="#FADCCB"/>
<path opacity="0.7" d="M214.09 111.675C215.713 110.052 217.336 109.241 218.958 108.43C213.928 109.403 209.303 111.999 204.516 112.973C212.062 117.273 221.068 117.922 228.938 115.001C233.644 109.809 236.97 102.994 238.431 96.1782C231.94 102.75 224.638 111.675 214.09 111.675Z" fill="#FADCCB"/>
<path opacity="0.5" d="M215.35 82.4643C220.265 76.8212 220.716 69.1689 216.357 65.3724C211.998 61.5758 204.48 63.0727 199.565 68.7157C194.65 74.3588 194.199 82.0111 198.558 85.8076C202.917 89.6042 210.435 88.1073 215.35 82.4643Z" fill="white"/>
<path opacity="0.2" d="M238.918 108.988C247.092 100.813 249.07 89.5372 243.335 83.8022C237.6 78.0673 226.324 80.0451 218.15 88.2197C209.975 96.3944 207.997 107.67 213.732 113.405C219.467 119.14 230.743 117.162 238.918 108.988Z" fill="#9B3B17"/>
<path opacity="0.5" d="M195.997 87.8215C197.376 79.5458 201.109 71.838 207.518 66.3209C213.198 61.3717 222.69 60.7226 229.911 60.966C218.39 56.2602 204.678 59.3433 196.403 69.5662C186.748 81.493 188.046 98.7746 199.161 109.079C195.835 102.02 194.942 93.9877 195.997 87.8215Z" fill="white"/>
<circle cx="152.433" cy="13.4327" r="7.43256" transform="rotate(-90 152.433 13.4327)" fill="url(#paint5_radial)"/>
<circle cx="28.4326" cy="83.4327" r="7.43256" transform="rotate(-90 28.4326 83.4327)" fill="url(#paint6_radial)"/>
<path d="M38.4 47.325C38.4 45.775 38.4 44.825 38.4 43.325H32.775V39.5H39.125C39.125 38 39.125 36.975 39.125 35.5C35.55 35.5 31.8 35.5 28.225 35.5V53C29.75 53 31.275 53 32.775 53V47.325H38.4ZM55.1805 46.8C59.6055 43.8 58.3555 35.525 51.4805 35.5C48.9305 35.5 46.3305 35.5 43.8055 35.5C43.8055 41.35 43.8055 47.175 43.8055 53C45.2555 53 46.7805 53 48.2805 53V47.85H50.6055L53.6055 53H58.6055V52.35L55.1805 46.8ZM51.4805 43.825H48.2805C48.2805 42.425 48.2805 40.925 48.2805 39.5C49.3305 39.5 50.4305 39.475 51.4805 39.5C54.0305 39.525 53.9055 43.825 51.4805 43.825ZM79.4359 44.275C79.4359 32.175 61.4859 32.175 61.4859 44.275C61.4859 56.4 79.4359 56.4 79.4359 44.275ZM66.0859 44.275C66.0859 37.975 74.8609 37.975 74.8609 44.275C74.8609 50.625 66.0859 50.625 66.0859 44.275ZM97.5002 53.025H99.1002V35.5C97.5752 35.5 96.0502 35.5 94.5252 35.5V44.075L85.6752 35.425H84.0502V53C85.5752 53 87.1252 53 88.6752 53V44.4L97.5002 53.025ZM107.382 39.5V53C108.857 53 110.332 53 111.807 53V39.5H116.082C116.082 38.15 116.082 36.825 116.082 35.5H103.082C103.082 36.825 103.082 38.15 103.082 39.5H107.382ZM131.02 35.5C126.92 35.5 124.145 35.5 120.095 35.5C120.095 41.3 120.095 47.15 120.095 53C124.145 53 127.145 53 131.245 53C131.245 51.675 131.245 50.325 131.245 49.025C128.62 49.025 127.12 49.025 124.545 49.025C124.545 47.975 124.545 46.975 124.545 45.95H130.495C130.495 44.625 130.495 43.3 130.495 41.975H124.545V39.5C127.12 39.5 128.42 39.5 131.02 39.5C131.02 38.15 131.02 36.8 131.02 35.5ZM149.785 53.025H151.385V35.5C149.86 35.5 148.335 35.5 146.81 35.5V44.075L137.96 35.425H136.335V53C137.86 53 139.41 53 140.96 53V44.4L149.785 53.025ZM163.692 35.5H157.092V53H163.692C175.092 52.95 175.092 35.55 163.692 35.5ZM161.567 39.575H163.692C169.267 39.575 169.267 48.925 163.692 48.925H161.567V39.575Z" fill="#FF77CF"/>
<path d="M36.4 47.325C36.4 45.775 36.4 44.825 36.4 43.325H30.775V39.5H37.125C37.125 38 37.125 36.975 37.125 35.5C33.55 35.5 29.8 35.5 26.225 35.5V53C27.75 53 29.275 53 30.775 53V47.325H36.4ZM53.1805 46.8C57.6055 43.8 56.3555 35.525 49.4805 35.5C46.9305 35.5 44.3305 35.5 41.8055 35.5C41.8055 41.35 41.8055 47.175 41.8055 53C43.2555 53 44.7805 53 46.2805 53V47.85H48.6055L51.6055 53H56.6055V52.35L53.1805 46.8ZM49.4805 43.825H46.2805C46.2805 42.425 46.2805 40.925 46.2805 39.5C47.3305 39.5 48.4305 39.475 49.4805 39.5C52.0305 39.525 51.9055 43.825 49.4805 43.825ZM77.4359 44.275C77.4359 32.175 59.4859 32.175 59.4859 44.275C59.4859 56.4 77.4359 56.4 77.4359 44.275ZM64.0859 44.275C64.0859 37.975 72.8609 37.975 72.8609 44.275C72.8609 50.625 64.0859 50.625 64.0859 44.275ZM95.5002 53.025H97.1002V35.5C95.5752 35.5 94.0502 35.5 92.5252 35.5V44.075L83.6752 35.425H82.0502V53C83.5752 53 85.1252 53 86.6752 53V44.4L95.5002 53.025ZM105.382 39.5V53C106.857 53 108.332 53 109.807 53V39.5H114.082C114.082 38.15 114.082 36.825 114.082 35.5H101.082C101.082 36.825 101.082 38.15 101.082 39.5H105.382ZM129.02 35.5C124.92 35.5 122.145 35.5 118.095 35.5C118.095 41.3 118.095 47.15 118.095 53C122.145 53 125.145 53 129.245 53C129.245 51.675 129.245 50.325 129.245 49.025C126.62 49.025 125.12 49.025 122.545 49.025C122.545 47.975 122.545 46.975 122.545 45.95H128.495C128.495 44.625 128.495 43.3 128.495 41.975H122.545V39.5C125.12 39.5 126.42 39.5 129.02 39.5C129.02 38.15 129.02 36.8 129.02 35.5ZM147.785 53.025H149.385V35.5C147.86 35.5 146.335 35.5 144.81 35.5V44.075L135.96 35.425H134.335V53C135.86 53 137.41 53 138.96 53V44.4L147.785 53.025ZM161.692 35.5H155.092V53H161.692C173.092 52.95 173.092 35.55 161.692 35.5ZM159.567 39.575H161.692C167.267 39.575 167.267 48.925 161.692 48.925H159.567V39.575Z" fill="white"/>
<path d="M0 99.9845H260C208.5 86.5034 197 95.3388 131 88.8051C93.8 85.1225 46.5 94.9845 0 99.9845Z" fill="white"/>
</g>
<defs>
<filter id="filter0_d" x="-30" y="-10" width="310" height="156" filterUnits="userSpaceOnUse" color-interpolation-filters="sRGB">
<feFlood flood-opacity="0" result="BackgroundImageFix"/>
<feColorMatrix in="SourceAlpha" type="matrix" values="0 0 0 0 0 0 0 0 0 0 0 0 0 0 0 0 0 0 127 0"/>
<feOffset dx="-5" dy="15"/>
<feGaussianBlur stdDeviation="12.5"/>
<feColorMatrix type="matrix" values="0 0 0 0 0 0 0 0 0 0 0 0 0 0 0 0 0 0 0.15 0"/>
<feBlend mode="normal" in2="BackgroundImageFix" result="effect1_dropShadow"/>
<feBlend mode="normal" in="SourceGraphic" in2="effect1_dropShadow" result="shape"/>
</filter>
<linearGradient id="paint0_linear" x1="130" y1="0" x2="130" y2="106" gradientUnits="userSpaceOnUse">
<stop stop-color="#FDC3F1"/>
<stop offset="1" stop-color="#FFE4DD"/>
</linearGradient>
<linearGradient id="paint1_linear" x1="260" y1="0" x2="-1.72175e-05" y2="106" gradientUnits="userSpaceOnUse">
<stop offset="0.0223687" stop-color="#376A99"/>
<stop offset="0.536458" stop-color="#1F2666"/>
<stop offset="1" stop-color="#0C1249"/>
</linearGradient>
<linearGradient id="paint2_linear" x1="227.72" y1="5.43936" x2="201.087" y2="62.5543" gradientUnits="userSpaceOnUse">
<stop offset="0.228775" stop-color="#00F0FF" stop-opacity="0"/>
<stop offset="1" stop-color="#FF63CE"/>
</linearGradient>
<linearGradient id="paint3_linear" x1="240.72" y1="11.8778" x2="225.967" y2="43.5159" gradientUnits="userSpaceOnUse">
<stop offset="0.228775" stop-color="white" stop-opacity="0"/>
<stop offset="1" stop-color="white"/>
</linearGradient>
<linearGradient id="paint4_linear" x1="208.313" y1="7.7193" x2="195.687" y2="34.7959" gradientUnits="userSpaceOnUse">
<stop offset="0.228775" stop-color="white" stop-opacity="0"/>
<stop offset="1" stop-color="white"/>
</linearGradient>
<radialGradient id="paint5_radial" cx="0" cy="0" r="1" gradientUnits="userSpaceOnUse" gradientTransform="translate(152.433 13.4327) rotate(90) scale(7.43256)">
<stop stop-color="white" stop-opacity="0.52"/>
<stop offset="0.395833" stop-color="white" stop-opacity="0.14"/>
<stop offset="0.677083" stop-color="white" stop-opacity="0"/>
</radialGradient>
<radialGradient id="paint6_radial" cx="0" cy="0" r="1" gradientUnits="userSpaceOnUse" gradientTransform="translate(28.4326 83.4327) rotate(90) scale(7.43256)">
<stop stop-color="white" stop-opacity="0.52"/>
<stop offset="0.395833" stop-color="white" stop-opacity="0.14"/>
<stop offset="0.677083" stop-color="white" stop-opacity="0"/>
</radialGradient>
<clipPath id="clip0">
<rect width="260" height="100" fill="white"/>
</clipPath>
</defs>
</svg>
