<svg width="260" height="135" viewBox="0 0 260 135" fill="none" xmlns="http://www.w3.org/2000/svg">
<g clip-path="url(#clip0)">
<rect width="260" height="135" fill="url(#paint0_linear)"/>
<path d="M237.155 83.914C249.613 68.5612 247.267 46.0159 231.914 33.5577C216.561 21.0995 194.016 23.446 181.558 38.7988C169.099 54.1516 171.446 76.6969 186.799 89.1551C202.151 101.613 224.697 99.2668 237.155 83.914Z" fill="#8DEC60"/>
<path d="M177.302 56.131C179.502 56.831 176.902 49.231 180.302 49.931C178.302 54.731 180.902 60.231 184.902 60.231C188.902 60.231 189.902 57.431 190.602 58.831C192.602 60.831 192.002 63.631 191.302 65.631C189.802 71.531 193.402 70.831 194.702 74.231C196.102 77.931 197.502 84.831 199.502 88.331C200.202 89.531 202.102 89.231 202.302 87.831C202.902 83.631 203.502 81.431 205.602 76.631C207.502 72.231 208.302 68.431 207.002 64.331C205.002 59.531 192.702 65.731 194.102 58.231C194.802 56.231 196.502 51.631 192.102 51.231C188.402 50.931 192.102 57.531 188.002 55.531C184.702 52.831 187.202 48.831 189.902 46.831C190.002 46.731 190.102 46.731 190.202 46.631C192.902 45.431 196.202 46.631 198.902 44.631C200.902 43.231 197.502 39.131 198.902 38.531C200.902 35.831 205.002 35.831 203.702 31.031C203.302 29.731 202.002 28.731 200.802 27.631C200.402 27.331 199.902 27.131 199.402 27.331C189.702 30.231 181.702 37.131 177.402 46.131C177.302 46.331 177.202 46.631 177.302 46.931C177.402 49.331 175.202 55.531 177.302 56.131Z" fill="#74E86B"/>
<path d="M231.702 33.931C231.002 34.031 230.202 34.031 229.502 33.931C228.502 33.831 227.702 34.731 227.902 35.631C228.402 38.131 228.402 40.531 225.502 41.931C224.602 42.331 224.302 43.531 225.002 44.231C225.102 44.331 225.302 44.431 225.402 44.431C228.802 45.831 230.902 49.231 229.502 50.531C227.502 53.131 225.802 53.731 225.102 55.931C224.702 57.131 225.902 58.131 227.102 57.731C230.402 56.431 233.902 55.531 236.702 52.931C236.902 52.731 237.102 52.431 237.102 52.131C237.202 51.731 237.402 51.231 237.502 50.731C237.802 49.831 238.802 49.431 239.602 49.831C239.802 49.931 239.902 50.031 240.102 50.131C240.302 50.331 240.502 50.531 240.602 50.731C242.902 56.531 235.602 57.931 231.602 60.631C227.902 63.131 233.302 68.531 234.202 73.531C234.402 74.331 235.202 74.931 236.002 74.631C237.602 74.131 238.902 73.131 240.302 72.231C241.202 71.631 242.402 72.031 242.602 73.131C242.702 73.431 242.802 73.831 242.902 74.131C244.502 70.131 245.302 65.731 245.302 61.231C245.302 50.431 240.502 40.731 232.902 34.231C232.502 34.031 232.102 33.931 231.702 33.931Z" fill="#74E86B"/>
<path opacity="0.26" d="M234.097 87.4124C244.172 77.337 246.61 63.4391 239.541 56.3707C232.473 49.3023 218.575 51.7399 208.5 61.8154C198.424 71.8908 195.987 85.7886 203.055 92.8571C210.123 99.9255 224.021 97.4878 234.097 87.4124Z" fill="#247D2D"/>
<path opacity="0.26" d="M234.062 87.3553C240.115 81.3022 241.952 73.3244 238.163 69.5364C234.375 65.7483 226.398 67.5845 220.345 73.6376C214.292 79.6906 212.455 87.6684 216.243 91.4565C220.031 95.2445 228.009 93.4084 234.062 87.3553Z" fill="#247D2D"/>
<path opacity="0.2" d="M181.202 61.3302C182.902 51.1302 187.502 41.6302 195.402 34.8302C202.402 28.7302 214.102 27.9302 223.002 28.2302C208.802 22.4302 191.902 26.2302 181.702 38.8302C169.802 53.5302 171.402 74.8302 185.102 87.5302C181.002 78.8302 179.902 68.9302 181.202 61.3302Z" fill="white"/>
<path d="M-4 100H268C218.831 93.0994 181.169 76.2729 112.646 88.1593C74.1824 94.8316 40.9846 59.0122 -4 100Z" fill="#F8FBFF"/>
<rect x="-7" y="99" width="275" height="62" fill="#F8FBFF"/>
<path d="M159.866 13.4327C159.866 9.32779 156.538 6.00012 152.433 6.00012C148.328 6.00012 145 9.32779 145 13.4327C145 17.5376 148.328 20.8652 152.433 20.8652C156.538 20.8652 159.866 17.5376 159.866 13.4327Z" fill="url(#paint1_radial)"/>
<path d="M42.8 35.4998C41.275 35.4998 39.75 35.4998 38.225 35.4998V41.8498H32.825V35.4998C31.3 35.4998 29.75 35.4998 28.25 35.4998V52.9998C29.75 52.9998 31.3 52.9998 32.825 52.9998V45.9748H38.225V52.9998C39.75 52.9998 41.275 52.9998 42.8 52.9998V35.4998ZM59.868 46.7998C64.293 43.7998 63.043 35.5248 56.168 35.4998C53.618 35.4998 51.018 35.4998 48.493 35.4998C48.493 41.3498 48.493 47.1748 48.493 52.9998C49.943 52.9998 51.468 52.9998 52.968 52.9998V47.8498H55.293L58.293 52.9998H63.293V52.3498L59.868 46.7998ZM56.168 43.8748H52.968C52.968 42.4748 52.968 40.9248 52.968 39.4998C54.018 39.4998 55.118 39.4748 56.168 39.4998C58.718 39.5248 58.593 43.8748 56.168 43.8748ZM80.5832 49.0748V39.3998H82.6332C82.6332 37.8998 82.6332 36.9748 82.6332 35.4998C79.7832 35.4998 76.9582 35.4998 74.1082 35.4998C74.1082 36.9748 74.1082 37.8998 74.1082 39.3998H76.1582V49.0748H73.9332C73.9332 50.5498 73.9332 51.4748 73.9332 52.9998C76.9082 52.9998 79.8332 52.9998 82.8082 52.9998C82.8082 51.4748 82.8082 50.5498 82.8082 49.0748H80.5832ZM100.435 53.0248H102.035V35.4998C100.51 35.4998 98.9848 35.4998 97.4598 35.4998V44.0748L88.6098 35.4248H86.9848V52.9998C88.5098 52.9998 90.0598 52.9998 91.6098 52.9998V44.3998L100.435 53.0248ZM121.076 49.0748V39.3998H123.126V35.4998H114.601V39.3998H116.651V49.0748H114.426V52.9998H123.301V49.0748H121.076ZM130.053 39.4998V52.9998C131.528 52.9998 133.003 52.9998 134.478 52.9998V39.4998H138.753C138.753 38.1498 138.753 36.8248 138.753 35.4998H125.753C125.753 36.8248 125.753 38.1498 125.753 39.4998H130.053Z" fill="#FF77CF"/>
<path d="M40.8 35.4998C39.275 35.4998 37.75 35.4998 36.225 35.4998V41.8498H30.825V35.4998C29.3 35.4998 27.75 35.4998 26.25 35.4998V52.9998C27.75 52.9998 29.3 52.9998 30.825 52.9998V45.9748H36.225V52.9998C37.75 52.9998 39.275 52.9998 40.8 52.9998V35.4998ZM57.868 46.7998C62.293 43.7998 61.043 35.5248 54.168 35.4998C51.618 35.4998 49.018 35.4998 46.493 35.4998C46.493 41.3498 46.493 47.1748 46.493 52.9998C47.943 52.9998 49.468 52.9998 50.968 52.9998V47.8498H53.293L56.293 52.9998H61.293V52.3498L57.868 46.7998ZM54.168 43.8748H50.968C50.968 42.4748 50.968 40.9248 50.968 39.4998C52.018 39.4998 53.118 39.4748 54.168 39.4998C56.718 39.5248 56.593 43.8748 54.168 43.8748ZM78.5832 49.0748V39.3998H80.6332C80.6332 37.8998 80.6332 36.9748 80.6332 35.4998C77.7832 35.4998 74.9582 35.4998 72.1082 35.4998C72.1082 36.9748 72.1082 37.8998 72.1082 39.3998H74.1582V49.0748H71.9332C71.9332 50.5498 71.9332 51.4748 71.9332 52.9998C74.9082 52.9998 77.8332 52.9998 80.8082 52.9998C80.8082 51.4748 80.8082 50.5498 80.8082 49.0748H78.5832ZM98.4348 53.0248H100.035V35.4998C98.5098 35.4998 96.9848 35.4998 95.4598 35.4998V44.0748L86.6098 35.4248H84.9848V52.9998C86.5098 52.9998 88.0598 52.9998 89.6098 52.9998V44.3998L98.4348 53.0248ZM119.076 49.0748V39.3998H121.126V35.4998H112.601V39.3998H114.651V49.0748H112.426V52.9998H121.301V49.0748H119.076ZM128.053 39.4998V52.9998C129.528 52.9998 131.003 52.9998 132.478 52.9998V39.4998H136.753C136.753 38.1498 136.753 36.8248 136.753 35.4998H123.753C123.753 36.8248 123.753 38.1498 123.753 39.4998H128.053Z" fill="white"/>
</g>
<defs>
<linearGradient id="paint0_linear" x1="260" y1="-9.86851e-06" x2="-15.0321" y2="88.0416" gradientUnits="userSpaceOnUse">
<stop offset="0.0223687" stop-color="#376A99"/>
<stop offset="0.536458" stop-color="#1F2666"/>
<stop offset="1" stop-color="#0C1249"/>
</linearGradient>
<radialGradient id="paint1_radial" cx="0" cy="0" r="1" gradientUnits="userSpaceOnUse" gradientTransform="translate(152.433 13.4327) scale(7.43256)">
<stop stop-color="white" stop-opacity="0.52"/>
<stop offset="0.395833" stop-color="white" stop-opacity="0.14"/>
<stop offset="0.677083" stop-color="white" stop-opacity="0"/>
</radialGradient>
<clipPath id="clip0">
<rect width="260" height="135" fill="white"/>
</clipPath>
</defs>
</svg>
