<svg width="260" height="100" viewBox="0 0 260 100" fill="none" xmlns="http://www.w3.org/2000/svg">
<g clip-path="url(#clip0)">
<g filter="url(#filter0_d)">
<path d="M0 15C0 6.71573 6.71573 0 15 0H245C253.284 0 260 6.71573 260 15V106H0V15Z" fill="url(#paint0_linear)"/>
<path d="M0 15C0 6.71573 6.71573 0 15 0H245C253.284 0 260 6.71573 260 15V106H0V15Z" fill="url(#paint1_linear)"/>
</g>
<path d="M237.155 83.9139C249.613 68.5611 247.267 46.0158 231.914 33.5576C216.561 21.0994 194.016 23.4459 181.558 38.7987C169.099 54.1515 171.446 76.6968 186.799 89.155C202.151 101.613 224.697 99.2667 237.155 83.9139Z" fill="#8DEC60"/>
<path d="M177.302 56.1312C179.502 56.8312 176.902 49.2312 180.302 49.9312C178.302 54.7312 180.902 60.2312 184.902 60.2312C188.902 60.2312 189.902 57.4312 190.602 58.8312C192.602 60.8312 192.002 63.6312 191.302 65.6312C189.802 71.5312 193.402 70.8312 194.702 74.2312C196.102 77.9312 197.502 84.8312 199.502 88.3312C200.202 89.5312 202.102 89.2312 202.302 87.8312C202.902 83.6312 203.502 81.4312 205.602 76.6312C207.502 72.2312 208.302 68.4312 207.002 64.3312C205.002 59.5312 192.702 65.7312 194.102 58.2312C194.802 56.2312 196.502 51.6312 192.102 51.2312C188.402 50.9312 192.102 57.5312 188.002 55.5312C184.702 52.8312 187.202 48.8312 189.902 46.8312C190.002 46.7312 190.102 46.7312 190.202 46.6312C192.902 45.4312 196.202 46.6312 198.902 44.6312C200.902 43.2312 197.502 39.1312 198.902 38.5312C200.902 35.8312 205.002 35.8312 203.702 31.0312C203.302 29.7312 202.002 28.7312 200.802 27.6312C200.402 27.3312 199.902 27.1312 199.402 27.3312C189.702 30.2312 181.702 37.1312 177.402 46.1312C177.302 46.3312 177.202 46.6312 177.302 46.9312C177.402 49.3312 175.202 55.5312 177.302 56.1312Z" fill="#74E86B"/>
<path d="M231.702 33.9312C231.002 34.0312 230.202 34.0312 229.502 33.9312C228.502 33.8312 227.702 34.7312 227.902 35.6312C228.402 38.1312 228.402 40.5312 225.502 41.9312C224.602 42.3312 224.302 43.5312 225.002 44.2312C225.102 44.3312 225.302 44.4312 225.402 44.4312C228.802 45.8312 230.902 49.2312 229.502 50.5312C227.502 53.1312 225.802 53.7312 225.102 55.9312C224.702 57.1312 225.902 58.1312 227.102 57.7312C230.402 56.4312 233.902 55.5312 236.702 52.9312C236.902 52.7312 237.102 52.4312 237.102 52.1312C237.202 51.7312 237.402 51.2312 237.502 50.7312C237.802 49.8312 238.802 49.4312 239.602 49.8312C239.802 49.9312 239.902 50.0312 240.102 50.1312C240.302 50.3312 240.502 50.5312 240.602 50.7312C242.902 56.5312 235.602 57.9312 231.602 60.6312C227.902 63.1312 233.302 68.5312 234.202 73.5312C234.402 74.3312 235.202 74.9312 236.002 74.6312C237.602 74.1312 238.902 73.1312 240.302 72.2312C241.202 71.6312 242.402 72.0312 242.602 73.1312C242.702 73.4312 242.802 73.8312 242.902 74.1312C244.502 70.1312 245.302 65.7312 245.302 61.2312C245.302 50.4312 240.502 40.7312 232.902 34.2312C232.502 34.0312 232.102 33.9312 231.702 33.9312Z" fill="#74E86B"/>
<path opacity="0.26" d="M234.097 87.4122C244.172 77.3368 246.61 63.4389 239.541 56.3705C232.473 49.3021 218.575 51.7397 208.5 61.8152C198.424 71.8906 195.987 85.7884 203.055 92.8569C210.123 99.9253 224.021 97.4876 234.097 87.4122Z" fill="#247D2D"/>
<path opacity="0.26" d="M234.062 87.3551C240.115 81.302 241.952 73.3242 238.163 69.5362C234.375 65.7481 226.398 67.5843 220.345 73.6374C214.292 79.6904 212.455 87.6682 216.243 91.4563C220.031 95.2443 228.009 93.4082 234.062 87.3551Z" fill="#247D2D"/>
<path opacity="0.2" d="M181.202 61.3304C182.902 51.1304 187.502 41.6304 195.402 34.8304C202.402 28.7304 214.102 27.9304 223.002 28.2304C208.802 22.4304 191.902 26.2304 181.702 38.8304C169.802 53.5304 171.402 74.8304 185.102 87.5304C181.002 78.8304 179.902 68.9304 181.202 61.3304Z" fill="white"/>
<path d="M0 100.242H260C213 93.2579 177 76.2277 111.5 88.258C74.7332 95.011 43 58.758 0 100.242Z" fill="white"/>
<circle cx="152.433" cy="13.4327" r="7.43256" transform="rotate(-90 152.433 13.4327)" fill="url(#paint2_radial)"/>
<path d="M42.8 35.5C41.275 35.5 39.75 35.5 38.225 35.5V41.85H32.825V35.5C31.3 35.5 29.75 35.5 28.25 35.5V53C29.75 53 31.3 53 32.825 53V45.975H38.225V53C39.75 53 41.275 53 42.8 53V35.5ZM59.868 46.8C64.293 43.8 63.043 35.525 56.168 35.5C53.618 35.5 51.018 35.5 48.493 35.5C48.493 41.35 48.493 47.175 48.493 53C49.943 53 51.468 53 52.968 53V47.85H55.293L58.293 53H63.293V52.35L59.868 46.8ZM56.168 43.875H52.968C52.968 42.475 52.968 40.925 52.968 39.5C54.018 39.5 55.118 39.475 56.168 39.5C58.718 39.525 58.593 43.875 56.168 43.875ZM80.5832 49.075V39.4H82.6332C82.6332 37.9 82.6332 36.975 82.6332 35.5C79.7832 35.5 76.9582 35.5 74.1082 35.5C74.1082 36.975 74.1082 37.9 74.1082 39.4H76.1582V49.075H73.9332C73.9332 50.55 73.9332 51.475 73.9332 53C76.9082 53 79.8332 53 82.8082 53C82.8082 51.475 82.8082 50.55 82.8082 49.075H80.5832ZM100.435 53.025H102.035V35.5C100.51 35.5 98.9848 35.5 97.4598 35.5V44.075L88.6098 35.425H86.9848V53C88.5098 53 90.0598 53 91.6098 53V44.4L100.435 53.025ZM121.076 49.075V39.4H123.126V35.5H114.601V39.4H116.651V49.075H114.426V53H123.301V49.075H121.076ZM130.053 39.5V53C131.528 53 133.003 53 134.478 53V39.5H138.753C138.753 38.15 138.753 36.825 138.753 35.5H125.753C125.753 36.825 125.753 38.15 125.753 39.5H130.053Z" fill="#FF77CF"/>
<path d="M40.8 35.5C39.275 35.5 37.75 35.5 36.225 35.5V41.85H30.825V35.5C29.3 35.5 27.75 35.5 26.25 35.5V53C27.75 53 29.3 53 30.825 53V45.975H36.225V53C37.75 53 39.275 53 40.8 53V35.5ZM57.868 46.8C62.293 43.8 61.043 35.525 54.168 35.5C51.618 35.5 49.018 35.5 46.493 35.5C46.493 41.35 46.493 47.175 46.493 53C47.943 53 49.468 53 50.968 53V47.85H53.293L56.293 53H61.293V52.35L57.868 46.8ZM54.168 43.875H50.968C50.968 42.475 50.968 40.925 50.968 39.5C52.018 39.5 53.118 39.475 54.168 39.5C56.718 39.525 56.593 43.875 54.168 43.875ZM78.5832 49.075V39.4H80.6332C80.6332 37.9 80.6332 36.975 80.6332 35.5C77.7832 35.5 74.9582 35.5 72.1082 35.5C72.1082 36.975 72.1082 37.9 72.1082 39.4H74.1582V49.075H71.9332C71.9332 50.55 71.9332 51.475 71.9332 53C74.9082 53 77.8332 53 80.8082 53C80.8082 51.475 80.8082 50.55 80.8082 49.075H78.5832ZM98.4348 53.025H100.035V35.5C98.5098 35.5 96.9848 35.5 95.4598 35.5V44.075L86.6098 35.425H84.9848V53C86.5098 53 88.0598 53 89.6098 53V44.4L98.4348 53.025ZM119.076 49.075V39.4H121.126V35.5H112.601V39.4H114.651V49.075H112.426V53H121.301V49.075H119.076ZM128.053 39.5V53C129.528 53 131.003 53 132.478 53V39.5H136.753C136.753 38.15 136.753 36.825 136.753 35.5H123.753C123.753 36.825 123.753 38.15 123.753 39.5H128.053Z" fill="white"/>
</g>
<defs>
<filter id="filter0_d" x="-30" y="-10" width="310" height="156" filterUnits="userSpaceOnUse" color-interpolation-filters="sRGB">
<feFlood flood-opacity="0" result="BackgroundImageFix"/>
<feColorMatrix in="SourceAlpha" type="matrix" values="0 0 0 0 0 0 0 0 0 0 0 0 0 0 0 0 0 0 127 0"/>
<feOffset dx="-5" dy="15"/>
<feGaussianBlur stdDeviation="12.5"/>
<feColorMatrix type="matrix" values="0 0 0 0 0 0 0 0 0 0 0 0 0 0 0 0 0 0 0.15 0"/>
<feBlend mode="normal" in2="BackgroundImageFix" result="effect1_dropShadow"/>
<feBlend mode="normal" in="SourceGraphic" in2="effect1_dropShadow" result="shape"/>
</filter>
<linearGradient id="paint0_linear" x1="130" y1="0" x2="130" y2="106" gradientUnits="userSpaceOnUse">
<stop stop-color="#FDC3F1"/>
<stop offset="1" stop-color="#FFE4DD"/>
</linearGradient>
<linearGradient id="paint1_linear" x1="260" y1="0" x2="-1.72175e-05" y2="106" gradientUnits="userSpaceOnUse">
<stop offset="0.0223687" stop-color="#376A99"/>
<stop offset="0.536458" stop-color="#1F2666"/>
<stop offset="1" stop-color="#0C1249"/>
</linearGradient>
<radialGradient id="paint2_radial" cx="0" cy="0" r="1" gradientUnits="userSpaceOnUse" gradientTransform="translate(152.433 13.4327) rotate(90) scale(7.43256)">
<stop stop-color="white" stop-opacity="0.52"/>
<stop offset="0.395833" stop-color="white" stop-opacity="0.14"/>
<stop offset="0.677083" stop-color="white" stop-opacity="0"/>
</radialGradient>
<clipPath id="clip0">
<rect width="260" height="100" fill="white"/>
</clipPath>
</defs>
</svg>
