<svg width="260" height="135" viewBox="0 0 260 135" fill="none" xmlns="http://www.w3.org/2000/svg">
<g clip-path="url(#clip0)">
<rect width="260" height="135" fill="url(#paint0_linear)"/>
<path d="M186.866 12.4327C186.866 8.32779 183.538 5.00012 179.433 5.00012C175.328 5.00012 172 8.32779 172 12.4327C172 16.5376 175.328 19.8652 179.433 19.8652C183.538 19.8652 186.866 16.5376 186.866 12.4327Z" fill="url(#paint1_radial)"/>
<path d="M26.8652 80.4327C26.8652 76.3278 23.5375 73.0001 19.4326 73.0001C15.3277 73.0001 12.0001 76.3278 12.0001 80.4327C12.0001 84.5376 15.3277 87.8652 19.4326 87.8652C23.5375 87.8652 26.8652 84.5376 26.8652 80.4327Z" fill="url(#paint2_radial)"/>
<path d="M226.77 94.2197C239.964 77.9603 237.479 54.0836 221.22 40.8897C204.96 27.6958 181.084 30.1809 167.89 46.4403C154.696 62.6997 157.181 86.5764 173.44 99.7703C189.7 112.964 213.576 110.479 226.77 94.2197Z" fill="#FD2559"/>
<path d="M169.471 46.5339C170.002 49.0362 170.76 53.5101 173.566 54.6475C175.689 55.4816 178.495 54.0409 180.391 53.2068C186.229 50.5528 191.537 46.6856 197.755 44.9415C203.973 43.2733 210.419 44.6382 214.286 50.1737C216.94 53.9651 217.471 60.9413 223.234 60.9413C226.57 60.9413 229.906 59.3489 232.864 57.3015C230.589 51.1594 226.722 45.5481 221.262 41.1501C205.414 28.3351 182.362 30.3067 169.016 45.4723C169.168 45.624 169.396 46.0031 169.471 46.5339Z" fill="#FF5454"/>
<path d="M205.49 51.9937C202.608 50.7805 199.272 51.9937 196.618 53.1312C190.021 55.9368 184.031 60.9415 176.827 62.0031C169.926 62.9888 165.908 58.5908 163.784 52.9795C163.481 53.5103 163.254 54.0411 163.026 54.5719C163.784 55.1027 164.543 55.7851 165.301 56.6192C169.32 61.3206 170.685 68.6001 176.372 71.7849C186.154 77.2445 196.846 59.5766 205.717 57.2259C207.461 56.7709 208.978 56.9226 210.267 57.605C209.054 55.2543 207.841 52.9795 205.49 51.9937Z" fill="#FF5454"/>
<path opacity="0.18" d="M192.743 63.273C199.152 55.9147 199.74 45.936 194.055 40.9849C188.37 36.0338 178.567 37.9853 172.158 45.3436C165.749 52.7019 165.162 62.6806 170.846 67.6317C176.531 72.5828 186.335 70.6313 192.743 63.273Z" fill="white"/>
<path opacity="0.27" d="M223.481 98.0159C234.142 87.3554 236.71 72.6399 229.219 65.1479C221.727 57.656 207.011 60.2246 196.351 70.8851C185.69 81.5456 183.122 96.261 190.613 103.753C198.105 111.245 212.821 108.676 223.481 98.0159Z" fill="#9B1717"/>
<path opacity="0.21" d="M167.424 70.3441C169.244 59.5765 174.097 49.4913 182.438 42.2876C189.869 35.8422 202.305 34.9323 211.708 35.3115C196.618 29.1694 178.722 33.1883 167.955 46.534C155.291 62.1546 157.111 84.7515 171.594 98.1731C167.196 88.8462 166.059 78.3819 167.424 70.3441Z" fill="white"/>
<path d="M40.4499 37.4999H33.3249C33.3249 38.7999 33.3249 40.0999 33.3249 41.4749H35.8749V49.0999C35.8749 50.4999 34.9999 51.1999 33.6999 51.1999C32.3999 51.1999 31.3749 50.4749 31.3749 49.0999V46.8999C29.9749 46.8999 28.5249 46.8999 27.1499 46.8999V49.1749C27.1499 52.9999 30.0999 55.1999 33.6999 55.1999C37.2999 55.1999 40.4499 52.9999 40.4499 49.1749V37.4999ZM57.1526 54.9999H61.5276V54.3499L53.6276 37.2749H51.7026L43.8276 54.3499V54.9999H48.2026L49.2276 52.7999H56.1276L57.1526 54.9999ZM54.6776 48.9749H50.6776L52.6526 44.3749L54.6776 48.9749ZM66.1577 37.4999H61.8577V38.1749L69.3577 55.1999H71.2577L78.6827 38.1749V37.4999H74.3827L70.3827 47.3999H70.2577L66.1577 37.4999ZM92.0745 54.9999H96.4495V54.3499L88.5495 37.2749H86.6245L78.7495 54.3499V54.9999H83.1245L84.1495 52.7999H91.0495L92.0745 54.9999ZM89.5995 48.9749H85.5995L87.5745 44.3749L89.5995 48.9749Z" fill="#FF77CF"/>
<path d="M38.4499 37.4999H31.3249C31.3249 38.7999 31.3249 40.0999 31.3249 41.4749H33.8749V49.0999C33.8749 50.4999 32.9999 51.1999 31.6999 51.1999C30.3999 51.1999 29.3749 50.4749 29.3749 49.0999V46.8999C27.9749 46.8999 26.5249 46.8999 25.1499 46.8999V49.1749C25.1499 52.9999 28.0999 55.1999 31.6999 55.1999C35.2999 55.1999 38.4499 52.9999 38.4499 49.1749V37.4999ZM55.1526 54.9999H59.5276V54.3499L51.6276 37.2749H49.7026L41.8276 54.3499V54.9999H46.2026L47.2276 52.7999H54.1276L55.1526 54.9999ZM52.6776 48.9749H48.6776L50.6526 44.3749L52.6776 48.9749ZM64.1577 37.4999H59.8577V38.1749L67.3577 55.1999H69.2577L76.6827 38.1749V37.4999H72.3827L68.3827 47.3999H68.2577L64.1577 37.4999ZM90.0745 54.9999H94.4495V54.3499L86.5495 37.2749H84.6245L76.7495 54.3499V54.9999H81.1245L82.1495 52.7999H89.0495L90.0745 54.9999ZM87.5995 48.9749H83.5995L85.5745 44.3749L87.5995 48.9749Z" fill="white"/>
<path d="M-7 101H265C211.123 72.0622 197.342 106.048 130.046 89.6428C74.6 76.126 41.6462 95.9205 -7 101Z" fill="#F8FBFF"/>
<rect x="-15" y="100" width="275" height="62" fill="#F8FBFF"/>
</g>
<defs>
<linearGradient id="paint0_linear" x1="260" y1="-9.86851e-06" x2="-15.0321" y2="88.0416" gradientUnits="userSpaceOnUse">
<stop offset="0.0223687" stop-color="#376A99"/>
<stop offset="0.536458" stop-color="#1F2666"/>
<stop offset="1" stop-color="#0C1249"/>
</linearGradient>
<radialGradient id="paint1_radial" cx="0" cy="0" r="1" gradientUnits="userSpaceOnUse" gradientTransform="translate(179.433 12.4327) scale(7.43256)">
<stop stop-color="white" stop-opacity="0.52"/>
<stop offset="0.395833" stop-color="white" stop-opacity="0.14"/>
<stop offset="0.677083" stop-color="white" stop-opacity="0"/>
</radialGradient>
<radialGradient id="paint2_radial" cx="0" cy="0" r="1" gradientUnits="userSpaceOnUse" gradientTransform="translate(19.4326 80.4327) scale(7.43256)">
<stop stop-color="white" stop-opacity="0.52"/>
<stop offset="0.395833" stop-color="white" stop-opacity="0.14"/>
<stop offset="0.677083" stop-color="white" stop-opacity="0"/>
</radialGradient>
<clipPath id="clip0">
<rect width="260" height="135" fill="white"/>
</clipPath>
</defs>
</svg>
