<svg width="260" height="135" viewBox="0 0 260 135" fill="none" xmlns="http://www.w3.org/2000/svg">
<g clip-path="url(#clip0)">
<rect width="260" height="135" fill="url(#paint0_linear)"/>
<g filter="url(#filter0_d)">
<path d="M238.498 88.5021C250.373 73.8677 248.136 52.3774 233.502 40.5021C218.868 28.6269 197.377 30.8636 185.502 45.498C173.627 60.1324 175.864 81.6227 190.498 93.498C205.132 105.373 226.623 103.136 238.498 88.5021Z" fill="#60A9EC"/>
<path d="M181.445 62.0194C183.542 62.6866 181.064 55.4422 184.305 56.1095C182.398 60.6849 184.877 65.9275 188.689 65.9275C192.502 65.9275 193.455 63.2585 194.123 64.593C196.029 66.4994 195.457 69.1684 194.79 71.0748C193.36 76.6988 196.792 76.0315 198.031 79.2724C199.365 82.7993 200.7 89.3764 202.606 92.7126C203.273 93.8565 205.085 93.5705 205.275 92.236C205.847 88.2326 206.419 86.1355 208.421 81.5601C210.232 77.366 210.994 73.7438 209.755 69.8357C207.849 65.2603 196.124 71.1702 197.459 64.0211C198.126 62.1147 199.747 57.7299 195.552 57.3486C192.026 57.0627 195.553 63.3539 191.644 61.4474C188.499 58.8738 190.882 55.0609 193.455 53.1545C193.551 53.0592 193.646 53.0592 193.741 52.9639C196.315 51.82 199.461 52.9639 202.034 51.0575C203.941 49.723 200.7 45.8148 202.034 45.2429C203.941 42.6692 207.849 42.6692 206.61 38.0938C206.228 36.8547 204.989 35.9015 203.845 34.8529C203.464 34.567 202.988 34.3763 202.511 34.567C193.265 37.3313 185.639 43.9084 181.54 52.4873C181.445 52.6779 181.35 52.9639 181.445 53.2498C181.54 55.5375 179.443 61.4474 181.445 62.0194Z" fill="#74E86B"/>
<path d="M233.3 40.8583C232.633 40.9536 231.87 40.9536 231.203 40.8583C230.25 40.763 229.487 41.6209 229.678 42.4788C230.154 44.8618 230.154 47.1495 227.39 48.484C226.532 48.8652 226.246 50.0091 226.913 50.6763C227.009 50.7717 227.199 50.867 227.295 50.867C230.536 52.2015 232.537 55.4424 231.203 56.6816C229.296 59.1599 227.676 59.7318 227.009 61.8289C226.627 62.9727 227.771 63.9259 228.915 63.5446C232.061 62.3055 235.397 61.4476 238.066 58.9692C238.256 58.7786 238.447 58.4926 238.447 58.2067C238.542 57.8254 238.733 57.3488 238.828 56.8722C239.114 56.0143 240.068 55.633 240.83 56.0143C241.021 56.1096 241.116 56.2049 241.307 56.3003C241.497 56.4909 241.688 56.6816 241.783 56.8722C243.976 62.4008 237.017 63.7353 233.204 66.309C229.678 68.692 234.825 73.8393 235.683 78.6053C235.873 79.3679 236.636 79.9398 237.399 79.6539C238.924 79.1773 240.163 78.224 241.497 77.3662C242.355 76.7942 243.499 77.1755 243.69 78.224C243.785 78.51 243.88 78.8913 243.976 79.1773C245.501 75.3644 246.263 71.1703 246.263 66.8809C246.263 56.5862 241.688 47.3401 234.444 41.1443C234.062 40.9536 233.681 40.8583 233.3 40.8583Z" fill="#74E86B"/>
<path opacity="0.26" d="M235.583 91.8366C245.186 82.2327 247.51 68.9852 240.772 62.2475C234.035 55.5098 220.787 57.8334 211.183 67.4374C201.579 77.0414 199.256 90.2889 205.993 97.0265C212.731 103.764 225.979 101.441 235.583 91.8366Z" fill="#24407D"/>
<path opacity="0.26" d="M235.55 91.7823C241.32 86.0125 243.07 78.408 239.459 74.7972C235.849 71.1864 228.244 72.9366 222.474 78.7065C216.704 84.4763 214.954 92.0808 218.565 95.6916C222.176 99.3024 229.78 97.5521 235.55 91.7823Z" fill="#24407D"/>
<path opacity="0.5" d="M185.163 66.9752C186.783 57.2525 191.168 48.197 198.699 41.7152C205.371 35.9006 216.524 35.1381 225.007 35.424C211.472 29.8954 195.362 33.5176 185.64 45.528C174.296 59.5402 175.822 79.8435 188.88 91.9493C184.972 83.6563 183.924 74.2196 185.163 66.9752Z" fill="white"/>
</g>
<path d="M219 27.5C219 25.567 217.433 24 215.5 24C213.567 24 212 25.567 212 27.5C212 29.433 213.567 31 215.5 31C217.433 31 219 29.433 219 27.5Z" fill="url(#paint1_radial)"/>
<path d="M189.866 19.4327C189.866 15.3278 186.538 12.0001 182.433 12.0001C178.328 12.0001 175 15.3278 175 19.4327C175 23.5376 178.328 26.8652 182.433 26.8652C186.538 26.8652 189.866 23.5376 189.866 19.4327Z" fill="url(#paint2_radial)"/>
<path d="M203.866 46.4327C203.866 42.3278 200.538 39.0001 196.433 39.0001C192.328 39.0001 189 42.3278 189 46.4327C189 50.5376 192.328 53.8652 196.433 53.8652C200.538 53.8652 203.866 50.5376 203.866 46.4327Z" fill="url(#paint3_radial)"/>
<path d="M257 26C257 23.2386 254.761 21 252 21C249.239 21 247 23.2386 247 26C247 28.7614 249.239 31 252 31C254.761 31 257 28.7614 257 26Z" fill="url(#paint4_radial)"/>
<path d="M176 40.5C176 38.0147 173.985 36 171.5 36C169.015 36 167 38.0147 167 40.5C167 42.9853 169.015 45 171.5 45C173.985 45 176 42.9853 176 40.5Z" fill="url(#paint5_radial)"/>
<path d="M35.8651 83.4327C35.8651 79.3278 32.5375 76.0001 28.4326 76.0001C24.3277 76.0001 21 79.3278 21 83.4327C21 87.5376 24.3277 90.8652 28.4326 90.8652C32.5375 90.8652 35.8651 87.5376 35.8651 83.4327Z" fill="url(#paint6_radial)"/>
<path d="M25.824 36.0001V32.7781H28.146C34.176 32.7781 34.176 23.4181 28.146 23.4001C26.292 23.4001 24.42 23.4001 22.602 23.4001C22.602 27.6121 22.602 31.8061 22.602 36.0001C23.664 36.0001 24.744 36.0001 25.824 36.0001ZM28.128 29.8801H25.824C25.824 28.8541 25.824 27.3061 25.824 26.2801C26.562 26.2801 27.372 26.2621 28.128 26.2801C30 26.2981 29.892 29.8801 28.128 29.8801ZM44.172 31.5361C47.358 29.3761 46.458 23.4181 41.508 23.4001C39.672 23.4001 37.8 23.4001 35.982 23.4001C35.982 27.6121 35.982 31.8061 35.982 36.0001C37.026 36.0001 38.124 36.0001 39.204 36.0001V32.2921H40.878L43.038 36.0001H46.638V35.5321L44.172 31.5361ZM41.508 29.3941H39.204C39.204 28.3861 39.204 27.3061 39.204 26.2801C39.96 26.2801 40.752 26.2621 41.508 26.2801C43.344 26.2981 43.254 29.3941 41.508 29.3941ZM61.636 29.7181C61.636 21.0061 48.712 21.0061 48.712 29.7181C48.712 38.4481 61.636 38.4481 61.636 29.7181ZM52.024 29.7181C52.024 25.1821 58.342 25.1821 58.342 29.7181C58.342 34.2901 52.024 34.2901 52.024 29.7181ZM73.7603 23.4001H68.6303C68.6303 24.3361 68.6303 25.2721 68.6303 26.2621H70.4663V31.7521C70.4663 32.7601 69.8363 33.2641 68.9003 33.2641C67.9643 33.2641 67.2263 32.7421 67.2263 31.7521V30.1681C66.2183 30.1681 65.1743 30.1681 64.1843 30.1681V31.8061C64.1843 34.5601 66.3083 36.1441 68.9003 36.1441C71.4923 36.1441 73.7603 34.5601 73.7603 31.8061V23.4001ZM85.6422 23.4001C82.6902 23.4001 80.6922 23.4001 77.7762 23.4001C77.7762 27.5761 77.7762 31.7881 77.7762 36.0001C80.6922 36.0001 82.8522 36.0001 85.8042 36.0001C85.8042 35.0461 85.8042 34.0741 85.8042 33.1381C83.9142 33.1381 82.8342 33.1381 80.9802 33.1381C80.9802 32.3821 80.9802 31.6621 80.9802 30.9241H85.2642C85.2642 29.9701 85.2642 29.0161 85.2642 28.0621H80.9802V26.2801C82.8342 26.2801 83.7702 26.2801 85.6422 26.2801C85.6422 25.3081 85.6422 24.3361 85.6422 23.4001ZM88.7132 29.7001C88.7312 33.9841 91.9712 36.1441 95.1752 36.1261C97.8572 36.1261 100.683 34.7221 101.151 31.1581C100.053 31.1581 99.0632 31.1581 97.9832 31.1581C97.6412 32.5081 96.5432 33.1921 95.1752 33.1921C93.2672 33.1741 92.0432 31.5541 92.0432 29.7001C92.0432 27.6121 93.2852 26.1901 95.1752 26.1901C96.5252 26.1901 97.4792 26.7661 97.9292 28.0441C99.0272 28.0441 99.9992 28.0441 101.097 28.0441C100.611 24.6781 97.7852 23.2561 95.1752 23.2561C91.9712 23.2561 88.7312 25.4161 88.7132 29.7001ZM106.374 26.2801V36.0001C107.436 36.0001 108.498 36.0001 109.56 36.0001V26.2801H112.638C112.638 25.3081 112.638 24.3541 112.638 23.4001H103.278C103.278 24.3541 103.278 25.3081 103.278 26.2801H106.374ZM28.704 46.8361L23.772 41.3641H22.584V54.0001C23.682 54.0001 24.78 54.0001 25.878 54.0001V48.3841L28.542 51.1921H28.902L31.584 48.3841V54.0001C32.682 54.0001 33.78 54.0001 34.878 54.0001V41.3641H33.726L28.704 46.8361ZM46.9983 54.0001H50.1483V53.5321L44.4603 41.2381H43.0743L37.4043 53.5321V54.0001H40.5543L41.2923 52.4161H46.2603L46.9983 54.0001ZM45.1983 49.6441H42.3543L43.7583 46.3321L45.1983 49.6441ZM62.3868 54.0181H63.5388V41.4001C62.4408 41.4001 61.3428 41.4001 60.2448 41.4001V47.5741L53.8728 41.3461H52.7028V54.0001C53.8008 54.0001 54.9168 54.0001 56.0328 54.0001V47.8081L62.3868 54.0181ZM75.6577 54.0001H78.8077V53.5321L73.1197 41.2381H71.7337L66.0637 53.5321V54.0001H69.2137L69.9517 52.4161H74.9197L75.6577 54.0001ZM73.8577 49.6441H71.0137L72.4177 46.3321L73.8577 49.6441ZM80.5882 47.7001C80.6062 52.0021 83.8462 54.1441 87.0502 54.1441C89.3722 54.1441 91.7662 53.1361 92.6662 50.5081C93.0982 49.2841 93.0982 48.0781 93.0262 46.8181H87.0682V49.6081H89.7502C89.1742 50.8141 88.3462 51.1561 87.0502 51.1561C85.1422 51.1561 83.9182 49.7881 83.9182 47.7001C83.9182 45.7741 85.0162 44.1901 87.0502 44.1901C88.3282 44.1901 89.1562 44.6221 89.6782 45.7021H92.8462C92.2342 42.5701 89.5882 41.2561 87.0502 41.2381C83.8462 41.2381 80.6062 43.3981 80.5882 47.7001ZM104.349 41.4001C101.397 41.4001 99.3989 41.4001 96.4829 41.4001C96.4829 45.5761 96.4829 49.7881 96.4829 54.0001C99.3989 54.0001 101.559 54.0001 104.511 54.0001C104.511 53.0461 104.511 52.0741 104.511 51.1381C102.621 51.1381 101.541 51.1381 99.6869 51.1381C99.6869 50.3821 99.6869 49.6621 99.6869 48.9241H103.971C103.971 47.9701 103.971 47.0161 103.971 46.0621H99.6869V44.2801C101.541 44.2801 102.477 44.2801 104.349 44.2801C104.349 43.3081 104.349 42.3361 104.349 41.4001ZM114.278 46.8361L109.346 41.3641H108.158V54.0001C109.256 54.0001 110.354 54.0001 111.452 54.0001V48.3841L114.116 51.1921H114.476L117.158 48.3841V54.0001C118.256 54.0001 119.354 54.0001 120.452 54.0001V41.3641H119.3L114.278 46.8361ZM132.428 41.4001C129.476 41.4001 127.478 41.4001 124.562 41.4001C124.562 45.5761 124.562 49.7881 124.562 54.0001C127.478 54.0001 129.638 54.0001 132.59 54.0001C132.59 53.0461 132.59 52.0741 132.59 51.1381C130.7 51.1381 129.62 51.1381 127.766 51.1381C127.766 50.3821 127.766 49.6621 127.766 48.9241H132.05C132.05 47.9701 132.05 47.0161 132.05 46.0621H127.766V44.2801C129.62 44.2801 130.556 44.2801 132.428 44.2801C132.428 43.3081 132.428 42.3361 132.428 41.4001ZM145.939 54.0181H147.091V41.4001C145.993 41.4001 144.895 41.4001 143.797 41.4001V47.5741L137.425 41.3461H136.255V54.0001C137.353 54.0001 138.469 54.0001 139.585 54.0001V47.8081L145.939 54.0181ZM153.054 44.2801V54.0001C154.116 54.0001 155.178 54.0001 156.24 54.0001V44.2801H159.318C159.318 43.3081 159.318 42.3541 159.318 41.4001H149.958C149.958 42.3541 149.958 43.3081 149.958 44.2801H153.054Z" fill="#FF77CF"/>
<path d="M24.824 36.0001V32.7781H27.146C33.176 32.7781 33.176 23.4181 27.146 23.4001C25.292 23.4001 23.42 23.4001 21.602 23.4001C21.602 27.6121 21.602 31.8061 21.602 36.0001C22.664 36.0001 23.744 36.0001 24.824 36.0001ZM27.128 29.8801H24.824C24.824 28.8541 24.824 27.3061 24.824 26.2801C25.562 26.2801 26.372 26.2621 27.128 26.2801C29 26.2981 28.892 29.8801 27.128 29.8801ZM43.172 31.5361C46.358 29.3761 45.458 23.4181 40.508 23.4001C38.672 23.4001 36.8 23.4001 34.982 23.4001C34.982 27.6121 34.982 31.8061 34.982 36.0001C36.026 36.0001 37.124 36.0001 38.204 36.0001V32.2921H39.878L42.038 36.0001H45.638V35.5321L43.172 31.5361ZM40.508 29.3941H38.204C38.204 28.3861 38.204 27.3061 38.204 26.2801C38.96 26.2801 39.752 26.2621 40.508 26.2801C42.344 26.2981 42.254 29.3941 40.508 29.3941ZM60.636 29.7181C60.636 21.0061 47.712 21.0061 47.712 29.7181C47.712 38.4481 60.636 38.4481 60.636 29.7181ZM51.024 29.7181C51.024 25.1821 57.342 25.1821 57.342 29.7181C57.342 34.2901 51.024 34.2901 51.024 29.7181ZM72.7603 23.4001H67.6303C67.6303 24.3361 67.6303 25.2721 67.6303 26.2621H69.4663V31.7521C69.4663 32.7601 68.8363 33.2641 67.9003 33.2641C66.9643 33.2641 66.2263 32.7421 66.2263 31.7521V30.1681C65.2183 30.1681 64.1743 30.1681 63.1843 30.1681V31.8061C63.1843 34.5601 65.3083 36.1441 67.9003 36.1441C70.4923 36.1441 72.7603 34.5601 72.7603 31.8061V23.4001ZM84.6422 23.4001C81.6902 23.4001 79.6922 23.4001 76.7762 23.4001C76.7762 27.5761 76.7762 31.7881 76.7762 36.0001C79.6922 36.0001 81.8522 36.0001 84.8042 36.0001C84.8042 35.0461 84.8042 34.0741 84.8042 33.1381C82.9142 33.1381 81.8342 33.1381 79.9802 33.1381C79.9802 32.3821 79.9802 31.6621 79.9802 30.9241H84.2642C84.2642 29.9701 84.2642 29.0161 84.2642 28.0621H79.9802V26.2801C81.8342 26.2801 82.7702 26.2801 84.6422 26.2801C84.6422 25.3081 84.6422 24.3361 84.6422 23.4001ZM87.7132 29.7001C87.7312 33.9841 90.9712 36.1441 94.1752 36.1261C96.8572 36.1261 99.6832 34.7221 100.151 31.1581C99.0532 31.1581 98.0632 31.1581 96.9832 31.1581C96.6412 32.5081 95.5432 33.1921 94.1752 33.1921C92.2672 33.1741 91.0432 31.5541 91.0432 29.7001C91.0432 27.6121 92.2852 26.1901 94.1752 26.1901C95.5252 26.1901 96.4792 26.7661 96.9292 28.0441C98.0272 28.0441 98.9992 28.0441 100.097 28.0441C99.6112 24.6781 96.7852 23.2561 94.1752 23.2561C90.9712 23.2561 87.7312 25.4161 87.7132 29.7001ZM105.374 26.2801V36.0001C106.436 36.0001 107.498 36.0001 108.56 36.0001V26.2801H111.638C111.638 25.3081 111.638 24.3541 111.638 23.4001H102.278C102.278 24.3541 102.278 25.3081 102.278 26.2801H105.374ZM27.704 46.8361L22.772 41.3641H21.584V54.0001C22.682 54.0001 23.78 54.0001 24.878 54.0001V48.3841L27.542 51.1921H27.902L30.584 48.3841V54.0001C31.682 54.0001 32.78 54.0001 33.878 54.0001V41.3641H32.726L27.704 46.8361ZM45.9983 54.0001H49.1483V53.5321L43.4603 41.2381H42.0743L36.4043 53.5321V54.0001H39.5543L40.2923 52.4161H45.2603L45.9983 54.0001ZM44.1983 49.6441H41.3543L42.7583 46.3321L44.1983 49.6441ZM61.3868 54.0181H62.5388V41.4001C61.4408 41.4001 60.3428 41.4001 59.2448 41.4001V47.5741L52.8728 41.3461H51.7028V54.0001C52.8008 54.0001 53.9168 54.0001 55.0328 54.0001V47.8081L61.3868 54.0181ZM74.6577 54.0001H77.8077V53.5321L72.1197 41.2381H70.7337L65.0637 53.5321V54.0001H68.2137L68.9517 52.4161H73.9197L74.6577 54.0001ZM72.8577 49.6441H70.0137L71.4177 46.3321L72.8577 49.6441ZM79.5882 47.7001C79.6062 52.0021 82.8462 54.1441 86.0502 54.1441C88.3722 54.1441 90.7662 53.1361 91.6662 50.5081C92.0982 49.2841 92.0982 48.0781 92.0262 46.8181H86.0682V49.6081H88.7502C88.1742 50.8141 87.3462 51.1561 86.0502 51.1561C84.1422 51.1561 82.9182 49.7881 82.9182 47.7001C82.9182 45.7741 84.0162 44.1901 86.0502 44.1901C87.3282 44.1901 88.1562 44.6221 88.6782 45.7021H91.8462C91.2342 42.5701 88.5882 41.2561 86.0502 41.2381C82.8462 41.2381 79.6062 43.3981 79.5882 47.7001ZM103.349 41.4001C100.397 41.4001 98.3989 41.4001 95.4829 41.4001C95.4829 45.5761 95.4829 49.7881 95.4829 54.0001C98.3989 54.0001 100.559 54.0001 103.511 54.0001C103.511 53.0461 103.511 52.0741 103.511 51.1381C101.621 51.1381 100.541 51.1381 98.6869 51.1381C98.6869 50.3821 98.6869 49.6621 98.6869 48.9241H102.971C102.971 47.9701 102.971 47.0161 102.971 46.0621H98.6869V44.2801C100.541 44.2801 101.477 44.2801 103.349 44.2801C103.349 43.3081 103.349 42.3361 103.349 41.4001ZM113.278 46.8361L108.346 41.3641H107.158V54.0001C108.256 54.0001 109.354 54.0001 110.452 54.0001V48.3841L113.116 51.1921H113.476L116.158 48.3841V54.0001C117.256 54.0001 118.354 54.0001 119.452 54.0001V41.3641H118.3L113.278 46.8361ZM131.428 41.4001C128.476 41.4001 126.478 41.4001 123.562 41.4001C123.562 45.5761 123.562 49.7881 123.562 54.0001C126.478 54.0001 128.638 54.0001 131.59 54.0001C131.59 53.0461 131.59 52.0741 131.59 51.1381C129.7 51.1381 128.62 51.1381 126.766 51.1381C126.766 50.3821 126.766 49.6621 126.766 48.9241H131.05C131.05 47.9701 131.05 47.0161 131.05 46.0621H126.766V44.2801C128.62 44.2801 129.556 44.2801 131.428 44.2801C131.428 43.3081 131.428 42.3361 131.428 41.4001ZM144.939 54.0181H146.091V41.4001C144.993 41.4001 143.895 41.4001 142.797 41.4001V47.5741L136.425 41.3461H135.255V54.0001C136.353 54.0001 137.469 54.0001 138.585 54.0001V47.8081L144.939 54.0181ZM152.054 44.2801V54.0001C153.116 54.0001 154.178 54.0001 155.24 54.0001V44.2801H158.318C158.318 43.3081 158.318 42.3541 158.318 41.4001H148.958C148.958 42.3541 148.958 43.3081 148.958 44.2801H152.054Z" fill="white"/>
<path d="M-4 100H264C215.554 93.1224 167.623 93.6148 84.6462 86.2301C46.2803 82.8156 35.6846 86.2299 -4 100Z" fill="#F8FBFF"/>
<rect x="-7" y="99" width="275" height="62" fill="#F8FBFF"/>
</g>
<defs>
<filter id="filter0_d" x="157.875" y="21.8745" width="98.3884" height="98.2509" filterUnits="userSpaceOnUse" color-interpolation-filters="sRGB">
<feFlood flood-opacity="0" result="BackgroundImageFix"/>
<feColorMatrix in="SourceAlpha" type="matrix" values="0 0 0 0 0 0 0 0 0 0 0 0 0 0 0 0 0 0 127 0"/>
<feOffset dx="-5" dy="4"/>
<feGaussianBlur stdDeviation="7.5"/>
<feColorMatrix type="matrix" values="0 0 0 0 0 0 0 0 0 0 0 0 0 0 0 0 0 0 0.25 0"/>
<feBlend mode="normal" in2="BackgroundImageFix" result="effect1_dropShadow"/>
<feBlend mode="normal" in="SourceGraphic" in2="effect1_dropShadow" result="shape"/>
</filter>
<linearGradient id="paint0_linear" x1="260" y1="-9.86851e-06" x2="-15.0321" y2="88.0416" gradientUnits="userSpaceOnUse">
<stop offset="0.0223687" stop-color="#376A99"/>
<stop offset="0.536458" stop-color="#1F2666"/>
<stop offset="1" stop-color="#0C1249"/>
</linearGradient>
<radialGradient id="paint1_radial" cx="0" cy="0" r="1" gradientUnits="userSpaceOnUse" gradientTransform="translate(215.5 27.5) scale(3.5)">
<stop stop-color="white" stop-opacity="0.52"/>
<stop offset="0.395833" stop-color="white" stop-opacity="0.14"/>
<stop offset="0.677083" stop-color="white" stop-opacity="0"/>
</radialGradient>
<radialGradient id="paint2_radial" cx="0" cy="0" r="1" gradientUnits="userSpaceOnUse" gradientTransform="translate(182.433 19.4327) scale(7.43256)">
<stop stop-color="white" stop-opacity="0.52"/>
<stop offset="0.395833" stop-color="white" stop-opacity="0.14"/>
<stop offset="0.677083" stop-color="white" stop-opacity="0"/>
</radialGradient>
<radialGradient id="paint3_radial" cx="0" cy="0" r="1" gradientUnits="userSpaceOnUse" gradientTransform="translate(196.433 46.4327) scale(7.43256)">
<stop stop-color="white" stop-opacity="0.52"/>
<stop offset="0.395833" stop-color="white" stop-opacity="0.14"/>
<stop offset="0.677083" stop-color="white" stop-opacity="0"/>
</radialGradient>
<radialGradient id="paint4_radial" cx="0" cy="0" r="1" gradientUnits="userSpaceOnUse" gradientTransform="translate(252 26) scale(5)">
<stop stop-color="white" stop-opacity="0.52"/>
<stop offset="0.395833" stop-color="white" stop-opacity="0.14"/>
<stop offset="0.677083" stop-color="white" stop-opacity="0"/>
</radialGradient>
<radialGradient id="paint5_radial" cx="0" cy="0" r="1" gradientUnits="userSpaceOnUse" gradientTransform="translate(171.5 40.5) scale(4.5)">
<stop stop-color="white" stop-opacity="0.52"/>
<stop offset="0.395833" stop-color="white" stop-opacity="0.14"/>
<stop offset="0.677083" stop-color="white" stop-opacity="0"/>
</radialGradient>
<radialGradient id="paint6_radial" cx="0" cy="0" r="1" gradientUnits="userSpaceOnUse" gradientTransform="translate(28.4326 83.4327) scale(7.43256)">
<stop stop-color="white" stop-opacity="0.52"/>
<stop offset="0.395833" stop-color="white" stop-opacity="0.14"/>
<stop offset="0.677083" stop-color="white" stop-opacity="0"/>
</radialGradient>
<clipPath id="clip0">
<rect width="260" height="135" fill="white"/>
</clipPath>
</defs>
</svg>
