<svg width="260" height="100" viewBox="0 0 260 100" fill="none" xmlns="http://www.w3.org/2000/svg">
<g clip-path="url(#clip0)">
<g filter="url(#filter0_d)">
<path d="M0 15C0 6.71573 6.71573 0 15 0H245C253.284 0 260 6.71573 260 15V106H0V15Z" fill="url(#paint0_linear)"/>
<path d="M0 15C0 6.71573 6.71573 0 15 0H245C253.284 0 260 6.71573 260 15V106H0V15Z" fill="url(#paint1_linear)"/>
</g>
<g filter="url(#filter1_d)">
<path d="M238.498 88.502C250.373 73.8676 248.136 52.3773 233.502 40.502C218.868 28.6268 197.377 30.8635 185.502 45.4979C173.627 60.1323 175.864 81.6226 190.498 93.4979C205.132 105.373 226.623 103.136 238.498 88.502Z" fill="#60A9EC"/>
<path d="M181.445 62.0194C183.542 62.6866 181.064 55.4422 184.305 56.1095C182.398 60.6849 184.877 65.9275 188.689 65.9275C192.502 65.9275 193.455 63.2585 194.123 64.593C196.029 66.4994 195.457 69.1684 194.79 71.0748C193.36 76.6988 196.792 76.0315 198.031 79.2724C199.365 82.7993 200.7 89.3764 202.606 92.7126C203.273 93.8565 205.085 93.5705 205.275 92.236C205.847 88.2326 206.419 86.1355 208.421 81.5601C210.232 77.366 210.994 73.7438 209.755 69.8357C207.849 65.2603 196.124 71.1702 197.459 64.0211C198.126 62.1147 199.747 57.7299 195.552 57.3486C192.026 57.0627 195.553 63.3539 191.644 61.4474C188.499 58.8738 190.882 55.0609 193.455 53.1545C193.551 53.0592 193.646 53.0592 193.741 52.9639C196.315 51.82 199.461 52.9639 202.034 51.0575C203.941 49.723 200.7 45.8148 202.034 45.2429C203.941 42.6692 207.849 42.6692 206.61 38.0938C206.228 36.8547 204.989 35.9015 203.845 34.8529C203.464 34.567 202.988 34.3763 202.511 34.567C193.265 37.3313 185.639 43.9084 181.54 52.4873C181.445 52.6779 181.35 52.9639 181.445 53.2498C181.54 55.5375 179.443 61.4474 181.445 62.0194Z" fill="#74E86B"/>
<path d="M233.3 40.8581C232.633 40.9534 231.87 40.9534 231.203 40.8581C230.25 40.7628 229.487 41.6207 229.678 42.4786C230.154 44.8616 230.154 47.1493 227.39 48.4838C226.532 48.865 226.246 50.0089 226.913 50.6761C227.009 50.7715 227.199 50.8668 227.295 50.8668C230.536 52.2013 232.537 55.4422 231.203 56.6814C229.296 59.1597 227.676 59.7316 227.009 61.8287C226.627 62.9725 227.771 63.9257 228.915 63.5444C232.061 62.3053 235.397 61.4474 238.066 58.969C238.256 58.7784 238.447 58.4924 238.447 58.2065C238.542 57.8252 238.733 57.3486 238.828 56.872C239.114 56.0141 240.068 55.6328 240.83 56.0141C241.021 56.1094 241.116 56.2047 241.307 56.3001C241.497 56.4907 241.688 56.6814 241.783 56.872C243.976 62.4006 237.017 63.7351 233.204 66.3088C229.678 68.6918 234.825 73.8391 235.683 78.6051C235.873 79.3677 236.636 79.9396 237.399 79.6537C238.924 79.1771 240.163 78.2238 241.497 77.366C242.355 76.794 243.499 77.1753 243.69 78.2238C243.785 78.5098 243.88 78.8911 243.976 79.1771C245.501 75.3642 246.263 71.1701 246.263 66.8807C246.263 56.586 241.688 47.3399 234.444 41.1441C234.062 40.9534 233.681 40.8581 233.3 40.8581Z" fill="#74E86B"/>
<path opacity="0.26" d="M235.583 91.8366C245.186 82.2327 247.51 68.9852 240.772 62.2475C234.035 55.5098 220.787 57.8334 211.183 67.4374C201.579 77.0414 199.256 90.2889 205.993 97.0265C212.731 103.764 225.979 101.441 235.583 91.8366Z" fill="#24407D"/>
<path opacity="0.26" d="M235.55 91.7822C241.32 86.0124 243.07 78.4079 239.459 74.7971C235.849 71.1863 228.244 72.9365 222.474 78.7064C216.704 84.4762 214.954 92.0807 218.565 95.6915C222.176 99.3023 229.78 97.552 235.55 91.7822Z" fill="#24407D"/>
<path opacity="0.5" d="M185.163 66.9752C186.783 57.2525 191.168 48.197 198.699 41.7152C205.371 35.9006 216.524 35.1381 225.007 35.424C211.472 29.8954 195.362 33.5176 185.64 45.528C174.296 59.5402 175.822 79.8435 188.88 91.9493C184.972 83.6563 183.924 74.2196 185.163 66.9752Z" fill="white"/>
</g>
<circle cx="215.5" cy="27.5" r="3.5" transform="rotate(-90 215.5 27.5)" fill="url(#paint2_radial)"/>
<circle cx="182.433" cy="19.4327" r="7.43256" transform="rotate(-90 182.433 19.4327)" fill="url(#paint3_radial)"/>
<circle cx="196.433" cy="46.4327" r="7.43256" transform="rotate(-90 196.433 46.4327)" fill="url(#paint4_radial)"/>
<circle cx="252" cy="26" r="5" transform="rotate(-90 252 26)" fill="url(#paint5_radial)"/>
<circle cx="171.5" cy="40.5" r="4.5" transform="rotate(-90 171.5 40.5)" fill="url(#paint6_radial)"/>
<circle cx="28.4326" cy="83.4327" r="7.43256" transform="rotate(-90 28.4326 83.4327)" fill="url(#paint7_radial)"/>
<path d="M25.824 36V32.778H28.146C34.176 32.778 34.176 23.418 28.146 23.4C26.292 23.4 24.42 23.4 22.602 23.4C22.602 27.612 22.602 31.806 22.602 36C23.664 36 24.744 36 25.824 36ZM28.128 29.88H25.824C25.824 28.854 25.824 27.306 25.824 26.28C26.562 26.28 27.372 26.262 28.128 26.28C30 26.298 29.892 29.88 28.128 29.88ZM44.172 31.536C47.358 29.376 46.458 23.418 41.508 23.4C39.672 23.4 37.8 23.4 35.982 23.4C35.982 27.612 35.982 31.806 35.982 36C37.026 36 38.124 36 39.204 36V32.292H40.878L43.038 36H46.638V35.532L44.172 31.536ZM41.508 29.394H39.204C39.204 28.386 39.204 27.306 39.204 26.28C39.96 26.28 40.752 26.262 41.508 26.28C43.344 26.298 43.254 29.394 41.508 29.394ZM61.636 29.718C61.636 21.006 48.712 21.006 48.712 29.718C48.712 38.448 61.636 38.448 61.636 29.718ZM52.024 29.718C52.024 25.182 58.342 25.182 58.342 29.718C58.342 34.29 52.024 34.29 52.024 29.718ZM73.7603 23.4H68.6303C68.6303 24.336 68.6303 25.272 68.6303 26.262H70.4663V31.752C70.4663 32.76 69.8363 33.264 68.9003 33.264C67.9643 33.264 67.2263 32.742 67.2263 31.752V30.168C66.2183 30.168 65.1743 30.168 64.1843 30.168V31.806C64.1843 34.56 66.3083 36.144 68.9003 36.144C71.4923 36.144 73.7603 34.56 73.7603 31.806V23.4ZM85.6422 23.4C82.6902 23.4 80.6922 23.4 77.7762 23.4C77.7762 27.576 77.7762 31.788 77.7762 36C80.6922 36 82.8522 36 85.8042 36C85.8042 35.046 85.8042 34.074 85.8042 33.138C83.9142 33.138 82.8342 33.138 80.9802 33.138C80.9802 32.382 80.9802 31.662 80.9802 30.924H85.2642C85.2642 29.97 85.2642 29.016 85.2642 28.062H80.9802V26.28C82.8342 26.28 83.7702 26.28 85.6422 26.28C85.6422 25.308 85.6422 24.336 85.6422 23.4ZM88.7132 29.7C88.7312 33.984 91.9712 36.144 95.1752 36.126C97.8572 36.126 100.683 34.722 101.151 31.158C100.053 31.158 99.0632 31.158 97.9832 31.158C97.6412 32.508 96.5432 33.192 95.1752 33.192C93.2672 33.174 92.0432 31.554 92.0432 29.7C92.0432 27.612 93.2852 26.19 95.1752 26.19C96.5252 26.19 97.4792 26.766 97.9292 28.044C99.0272 28.044 99.9992 28.044 101.097 28.044C100.611 24.678 97.7852 23.256 95.1752 23.256C91.9712 23.256 88.7312 25.416 88.7132 29.7ZM106.374 26.28V36C107.436 36 108.498 36 109.56 36V26.28H112.638C112.638 25.308 112.638 24.354 112.638 23.4H103.278C103.278 24.354 103.278 25.308 103.278 26.28H106.374ZM28.704 46.836L23.772 41.364H22.584V54C23.682 54 24.78 54 25.878 54V48.384L28.542 51.192H28.902L31.584 48.384V54C32.682 54 33.78 54 34.878 54V41.364H33.726L28.704 46.836ZM46.9983 54H50.1483V53.532L44.4603 41.238H43.0743L37.4043 53.532V54H40.5543L41.2923 52.416H46.2603L46.9983 54ZM45.1983 49.644H42.3543L43.7583 46.332L45.1983 49.644ZM62.3868 54.018H63.5388V41.4C62.4408 41.4 61.3428 41.4 60.2448 41.4V47.574L53.8728 41.346H52.7028V54C53.8008 54 54.9168 54 56.0328 54V47.808L62.3868 54.018ZM75.6577 54H78.8077V53.532L73.1197 41.238H71.7337L66.0637 53.532V54H69.2137L69.9517 52.416H74.9197L75.6577 54ZM73.8577 49.644H71.0137L72.4177 46.332L73.8577 49.644ZM80.5882 47.7C80.6062 52.002 83.8462 54.144 87.0502 54.144C89.3722 54.144 91.7662 53.136 92.6662 50.508C93.0982 49.284 93.0982 48.078 93.0262 46.818H87.0682V49.608H89.7502C89.1742 50.814 88.3462 51.156 87.0502 51.156C85.1422 51.156 83.9182 49.788 83.9182 47.7C83.9182 45.774 85.0162 44.19 87.0502 44.19C88.3282 44.19 89.1562 44.622 89.6782 45.702H92.8462C92.2342 42.57 89.5882 41.256 87.0502 41.238C83.8462 41.238 80.6062 43.398 80.5882 47.7ZM104.349 41.4C101.397 41.4 99.3989 41.4 96.4829 41.4C96.4829 45.576 96.4829 49.788 96.4829 54C99.3989 54 101.559 54 104.511 54C104.511 53.046 104.511 52.074 104.511 51.138C102.621 51.138 101.541 51.138 99.6869 51.138C99.6869 50.382 99.6869 49.662 99.6869 48.924H103.971C103.971 47.97 103.971 47.016 103.971 46.062H99.6869V44.28C101.541 44.28 102.477 44.28 104.349 44.28C104.349 43.308 104.349 42.336 104.349 41.4ZM114.278 46.836L109.346 41.364H108.158V54C109.256 54 110.354 54 111.452 54V48.384L114.116 51.192H114.476L117.158 48.384V54C118.256 54 119.354 54 120.452 54V41.364H119.3L114.278 46.836ZM132.428 41.4C129.476 41.4 127.478 41.4 124.562 41.4C124.562 45.576 124.562 49.788 124.562 54C127.478 54 129.638 54 132.59 54C132.59 53.046 132.59 52.074 132.59 51.138C130.7 51.138 129.62 51.138 127.766 51.138C127.766 50.382 127.766 49.662 127.766 48.924H132.05C132.05 47.97 132.05 47.016 132.05 46.062H127.766V44.28C129.62 44.28 130.556 44.28 132.428 44.28C132.428 43.308 132.428 42.336 132.428 41.4ZM145.939 54.018H147.091V41.4C145.993 41.4 144.895 41.4 143.797 41.4V47.574L137.425 41.346H136.255V54C137.353 54 138.469 54 139.585 54V47.808L145.939 54.018ZM153.054 44.28V54C154.116 54 155.178 54 156.24 54V44.28H159.318C159.318 43.308 159.318 42.354 159.318 41.4H149.958C149.958 42.354 149.958 43.308 149.958 44.28H153.054Z" fill="#FF77CF"/>
<path d="M24.824 36V32.778H27.146C33.176 32.778 33.176 23.418 27.146 23.4C25.292 23.4 23.42 23.4 21.602 23.4C21.602 27.612 21.602 31.806 21.602 36C22.664 36 23.744 36 24.824 36ZM27.128 29.88H24.824C24.824 28.854 24.824 27.306 24.824 26.28C25.562 26.28 26.372 26.262 27.128 26.28C29 26.298 28.892 29.88 27.128 29.88ZM43.172 31.536C46.358 29.376 45.458 23.418 40.508 23.4C38.672 23.4 36.8 23.4 34.982 23.4C34.982 27.612 34.982 31.806 34.982 36C36.026 36 37.124 36 38.204 36V32.292H39.878L42.038 36H45.638V35.532L43.172 31.536ZM40.508 29.394H38.204C38.204 28.386 38.204 27.306 38.204 26.28C38.96 26.28 39.752 26.262 40.508 26.28C42.344 26.298 42.254 29.394 40.508 29.394ZM60.636 29.718C60.636 21.006 47.712 21.006 47.712 29.718C47.712 38.448 60.636 38.448 60.636 29.718ZM51.024 29.718C51.024 25.182 57.342 25.182 57.342 29.718C57.342 34.29 51.024 34.29 51.024 29.718ZM72.7603 23.4H67.6303C67.6303 24.336 67.6303 25.272 67.6303 26.262H69.4663V31.752C69.4663 32.76 68.8363 33.264 67.9003 33.264C66.9643 33.264 66.2263 32.742 66.2263 31.752V30.168C65.2183 30.168 64.1743 30.168 63.1843 30.168V31.806C63.1843 34.56 65.3083 36.144 67.9003 36.144C70.4923 36.144 72.7603 34.56 72.7603 31.806V23.4ZM84.6422 23.4C81.6902 23.4 79.6922 23.4 76.7762 23.4C76.7762 27.576 76.7762 31.788 76.7762 36C79.6922 36 81.8522 36 84.8042 36C84.8042 35.046 84.8042 34.074 84.8042 33.138C82.9142 33.138 81.8342 33.138 79.9802 33.138C79.9802 32.382 79.9802 31.662 79.9802 30.924H84.2642C84.2642 29.97 84.2642 29.016 84.2642 28.062H79.9802V26.28C81.8342 26.28 82.7702 26.28 84.6422 26.28C84.6422 25.308 84.6422 24.336 84.6422 23.4ZM87.7132 29.7C87.7312 33.984 90.9712 36.144 94.1752 36.126C96.8572 36.126 99.6832 34.722 100.151 31.158C99.0532 31.158 98.0632 31.158 96.9832 31.158C96.6412 32.508 95.5432 33.192 94.1752 33.192C92.2672 33.174 91.0432 31.554 91.0432 29.7C91.0432 27.612 92.2852 26.19 94.1752 26.19C95.5252 26.19 96.4792 26.766 96.9292 28.044C98.0272 28.044 98.9992 28.044 100.097 28.044C99.6112 24.678 96.7852 23.256 94.1752 23.256C90.9712 23.256 87.7312 25.416 87.7132 29.7ZM105.374 26.28V36C106.436 36 107.498 36 108.56 36V26.28H111.638C111.638 25.308 111.638 24.354 111.638 23.4H102.278C102.278 24.354 102.278 25.308 102.278 26.28H105.374ZM27.704 46.836L22.772 41.364H21.584V54C22.682 54 23.78 54 24.878 54V48.384L27.542 51.192H27.902L30.584 48.384V54C31.682 54 32.78 54 33.878 54V41.364H32.726L27.704 46.836ZM45.9983 54H49.1483V53.532L43.4603 41.238H42.0743L36.4043 53.532V54H39.5543L40.2923 52.416H45.2603L45.9983 54ZM44.1983 49.644H41.3543L42.7583 46.332L44.1983 49.644ZM61.3868 54.018H62.5388V41.4C61.4408 41.4 60.3428 41.4 59.2448 41.4V47.574L52.8728 41.346H51.7028V54C52.8008 54 53.9168 54 55.0328 54V47.808L61.3868 54.018ZM74.6577 54H77.8077V53.532L72.1197 41.238H70.7337L65.0637 53.532V54H68.2137L68.9517 52.416H73.9197L74.6577 54ZM72.8577 49.644H70.0137L71.4177 46.332L72.8577 49.644ZM79.5882 47.7C79.6062 52.002 82.8462 54.144 86.0502 54.144C88.3722 54.144 90.7662 53.136 91.6662 50.508C92.0982 49.284 92.0982 48.078 92.0262 46.818H86.0682V49.608H88.7502C88.1742 50.814 87.3462 51.156 86.0502 51.156C84.1422 51.156 82.9182 49.788 82.9182 47.7C82.9182 45.774 84.0162 44.19 86.0502 44.19C87.3282 44.19 88.1562 44.622 88.6782 45.702H91.8462C91.2342 42.57 88.5882 41.256 86.0502 41.238C82.8462 41.238 79.6062 43.398 79.5882 47.7ZM103.349 41.4C100.397 41.4 98.3989 41.4 95.4829 41.4C95.4829 45.576 95.4829 49.788 95.4829 54C98.3989 54 100.559 54 103.511 54C103.511 53.046 103.511 52.074 103.511 51.138C101.621 51.138 100.541 51.138 98.6869 51.138C98.6869 50.382 98.6869 49.662 98.6869 48.924H102.971C102.971 47.97 102.971 47.016 102.971 46.062H98.6869V44.28C100.541 44.28 101.477 44.28 103.349 44.28C103.349 43.308 103.349 42.336 103.349 41.4ZM113.278 46.836L108.346 41.364H107.158V54C108.256 54 109.354 54 110.452 54V48.384L113.116 51.192H113.476L116.158 48.384V54C117.256 54 118.354 54 119.452 54V41.364H118.3L113.278 46.836ZM131.428 41.4C128.476 41.4 126.478 41.4 123.562 41.4C123.562 45.576 123.562 49.788 123.562 54C126.478 54 128.638 54 131.59 54C131.59 53.046 131.59 52.074 131.59 51.138C129.7 51.138 128.62 51.138 126.766 51.138C126.766 50.382 126.766 49.662 126.766 48.924H131.05C131.05 47.97 131.05 47.016 131.05 46.062H126.766V44.28C128.62 44.28 129.556 44.28 131.428 44.28C131.428 43.308 131.428 42.336 131.428 41.4ZM144.939 54.018H146.091V41.4C144.993 41.4 143.895 41.4 142.797 41.4V47.574L136.425 41.346H135.255V54C136.353 54 137.469 54 138.585 54V47.808L144.939 54.018ZM152.054 44.28V54C153.116 54 154.178 54 155.24 54V44.28H158.318C158.318 43.308 158.318 42.354 158.318 41.4H148.958C148.958 42.354 148.958 43.308 148.958 44.28H152.054Z" fill="white"/>
<path d="M0 100.234H260C213 93.2491 166.5 93.7492 86 86.2493C48.7794 82.7815 38.5 86.2491 0 100.234Z" fill="white"/>
</g>
<defs>
<filter id="filter0_d" x="-30" y="-10" width="310" height="156" filterUnits="userSpaceOnUse" color-interpolation-filters="sRGB">
<feFlood flood-opacity="0" result="BackgroundImageFix"/>
<feColorMatrix in="SourceAlpha" type="matrix" values="0 0 0 0 0 0 0 0 0 0 0 0 0 0 0 0 0 0 127 0"/>
<feOffset dx="-5" dy="15"/>
<feGaussianBlur stdDeviation="12.5"/>
<feColorMatrix type="matrix" values="0 0 0 0 0 0 0 0 0 0 0 0 0 0 0 0 0 0 0.15 0"/>
<feBlend mode="normal" in2="BackgroundImageFix" result="effect1_dropShadow"/>
<feBlend mode="normal" in="SourceGraphic" in2="effect1_dropShadow" result="shape"/>
</filter>
<filter id="filter1_d" x="144" y="8" width="126" height="126" filterUnits="userSpaceOnUse" color-interpolation-filters="sRGB">
<feFlood flood-opacity="0" result="BackgroundImageFix"/>
<feColorMatrix in="SourceAlpha" type="matrix" values="0 0 0 0 0 0 0 0 0 0 0 0 0 0 0 0 0 0 127 0"/>
<feOffset dx="-5" dy="4"/>
<feGaussianBlur stdDeviation="7.5"/>
<feColorMatrix type="matrix" values="0 0 0 0 0 0 0 0 0 0 0 0 0 0 0 0 0 0 0.25 0"/>
<feBlend mode="normal" in2="BackgroundImageFix" result="effect1_dropShadow"/>
<feBlend mode="normal" in="SourceGraphic" in2="effect1_dropShadow" result="shape"/>
</filter>
<linearGradient id="paint0_linear" x1="130" y1="0" x2="130" y2="106" gradientUnits="userSpaceOnUse">
<stop stop-color="#FDC3F1"/>
<stop offset="1" stop-color="#FFE4DD"/>
</linearGradient>
<linearGradient id="paint1_linear" x1="260" y1="0" x2="-1.72175e-05" y2="106" gradientUnits="userSpaceOnUse">
<stop offset="0.0223687" stop-color="#376A99"/>
<stop offset="0.536458" stop-color="#1F2666"/>
<stop offset="1" stop-color="#0C1249"/>
</linearGradient>
<radialGradient id="paint2_radial" cx="0" cy="0" r="1" gradientUnits="userSpaceOnUse" gradientTransform="translate(215.5 27.5) rotate(90) scale(3.5)">
<stop stop-color="white" stop-opacity="0.52"/>
<stop offset="0.395833" stop-color="white" stop-opacity="0.14"/>
<stop offset="0.677083" stop-color="white" stop-opacity="0"/>
</radialGradient>
<radialGradient id="paint3_radial" cx="0" cy="0" r="1" gradientUnits="userSpaceOnUse" gradientTransform="translate(182.433 19.4327) rotate(90) scale(7.43256)">
<stop stop-color="white" stop-opacity="0.52"/>
<stop offset="0.395833" stop-color="white" stop-opacity="0.14"/>
<stop offset="0.677083" stop-color="white" stop-opacity="0"/>
</radialGradient>
<radialGradient id="paint4_radial" cx="0" cy="0" r="1" gradientUnits="userSpaceOnUse" gradientTransform="translate(196.433 46.4327) rotate(90) scale(7.43256)">
<stop stop-color="white" stop-opacity="0.52"/>
<stop offset="0.395833" stop-color="white" stop-opacity="0.14"/>
<stop offset="0.677083" stop-color="white" stop-opacity="0"/>
</radialGradient>
<radialGradient id="paint5_radial" cx="0" cy="0" r="1" gradientUnits="userSpaceOnUse" gradientTransform="translate(252 26) rotate(90) scale(5)">
<stop stop-color="white" stop-opacity="0.52"/>
<stop offset="0.395833" stop-color="white" stop-opacity="0.14"/>
<stop offset="0.677083" stop-color="white" stop-opacity="0"/>
</radialGradient>
<radialGradient id="paint6_radial" cx="0" cy="0" r="1" gradientUnits="userSpaceOnUse" gradientTransform="translate(171.5 40.5) rotate(90) scale(4.5)">
<stop stop-color="white" stop-opacity="0.52"/>
<stop offset="0.395833" stop-color="white" stop-opacity="0.14"/>
<stop offset="0.677083" stop-color="white" stop-opacity="0"/>
</radialGradient>
<radialGradient id="paint7_radial" cx="0" cy="0" r="1" gradientUnits="userSpaceOnUse" gradientTransform="translate(28.4326 83.4327) rotate(90) scale(7.43256)">
<stop stop-color="white" stop-opacity="0.52"/>
<stop offset="0.395833" stop-color="white" stop-opacity="0.14"/>
<stop offset="0.677083" stop-color="white" stop-opacity="0"/>
</radialGradient>
<clipPath id="clip0">
<rect width="260" height="100" fill="white"/>
</clipPath>
</defs>
</svg>
