<svg width="260" height="102" viewBox="0 0 260 102" fill="none" xmlns="http://www.w3.org/2000/svg">
<g clip-path="url(#clip0)">
<g filter="url(#filter0_d)">
<path d="M0 15C0 6.71573 6.71573 0 15 0H245C253.284 0 260 6.71573 260 15V106H0V15Z" fill="url(#paint0_linear)"/>
<path d="M0 15C0 6.71573 6.71573 0 15 0H245C253.284 0 260 6.71573 260 15V106H0V15Z" fill="url(#paint1_linear)"/>
</g>
<path d="M239.114 90.747C249.493 77.9561 247.538 59.1728 234.747 48.7934C221.956 38.4141 203.173 40.3691 192.794 53.16C182.414 65.951 184.369 84.7342 197.16 95.1136C209.951 105.493 228.734 103.538 239.114 90.747Z" fill="#FD9D62"/>
<path opacity="0.2" d="M232.733 85.9681C228.198 83.7002 228.954 78.2023 229.641 74.0789C229.916 72.6357 231.153 68.5809 229.71 67.4126C227.923 66.0381 226.617 69.6805 226.205 70.7801C224.899 74.4912 225.517 77.9961 225.449 81.8447C225.311 85.3496 224.624 90.0916 220.501 90.985C218.782 91.3286 217.133 90.9162 215.759 89.7479C214.796 88.9233 213.01 84.3187 211.429 86.5866C209.917 88.8545 208.474 91.0537 205.862 92.2907C202.151 93.9401 197.822 93.5965 193.836 92.0846C194.866 93.1841 195.966 94.215 197.134 95.1771C209.917 105.554 228.747 103.63 239.125 90.7788C241.461 87.8924 243.111 84.7311 244.279 81.4323C241.324 84.9373 236.926 88.0298 232.733 85.9681Z" fill="#9B3C41"/>
<path opacity="0.2" d="M191.018 61.7772C193.423 59.3031 195.141 56.1418 198.097 54.2863C200.433 52.7743 204.144 56.2105 204.144 59.2344C204.144 67.2751 204.9 69.4743 206.618 68.9245C210.879 68.9245 208.749 51.8122 209.848 50.7126C212.46 48.3073 215.827 47.0015 219.195 48.376C222.7 49.7505 225.105 53.7365 229.091 53.7365C231.153 53.7365 233.008 52.9118 235.07 53.118C236.719 53.2554 238.3 53.7365 239.743 54.355C239.881 54.4237 240.018 54.4924 240.156 54.5612C238.644 52.4307 236.788 50.4377 234.658 48.7196C221.875 38.3423 203.045 40.2666 192.667 53.118C189.987 56.4167 188.132 60.1278 187.101 63.9764C188.681 63.9764 190.056 62.8081 191.018 61.7772Z" fill="#9B3C41"/>
<path opacity="0.41" d="M212.304 66.3317C217.364 60.5214 217.847 52.6586 213.382 48.7697C208.917 44.8808 201.195 46.4383 196.135 52.2486C191.074 58.0589 190.591 65.9216 195.056 69.8106C199.521 73.6995 207.243 72.1419 212.304 66.3317Z" fill="white"/>
<path opacity="0.28" d="M236.551 93.7182C244.952 85.3178 246.975 73.7216 241.071 67.8172C235.166 61.9128 223.57 63.9361 215.17 72.3365C206.769 80.7368 204.746 92.3331 210.65 98.2375C216.555 104.142 228.151 102.119 236.551 93.7182Z" fill="#9B3C41"/>
<path opacity="0.29" d="M192.392 71.9484C193.836 63.4266 197.615 55.5234 204.213 49.8193C210.123 44.7337 219.882 44.0465 227.304 44.3214C215.415 39.442 201.327 42.672 192.805 53.118C182.84 65.4196 184.214 83.2192 195.691 93.8027C192.255 86.5179 191.293 78.271 192.392 71.9484Z" fill="white"/>
<circle cx="193.5" cy="24.5" r="3.5" transform="rotate(-90 193.5 24.5)" fill="url(#paint2_radial)"/>
<circle cx="160.433" cy="16.4327" r="7.43256" transform="rotate(-90 160.433 16.4327)" fill="url(#paint3_radial)"/>
<circle cx="174.433" cy="43.4327" r="7.43256" transform="rotate(-90 174.433 43.4327)" fill="url(#paint4_radial)"/>
<circle cx="230" cy="23" r="5" transform="rotate(-90 230 23)" fill="url(#paint5_radial)"/>
<circle cx="149.5" cy="37.5" r="4.5" transform="rotate(-90 149.5 37.5)" fill="url(#paint6_radial)"/>
<path d="M45.525 53V52.425L43.725 49.45C44.6 48.075 45.125 46.35 45.125 44.275C45.125 32.175 27.175 32.175 27.175 44.275C27.175 52.35 35.25 55.025 40.55 52.2L40.975 53H45.525ZM31.775 44.275C31.775 37.975 40.525 37.975 40.525 44.275C40.525 50.625 31.775 50.625 31.775 44.275ZM60.9613 53H65.3363V52.35L57.4363 35.275H55.5113L47.6363 52.35V53H52.0113L53.0363 50.8H59.9363L60.9613 53ZM58.4613 46.95H54.5113L56.4613 42.35L58.4613 46.95Z" fill="#FF77CF"/>
<path d="M43.525 53V52.425L41.725 49.45C42.6 48.075 43.125 46.35 43.125 44.275C43.125 32.175 25.175 32.175 25.175 44.275C25.175 52.35 33.25 55.025 38.55 52.2L38.975 53H43.525ZM29.775 44.275C29.775 37.975 38.525 37.975 38.525 44.275C38.525 50.625 29.775 50.625 29.775 44.275ZM59.1566 53H63.5316V52.35L55.6316 35.275H53.7066L45.8316 52.35V53H50.2066L51.2316 50.8H58.1316L59.1566 53ZM56.6816 46.975H52.6816L54.6566 42.375L56.6816 46.975Z" fill="white"/>
<path d="M0 102.137H260C213 95.1526 197.5 75.1526 173 79.6525C136.233 86.4055 146 93.6526 0 102.137Z" fill="#F8FBFF"/>
</g>
<defs>
<filter id="filter0_d" x="-30" y="-10" width="310" height="156" filterUnits="userSpaceOnUse" color-interpolation-filters="sRGB">
<feFlood flood-opacity="0" result="BackgroundImageFix"/>
<feColorMatrix in="SourceAlpha" type="matrix" values="0 0 0 0 0 0 0 0 0 0 0 0 0 0 0 0 0 0 127 0"/>
<feOffset dx="-5" dy="15"/>
<feGaussianBlur stdDeviation="12.5"/>
<feColorMatrix type="matrix" values="0 0 0 0 0 0 0 0 0 0 0 0 0 0 0 0 0 0 0.15 0"/>
<feBlend mode="normal" in2="BackgroundImageFix" result="effect1_dropShadow"/>
<feBlend mode="normal" in="SourceGraphic" in2="effect1_dropShadow" result="shape"/>
</filter>
<linearGradient id="paint0_linear" x1="130" y1="0" x2="130" y2="106" gradientUnits="userSpaceOnUse">
<stop stop-color="#FDC3F1"/>
<stop offset="1" stop-color="#FFE4DD"/>
</linearGradient>
<linearGradient id="paint1_linear" x1="260" y1="0" x2="-1.72175e-05" y2="106" gradientUnits="userSpaceOnUse">
<stop offset="0.0223687" stop-color="#376A99"/>
<stop offset="0.536458" stop-color="#1F2666"/>
<stop offset="1" stop-color="#0C1249"/>
</linearGradient>
<radialGradient id="paint2_radial" cx="0" cy="0" r="1" gradientUnits="userSpaceOnUse" gradientTransform="translate(193.5 24.5) rotate(90) scale(3.5)">
<stop stop-color="white" stop-opacity="0.52"/>
<stop offset="0.395833" stop-color="white" stop-opacity="0.14"/>
<stop offset="0.677083" stop-color="white" stop-opacity="0"/>
</radialGradient>
<radialGradient id="paint3_radial" cx="0" cy="0" r="1" gradientUnits="userSpaceOnUse" gradientTransform="translate(160.433 16.4327) rotate(90) scale(7.43256)">
<stop stop-color="white" stop-opacity="0.52"/>
<stop offset="0.395833" stop-color="white" stop-opacity="0.14"/>
<stop offset="0.677083" stop-color="white" stop-opacity="0"/>
</radialGradient>
<radialGradient id="paint4_radial" cx="0" cy="0" r="1" gradientUnits="userSpaceOnUse" gradientTransform="translate(174.433 43.4327) rotate(90) scale(7.43256)">
<stop stop-color="white" stop-opacity="0.52"/>
<stop offset="0.395833" stop-color="white" stop-opacity="0.14"/>
<stop offset="0.677083" stop-color="white" stop-opacity="0"/>
</radialGradient>
<radialGradient id="paint5_radial" cx="0" cy="0" r="1" gradientUnits="userSpaceOnUse" gradientTransform="translate(230 23) rotate(90) scale(5)">
<stop stop-color="white" stop-opacity="0.52"/>
<stop offset="0.395833" stop-color="white" stop-opacity="0.14"/>
<stop offset="0.677083" stop-color="white" stop-opacity="0"/>
</radialGradient>
<radialGradient id="paint6_radial" cx="0" cy="0" r="1" gradientUnits="userSpaceOnUse" gradientTransform="translate(149.5 37.5) rotate(90) scale(4.5)">
<stop stop-color="white" stop-opacity="0.52"/>
<stop offset="0.395833" stop-color="white" stop-opacity="0.14"/>
<stop offset="0.677083" stop-color="white" stop-opacity="0"/>
</radialGradient>
<clipPath id="clip0">
<rect width="260" height="102" fill="white"/>
</clipPath>
</defs>
</svg>
