<svg width="260" height="100" viewBox="0 0 260 100" fill="none" xmlns="http://www.w3.org/2000/svg">
<g clip-path="url(#clip0)">
<g filter="url(#filter0_d)">
<path d="M0 15C0 6.71573 6.71573 0 15 0H245C253.284 0 260 6.71573 260 15V106H0V15Z" fill="url(#paint0_linear)"/>
<path d="M0 15C0 6.71573 6.71573 0 15 0H245C253.284 0 260 6.71573 260 15V106H0V15Z" fill="url(#paint1_linear)"/>
</g>
<path opacity="0.1" d="M165.495 42.6831C164.765 44.2481 162.791 44.8724 161.087 44.0774C159.382 43.2825 158.592 41.3694 159.321 39.8044C160.051 38.2394 175.84 12.4394 175.84 12.4394C175.84 12.4394 166.225 41.1181 165.495 42.6831Z" fill="url(#paint2_linear)"/>
<path opacity="0.1" d="M195.505 35.0901C194.88 36.4295 192.723 36.7455 190.687 35.7959C188.651 34.8464 187.506 32.9909 188.131 31.6515C188.755 30.3122 203.313 8.7193 203.313 8.7193C203.313 8.7193 196.129 33.7508 195.505 35.0901Z" fill="url(#paint3_linear)"/>
<path d="M217.934 122.125C237.78 122.125 253.868 106.203 253.868 86.5624C253.868 66.9218 237.78 51 217.934 51C198.088 51 182 66.9218 182 86.5624C182 106.203 198.088 122.125 217.934 122.125Z" fill="#1D95C4"/>
<path opacity="0.4" d="M243.654 100.304C244.936 100.304 245.975 99.2652 245.975 97.9832C245.975 96.7011 244.936 95.6619 243.654 95.6619C242.372 95.6619 241.333 96.7011 241.333 97.9832C241.333 99.2652 242.372 100.304 243.654 100.304Z" fill="#2A5E80"/>
<path opacity="0.4" d="M243.932 88.3265C244.856 88.3265 245.604 87.5783 245.604 86.6552C245.604 85.7322 244.856 84.9839 243.932 84.9839C243.009 84.9839 242.261 85.7322 242.261 86.6552C242.261 87.5783 243.009 88.3265 243.932 88.3265Z" fill="#2A5E80"/>
<path opacity="0.4" d="M222.669 100.49C223.592 100.49 224.341 99.7416 224.341 98.8186C224.341 97.8955 223.592 97.1472 222.669 97.1472C221.746 97.1472 220.998 97.8955 220.998 98.8186C220.998 99.7416 221.746 100.49 222.669 100.49Z" fill="#2A5E80"/>
<path opacity="0.4" d="M242.633 68.7345C243.556 68.7345 244.304 67.9862 244.304 67.0632C244.304 66.1401 243.556 65.3918 242.633 65.3918C241.71 65.3918 240.961 66.1401 240.961 67.0632C240.961 67.9862 241.71 68.7345 242.633 68.7345Z" fill="#2A5E80"/>
<path opacity="0.4" d="M233.812 95.7547C234.478 95.7547 235.019 95.2143 235.019 94.5476C235.019 93.881 234.478 93.3406 233.812 93.3406C233.145 93.3406 232.604 93.881 232.604 94.5476C232.604 95.2143 233.145 95.7547 233.812 95.7547Z" fill="#2A5E80"/>
<path opacity="0.4" d="M222.762 83.4054C223.429 83.4054 223.969 82.865 223.969 82.1983C223.969 81.5317 223.429 80.9912 222.762 80.9912C222.095 80.9912 221.555 81.5317 221.555 82.1983C221.555 82.865 222.095 83.4054 222.762 83.4054Z" fill="#2A5E80"/>
<path opacity="0.4" d="M189.985 94.6405C190.652 94.6405 191.192 94.1 191.192 93.4334C191.192 92.7667 190.652 92.2263 189.985 92.2263C189.318 92.2263 188.778 92.7667 188.778 93.4334C188.778 94.1 189.318 94.6405 189.985 94.6405Z" fill="#2A5E80"/>
<path opacity="0.4" d="M205.027 76.1627C205.694 76.1627 206.234 75.6223 206.234 74.9556C206.234 74.289 205.694 73.7485 205.027 73.7485C204.361 73.7485 203.82 74.289 203.82 74.9556C203.82 75.6223 204.361 76.1627 205.027 76.1627Z" fill="#2A5E80"/>
<path opacity="0.4" d="M198.342 94.4547C199.008 94.4547 199.549 93.9143 199.549 93.2476C199.549 92.581 199.008 92.0405 198.342 92.0405C197.675 92.0405 197.135 92.581 197.135 93.2476C197.135 93.9143 197.675 94.4547 198.342 94.4547Z" fill="#2A5E80"/>
<path opacity="0.4" d="M231.211 66.8775C231.878 66.8775 232.419 66.3371 232.419 65.6704C232.419 65.0038 231.878 64.4634 231.211 64.4634C230.545 64.4634 230.004 65.0038 230.004 65.6704C230.004 66.3371 230.545 66.8775 231.211 66.8775Z" fill="#2A5E80"/>
<path opacity="0.4" d="M210.691 64.4635C211.358 64.4635 211.898 63.923 211.898 63.2564C211.898 62.5897 211.358 62.0493 210.691 62.0493C210.024 62.0493 209.484 62.5897 209.484 63.2564C209.484 63.923 210.024 64.4635 210.691 64.4635Z" fill="#2A5E80"/>
<path opacity="0.4" d="M197.692 81.2697C198.051 81.2697 198.342 80.9787 198.342 80.6197C198.342 80.2607 198.051 79.9697 197.692 79.9697C197.333 79.9697 197.042 80.2607 197.042 80.6197C197.042 80.9787 197.333 81.2697 197.692 81.2697Z" fill="#2A5E80"/>
<path opacity="0.4" d="M218.119 81.9196C218.478 81.9196 218.769 81.6286 218.769 81.2696C218.769 80.9106 218.478 80.6196 218.119 80.6196C217.76 80.6196 217.469 80.9106 217.469 81.2696C217.469 81.6286 217.76 81.9196 218.119 81.9196Z" fill="#2A5E80"/>
<path opacity="0.4" d="M215.705 91.9477C216.064 91.9477 216.355 91.6566 216.355 91.2977C216.355 90.9387 216.064 90.6477 215.705 90.6477C215.346 90.6477 215.055 90.9387 215.055 91.2977C215.055 91.6566 215.346 91.9477 215.705 91.9477Z" fill="#2A5E80"/>
<path opacity="0.4" d="M239.011 94.6405C239.37 94.6405 239.661 94.3495 239.661 93.9905C239.661 93.6316 239.37 93.3406 239.011 93.3406C238.652 93.3406 238.361 93.6316 238.361 93.9905C238.361 94.3495 238.652 94.6405 239.011 94.6405Z" fill="#2A5E80"/>
<path opacity="0.4" d="M249.689 91.3905C250.048 91.3905 250.339 91.0995 250.339 90.7405C250.339 90.3816 250.048 90.0906 249.689 90.0906C249.33 90.0906 249.039 90.3816 249.039 90.7405C249.039 91.0995 249.33 91.3905 249.689 91.3905Z" fill="#2A5E80"/>
<path opacity="0.4" d="M243.004 80.2484C243.363 80.2484 243.654 79.9574 243.654 79.5984C243.654 79.2395 243.363 78.9485 243.004 78.9485C242.645 78.9485 242.354 79.2395 242.354 79.5984C242.354 79.9574 242.645 80.2484 243.004 80.2484Z" fill="#2A5E80"/>
<path opacity="0.4" d="M246.068 72.913C246.427 72.913 246.718 72.622 246.718 72.263C246.718 71.904 246.427 71.613 246.068 71.613C245.709 71.613 245.418 71.904 245.418 72.263C245.418 72.622 245.709 72.913 246.068 72.913Z" fill="#2A5E80"/>
<path opacity="0.4" d="M239.568 69.756C239.927 69.756 240.218 69.465 240.218 69.106C240.218 68.7471 239.927 68.4561 239.568 68.4561C239.209 68.4561 238.918 68.7471 238.918 69.106C238.918 69.465 239.209 69.756 239.568 69.756Z" fill="#2A5E80"/>
<path opacity="0.4" d="M231.026 76.3485C231.385 76.3485 231.676 76.0575 231.676 75.6986C231.676 75.3396 231.385 75.0486 231.026 75.0486C230.667 75.0486 230.376 75.3396 230.376 75.6986C230.376 76.0575 230.667 76.3485 231.026 76.3485Z" fill="#2A5E80"/>
<path opacity="0.4" d="M227.59 69.4774C227.949 69.4774 228.24 69.1864 228.24 68.8274C228.24 68.4685 227.949 68.1775 227.59 68.1775C227.231 68.1775 226.94 68.4685 226.94 68.8274C226.94 69.1864 227.231 69.4774 227.59 69.4774Z" fill="#2A5E80"/>
<path opacity="0.4" d="M226.012 60.5636C226.371 60.5636 226.662 60.2726 226.662 59.9136C226.662 59.5547 226.371 59.2637 226.012 59.2637C225.653 59.2637 225.362 59.5547 225.362 59.9136C225.362 60.2726 225.653 60.5636 226.012 60.5636Z" fill="#2A5E80"/>
<path opacity="0.4" d="M217.841 69.1989C218.2 69.1989 218.491 68.9079 218.491 68.5489C218.491 68.1899 218.2 67.8989 217.841 67.8989C217.482 67.8989 217.191 68.1899 217.191 68.5489C217.191 68.9079 217.482 69.1989 217.841 69.1989Z" fill="#2A5E80"/>
<path opacity="0.4" d="M203.078 68.6417C203.437 68.6417 203.728 68.3507 203.728 67.9917C203.728 67.6328 203.437 67.3418 203.078 67.3418C202.719 67.3418 202.428 67.6328 202.428 67.9917C202.428 68.3507 202.719 68.6417 203.078 68.6417Z" fill="#2A5E80"/>
<path opacity="0.4" d="M191.099 71.1488C191.458 71.1488 191.749 70.8578 191.749 70.4989C191.749 70.1399 191.458 69.8489 191.099 69.8489C190.74 69.8489 190.449 70.1399 190.449 70.4989C190.449 70.8578 190.74 71.1488 191.099 71.1488Z" fill="#2A5E80"/>
<path opacity="0.4" d="M199.085 78.484C199.444 78.484 199.735 78.193 199.735 77.8341C199.735 77.4751 199.444 77.1841 199.085 77.1841C198.726 77.1841 198.435 77.4751 198.435 77.8341C198.435 78.193 198.726 78.484 199.085 78.484Z" fill="#2A5E80"/>
<path opacity="0.4" d="M184.785 87.1193C185.144 87.1193 185.435 86.8283 185.435 86.4693C185.435 86.1103 185.144 85.8193 184.785 85.8193C184.426 85.8193 184.135 86.1103 184.135 86.4693C184.135 86.8283 184.426 87.1193 184.785 87.1193Z" fill="#2A5E80"/>
<path opacity="0.4" d="M197.321 87.3051C197.68 87.3051 197.971 87.0141 197.971 86.6551C197.971 86.2961 197.68 86.0051 197.321 86.0051C196.962 86.0051 196.671 86.2961 196.671 86.6551C196.671 87.0141 196.962 87.3051 197.321 87.3051Z" fill="#2A5E80"/>
<path opacity="0.4" d="M212.177 89.9979C212.536 89.9979 212.827 89.7069 212.827 89.3479C212.827 88.989 212.536 88.698 212.177 88.698C211.818 88.698 211.527 88.989 211.527 89.3479C211.527 89.7069 211.818 89.9979 212.177 89.9979Z" fill="#2A5E80"/>
<path opacity="0.4" d="M205.956 82.941C206.315 82.941 206.606 82.65 206.606 82.2911C206.606 81.9321 206.315 81.6411 205.956 81.6411C205.597 81.6411 205.306 81.9321 205.306 82.2911C205.306 82.65 205.597 82.941 205.956 82.941Z" fill="#2A5E80"/>
<path opacity="0.4" d="M230.654 88.8834C231.013 88.8834 231.304 88.5924 231.304 88.2335C231.304 87.8745 231.013 87.5835 230.654 87.5835C230.295 87.5835 230.004 87.8745 230.004 88.2335C230.004 88.5924 230.295 88.8834 230.654 88.8834Z" fill="#2A5E80"/>
<path opacity="0.4" d="M230.097 100.769C230.456 100.769 230.747 100.478 230.747 100.119C230.747 99.7598 230.456 99.4688 230.097 99.4688C229.738 99.4688 229.447 99.7598 229.447 100.119C229.447 100.478 229.738 100.769 230.097 100.769Z" fill="#2A5E80"/>
<path opacity="0.4" d="M249.689 83.034C250.253 83.034 250.711 82.5767 250.711 82.0126C250.711 81.4485 250.253 80.9912 249.689 80.9912C249.125 80.9912 248.668 81.4485 248.668 82.0126C248.668 82.5767 249.125 83.034 249.689 83.034Z" fill="#2A5E80"/>
<path opacity="0.4" d="M237.618 86.5623C238.182 86.5623 238.64 86.105 238.64 85.5409C238.64 84.9768 238.182 84.5195 237.618 84.5195C237.054 84.5195 236.597 84.9768 236.597 85.5409C236.597 86.105 237.054 86.5623 237.618 86.5623Z" fill="#2A5E80"/>
<path opacity="0.4" d="M205.213 58.2423C205.572 58.2423 205.863 57.9513 205.863 57.5924C205.863 57.2334 205.572 56.9424 205.213 56.9424C204.854 56.9424 204.563 57.2334 204.563 57.5924C204.563 57.9513 204.854 58.2423 205.213 58.2423Z" fill="#2A5E80"/>
<path opacity="0.33" d="M242.639 112.003C251.994 102.648 254.258 89.7436 247.695 83.1804C241.131 76.6172 228.227 78.8806 218.872 88.2359C209.516 97.5911 207.253 110.496 213.816 117.059C220.379 123.622 233.284 121.359 242.639 112.003Z" fill="#3F419B"/>
<path opacity="0.28" d="M188.407 93.0621C188.407 73.3774 204.47 57.4997 224.341 57.4997C232.79 57.4997 240.59 60.3781 246.718 65.2064C240.126 56.5711 229.726 51 217.934 51C198.063 51 182 66.8777 182 86.5624C182 97.7975 187.293 107.918 195.556 114.418C191.1 108.476 188.407 101.047 188.407 93.0621Z" fill="white"/>
<path opacity="0.28" d="M210.826 79.0302C216.45 72.5721 216.966 63.8146 211.977 59.4697C206.989 55.1248 198.385 56.8379 192.76 63.2959C187.136 69.754 186.62 78.5115 191.608 82.8564C196.597 87.2012 205.201 85.4882 210.826 79.0302Z" fill="white"/>
<circle cx="152.433" cy="13.4327" r="7.43256" transform="rotate(-90 152.433 13.4327)" fill="url(#paint4_radial)"/>
<path d="M39.575 46.8C44 43.8 42.75 35.525 35.875 35.5C33.325 35.5 30.725 35.5 28.2 35.5C28.2 41.35 28.2 47.175 28.2 53C29.65 53 31.175 53 32.675 53V47.85H35L38 53H43V52.35L39.575 46.8ZM35.875 43.875H32.675C32.675 42.475 32.675 40.925 32.675 39.5C33.725 39.5 34.825 39.475 35.875 39.5C38.425 39.525 38.3 43.875 35.875 43.875ZM57.8805 35.5C53.7805 35.5 51.0055 35.5 46.9555 35.5C46.9555 41.3 46.9555 47.15 46.9555 53C51.0055 53 54.0055 53 58.1055 53C58.1055 51.675 58.1055 50.325 58.1055 49.025C55.4805 49.025 53.9805 49.025 51.4055 49.025C51.4055 47.975 51.4055 46.975 51.4055 45.95H57.3555C57.3555 44.625 57.3555 43.3 57.3555 41.975H51.4055V39.5C53.9805 39.5 55.2805 39.5 57.8805 39.5C57.8805 38.15 57.8805 36.8 57.8805 35.5ZM74.3207 53H78.6957V52.35L70.7957 35.275H68.8707L60.9957 52.35V53H65.3707L66.3957 50.8H73.2957L74.3207 53ZM71.8207 46.95H67.8707L69.8207 42.35L71.8207 46.95ZM81.1936 44.25C81.2186 50.2 85.7186 53.2 90.1686 53.175C93.8936 53.175 97.8186 51.225 98.4686 46.275C96.9436 46.275 95.5686 46.275 94.0686 46.275C93.5936 48.15 92.0686 49.1 90.1686 49.1C87.5186 49.075 85.8186 46.825 85.8186 44.25C85.8186 41.35 87.5436 39.375 90.1686 39.375C92.0436 39.375 93.3686 40.175 93.9936 41.95C95.5186 41.95 96.8686 41.95 98.3936 41.95C97.7186 37.275 93.7936 35.3 90.1686 35.3C85.7186 35.3 81.2186 38.3 81.1936 44.25ZM105.722 39.5V53C107.197 53 108.672 53 110.147 53V39.5H114.422C114.422 38.15 114.422 36.825 114.422 35.5H101.422C101.422 36.825 101.422 38.15 101.422 39.5H105.722Z" fill="#FF77CF"/>
<path d="M37.575 46.8C42 43.8 40.75 35.525 33.875 35.5C31.325 35.5 28.725 35.5 26.2 35.5C26.2 41.35 26.2 47.175 26.2 53C27.65 53 29.175 53 30.675 53V47.85H33L36 53H41V52.35L37.575 46.8ZM33.875 43.875H30.675C30.675 42.475 30.675 40.925 30.675 39.5C31.725 39.5 32.825 39.475 33.875 39.5C36.425 39.525 36.3 43.875 33.875 43.875ZM55.8805 35.5C51.7805 35.5 49.0055 35.5 44.9555 35.5C44.9555 41.3 44.9555 47.15 44.9555 53C49.0055 53 52.0055 53 56.1055 53C56.1055 51.675 56.1055 50.325 56.1055 49.025C53.4805 49.025 51.9805 49.025 49.4055 49.025C49.4055 47.975 49.4055 46.975 49.4055 45.95H55.3555C55.3555 44.625 55.3555 43.3 55.3555 41.975H49.4055V39.5C51.9805 39.5 53.2805 39.5 55.8805 39.5C55.8805 38.15 55.8805 36.8 55.8805 35.5ZM72.3207 53H76.6957V52.35L68.7957 35.275H66.8707L58.9957 52.35V53H63.3707L64.3957 50.8H71.2957L72.3207 53ZM69.8207 46.95H65.8707L67.8207 42.35L69.8207 46.95ZM79.1936 44.25C79.2186 50.2 83.7186 53.2 88.1686 53.175C91.8936 53.175 95.8186 51.225 96.4686 46.275C94.9436 46.275 93.5686 46.275 92.0686 46.275C91.5936 48.15 90.0686 49.1 88.1686 49.1C85.5186 49.075 83.8186 46.825 83.8186 44.25C83.8186 41.35 85.5436 39.375 88.1686 39.375C90.0436 39.375 91.3686 40.175 91.9936 41.95C93.5186 41.95 94.8686 41.95 96.3936 41.95C95.7186 37.275 91.7936 35.3 88.1686 35.3C83.7186 35.3 79.2186 38.3 79.1936 44.25ZM103.722 39.5V53C105.197 53 106.672 53 108.147 53V39.5H112.422C112.422 38.15 112.422 36.825 112.422 35.5H99.4219C99.4219 36.825 99.4219 38.15 99.4219 39.5H103.722Z" fill="white"/>
<path d="M0 100.868H260C179 94.3835 136 89.4172 70 82.8835C32.8 79.2009 19.5 87.3835 0 100.868Z" fill="white"/>
</g>
<defs>
<filter id="filter0_d" x="-30" y="-10" width="310" height="156" filterUnits="userSpaceOnUse" color-interpolation-filters="sRGB">
<feFlood flood-opacity="0" result="BackgroundImageFix"/>
<feColorMatrix in="SourceAlpha" type="matrix" values="0 0 0 0 0 0 0 0 0 0 0 0 0 0 0 0 0 0 127 0"/>
<feOffset dx="-5" dy="15"/>
<feGaussianBlur stdDeviation="12.5"/>
<feColorMatrix type="matrix" values="0 0 0 0 0 0 0 0 0 0 0 0 0 0 0 0 0 0 0.15 0"/>
<feBlend mode="normal" in2="BackgroundImageFix" result="effect1_dropShadow"/>
<feBlend mode="normal" in="SourceGraphic" in2="effect1_dropShadow" result="shape"/>
</filter>
<linearGradient id="paint0_linear" x1="130" y1="0" x2="130" y2="106" gradientUnits="userSpaceOnUse">
<stop stop-color="#FDC3F1"/>
<stop offset="1" stop-color="#FFE4DD"/>
</linearGradient>
<linearGradient id="paint1_linear" x1="260" y1="0" x2="-1.72175e-05" y2="106" gradientUnits="userSpaceOnUse">
<stop offset="0.0223687" stop-color="#376A99"/>
<stop offset="0.536458" stop-color="#1F2666"/>
<stop offset="1" stop-color="#0C1249"/>
</linearGradient>
<linearGradient id="paint2_linear" x1="175.84" y1="12.4394" x2="161.087" y2="44.0774" gradientUnits="userSpaceOnUse">
<stop offset="0.228775" stop-color="white" stop-opacity="0"/>
<stop offset="1" stop-color="white"/>
</linearGradient>
<linearGradient id="paint3_linear" x1="203.313" y1="8.7193" x2="190.687" y2="35.7959" gradientUnits="userSpaceOnUse">
<stop offset="0.228775" stop-color="white" stop-opacity="0"/>
<stop offset="1" stop-color="white"/>
</linearGradient>
<radialGradient id="paint4_radial" cx="0" cy="0" r="1" gradientUnits="userSpaceOnUse" gradientTransform="translate(152.433 13.4327) rotate(90) scale(7.43256)">
<stop stop-color="white" stop-opacity="0.52"/>
<stop offset="0.395833" stop-color="white" stop-opacity="0.14"/>
<stop offset="0.677083" stop-color="white" stop-opacity="0"/>
</radialGradient>
<clipPath id="clip0">
<rect width="260" height="100" fill="white"/>
</clipPath>
</defs>
</svg>
