<svg width="25" height="25" viewBox="0 0 25 25" fill="none" xmlns="http://www.w3.org/2000/svg">
<path d="M12.5 25C19.4036 25 25 19.4036 25 12.5C25 5.59644 19.4036 0 12.5 0C5.59644 0 0 5.59644 0 12.5C0 19.4036 5.59644 25 12.5 25Z" fill="#C4C4C4"/>
<path d="M12.5 25C19.4036 25 25 19.4036 25 12.5C25 5.59644 19.4036 0 12.5 0C5.59644 0 0 5.59644 0 12.5C0 19.4036 5.59644 25 12.5 25Z" fill="url(#paint0_linear)"/>
<path d="M12.5 22C17.7467 22 22 17.7467 22 12.5C22 7.25329 17.7467 3 12.5 3C7.25329 3 3 7.25329 3 12.5C3 17.7467 7.25329 22 12.5 22Z" fill="url(#paint1_linear)" fill-opacity="0.5"/>
<path d="M10.584 9.672L9.496 8.248C9.89067 7.91733 10.3333 7.64 10.824 7.416C11.464 7.13867 12.1413 7 12.856 7C13.8907 7 14.6693 7.24533 15.192 7.736C15.6613 8.19467 15.896 8.73867 15.896 9.368C15.896 9.82667 15.7573 10.2533 15.48 10.648H16.6V12.088H14.328L13.288 13.096H16.6V14.536H12.168C11.976 14.76 11.88 15.016 11.88 15.304C11.88 15.6133 12.008 15.8587 12.264 16.04C12.4773 16.1893 12.76 16.264 13.112 16.264C13.5813 16.264 13.9973 16.136 14.36 15.88C14.6693 15.6667 14.936 15.384 15.16 15.032L16.44 16.44C16.056 16.92 15.576 17.32 15 17.64C14.3493 17.9813 13.6027 18.152 12.76 18.152C11.864 18.152 11.16 17.9333 10.648 17.496C10.1147 17.048 9.848 16.4933 9.848 15.832C9.848 15.3307 9.96 14.8987 10.184 14.536H9V13.096H11.208L12.248 12.088H9V10.648H13.416C13.672 10.4027 13.8 10.12 13.8 9.8C13.8 9.46933 13.6827 9.208 13.448 9.016C13.224 8.83467 12.9467 8.744 12.616 8.744C12.1787 8.744 11.752 8.86667 11.336 9.112C11.048 9.272 10.7973 9.45867 10.584 9.672Z" fill="#FFF0F5"/>
<defs>
<linearGradient id="paint0_linear" x1="4" y1="5.125" x2="15.2437" y2="23.6302" gradientUnits="userSpaceOnUse">
<stop stop-color="#FCF4A7"/>
<stop offset="1" stop-color="#DB6B93"/>
</linearGradient>
<linearGradient id="paint1_linear" x1="12.5" y1="3" x2="12.5" y2="22" gradientUnits="userSpaceOnUse">
<stop stop-color="#FBF2A7"/>
<stop offset="1" stop-color="#DD7494" stop-opacity="0.69"/>
</linearGradient>
</defs>
</svg>
