<svg width="390" height="500" viewBox="0 0 390 500" fill="none" xmlns="http://www.w3.org/2000/svg">
<path d="M388.01 361.99C449.86 285.769 438.211 173.84 361.99 111.99C285.769 50.1396 173.84 61.7892 111.99 138.01C50.1396 214.231 61.7892 326.16 138.01 388.01C214.231 449.86 326.16 438.211 388.01 361.99Z" fill="#B825FD"/>
<path opacity="0.36" d="M263.724 396.52C254.126 385.856 248.439 374.125 244.884 360.617C241.685 347.821 243.107 329.692 235.287 318.317C214.669 287.391 169.881 331.824 150.685 344.266C138.244 352.442 124.736 358.129 110.518 360.617C118.338 370.57 127.58 380.168 137.889 388.344C185.521 427.09 247.372 437.043 302.114 420.336C287.54 416.426 274.032 408.25 263.724 396.52Z" fill="white"/>
<path d="M119.404 138.45C121.893 150.181 125.447 171.153 138.6 176.485C148.553 180.395 161.705 173.641 170.592 169.731C197.963 157.29 222.845 139.161 251.994 130.985C281.142 123.165 311.357 129.563 329.485 155.513C341.927 173.286 344.415 205.989 371.43 205.989C387.071 205.989 402.712 198.524 416.575 188.926C405.911 160.134 387.782 133.829 362.188 113.212C287.896 53.138 179.834 62.3802 117.271 133.474C117.982 134.185 119.049 135.962 119.404 138.45Z" fill="#C854FF"/>
<path d="M335.527 229.805C345.125 262.508 344.77 302.675 344.77 302.675H345.125C376.406 285.968 400.933 256.82 419.418 226.605C391.336 241.18 359.699 247.933 335.527 229.805Z" fill="#C854FF"/>
<path d="M288.251 164.044C274.743 158.356 259.103 164.044 246.661 169.376C215.736 182.528 187.654 205.989 153.884 210.965C121.537 215.586 102.697 194.969 92.7441 168.665C91.3223 171.153 90.2559 173.641 89.1895 176.129C92.7441 178.618 96.2988 181.817 99.8535 185.727C118.693 207.766 125.092 241.891 151.752 256.82C197.607 282.414 247.728 199.59 289.317 188.571C297.493 186.438 304.602 187.149 310.645 190.348C304.958 179.329 299.271 168.665 288.251 164.044Z" fill="#C854FF"/>
<path opacity="0.18" d="M228.498 216.919C258.542 182.424 261.294 135.646 234.646 112.437C207.998 89.2269 162.041 98.3749 131.997 132.869C101.954 167.363 99.2011 214.142 125.849 237.351C152.497 260.561 198.455 251.413 228.498 216.919Z" fill="white"/>
<path opacity="0.27" d="M372.593 379.786C422.567 329.812 434.608 260.829 399.488 225.708C364.367 190.587 295.384 202.628 245.41 252.602C195.435 302.577 183.394 371.56 218.515 406.68C253.636 441.801 322.619 429.76 372.593 379.786Z" fill="#20179B"/>
<path opacity="0.21" d="M109.806 250.066C118.337 199.59 141.087 152.313 180.189 118.543C215.024 88.3285 273.321 84.0629 317.399 85.8402C246.661 57.0474 162.771 75.8872 112.294 138.449C52.9313 211.676 61.4625 317.605 129.357 380.522C108.74 336.8 103.408 287.746 109.806 250.066Z" fill="white"/>
<path opacity="0.3" d="M268.7 232.65C202.228 264.642 141.798 313.341 73.5487 341.778C78.1698 335.735 83.5018 330.403 89.1893 325.427C87.4119 321.517 85.6346 317.251 83.8573 313.341C69.2831 325.427 57.5527 340.001 44.4004 354.93C39.4239 360.973 45.4668 369.149 51.8652 369.86C91.3221 374.837 133.978 344.622 167.037 326.848C207.56 305.165 247.017 283.482 282.563 254.333C294.294 245.091 281.852 226.607 268.7 232.65Z" fill="white"/>
<path opacity="0.3" d="M441.456 130.986C423.327 123.165 402.71 126.365 384.581 134.185C389.203 139.517 393.824 145.56 397.734 151.247C400.933 150.181 404.488 149.47 407.687 148.759C422.972 146.271 443.944 148.759 436.124 170.443C427.948 193.192 406.62 211.321 389.202 226.962C371.785 242.958 353.3 257.532 334.105 271.395C314.199 285.614 292.16 296.989 272.609 311.563C264.434 317.606 271.187 333.602 281.496 330.403C314.554 320.094 345.125 299.122 372.14 277.794C400.222 256.11 430.437 229.806 449.632 199.591C463.851 178.618 470.96 143.783 441.456 130.986Z" fill="white"/>
</svg>
