<svg width="561" height="444" viewBox="0 0 561 444" fill="none" xmlns="http://www.w3.org/2000/svg">
<g clip-path="url(#clip0)">
<rect x="0.127625" width="560" height="444" rx="15" fill="#C4C4C4"/>
<rect x="0.127625" width="560" height="444" rx="15" fill="url(#paint0_linear)"/>
<rect x="0.127625" width="560" height="444" rx="15" fill="url(#paint1_linear)"/>
<path d="M125.79 53.7268C126.249 49.7777 126.002 45.7476 125.014 41.8091C120.282 22.9341 99.939 13.2719 79.6407 20.2151C59.3423 27.1583 46.6744 48.1123 51.4063 66.9873C52.3937 70.9258 54.0275 74.4011 56.2562 77.5116L125.79 53.7268Z" fill="#ADD8ED"/>
<path d="M53.067 53.8766C52.5535 58.0244 52.7226 62.2605 53.6093 66.4036C54.4959 70.5467 56.0164 74.206 58.1192 77.4846L125.843 52.8021C126.357 48.6543 126.188 44.4182 125.301 40.2751C124.415 36.132 122.877 32.3945 120.791 29.1941C120.791 29.1941 109.668 27.1808 86.5456 35.6078C63.3552 44.0596 53.067 53.8766 53.067 53.8766Z" fill="#96BFD4"/>
<path d="M53.067 53.8766C52.5535 58.0244 52.7226 62.2605 53.6093 66.4036C54.4959 70.5467 56.0164 74.206 58.1192 77.4846L125.843 52.8021C126.357 48.6543 126.188 44.4182 125.301 40.2751C124.415 36.132 122.877 32.3945 120.791 29.1941C120.791 29.1941 109.668 27.1808 86.5456 35.6078C63.3552 44.0596 53.067 53.8766 53.067 53.8766Z" fill="#96A6D4"/>
<path d="M122.38 32.5269C122.38 32.5269 111.284 30.8452 86.8439 41.505C62.4033 52.1648 50.8182 63.7387 50.8182 63.7387" stroke="#6F7A9C" stroke-width="3.1517" stroke-miterlimit="10" stroke-linecap="round" stroke-linejoin="round"/>
<path d="M73.0615 29.3034C72.5925 29.0655 71.9764 28.874 71.3884 29.0593C71.0944 29.1519 70.8004 29.2446 70.6205 29.4556C70.3468 29.619 70.1669 29.8299 70.0074 30.1116C69.8478 30.3933 69.6882 30.6751 69.6756 30.9105C69.5895 31.169 69.5973 31.4751 69.6785 31.7581C69.841 32.324 70.1505 32.8436 70.6398 33.1522C71.1089 33.3901 71.7249 33.5817 72.3129 33.3963C72.6069 33.3037 72.9009 33.211 73.0808 33.0001C73.3545 32.8367 73.5344 32.6257 73.694 32.344C73.8536 32.0623 74.0132 31.7806 74.0257 31.5452C74.1118 31.2866 74.1041 30.9805 74.0228 30.6975C73.8604 30.1316 73.6244 29.5889 73.0615 29.3034Z" fill="#D1EDFE"/>
<path d="M67.3044 34.7767C65.0165 35.2191 63.3027 37.5311 61.8102 39.215C60.1943 41.019 58.941 43.0197 57.8364 45.288C56.5953 47.9185 59.5213 49.8791 61.397 47.5927C62.747 45.9561 64.4402 44.4433 65.9715 42.905C67.5221 41.4396 69.5778 40.1234 70.0927 37.9716C70.6655 36.0383 69.2357 34.4527 67.3044 34.7767Z" fill="#D1EDFE"/>
<path opacity="0.4" d="M116.272 42.1699C119.608 37.6756 117.044 30.2257 110.544 25.53C104.044 20.8343 96.0693 20.671 92.7327 25.1652C89.396 29.6594 91.9606 37.1094 98.4607 41.8051C104.961 46.5008 112.935 46.6641 116.272 42.1699Z" fill="#ADD8ED"/>
<path d="M143.932 33.3192C143.264 32.7964 142.491 32.4887 141.628 32.4773C132.273 31.948 117.071 32.8291 97.3651 39.818L81.5332 45.9926C62.0613 54.283 48.5664 64.6811 40.5986 71.8792C40.0386 72.3587 39.5749 72.9747 39.1929 73.6459C38.8109 74.3171 38.674 75.1538 38.8054 75.8859L39.9732 82.3932C40.5887 83.0235 41.3764 83.4126 42.269 83.5866C51.7463 85.1996 66.5139 81.0938 86.5548 73.974L102.387 67.7995C122.127 59.4044 136.392 52.1002 144.103 43.8708C144.701 43.2024 145.15 42.5051 145.451 41.7787L143.932 33.3192Z" fill="#A1BBED"/>
<path d="M142.429 33.7428C141.782 33.1974 141.029 32.8749 140.182 32.8596C131.012 32.2733 116.08 33.1282 96.6263 40.3063L80.9868 46.654C61.7397 55.1841 48.3215 65.9257 40.3809 73.3671C39.8233 73.8627 39.3578 74.5004 38.9716 75.1957C38.5853 75.891 38.4367 76.7591 38.5532 77.5196L39.5753 84.1952C39.7467 84.395 39.8129 84.3681 39.9325 84.2298C40.3592 83.3386 40.9313 82.4781 41.6618 81.7328C49.5895 74.2069 63.0206 63.5498 82.2677 55.0197L97.9072 48.6719C117.361 41.4939 132.306 40.7235 141.463 41.2253C142.323 41.3251 143.076 41.6476 143.71 42.1084L142.429 33.7428Z" fill="#8296BF"/>
<path opacity="0.44" d="M39.3353 77.3426C39.2838 77.0042 39.3647 76.612 39.5119 76.1929C39.9387 75.3009 40.5496 74.6934 41.2801 73.9475C49.2074 66.415 62.6368 55.7487 81.8784 47.2123L97.5131 40.8598C116.961 33.6767 131.899 32.9071 141.051 33.4104C141.554 33.4757 141.99 33.568 142.439 33.7448L142.426 33.6603C141.78 33.1143 141.027 32.7914 140.181 32.776C131.016 32.1882 116.09 33.0424 96.6426 40.2255L81.0078 46.5779C61.7662 55.1144 48.3497 65.8652 40.4096 73.3131C39.852 73.8091 39.3865 74.4474 39.0001 75.1433C38.6137 75.8393 38.4648 76.7082 38.5808 77.4695L39.5994 84.1519C39.7044 84.3787 39.4607 79.0881 39.3353 77.3426Z" fill="#D1EDFE"/>
<path d="M94.5195 65.5939C110.411 58.9788 123.049 51.673 122.747 49.2759C122.445 46.8788 109.317 50.2982 93.4257 56.9134C77.534 63.5285 64.8962 70.8343 65.1982 73.2314C65.5002 75.6284 78.6278 72.209 94.5195 65.5939Z" fill="#8296BF"/>
<path d="M68.146 70.5782C73.0509 69.9312 82.6074 66.81 93.5654 62.0679C104.523 57.3257 113.883 52.261 118.501 48.7869C113.596 49.4339 104.039 52.555 93.0812 57.2972C82.1232 62.0394 72.7551 67.0157 68.146 70.5782Z" fill="#5A6885"/>
<path d="M56.1391 79.1697C58.5775 78.26 60.4355 76.8719 60.2891 76.0694C60.1427 75.2669 58.0473 75.3537 55.6089 76.2635C53.1705 77.1732 51.3125 78.5612 51.4589 79.3638C51.6053 80.1663 53.7007 80.0794 56.1391 79.1697Z" fill="#EEF7FF"/>
<path d="M60.4957 75.5435C59.864 75.1102 57.9339 75.2854 55.8284 76.0084C53.3018 76.876 51.407 78.1768 51.5826 78.9293L51.2851 82.8513C51.2851 82.8513 53.2154 83.9765 57.3561 82.5546C61.7074 81.0604 62.8475 78.7996 62.8475 78.7996L60.4957 75.5435Z" fill="url(#paint2_radial)"/>
<path d="M61.5304 82.5915C62.9945 82.0465 64.1084 81.2079 64.0183 80.7184C63.9282 80.2289 62.6683 80.2739 61.2042 80.8189C59.7401 81.3639 58.6263 82.2025 58.7164 82.692C58.8065 83.1815 60.0664 83.1365 61.5304 82.5915Z" fill="#EEF7FF"/>
<path d="M64.1852 80.4535C63.8171 80.1732 62.6427 80.3331 61.3807 80.7673C59.8382 81.298 58.7338 82.0848 58.8389 82.5369L58.6283 84.8881C58.6283 84.8881 59.7676 85.5542 62.2917 84.6858C64.8859 83.7933 65.6223 82.4007 65.6223 82.4007L64.1852 80.4535Z" fill="url(#paint3_radial)"/>
<path d="M130.34 49.2989C131.804 48.754 132.918 47.9154 132.828 47.4259C132.737 46.9365 131.478 46.9815 130.014 47.5264C128.549 48.0714 127.436 48.91 127.526 49.3994C127.616 49.8889 128.876 49.8439 130.34 49.2989Z" fill="#EEF7FF"/>
<path d="M132.995 47.1615C132.627 46.8812 131.452 47.0411 130.19 47.4753C128.648 48.006 127.543 48.7928 127.648 49.2449L127.438 51.5961C127.438 51.5961 128.577 52.2621 131.101 51.3938C133.695 50.5013 134.432 49.1086 134.432 49.1086L132.995 47.1615Z" fill="url(#paint4_radial)"/>
<path d="M130.819 44.14C133.258 43.2303 135.116 41.8422 134.969 41.0396C134.823 40.2371 132.728 40.324 130.289 41.2337C127.851 42.1434 125.993 43.5315 126.139 44.334C126.286 45.1366 128.381 45.0497 130.819 44.14Z" fill="#EEF7FF"/>
<path d="M135.176 40.5138C134.544 40.0806 132.614 40.2557 130.508 40.9787C127.982 41.8462 126.087 43.147 126.263 43.8995L125.965 47.8214C125.965 47.8214 127.895 48.9466 132.036 47.5247C136.387 46.0306 137.527 43.7699 137.527 43.7699L135.176 40.5138Z" fill="url(#paint5_radial)"/>
<path d="M70.9687 67.7945C73.897 66.7045 76.1248 65.0273 75.9448 64.0485C75.7647 63.0697 73.2449 63.1599 70.3167 64.2499C67.3884 65.34 65.1606 67.0171 65.3406 67.9959C65.5207 68.9748 68.0405 68.8846 70.9687 67.7945Z" fill="#EEF7FF"/>
<path d="M76.2456 63.4654C75.5088 62.9055 73.211 63.1259 70.615 64.0179C67.5981 65.0545 65.3179 66.651 65.5285 67.5543L65.1254 72.3271C65.1254 72.3271 67.4058 73.6575 72.4574 71.9218C77.7195 70.1137 79.1226 67.3551 79.1226 67.3551L76.2456 63.4654Z" fill="url(#paint6_radial)"/>
<path d="M112.933 48.1111C115.861 47.021 118.089 45.3438 117.909 44.3649C117.729 43.3861 115.209 43.4762 112.281 44.5663C109.353 45.6564 107.125 47.3336 107.305 48.3124C107.485 49.2913 110.005 49.2011 112.933 48.1111Z" fill="#EEF7FF"/>
<path d="M118.21 43.7819C117.473 43.222 115.175 43.4424 112.579 44.3343C109.562 45.3709 107.282 46.9674 107.492 47.8707L107.089 52.6434C107.089 52.6434 109.37 53.9738 114.421 52.2381C119.684 50.4301 121.087 47.6716 121.087 47.6716L118.21 43.7819Z" fill="url(#paint7_radial)"/>
<path d="M92.3453 57.6883C96.3613 56.1923 99.4183 53.8967 99.1732 52.561C98.9282 51.2253 95.474 51.3553 91.458 52.8513C87.442 54.3473 84.385 56.6429 84.6301 57.9786C84.8751 59.3143 88.3293 59.1843 92.3453 57.6883Z" fill="#EEF7FF"/>
<path d="M99.572 51.7594C98.5717 51.0463 95.4484 51.306 91.869 52.535C87.7282 53.9568 84.6054 56.1669 84.8864 57.3707L84.3613 63.8901C84.3613 63.8901 87.5202 65.7312 94.3981 63.3696C101.557 60.9116 103.486 57.1608 103.486 57.1608L99.572 51.7594Z" fill="url(#paint8_radial)"/>
<path d="M48.5138 74.5897C48.9471 75.3014 48.7154 76.2229 47.9604 76.6925C47.2054 77.1621 46.2964 77.0632 45.7893 76.3747C45.2821 75.6863 45.5138 74.7648 46.2496 74.2242C47.1524 73.708 48.0998 73.949 48.5138 74.5897Z" fill="#D1EDFE"/>
<path d="M52.9882 70.852C53.4232 71.5616 53.1166 72.5039 52.3587 72.9725C51.6008 73.441 50.6498 73.2011 50.2147 72.4915C49.7797 71.7819 50.0864 70.8396 50.8442 70.3711C51.6021 69.9025 52.5532 70.1425 52.9882 70.852Z" fill="#D1EDFE"/>
<path d="M57.5455 67.3096C57.9063 68.0425 57.5995 68.9848 56.8223 69.3825C56.045 69.7803 55.0939 69.5404 54.7331 68.8075C54.3723 68.0747 54.6791 67.1323 55.4564 66.7346C56.2336 66.3368 57.1106 66.6 57.5455 67.3096Z" fill="#D1EDFE"/>
<path d="M62.202 63.9594C62.5626 64.6926 62.182 65.6586 61.4052 66.0564C60.6284 66.4542 59.6779 66.2141 59.2979 65.41C58.9373 64.6768 59.2439 63.7342 60.0948 63.313C60.965 62.9628 61.9155 63.2029 62.202 63.9594Z" fill="#D1EDFE"/>
<path d="M67.0673 60.74C67.3533 61.4973 67.0471 62.441 66.1781 62.7915C65.4024 63.1896 64.508 62.8549 64.148 62.1209C63.788 61.3869 64.1683 60.42 65.0373 60.0695C65.813 59.6713 66.7073 60.006 67.0673 60.74Z" fill="#D1EDFE"/>
<path d="M71.9831 57.8105C72.2689 58.5681 71.8697 59.4644 71.0752 59.7917C70.2807 60.1189 69.3868 59.784 69.027 59.0497C68.6672 58.3154 69.1403 57.3958 69.9348 57.0685C70.7841 56.647 71.6779 56.9819 71.9831 57.8105Z" fill="#D1EDFE"/>
<path d="M77.0034 54.9107C77.29 55.6668 76.8157 56.5849 76.0191 56.9117C75.2225 57.2386 74.307 56.8337 74.0203 56.0775C73.7336 55.3214 74.208 54.4034 75.0046 54.0765C75.8753 53.7264 76.7167 54.1546 77.0034 54.9107Z" fill="#D1EDFE"/>
<path d="M82.1042 52.2073C82.3168 52.9868 81.8425 53.9048 81.0267 54.1608C80.2302 54.4876 79.3147 54.0826 79.1021 53.3032C78.8154 52.547 79.2897 51.629 80.1603 51.2789C80.9761 51.0229 81.8917 51.4279 82.1042 52.2073Z" fill="#D1EDFE"/>
<path d="M87.3329 49.7548C87.5455 50.5342 87.0711 51.4521 86.2551 51.7081C85.4391 51.964 84.5975 51.5358 84.3108 50.7798C84.0983 50.0005 84.5727 49.0826 85.3887 48.8266C86.2595 48.4765 87.1011 48.9047 87.3329 49.7548Z" fill="#D1EDFE"/>
<path d="M92.5812 47.3721C92.7936 48.1516 92.2258 49.0221 91.4101 49.2782C90.5943 49.5342 89.7338 49.0351 89.5214 48.2556C89.3089 47.4761 89.8767 46.6056 90.6925 46.3496C91.5082 46.0935 92.4429 46.5694 92.5812 47.3721Z" fill="#D1EDFE"/>
<path d="M97.9298 45.1763C98.068 45.9792 97.5746 46.8267 96.6849 47.106C95.7953 47.3853 95.0091 46.8627 94.8708 46.0597C94.7326 45.2567 95.226 44.4093 96.1157 44.13C96.9312 43.8739 97.7722 44.3024 97.9298 45.1763Z" fill="#D1EDFE"/>
<path d="M103.357 43.1789C103.496 43.9816 102.928 44.8521 102.093 45.0372C101.257 45.2224 100.397 44.7233 100.258 43.9207C100.12 43.118 100.688 42.2475 101.523 42.0624C102.433 41.8539 103.219 42.3763 103.357 43.1789Z" fill="#D1EDFE"/>
<path d="M108.837 41.3142C108.975 42.1178 108.314 42.9415 107.461 43.0558C106.627 43.241 105.842 42.718 105.704 41.9144C105.566 41.1108 106.133 40.2395 107.06 40.1019C107.894 39.9166 108.679 40.4397 108.837 41.3142Z" fill="#D1EDFE"/>
<path d="M114.329 39.5946C114.393 40.4201 113.805 41.2194 112.95 41.3337C112.095 41.448 111.308 40.9259 111.244 40.1004C111.18 39.2748 111.767 38.4756 112.622 38.3613C113.477 38.247 114.19 38.7923 114.329 39.5946Z" fill="#D1EDFE"/>
<path d="M119.899 38.0796C119.963 38.9062 119.283 39.6588 118.429 39.7731C117.575 39.8874 116.845 39.2703 116.707 38.467C116.643 37.6404 117.303 36.817 118.176 36.7736C119.03 36.6593 119.835 37.253 119.899 38.0796Z" fill="#D1EDFE"/>
<path d="M125.472 36.7087C125.536 37.5351 124.856 38.2874 124.002 38.4017C123.148 38.516 122.417 37.8992 122.353 37.0728C122.289 36.2465 122.969 35.4942 123.823 35.3799C124.677 35.2655 125.482 35.8591 125.472 36.7087Z" fill="#D1EDFE"/>
<path d="M131.101 35.479C131.091 36.3283 130.411 37.0803 129.537 37.1237C128.663 37.1672 127.931 36.5507 127.941 35.7014C127.951 34.8522 128.632 34.1002 129.506 34.0568C130.38 34.0133 131.111 34.6298 131.101 35.479Z" fill="#D1EDFE"/>
<path d="M136.824 34.435C136.814 35.2842 136.114 35.9653 135.26 36.0796C134.386 36.1231 133.728 35.4834 133.664 34.6575C133.674 33.8083 134.355 33.0563 135.229 33.0129C136.103 32.9694 136.834 33.5858 136.824 34.435Z" fill="#D1EDFE"/>
<path d="M63.5086 475.701C82.4821 466.954 113.938 103.673 76.9898 69.8522C87.9745 59.9392 110.942 49.4431 114.937 51.1924C137.406 59.356 551.828 205.718 551.828 418.556C562.812 500.192 44.535 484.448 63.5086 475.701Z" fill="url(#paint9_linear)"/>
<ellipse cx="43.5602" cy="28.6262" rx="7.43256" ry="7.48312" fill="url(#paint10_radial)"/>
<ellipse cx="235.816" cy="218.198" rx="7.43256" ry="7.48312" fill="url(#paint11_radial)"/>
<ellipse cx="94.1016" cy="103.457" rx="7.43256" ry="7.48312" fill="url(#paint12_radial)"/>
<ellipse cx="372.755" cy="208.583" rx="7.43256" ry="7.48312" fill="url(#paint13_radial)"/>
<ellipse cx="101.755" cy="257.29" rx="7.43256" ry="7.48312" fill="url(#paint14_radial)"/>
<ellipse cx="352.755" cy="70.5315" rx="7.43256" ry="7.48312" fill="url(#paint15_radial)"/>
<ellipse cx="201.755" cy="38.6941" rx="7.43256" ry="7.48312" fill="url(#paint16_radial)"/>
<ellipse cx="483.755" cy="38.6941" rx="7.43256" ry="7.48312" fill="url(#paint17_radial)"/>
<ellipse cx="275.456" cy="128.401" rx="7.43256" ry="7.48312" fill="url(#paint18_radial)"/>
<ellipse cx="124.456" cy="96.5637" rx="7.43256" ry="7.48312" fill="url(#paint19_radial)"/>
<ellipse cx="456.456" cy="96.5637" rx="7.43256" ry="7.48312" fill="url(#paint20_radial)"/>
</g>
<defs>
<linearGradient id="paint0_linear" x1="560.128" y1="1.03452e-06" x2="509.198" y2="494.289" gradientUnits="userSpaceOnUse">
<stop stop-color="#4B12AD"/>
<stop offset="1" stop-color="#D6739A"/>
</linearGradient>
<linearGradient id="paint1_linear" x1="7.50434e-07" y1="-11.5" x2="270.145" y2="568.098" gradientUnits="userSpaceOnUse">
<stop offset="0.0029462" stop-color="#1F2666"/>
<stop offset="1" stop-color="#1624A1"/>
</linearGradient>
<radialGradient id="paint2_radial" cx="0" cy="0" r="1" gradientUnits="userSpaceOnUse" gradientTransform="translate(56.2355 77.8118) rotate(-18.952) scale(8.60685 3.79459)">
<stop stop-color="#D7E7FF"/>
<stop offset="1" stop-color="#D7E7FF" stop-opacity="0"/>
</radialGradient>
<radialGradient id="paint3_radial" cx="0" cy="0" r="1" gradientUnits="userSpaceOnUse" gradientTransform="translate(61.584 81.8037) rotate(-18.9843) scale(5.18997 2.29253)">
<stop stop-color="#D7E7FF"/>
<stop offset="1" stop-color="#D7E7FF" stop-opacity="0"/>
</radialGradient>
<radialGradient id="paint4_radial" cx="0" cy="0" r="1" gradientUnits="userSpaceOnUse" gradientTransform="translate(130.407 48.4943) rotate(-18.9843) scale(5.19004 2.2925)">
<stop stop-color="#D7E7FF"/>
<stop offset="1" stop-color="#D7E7FF" stop-opacity="0"/>
</radialGradient>
<radialGradient id="paint5_radial" cx="0" cy="0" r="1" gradientUnits="userSpaceOnUse" gradientTransform="translate(130.897 42.7882) rotate(-18.9514) scale(8.60673 3.79451)">
<stop stop-color="#D7E7FF"/>
<stop offset="1" stop-color="#D7E7FF" stop-opacity="0"/>
</radialGradient>
<radialGradient id="paint6_radial" cx="0" cy="0" r="1" gradientUnits="userSpaceOnUse" gradientTransform="translate(71.1185 66.177) rotate(-18.9626) scale(10.3855 4.58122)">
<stop stop-color="#D7E7FF"/>
<stop offset="1" stop-color="#D7E7FF" stop-opacity="0"/>
</radialGradient>
<radialGradient id="paint7_radial" cx="0" cy="0" r="1" gradientUnits="userSpaceOnUse" gradientTransform="translate(113.063 46.5002) rotate(-18.9622) scale(10.3855 4.58116)">
<stop stop-color="#D7E7FF"/>
<stop offset="1" stop-color="#D7E7FF" stop-opacity="0"/>
</radialGradient>
<radialGradient id="paint8_radial" cx="0" cy="0" r="1" gradientUnits="userSpaceOnUse" gradientTransform="translate(92.5538 55.4337) rotate(-18.9504) scale(14.1513 6.23875)">
<stop stop-color="#D7E7FF"/>
<stop offset="1" stop-color="#D7E7FF" stop-opacity="0"/>
</radialGradient>
<linearGradient id="paint9_linear" x1="74.366" y1="-1.67225" x2="237.644" y2="302.852" gradientUnits="userSpaceOnUse">
<stop stop-color="#00D4FF"/>
<stop offset="1" stop-color="#320B84" stop-opacity="0"/>
</linearGradient>
<radialGradient id="paint10_radial" cx="0" cy="0" r="1" gradientUnits="userSpaceOnUse" gradientTransform="translate(43.5602 28.6262) rotate(90) scale(7.48312 7.43256)">
<stop stop-color="white" stop-opacity="0.52"/>
<stop offset="0.395833" stop-color="white" stop-opacity="0.14"/>
<stop offset="0.677083" stop-color="white" stop-opacity="0"/>
</radialGradient>
<radialGradient id="paint11_radial" cx="0" cy="0" r="1" gradientUnits="userSpaceOnUse" gradientTransform="translate(235.816 218.198) rotate(90) scale(7.48312 7.43256)">
<stop stop-color="white" stop-opacity="0.52"/>
<stop offset="0.395833" stop-color="white" stop-opacity="0.14"/>
<stop offset="0.677083" stop-color="white" stop-opacity="0"/>
</radialGradient>
<radialGradient id="paint12_radial" cx="0" cy="0" r="1" gradientUnits="userSpaceOnUse" gradientTransform="translate(94.1016 103.457) rotate(90) scale(7.48312 7.43256)">
<stop stop-color="white" stop-opacity="0.52"/>
<stop offset="0.395833" stop-color="white" stop-opacity="0.14"/>
<stop offset="0.677083" stop-color="white" stop-opacity="0"/>
</radialGradient>
<radialGradient id="paint13_radial" cx="0" cy="0" r="1" gradientUnits="userSpaceOnUse" gradientTransform="translate(372.755 208.583) rotate(90) scale(7.48312 7.43256)">
<stop stop-color="white" stop-opacity="0.52"/>
<stop offset="0.395833" stop-color="white" stop-opacity="0.14"/>
<stop offset="0.677083" stop-color="white" stop-opacity="0"/>
</radialGradient>
<radialGradient id="paint14_radial" cx="0" cy="0" r="1" gradientUnits="userSpaceOnUse" gradientTransform="translate(101.755 257.29) rotate(90) scale(7.48312 7.43256)">
<stop stop-color="white" stop-opacity="0.52"/>
<stop offset="0.395833" stop-color="white" stop-opacity="0.14"/>
<stop offset="0.677083" stop-color="white" stop-opacity="0"/>
</radialGradient>
<radialGradient id="paint15_radial" cx="0" cy="0" r="1" gradientUnits="userSpaceOnUse" gradientTransform="translate(352.755 70.5315) rotate(90) scale(7.48312 7.43256)">
<stop stop-color="white" stop-opacity="0.52"/>
<stop offset="0.395833" stop-color="white" stop-opacity="0.14"/>
<stop offset="0.677083" stop-color="white" stop-opacity="0"/>
</radialGradient>
<radialGradient id="paint16_radial" cx="0" cy="0" r="1" gradientUnits="userSpaceOnUse" gradientTransform="translate(201.755 38.6941) rotate(90) scale(7.48312 7.43256)">
<stop stop-color="white" stop-opacity="0.52"/>
<stop offset="0.395833" stop-color="white" stop-opacity="0.14"/>
<stop offset="0.677083" stop-color="white" stop-opacity="0"/>
</radialGradient>
<radialGradient id="paint17_radial" cx="0" cy="0" r="1" gradientUnits="userSpaceOnUse" gradientTransform="translate(483.755 38.6941) rotate(90) scale(7.48312 7.43256)">
<stop stop-color="white" stop-opacity="0.52"/>
<stop offset="0.395833" stop-color="white" stop-opacity="0.14"/>
<stop offset="0.677083" stop-color="white" stop-opacity="0"/>
</radialGradient>
<radialGradient id="paint18_radial" cx="0" cy="0" r="1" gradientUnits="userSpaceOnUse" gradientTransform="translate(275.456 128.401) rotate(90) scale(7.48312 7.43256)">
<stop stop-color="white" stop-opacity="0.52"/>
<stop offset="0.395833" stop-color="white" stop-opacity="0.14"/>
<stop offset="0.677083" stop-color="white" stop-opacity="0"/>
</radialGradient>
<radialGradient id="paint19_radial" cx="0" cy="0" r="1" gradientUnits="userSpaceOnUse" gradientTransform="translate(124.456 96.5637) rotate(90) scale(7.48312 7.43256)">
<stop stop-color="white" stop-opacity="0.52"/>
<stop offset="0.395833" stop-color="white" stop-opacity="0.14"/>
<stop offset="0.677083" stop-color="white" stop-opacity="0"/>
</radialGradient>
<radialGradient id="paint20_radial" cx="0" cy="0" r="1" gradientUnits="userSpaceOnUse" gradientTransform="translate(456.456 96.5637) rotate(90) scale(7.48312 7.43256)">
<stop stop-color="white" stop-opacity="0.52"/>
<stop offset="0.395833" stop-color="white" stop-opacity="0.14"/>
<stop offset="0.677083" stop-color="white" stop-opacity="0"/>
</radialGradient>
<clipPath id="clip0">
<rect x="0.127625" width="560" height="444" fill="white"/>
</clipPath>
</defs>
</svg>
