<svg width="272" height="300" viewBox="0 0 272 300" fill="none" xmlns="http://www.w3.org/2000/svg">
<path opacity="0.1" d="M24.3982 241.505C34.4798 270.654 110.326 275.83 120.923 262.943C152.883 248.857 219.39 211.894 229.74 176.729C241.191 171.761 255.53 130.734 254.122 119.102C252.407 104.94 256.133 73.2613 224.058 48.4291C214.47 41.0057 155.332 5.46353 106.665 33.3291C51.165 65.107 35.6393 104.593 23.5717 149.227C16.8667 179.416 11.7962 205.069 24.3982 241.505Z" fill="url(#paint0_linear)"/>
<path d="M184.526 230.543L231.704 203.476L231.655 194.979L184.453 222.022L184.526 230.543Z" fill="#F4214E"/>
<path d="M231.655 194.979L199.046 175.777L151.869 202.844L184.453 222.022L231.655 194.979Z" fill="#FF3D60"/>
<path d="M184.551 230.543L184.454 222.022L151.845 202.844V203.985L152.549 204.374L152.573 211.122L151.893 210.758L151.942 211.729L184.551 230.543Z" fill="#FF3369"/>
<path d="M183.749 229.208V227.8L183.701 222.459L152.549 204.374L152.573 211.122L183.749 229.208Z" fill="#BC7800"/>
<path d="M183.749 229.184L183.701 222.411L152.549 204.325L152.573 211.074L183.749 229.184Z" fill="#E0E0E0"/>
<path d="M188.75 227.848L188.702 219.983L185.715 221.731L185.764 229.572L188.75 227.848Z" fill="#FF3D60"/>
<path d="M193.898 224.887L193.849 217.021L190.863 218.745L190.911 226.586L193.898 224.887Z" fill="#FF3D60"/>
<path d="M199.046 221.901L198.997 214.036L196.011 215.783L196.059 223.625L199.046 221.901Z" fill="#FF3D60"/>
<path d="M204.217 218.915L204.144 211.074L201.158 212.797L201.231 220.663L204.217 218.915Z" fill="#FF3D60"/>
<path d="M209.365 215.953L209.316 208.112L206.306 209.812L206.378 217.677L209.365 215.953Z" fill="#FF3D60"/>
<path d="M214.513 212.968L214.464 205.126L211.477 206.85L211.526 214.715L214.513 212.968Z" fill="#FF3D60"/>
<path d="M186.129 219.497L227.989 195.488V189.347L186.129 213.355V219.497Z" fill="#00008E"/>
<path d="M227.988 189.347L198.439 172.621L156.773 196.678L186.129 213.356L227.988 189.347Z" fill="#0400A4"/>
<path d="M186.128 213.356L156.773 196.654V197.382L157.453 197.795V202.383L156.773 202.043V202.796L186.128 219.497V213.356Z" fill="#0E0EC4"/>
<path d="M185.448 218.332V217.264V213.744L157.453 197.795V202.383L185.448 218.332Z" fill="#114C63"/>
<path d="M185.448 218.332V213.744L157.453 197.795V202.383L185.448 218.332Z" fill="#E0E0E0"/>
<path d="M225.634 195.294V192.114L190.038 212.652V215.832L225.634 195.294Z" fill="#0E0EC4"/>
<path d="M156.773 202.043L157.453 201.63V202.383L156.773 202.043Z" fill="#114C63"/>
<path d="M220.656 190.634L213.712 194.688L190.402 181.19L197.468 177.088L220.656 190.634Z" fill="#2A2ADB"/>
<path d="M185.911 205.66C185.935 205.66 185.983 205.66 186.008 205.636L207.18 193.352C207.253 193.304 207.278 193.255 207.278 193.182C207.278 193.11 207.253 193.061 207.18 193.013L192.952 184.783C192.879 184.734 192.806 184.734 192.758 184.783L171.658 197.067C171.585 197.091 171.561 197.164 171.561 197.237C171.561 197.309 171.609 197.382 171.658 197.406L185.838 205.636C185.838 205.66 185.862 205.66 185.911 205.66ZM206.671 193.182L185.911 205.223L172.119 197.212L192.831 185.171L206.671 193.182Z" fill="#2A2ADB"/>
<path d="M191.155 205.005L218.907 188.886L200.114 178.034L172.361 194.154L191.155 205.005Z" fill="#9F9FC9"/>
<path d="M191.883 206.097L219.636 189.978L219.66 180.802L191.907 196.921L191.883 206.097Z" fill="#9F9FC9"/>
<path d="M172.944 193.886L191.228 204.471L191.252 197.018L172.969 186.434C172.993 186.506 173.503 187.866 173.478 190.415C173.454 193.037 172.944 193.886 172.944 193.886Z" fill="#E0E0E0"/>
<path d="M172.386 185.633V186.361L191.179 197.212L191.155 205.005L172.362 194.154V194.833L191.884 206.097L191.908 196.921L172.386 185.633Z" fill="#C5C5ED"/>
<path d="M191.907 196.921L219.66 180.802L200.138 169.514L172.385 185.633L191.907 196.921Z" fill="#B3B2DA"/>
<path d="M217.766 180.802L200.139 170.63L174.304 185.633L191.908 195.804L217.766 180.802Z" fill="#9F9FC9"/>
<path d="M215.217 180.802L200.139 172.087L176.829 185.633L191.908 194.348L215.217 180.802Z" fill="#B3B2DA"/>
<path d="M97.9666 269.141L63.2937 249.26V240.302L97.9666 260.184V269.141Z" fill="#931438"/>
<path d="M63.2932 240.302L93.8869 222.872L128.56 242.754L97.9661 260.184L63.2932 240.302Z" fill="#9F1C3B"/>
<path d="M97.9663 269.142V260.16L128.56 242.778V243.434L127.637 243.919L127.662 251.008L128.56 250.449V251.736L97.9663 269.142Z" fill="#FF3D60"/>
<path d="M98.6951 267.685V260.596L127.638 243.919L127.662 251.007L98.6951 267.685Z" fill="#EEEEEE"/>
<path d="M65.9644 243.603V249.114C65.9644 249.187 65.9887 249.235 66.0616 249.26L95.0042 265.961C95.0527 266.01 95.1256 266.01 95.1741 265.961C95.2227 265.937 95.2712 265.864 95.2712 265.816V260.305C95.2712 260.232 95.247 260.184 95.1741 260.159L66.2315 243.458C66.183 243.433 66.1101 243.433 66.0616 243.458C66.0373 243.482 66.013 243.506 65.9887 243.53C65.9887 243.53 65.9644 243.579 65.9644 243.603ZM94.9313 265.5L66.3286 248.993V243.919L94.9313 260.426V265.5Z" fill="#FF3D60"/>
<path d="M128.56 250.449L127.637 250.061L127.662 251.008L128.56 250.449Z" fill="#9F1C3B"/>
<path d="M167.142 233.213C158.692 238.117 150.243 243.021 141.817 247.949C141.914 247.9 141.963 247.779 141.963 247.609C141.963 247.293 141.72 246.905 141.453 246.735C140.603 246.249 124.311 236.83 118.119 233.286C116.881 232.582 115.91 231.902 115.157 231.271C114.598 230.81 114.137 230.349 113.773 229.936C113.263 229.305 112.947 228.771 112.777 228.261C112.607 227.727 112.51 227.193 112.51 226.61C112.51 226.149 112.583 225.664 112.656 225.178C112.705 224.838 112.826 224.425 112.996 223.916C113.652 222.022 115.084 219.158 116.857 215.953C119.527 211.122 122.951 205.515 125.719 201.096C127.103 198.887 128.317 196.994 129.191 195.634C129.628 194.955 129.968 194.421 130.235 194.056C130.478 193.692 130.599 193.498 130.599 193.498L155.924 178.787C155.924 178.787 155.779 178.981 155.56 179.369C155.317 179.734 154.977 180.268 154.516 180.947C153.642 182.307 152.428 184.2 151.044 186.409C148.276 190.828 144.852 196.435 142.181 201.242C140.409 204.446 138.976 207.335 138.321 209.205C138.151 209.69 138.029 210.127 137.981 210.467C137.908 210.952 137.835 211.438 137.835 211.899C137.835 212.457 137.908 213.016 138.102 213.526C138.296 214.035 138.588 214.569 139.122 215.201C139.462 215.613 139.923 216.05 140.482 216.536C141.234 217.167 142.206 217.847 143.444 218.551C149.611 222.119 165.904 231.514 166.778 232C167.045 232.169 167.288 232.558 167.288 232.873C167.312 233.043 167.239 233.165 167.142 233.213Z" fill="#C6C6C6"/>
<path d="M166.801 232.024L141.477 246.735C141.234 246.614 139.825 245.788 137.786 244.599C137.567 244.477 137.325 244.332 137.033 244.162C136.887 244.089 136.742 244.016 136.596 243.919C135.698 243.409 134.629 242.778 133.488 242.147C133.124 241.953 132.784 241.734 132.42 241.516C132.347 241.467 132.25 241.419 132.177 241.37C131.886 241.2 131.57 241.03 131.279 240.836C130.21 240.229 129.166 239.622 128.195 239.064C128.025 238.967 127.855 238.87 127.685 238.772C126.665 238.19 125.791 237.68 125.16 237.316C125.087 237.267 124.99 237.219 124.917 237.195C124.359 236.879 124.043 236.685 124.043 236.685C121.712 235.35 119.624 234.136 118.119 233.262C118.046 233.213 117.973 233.165 117.9 233.14C117.609 232.971 117.317 232.801 117.05 232.631C116.807 232.485 116.589 232.339 116.37 232.194C116.176 232.048 116.006 231.927 115.836 231.805C115.69 231.684 115.52 231.563 115.399 231.465C114.743 230.956 114.112 230.373 113.602 229.718C113.335 229.353 113.092 228.965 112.898 228.552C112.752 228.213 112.631 227.848 112.582 227.46C112.558 227.411 112.558 227.363 112.558 227.314C112.437 226.368 112.558 225.396 112.825 224.498C112.874 224.328 112.947 224.134 112.995 223.94C113.02 223.891 113.068 223.77 113.117 223.624C113.165 223.479 113.214 223.357 113.262 223.212C113.262 223.163 113.287 223.163 113.287 223.139C113.529 222.532 113.845 221.828 114.209 221.051C114.913 219.546 115.836 217.822 116.856 215.977C119.527 211.147 122.95 205.539 125.718 201.121C126.155 200.417 126.568 199.761 126.981 199.13C127.831 197.771 128.608 196.581 129.191 195.659C129.628 194.979 129.967 194.445 130.21 194.081C130.405 193.765 130.55 193.571 130.575 193.522L155.899 178.787C155.875 178.835 155.754 179.03 155.535 179.345C155.292 179.709 154.952 180.243 154.491 180.923C153.908 181.846 153.131 183.035 152.281 184.395C151.893 185.026 151.456 185.681 151.019 186.385C148.251 190.803 144.827 196.411 142.156 201.218C141.137 203.063 140.238 204.786 139.51 206.316C139.121 207.141 138.781 207.918 138.514 208.573C138.441 208.768 138.32 209.107 138.272 209.18C137.907 210.2 137.713 211.317 137.81 212.409C137.81 212.457 137.81 212.506 137.834 212.555C137.834 212.579 137.834 212.627 137.834 212.652C137.834 212.676 137.834 212.676 137.834 212.7C138.053 214.084 138.951 215.201 139.971 216.123C140.068 216.22 140.165 216.293 140.287 216.39C140.335 216.439 140.384 216.463 140.432 216.512C140.53 216.584 140.602 216.609 140.627 216.73C140.578 216.779 140.505 216.803 140.457 216.851L140.7 216.73C140.845 216.827 140.991 216.949 141.137 217.07C141.307 217.191 141.501 217.337 141.671 217.458C141.889 217.604 142.108 217.75 142.326 217.895C142.593 218.065 142.861 218.235 143.176 218.405C143.249 218.454 143.322 218.502 143.395 218.526C144.9 219.4 147.037 220.638 149.392 221.974C150.096 222.386 150.849 222.823 151.577 223.236C155.681 225.591 160.1 228.164 163.111 229.888C165.175 231.077 166.559 231.878 166.801 232.024Z" fill="url(#paint1_linear)"/>
<path d="M167.312 232.874V232.849C167.312 232.849 167.312 232.849 167.312 232.825V232.801V232.776V232.752V232.728V232.704V232.679V232.655V232.631C167.312 232.631 167.312 232.631 167.312 232.607V232.582C167.312 232.582 167.312 232.582 167.312 232.558V232.534V232.509V232.485C167.312 232.485 167.312 232.461 167.287 232.461C167.287 232.437 167.263 232.437 167.263 232.412C167.239 232.388 167.239 232.364 167.214 232.34C167.214 232.34 167.19 232.315 167.19 232.291C167.19 232.267 167.19 232.267 167.166 232.267L167.142 232.242L167.117 232.218C167.117 232.218 167.117 232.194 167.093 232.194L167.069 232.17C167.069 232.17 167.044 232.17 167.044 232.145C167.044 232.145 167.02 232.145 167.02 232.121C167.02 232.121 167.02 232.097 166.996 232.097C166.996 232.097 166.996 232.097 166.972 232.072C166.972 232.072 166.972 232.048 166.947 232.048C166.947 232.048 166.947 232.048 166.923 232.048C166.923 232.048 166.923 232.048 166.899 232.048C166.899 232.048 166.874 232.048 166.874 232.024L141.55 246.735C141.55 246.735 141.574 246.735 141.574 246.759C141.574 246.759 141.574 246.759 141.598 246.759C141.598 246.759 141.598 246.759 141.623 246.784L141.647 246.808C141.647 246.808 141.647 246.832 141.671 246.832C141.671 246.832 141.671 246.832 141.695 246.832L141.72 246.856C141.72 246.856 141.744 246.856 141.744 246.881C141.744 246.881 141.768 246.881 141.768 246.905C141.768 246.905 141.768 246.929 141.793 246.929C141.793 246.929 141.817 246.929 141.817 246.954C141.817 246.954 141.817 246.978 141.841 246.978L141.865 247.002C141.865 247.002 141.89 247.026 141.89 247.051C141.89 247.075 141.914 247.099 141.914 247.099C141.914 247.124 141.938 247.124 141.938 247.148C141.938 247.172 141.938 247.172 141.962 247.172V247.196V247.221V247.245V247.269C141.962 247.269 141.962 247.293 141.987 247.293V247.318C141.987 247.342 141.987 247.342 141.987 247.342V247.366V247.391V247.415V247.439V247.463V247.488C141.987 247.488 141.987 247.488 141.987 247.512V247.536C141.987 247.56 141.987 247.56 141.987 247.56C141.987 247.56 141.987 247.56 141.987 247.585C141.987 247.585 141.987 247.585 141.987 247.609V247.633V247.658V247.682C141.987 247.706 141.987 247.706 141.987 247.706V247.73V247.755V247.779C141.987 247.803 141.987 247.803 141.962 247.803C141.938 247.828 141.914 247.876 141.865 247.9L167.19 233.165C167.214 233.141 167.263 233.116 167.287 233.092C167.287 233.092 167.287 233.068 167.312 233.044V233.019V232.995V232.971C167.312 232.971 167.312 232.971 167.312 232.946V232.922V232.898V232.874C167.312 232.898 167.312 232.898 167.312 232.874Z" fill="#474763"/>
<path d="M141.963 247.609C141.963 247.925 141.72 248.07 141.453 247.901C140.603 247.415 124.311 237.996 118.143 234.427C116.711 233.602 114.501 231.733 113.579 230.956C112.656 230.155 113.044 230.422 112.534 229.621C112.195 229.087 111.952 228.528 111.806 228.019C111.733 227.824 111.685 227.63 111.66 227.436C111.563 226.95 111.515 226.489 111.515 226.028C111.515 225.47 111.587 224.911 111.66 224.401C111.733 223.989 111.855 223.528 112.049 222.993C112.219 222.459 112.462 221.877 112.753 221.221C113.311 219.935 114.064 218.43 114.938 216.803C116.662 213.526 118.896 209.739 121.081 206.122C125.452 198.912 129.701 192.43 129.701 192.43C129.798 192.285 129.968 192.285 130.138 192.382C130.235 192.43 130.308 192.503 130.381 192.6C130.624 192.891 130.721 193.304 130.575 193.498C130.575 193.498 130.454 193.693 130.211 194.057C129.968 194.421 129.628 194.955 129.191 195.635C128.317 196.97 127.103 198.888 125.719 201.097C122.951 205.491 119.527 211.123 116.856 215.953C115.084 219.158 113.651 222.022 112.996 223.916C112.826 224.426 112.704 224.838 112.656 225.178C112.559 225.664 112.51 226.149 112.51 226.611V226.635C112.51 227.193 112.583 227.727 112.777 228.237C112.971 228.747 113.263 229.305 113.773 229.912C114.137 230.325 114.574 230.762 115.157 231.247C115.909 231.878 116.881 232.534 118.119 233.262C124.286 236.831 140.579 246.225 141.453 246.735C141.744 246.905 141.963 247.294 141.963 247.609Z" fill="#0C1528"/>
<path d="M155.996 178.52V178.496C155.996 178.496 155.996 178.496 155.996 178.471V178.447V178.423V178.398V178.374C155.996 178.374 155.996 178.374 155.996 178.35C155.996 178.326 155.996 178.326 155.996 178.326V178.301C155.996 178.277 155.996 178.277 155.996 178.277C155.996 178.277 155.996 178.277 155.996 178.253C155.996 178.253 155.996 178.253 155.996 178.229V178.204V178.18V178.156C155.996 178.156 155.996 178.156 155.996 178.131V178.107C155.996 178.083 155.972 178.083 155.972 178.059C155.972 178.059 155.972 178.034 155.948 178.034C155.948 178.034 155.948 178.034 155.948 178.01C155.948 178.01 155.948 178.01 155.948 177.986C155.948 177.986 155.948 177.961 155.923 177.937C155.923 177.937 155.923 177.913 155.899 177.913L155.875 177.889L155.851 177.864L155.826 177.84C155.826 177.84 155.826 177.816 155.802 177.816L155.778 177.792L155.753 177.767C155.753 177.767 155.729 177.767 155.729 177.743C155.729 177.743 155.729 177.743 155.705 177.719C155.705 177.719 155.705 177.719 155.681 177.719C155.681 177.719 155.681 177.694 155.656 177.694H155.632C155.632 177.694 155.632 177.694 155.608 177.694C155.608 177.694 155.608 177.694 155.583 177.67H155.559C155.559 177.67 155.559 177.67 155.535 177.67C155.535 177.67 155.535 177.67 155.511 177.67C155.511 177.67 155.511 177.67 155.486 177.67H155.462C155.462 177.67 155.462 177.67 155.438 177.67H155.413H155.389H155.365C155.365 177.67 155.365 177.67 155.341 177.67H155.316C155.316 177.67 155.292 177.67 155.268 177.67C146.818 182.574 138.393 187.478 129.943 192.406C129.967 192.381 129.992 192.381 130.016 192.381C130.04 192.381 130.064 192.381 130.089 192.381C130.162 192.381 130.234 192.406 130.283 192.454C130.332 192.478 130.38 192.503 130.404 192.551C130.453 192.6 130.477 192.624 130.526 192.673C130.55 192.697 130.574 192.745 130.599 192.77C130.599 192.77 130.599 192.77 130.599 192.794C130.623 192.843 130.647 192.867 130.671 192.891C130.696 192.94 130.696 192.964 130.72 193.013C130.744 193.085 130.769 193.182 130.769 193.255C130.769 193.28 130.769 193.328 130.769 193.377C130.769 193.425 130.769 193.449 130.744 193.474C130.744 193.498 130.72 193.522 130.696 193.547L156.021 178.835C156.021 178.835 156.021 178.811 156.045 178.811V178.787V178.763V178.738V178.714C156.045 178.714 156.045 178.714 156.045 178.69V178.665V178.641C155.996 178.544 155.996 178.544 155.996 178.52Z" fill="#BDBDD1"/>
<path opacity="0.4" d="M155.924 178.811C155.9 178.86 155.778 179.054 155.56 179.37C155.317 179.734 154.977 180.268 154.516 180.948C153.933 181.87 153.156 183.06 152.306 184.419C151.918 185.05 151.48 185.706 151.043 186.41C148.275 190.828 144.852 196.436 142.181 201.242C141.161 203.087 140.263 204.811 139.534 206.34C139.146 207.165 138.806 207.942 138.539 208.598C138.466 208.792 138.345 209.132 138.296 209.205C137.932 210.224 137.738 211.341 137.835 212.433C137.835 212.482 137.835 212.53 137.859 212.579C137.859 212.603 137.859 212.652 137.859 212.676C130.866 217.07 118.774 224.668 112.85 228.528C112.704 228.188 112.583 227.824 112.534 227.436C112.51 227.387 112.51 227.339 112.51 227.29C112.389 226.343 112.51 225.372 112.777 224.474C112.826 224.304 112.898 224.11 112.947 223.916C112.971 223.867 113.02 223.746 113.068 223.6C113.117 223.455 113.165 223.333 113.214 223.188C113.214 223.139 113.238 223.139 113.238 223.115C113.481 222.508 113.797 221.804 114.161 221.027C114.865 219.522 115.788 217.798 116.808 215.953C119.478 211.122 122.902 205.515 125.67 201.097C126.107 200.393 126.52 199.737 126.933 199.106C127.782 197.746 128.559 196.557 129.142 195.634C129.579 194.955 129.919 194.421 130.162 194.057C130.356 193.741 130.502 193.547 130.526 193.498L155.924 178.811Z" fill="url(#paint2_linear)"/>
<path opacity="0.8" d="M130.599 193.522C130.599 193.522 130.478 193.716 130.235 194.081C129.992 194.445 129.652 194.979 129.215 195.659C128.341 196.994 127.127 198.912 125.743 201.121C122.975 205.515 119.552 211.147 116.881 215.977C115.108 219.182 113.676 222.046 113.02 223.94C112.85 224.45 112.729 224.862 112.68 225.202C112.583 225.688 112.535 226.173 112.535 226.635V226.659L111.879 227.508L111.66 227.46C111.563 226.974 111.515 226.513 111.515 226.052C111.515 225.494 111.588 224.935 111.66 224.425C111.733 224.013 111.855 223.552 112.049 223.017C112.219 222.483 112.462 221.901 112.753 221.245C113.311 219.959 114.064 218.454 114.938 216.827C116.662 213.55 118.896 209.763 121.081 206.146C125.452 198.936 129.701 192.454 129.701 192.454C129.798 192.308 129.968 192.308 130.138 192.406C130.235 192.454 130.308 192.527 130.381 192.624C130.648 192.891 130.745 193.304 130.599 193.522Z" fill="url(#paint3_linear)"/>
<path d="M175.398 101.153C175.349 101.129 175.276 101.104 175.228 101.08C175.228 101.08 175.204 101.08 175.179 101.056C175.131 101.031 175.082 101.031 175.009 101.007C174.985 101.007 174.985 101.007 174.961 100.983C174.888 100.983 174.839 100.959 174.742 100.959H174.694C174.621 100.959 174.572 100.959 174.499 100.959C174.475 100.959 174.451 100.959 174.402 100.959C174.354 100.983 174.305 100.983 174.257 100.983C174.208 100.983 174.184 101.007 174.135 101.007C174.087 101.007 174.038 101.031 174.014 101.056C173.941 101.08 173.868 101.104 173.82 101.129C173.795 101.153 173.747 101.153 173.722 101.177C173.601 101.226 173.48 101.299 173.358 101.347L165.224 106.057L112.559 136.45L79.2462 155.676L76.7453 154.22L109.451 135.333L162.626 104.673L170.882 99.9148C171.003 99.8419 171.124 99.7934 171.246 99.7448C171.27 99.7448 171.27 99.7206 171.294 99.7206C171.319 99.6963 171.343 99.6963 171.367 99.6963C171.44 99.672 171.513 99.6477 171.561 99.6235C171.586 99.6235 171.61 99.5992 171.634 99.5992C171.659 99.5992 171.683 99.5992 171.707 99.5749C171.756 99.5749 171.78 99.5749 171.829 99.5506C171.853 99.5506 171.877 99.5264 171.901 99.5264C171.926 99.5264 171.95 99.5264 171.974 99.5264C171.999 99.5264 172.023 99.5264 172.071 99.5264C172.071 99.5264 172.096 99.5264 172.12 99.5264H172.29C172.363 99.5264 172.411 99.5506 172.46 99.5506C172.46 99.5506 172.484 99.5506 172.508 99.5506C172.508 99.5506 172.533 99.5506 172.557 99.5749C172.581 99.5749 172.606 99.5749 172.63 99.5749C172.654 99.5749 172.678 99.5992 172.703 99.5992C172.703 99.5992 172.727 99.6235 172.751 99.6235H172.776C172.824 99.6477 172.873 99.672 172.921 99.6963L175.398 101.153Z" fill="#474763"/>
<path d="M176.466 180.802C176.466 182.623 175.203 184.856 173.601 185.754L158.547 194.445L123.437 214.691L79.4644 240.084C77.8862 241.006 76.5993 240.254 76.575 238.433L76.5508 230.155L76.3565 160.604C76.3565 158.784 77.6434 156.575 79.2216 155.652L151.141 114.14L173.334 101.323C173.576 101.201 173.819 101.08 174.038 101.007C175.3 100.667 176.223 101.42 176.223 102.974L176.417 172.5L176.466 180.802Z" fill="#111B34"/>
<path d="M79.2702 155.676C79.1245 155.773 78.9788 155.87 78.8331 155.992C78.8089 156.016 78.7846 156.016 78.7603 156.04C78.6146 156.137 78.4932 156.259 78.3475 156.38C78.3232 156.405 78.2747 156.453 78.2504 156.477C78.1776 156.55 78.129 156.623 78.0562 156.696C78.0319 156.744 77.9833 156.769 77.959 156.817C77.9348 156.866 77.8862 156.914 77.8619 156.963C77.8133 157.011 77.7648 157.06 77.7162 157.109C77.692 157.157 77.6677 157.206 77.6434 157.23C77.5948 157.303 77.5463 157.351 77.4977 157.448C77.4734 157.473 77.4734 157.497 77.4491 157.521C77.3763 157.618 77.3277 157.715 77.2792 157.813C77.2792 157.813 77.2792 157.837 77.2549 157.861C77.2063 157.958 77.1578 158.031 77.1092 158.128C77.1092 158.152 77.0849 158.177 77.0606 158.225C77.0121 158.322 76.9635 158.395 76.9392 158.492C76.9392 158.517 76.9393 158.517 76.915 158.541C76.8664 158.638 76.8178 158.759 76.7936 158.856C76.7936 158.881 76.7693 158.929 76.7693 158.953C76.745 159.026 76.7207 159.099 76.6964 159.196C76.6722 159.245 76.6722 159.269 76.6722 159.318C76.6479 159.39 76.6236 159.463 76.5993 159.536C76.5993 159.585 76.575 159.633 76.575 159.682C76.5508 159.73 76.5508 159.779 76.5508 159.827C76.5508 159.9 76.5265 159.973 76.5265 160.046C76.5265 160.094 76.5022 160.143 76.5022 160.167C76.4779 160.337 76.4779 160.507 76.4779 160.677L76.575 190.876L76.7207 238.481C76.7207 239.379 77.0364 240.035 77.5706 240.326C76.9393 239.962 76.3322 239.598 75.7009 239.234C75.4824 239.112 75.2882 238.991 75.0696 238.87C74.5597 238.554 74.2441 237.947 74.2441 237.025L74.0984 187.478L74.0013 159.221C74.0013 159.051 74.0256 158.881 74.0498 158.711V158.638C74.0498 158.614 74.0498 158.589 74.0498 158.589C74.0741 158.517 74.0741 158.444 74.0984 158.347C74.0984 158.322 74.0984 158.274 74.1227 158.249C74.1227 158.225 74.1227 158.201 74.1227 158.201C74.1227 158.152 74.147 158.104 74.1713 158.08C74.1713 158.031 74.1955 157.982 74.1955 157.934C74.1955 157.91 74.1955 157.885 74.2198 157.861C74.2441 157.813 74.2441 157.788 74.2441 157.74C74.2441 157.691 74.2684 157.667 74.2684 157.643C74.2684 157.594 74.2926 157.545 74.3169 157.521L74.3412 157.424C74.3412 157.4 74.3412 157.4 74.3655 157.376C74.3898 157.303 74.4383 157.206 74.4626 157.109C74.4626 157.109 74.4626 157.084 74.4869 157.06C74.5112 156.987 74.5597 156.939 74.584 156.866C74.584 156.841 74.6083 156.817 74.6326 156.793C74.6326 156.769 74.6569 156.744 74.6811 156.696C74.7054 156.672 74.7054 156.647 74.7297 156.623C74.754 156.574 74.8025 156.502 74.8268 156.453C74.8268 156.429 74.8511 156.429 74.8511 156.405C74.8997 156.307 74.9482 156.235 74.9968 156.162C74.9968 156.162 74.9968 156.137 75.0211 156.113C75.0454 156.089 75.0696 156.065 75.0696 156.04C75.0939 155.992 75.1182 155.943 75.1668 155.919C75.191 155.895 75.191 155.87 75.2153 155.846C75.2396 155.798 75.2639 155.773 75.2882 155.749C75.3124 155.725 75.3124 155.701 75.3367 155.676C75.361 155.652 75.3853 155.628 75.4096 155.579C75.4338 155.531 75.4824 155.482 75.531 155.458C75.5552 155.433 75.5553 155.409 75.5795 155.409C75.6038 155.385 75.6281 155.361 75.6281 155.336C75.7009 155.264 75.7495 155.191 75.8223 155.118C75.8466 155.094 75.8466 155.069 75.8709 155.069C75.8709 155.045 75.8952 155.045 75.8952 155.021C76.0166 154.899 76.1623 154.778 76.308 154.681C76.3322 154.657 76.3565 154.632 76.3808 154.632C76.5265 154.535 76.6722 154.414 76.8178 154.341L79.2702 155.676Z" fill="#292942"/>
<path opacity="0.3" d="M77.4492 240.278C76.8179 239.914 76.2108 239.549 75.5795 239.185C75.361 239.064 75.1668 238.943 74.9482 238.821C74.4383 238.506 74.1227 237.899 74.1227 236.976L73.977 187.429C74.7783 188.522 75.6281 189.687 76.4779 190.804L76.6236 238.409C76.6236 239.355 76.9393 239.986 77.4492 240.278Z" fill="#292942"/>
<path d="M176.442 172.524L76.5751 230.155L76.3809 160.604C76.3809 158.784 77.6677 156.574 79.246 155.652L173.358 101.347C174.961 100.424 176.247 101.177 176.247 102.998L176.442 172.524Z" fill="#34344C"/>
<path d="M173.455 105.013V170.29L138.369 190.585L134.412 192.891L132.736 193.838L131.765 194.421L110.689 206.607L108.698 207.748L107.096 208.671L106.926 208.792L102.143 211.535L101.099 212.142L79.2459 224.79V159.536L173.455 105.013Z" fill="white"/>
<path d="M122.198 127.541L125.233 125.793L125.209 126.23L122.198 127.978V127.541Z" fill="#8E8E8E"/>
<path d="M125.743 128.973V130.867L125.306 130.6V129.337L122.198 127.541V127.978L121.64 128.293V126.594L125.743 128.973Z" fill="#292942"/>
<path d="M125.743 128.973L128.778 127.201V129.094L125.743 130.867V128.973Z" fill="#23233A"/>
<path d="M124.675 124.846L121.64 126.594L125.743 128.973L128.778 127.201L124.675 124.846Z" fill="#575777"/>
<path d="M124.48 125.089V126.91C124.48 127.055 124.577 127.201 124.771 127.298C125.16 127.516 125.791 127.516 126.155 127.298C126.349 127.177 126.447 127.031 126.447 126.91V125.089H124.48Z" fill="#23233A"/>
<path d="M126.155 124.7C126.543 124.919 126.543 125.283 126.155 125.502C125.766 125.72 125.135 125.72 124.771 125.502C124.382 125.283 124.382 124.919 124.771 124.7C125.135 124.482 125.766 124.482 126.155 124.7Z" fill="#686868"/>
<path d="M129.895 122.321C129.895 124.506 128.123 126.303 125.913 126.303C123.703 126.303 121.931 124.53 121.931 122.321C121.931 120.112 123.703 118.34 125.913 118.34C128.123 118.34 129.895 120.112 129.895 122.321Z" fill="#474763"/>
<path opacity="0.2" d="M129.895 122.321C129.895 124.506 128.123 126.303 125.913 126.303C124.116 126.303 122.611 125.113 122.125 123.511C122.951 124.263 124.043 124.725 125.257 124.725C127.418 124.725 129.239 123.244 129.749 121.253C129.846 121.569 129.895 121.933 129.895 122.321Z" fill="#474763"/>
<path d="M127.564 126.06L127.879 125.55C127.928 125.526 127.952 125.502 128.001 125.477C128.996 124.919 129.798 123.535 129.798 122.394C129.798 122.346 129.798 122.297 129.798 122.249L130.113 121.715L129.288 121.229C128.972 121.035 128.511 121.059 128.025 121.35C127.03 121.909 126.253 123.292 126.253 124.433C126.253 124.992 126.447 125.404 126.762 125.599L127.564 126.06Z" fill="#292942"/>
<path d="M128.729 125.89C127.734 126.448 126.957 126.011 126.957 124.87C126.957 123.729 127.758 122.346 128.729 121.787C129.725 121.229 130.526 121.666 130.526 122.807C130.526 123.948 129.725 125.331 128.729 125.89Z" fill="#161628"/>
<path d="M127.88 123.341C128.171 122.831 128.56 122.419 128.972 122.176C129.288 122.006 129.579 121.957 129.749 122.054C129.919 122.151 130.041 122.419 130.041 122.783C130.041 123.244 129.871 123.802 129.579 124.312C129.288 124.822 128.9 125.235 128.487 125.477C128.171 125.647 127.88 125.696 127.71 125.599C127.54 125.502 127.443 125.235 127.443 124.87C127.443 124.409 127.588 123.851 127.88 123.341Z" fill="#292942"/>
<path d="M128.463 124.142C128.196 124.288 128.001 124.166 128.001 123.875C128.001 123.584 128.196 123.22 128.463 123.074C128.73 122.928 128.924 123.05 128.924 123.341C128.924 123.608 128.706 123.996 128.463 124.142Z" fill="#474763"/>
<path opacity="0.1" d="M125.403 120.379C125.403 120.865 125.015 121.253 124.529 121.253C124.044 121.253 123.655 120.865 123.655 120.379C123.655 119.894 124.044 119.505 124.529 119.505C124.991 119.505 125.403 119.894 125.403 120.379Z" fill="white"/>
<path opacity="0.4" d="M239.863 250.935C246.297 254.649 246.297 260.67 239.863 264.36C233.428 268.074 223.012 268.074 216.602 264.36C210.167 260.645 210.167 254.625 216.602 250.935C223.036 247.221 233.452 247.221 239.863 250.935Z" fill="#98B6BE"/>
<path d="M218.835 170.46C218.811 169.708 218.665 168.98 218.423 168.203C217.281 164.464 214.125 160.386 214.125 154.608C214.125 151.889 214.805 150.069 215.558 148.903C216.48 147.447 217.524 146.961 217.524 146.961C217.524 146.961 224.469 142.956 227.309 141.305C227.407 141.257 227.479 141.208 227.552 141.159C229.179 140.237 232.433 138.343 234.788 136.984C235.905 136.329 236.827 135.819 237.24 135.576V135.552C237.24 135.552 237.24 135.552 237.264 135.552C237.264 135.552 237.264 135.552 237.289 135.527C237.289 135.527 237.289 135.527 237.313 135.527C237.313 135.503 237.337 135.503 237.337 135.503C237.362 135.479 237.386 135.479 237.386 135.479C237.434 135.455 237.434 135.455 237.434 135.455C237.823 135.236 238.77 134.678 240.834 133.488C246.515 130.211 251.614 138.829 247.292 151.817C245.957 155.822 245.326 158.007 244.986 159.439V159.463C244.573 161.114 244.524 161.77 244.16 163.056C243.48 165.46 243.723 168.907 245.301 172.281C246.783 175.388 248.069 181.142 248.264 182.016C248.264 182.089 248.288 182.137 248.288 182.137C248.288 182.137 248.288 182.137 248.288 182.186C248.288 182.258 248.239 182.404 248.167 182.574C248.118 182.695 248.069 182.793 247.997 182.938C247.244 184.516 244.622 188.109 235.759 190.998C228.523 193.353 222.672 192.794 219.248 192.017C218.301 191.799 217.549 191.58 216.99 191.386C216.553 191.241 216.262 191.119 216.092 191.046C216.067 191.046 216.092 190.876 216.14 190.561C216.65 187.842 218.981 174.442 218.835 170.46Z" fill="#139DA0"/>
<path d="M231.801 252.707C231.874 253.435 234.787 260.936 234.787 260.936C236.754 263.704 239.279 261.373 239.279 261.373C239.449 261.252 239.619 260.864 239.716 260.208C239.862 259.164 239.814 257.514 239.207 255.499C238.211 252.221 236.099 250.571 233.938 250.182C232.942 250.012 232.384 250.376 232.117 250.911C231.752 251.493 231.752 252.294 231.801 252.707Z" fill="#111B34"/>
<path d="M214.392 258.436C214.416 259.068 214.732 259.723 215.266 260.111C216.358 260.937 220.025 263.461 223.4 264.481C226.775 265.501 227.795 264.02 227.795 264.02C227.965 263.753 228.062 263.413 228.135 263.073C228.329 262.005 228.183 260.791 227.867 260.281C226.556 258.169 221.943 257.951 217.038 256.494C215.193 255.984 214.319 257.198 214.392 258.436Z" fill="#111B34"/>
<path d="M239.425 254.698C239.425 254.698 239.425 257.684 239.085 258.291C238.745 258.897 237.361 259.844 235.37 258.946C233.622 258.121 234.229 254.868 234.229 254.868C234.229 254.868 235.54 255.814 237.022 255.645C238.478 255.45 239.425 254.698 239.425 254.698Z" fill="#FFC8AF"/>
<path d="M216.189 191.046C216.31 194.639 216.553 198.038 216.869 201.266C216.869 201.291 216.869 201.315 216.869 201.339C217.961 212.894 219.928 221.974 221.264 227.339C222.988 234.282 223.449 257.344 223.449 257.344C223.619 257.416 223.789 257.489 223.934 257.562C225.294 258.096 226.46 257.926 227.285 257.635C228.184 257.295 228.718 256.785 228.718 256.785C228.718 256.785 233.234 239.21 232.603 232.364C231.996 225.518 228.548 222.92 228.912 219.498C229.252 216.075 232.263 199.81 232.263 199.81C232.263 199.81 235.274 224.523 235.031 233.238C234.788 241.977 234.229 254.819 234.229 254.819C234.229 254.819 234.618 255.256 235.274 255.596C235.881 255.936 236.682 256.203 237.58 255.96C239.426 255.499 240.13 253.459 240.13 253.459C241.417 249.114 245.86 236.636 245.399 228.722C244.937 220.808 241.854 215.638 241.951 213.744C242.072 211.875 246.321 193.231 247.462 190.706C248.604 188.182 248.725 183.594 248.239 182.525C248.191 182.647 248.142 182.744 248.069 182.89C247.317 184.467 244.694 188.06 235.832 190.949C228.791 193.255 223.036 192.77 219.588 192.042C218.52 191.799 217.67 191.556 217.063 191.362C216.65 191.24 216.359 191.119 216.189 191.046Z" fill="#0400A4"/>
<path d="M216.189 191.046C216.31 194.639 216.553 198.038 216.869 201.266C216.869 201.291 216.869 201.315 216.869 201.339C217.961 212.894 219.928 221.974 221.264 227.339C222.988 234.282 223.449 257.344 223.449 257.344C223.619 257.416 223.789 257.489 223.934 257.562C225.294 258.096 226.46 257.926 227.285 257.635C228.184 257.295 228.718 256.785 228.718 256.785C228.718 256.785 233.234 239.21 232.603 232.364C231.996 225.518 228.548 222.92 228.912 219.498C229.252 216.075 232.263 199.81 232.263 199.81C232.263 199.81 235.274 224.523 235.031 233.238C234.788 241.977 234.229 254.819 234.229 254.819C234.229 254.819 234.618 255.256 235.274 255.596C235.881 255.936 236.682 256.203 237.58 255.96C239.426 255.499 240.13 253.459 240.13 253.459C241.417 249.114 245.86 236.636 245.399 228.722C244.937 220.808 241.854 215.638 241.951 213.744C242.072 211.875 246.321 193.231 247.462 190.706C248.604 188.182 248.725 183.594 248.239 182.525C248.191 182.647 248.142 182.744 248.069 182.89C247.317 184.467 244.694 188.06 235.832 190.949C228.791 193.255 223.036 192.77 219.588 192.042C218.52 191.799 217.67 191.556 217.063 191.362C216.65 191.24 216.359 191.119 216.189 191.046Z" fill="url(#paint4_linear)"/>
<path d="M216.189 191.046C216.189 190.9 216.164 190.73 216.164 190.561C216.164 190.561 216.189 190.561 216.262 190.561C216.189 190.876 216.164 191.046 216.189 191.046Z" fill="#2D123E"/>
<path d="M228.427 257.028L227.795 260.645C227.795 260.645 227.601 261.811 225.319 261.641C223.716 261.519 223.279 261.107 223.303 259.99C223.328 259.237 223.425 257.344 223.425 257.344C223.425 257.344 225.027 258.024 226.314 257.854C227.625 257.684 228.427 257.028 228.427 257.028Z" fill="#FFC8AF"/>
<path d="M216.237 165.071C213.712 167.741 207.642 174.005 205.481 174.66C205.481 174.66 204.315 175.315 203.077 174.563C202.737 174.369 192.248 168.907 183.701 159.585C183.701 159.585 183.677 159.56 183.653 159.536C183.604 159.488 183.555 159.439 183.531 159.415C182.924 158.735 180.69 156.453 180.909 155.968C180.909 155.943 180.933 155.919 180.957 155.919C181.249 155.701 182.196 156.89 182.487 156.672C182.778 156.453 180.52 154.026 180.909 153.856C181.419 153.637 183.24 156.065 183.458 155.773C183.653 155.458 181.176 152.375 181.856 152.35C182.56 152.326 184.162 155.264 184.527 155.215C184.527 155.215 183.58 152.593 184.09 152.666C184.624 152.739 185.644 156.235 186.202 156.04C186.761 155.822 188.412 153.71 188.314 154.511C188.217 155.288 187.003 156.939 186.858 157.206C186.858 157.206 200.989 165.314 202.956 166.333L209.317 159.269C210.531 161.017 212.474 162.595 214.076 163.687C214.125 163.712 214.149 163.736 214.173 163.76C215.048 164.343 215.776 164.78 216.237 165.071Z" fill="url(#paint5_linear)"/>
<path opacity="0.3" d="M245.835 192.114C243.99 192.454 236.099 193.716 234.132 194.42C232.165 195.1 229.494 198.086 222.866 197.139C222.866 197.139 227.503 199.955 233.185 196.969C238.842 193.984 237.434 195.926 240.396 195.246C243.237 194.542 245.835 192.114 245.835 192.114Z" fill="#E28617"/>
<path opacity="0.4" d="M231.801 252.707C231.874 253.435 234.788 260.936 234.788 260.936C236.754 263.704 239.28 261.373 239.28 261.373C239.45 261.252 239.62 260.864 239.717 260.208C238.527 261.398 236.439 261.689 235.565 260.791C234.715 259.965 233.598 256.615 232.967 254.892C232.432 253.435 232.165 252.1 232.093 250.886C231.753 251.493 231.753 252.294 231.801 252.707Z" fill="#406985"/>
<path opacity="0.4" d="M214.392 258.436C214.416 259.067 214.732 259.723 215.266 260.111C216.359 260.936 220.025 263.461 223.4 264.481C226.775 265.5 227.795 264.019 227.795 264.019C227.965 263.752 228.062 263.413 228.135 263.073C227.746 263.534 226.921 264.238 225.585 264.287C223.594 264.335 220.923 262.903 218.495 261.519C216.699 260.499 215.169 259.31 214.392 258.436Z" fill="#406985"/>
<path d="M227.285 257.635C228.183 257.295 228.718 256.785 228.718 256.785C228.718 256.785 233.234 239.21 232.602 232.364C231.995 225.518 228.548 222.92 228.912 219.498C229.252 216.075 232.263 199.81 232.263 199.81C232.263 199.81 235.273 224.523 235.031 233.238C234.788 241.977 234.229 254.819 234.229 254.819C234.229 254.819 234.618 255.256 235.273 255.596C235.54 253.654 235.88 250.813 236.22 246.735C237.046 236.83 237.604 230.349 236.803 224.401C236.026 218.454 234.642 206.826 233.768 202.432C232.918 198.038 232.408 197.285 232.408 197.285C232.408 197.285 227.212 214.739 227.406 219.061C227.576 223.382 231.194 232.072 230.247 241.734C229.519 248.75 228.038 254.819 227.285 257.635Z" fill="#0400A4"/>
<path d="M227.285 257.635C228.183 257.295 228.718 256.785 228.718 256.785C228.718 256.785 233.234 239.21 232.602 232.364C231.995 225.518 228.548 222.92 228.912 219.498C229.252 216.075 232.263 199.81 232.263 199.81C232.263 199.81 235.273 224.523 235.031 233.238C234.788 241.977 234.229 254.819 234.229 254.819C234.229 254.819 234.618 255.256 235.273 255.596C235.54 253.654 235.88 250.813 236.22 246.735C237.046 236.83 237.604 230.349 236.803 224.401C236.026 218.454 234.642 206.826 233.768 202.432C232.918 198.038 232.408 197.285 232.408 197.285C232.408 197.285 227.212 214.739 227.406 219.061C227.576 223.382 231.194 232.072 230.247 241.734C229.519 248.75 228.038 254.819 227.285 257.635Z" fill="url(#paint6_linear)"/>
<path d="M216.189 191.046C216.31 194.639 216.553 198.038 216.869 201.267C216.869 201.291 216.869 201.315 216.869 201.339C217.961 212.895 219.928 221.974 221.264 227.339C222.988 234.282 223.449 257.344 223.449 257.344C223.619 257.417 223.789 257.489 223.935 257.562C224.08 254.625 224.372 247.342 223.837 238.214C223.158 226.271 221.069 222.945 219.783 212.239C218.811 204.228 219.297 195.756 219.588 192.042C218.52 191.799 217.67 191.556 217.063 191.362C216.65 191.241 216.359 191.119 216.189 191.046Z" fill="#0400A4"/>
<path d="M216.189 191.046C216.31 194.639 216.553 198.038 216.869 201.267C216.869 201.291 216.869 201.315 216.869 201.339C217.961 212.895 219.928 221.974 221.264 227.339C222.988 234.282 223.449 257.344 223.449 257.344C223.619 257.417 223.789 257.489 223.935 257.562C224.08 254.625 224.372 247.342 223.837 238.214C223.158 226.271 221.069 222.945 219.783 212.239C218.811 204.228 219.297 195.756 219.588 192.042C218.52 191.799 217.67 191.556 217.063 191.362C216.65 191.241 216.359 191.119 216.189 191.046Z" fill="url(#paint7_linear)"/>
<path opacity="0.3" d="M216.238 190.561C216.189 190.876 216.165 191.046 216.189 191.046C216.359 191.119 216.65 191.24 217.087 191.386C217.646 191.58 218.399 191.799 219.346 192.017C219.127 190.245 218.933 186.482 220.244 181.651C222.065 174.878 222.623 171.795 220.705 167.863C218.957 164.294 214.635 155.773 215.582 148.903C214.829 150.069 214.149 151.889 214.149 154.608C214.149 160.386 217.306 164.44 218.447 168.203C218.69 168.979 218.836 169.708 218.86 170.46C218.981 174.442 216.65 187.842 216.238 190.561Z" fill="#139DA0"/>
<path d="M209.05 158.857C209.123 158.978 209.22 159.124 209.317 159.245C210.531 161.017 212.523 162.595 214.125 163.712C214.999 164.319 215.752 164.78 216.237 165.047C216.529 165.217 216.723 165.338 216.723 165.338C216.723 165.338 220.438 163.615 223.352 157.764C224.906 154.633 224.639 152.351 223.862 150.724C222.987 149.001 221.531 148.078 221.045 147.835C215.242 144.898 209.05 158.857 209.05 158.857Z" fill="#0F9191"/>
<path opacity="0.3" d="M214.125 163.712C214.999 164.319 215.752 164.78 216.237 165.047C216.529 165.217 216.723 165.338 216.723 165.338C216.723 165.338 220.438 163.615 223.352 157.764C224.906 154.633 224.639 152.351 223.862 150.724C223.206 153.904 221.045 159.293 214.125 163.712Z" fill="#139DA0"/>
<path opacity="0.3" d="M227.528 135.77C227.601 137.202 227.479 139.46 227.333 141.305C227.431 141.257 227.503 141.208 227.576 141.159C229.203 140.237 232.457 138.343 234.812 136.984C234.739 136.062 234.788 135.139 234.909 134.338C234.448 134.556 233.768 134.751 232.821 134.799C231.413 134.872 229.932 134.654 228.62 133.658C226.556 136.062 223.449 135.406 221.555 134.799C222.696 136.086 224.735 136.523 227.528 135.77Z" fill="url(#paint8_linear)"/>
<path opacity="0.3" d="M216.237 165.071C213.712 167.742 207.642 174.005 205.481 174.66C205.481 174.66 204.315 175.316 203.077 174.563C202.737 174.369 192.248 168.907 183.701 159.585C183.701 159.585 183.677 159.561 183.653 159.536C183.604 159.488 183.555 159.439 183.531 159.415C182.924 158.735 180.69 156.453 180.909 155.968C182.754 158.225 187.659 162.474 191.592 165.751C195.963 169.417 202.397 174.199 205.141 172.912C207.763 171.674 212.474 166.746 214.198 163.76C215.048 164.343 215.776 164.78 216.237 165.071Z" fill="url(#paint9_linear)"/>
<path d="M190.888 159.536C191.01 159.609 188.193 166.989 188.994 168.397C189.796 169.805 195.186 172.524 199.848 174.927C204.51 177.33 207.059 174.393 209.026 172.961C210.993 171.528 216.383 165.387 216.747 165.921C217.111 166.455 218.981 166.77 217.985 172.961C217.014 179.151 210.458 229.062 210.823 234.816C210.823 234.816 224.808 238.19 232.942 236.296C245.18 233.48 256.373 223.964 256.907 222.993C257.442 222.022 250.667 194.615 248.943 183.399C247.535 174.223 242.752 168.567 246.661 157.303C250.546 146.039 249.842 137.809 246.418 134.265C242.97 130.721 240.567 133.124 237.07 135.26C233.574 137.397 227.431 141.232 224.056 143.174C220.656 145.141 218.058 145.796 215.557 148.879C213.057 151.962 208.686 158.347 206.768 161.26C204.85 164.173 202.907 166.285 202.154 165.872C201.402 165.484 190.888 159.536 190.888 159.536Z" fill="#111B34"/>
<path d="M221.166 121.035C221.19 121.229 221.19 121.423 221.239 121.617C221.506 123.195 221.58 125.616 221.847 127.243C222.065 128.602 222.513 129.907 222.513 129.907C223.023 129.131 223.376 128.026 223.715 127.735C224.42 127.128 224.832 127.443 225.245 128.22C225.682 128.997 226.071 130.235 226.751 131.449C228.402 134.411 230.66 134.945 232.796 134.848C233.743 134.799 234.423 134.605 234.885 134.386C234.909 134.386 234.933 134.386 234.957 134.362C235.516 134.095 235.759 133.852 235.759 133.852C236.293 132.056 237.823 129.822 238.575 126.545C238.842 125.404 238.988 124.166 238.988 122.758C238.988 116.034 232.651 114.262 230.028 114.407C224.42 114.699 221.992 117.029 221.336 119.408C221.19 119.942 221.142 120.501 221.166 121.035Z" fill="url(#paint10_linear)"/>
<path d="M220.802 133.415C220.948 133.949 221.215 134.435 221.579 134.823C222.696 136.086 224.735 136.523 227.528 135.77C227.601 137.202 227.479 139.46 227.333 141.305C227.431 141.256 227.503 141.208 227.576 141.159C229.203 140.237 232.457 138.343 234.812 136.984C234.739 136.061 234.788 135.139 234.909 134.338C234.448 134.556 233.768 134.751 232.821 134.799C231.413 134.872 229.932 134.653 228.62 133.658C227.965 133.148 227.333 132.42 226.751 131.425C225.075 128.463 225.075 125.259 222.453 129.288C222.453 129.288 221.7 124.506 221.215 121.593C221.19 121.399 221.166 121.205 221.142 121.01C221.118 120.476 221.166 119.918 221.312 119.36C220.365 121.35 221.045 123.559 220.681 124.919C220.341 126.375 219.782 129.944 220.802 133.415Z" fill="#FFC8AF"/>
<path d="M229.252 128.973C227.625 128.755 226.314 128.487 225.246 128.22C225.683 128.997 226.071 130.235 226.751 131.449C228.402 134.411 230.66 134.945 232.797 134.848C233.744 134.799 234.424 134.605 234.885 134.387C234.909 134.387 234.934 134.387 234.958 134.362C235.516 134.095 235.759 133.852 235.759 133.852C236.293 132.056 237.823 129.823 238.576 126.545C236.997 128.196 234.181 129.604 229.252 128.973Z" fill="url(#paint11_linear)"/>
<path d="M229.252 128.973C227.625 128.755 226.314 128.487 225.246 128.22C225.683 128.997 226.071 130.235 226.751 131.449C228.402 134.411 230.66 134.945 232.797 134.848C233.744 134.799 234.424 134.605 234.885 134.387C234.909 134.387 234.934 134.387 234.958 134.362C235.516 134.095 235.759 133.852 235.759 133.852C236.293 132.056 237.823 129.823 238.576 126.545C236.997 128.196 234.181 129.604 229.252 128.973Z" fill="black" fill-opacity="0.08"/>
<path d="M237.823 118.219C237.458 117.466 236.754 116.738 235.71 116.131C232.505 114.286 227.333 114.286 224.128 116.131C223.084 116.738 222.38 117.442 222.016 118.219H221.725V119.481C221.725 120.695 222.526 121.909 224.128 122.831C227.333 124.676 232.505 124.676 235.71 122.831C237.313 121.909 238.114 120.695 238.114 119.481V118.219H237.823Z" fill="#09172B"/>
<path d="M235.71 114.869C238.915 116.714 238.915 119.724 235.71 121.569C232.505 123.414 227.333 123.414 224.128 121.569C220.923 119.724 220.923 116.714 224.128 114.869C227.333 113.024 232.505 113.024 235.71 114.869Z" fill="#111B34"/>
<path d="M238.114 118.219H237.823L233.598 118.17L224.93 118.097L222.089 118.073H221.725L221.822 116.277L222.113 111.033C222.113 109.892 222.89 108.727 224.396 107.853C225.027 107.489 225.731 107.222 226.484 107.003C229.397 106.178 233.015 106.469 235.443 107.853C235.589 107.95 235.735 108.047 235.88 108.12C237.094 108.97 237.726 109.989 237.726 111.033L237.968 115.548L238.09 117.927V117.952L238.114 118.219Z" fill="#111B34"/>
<path opacity="0.23" d="M237.968 115.548C237.774 115.67 237.483 115.84 237.167 116.034C236.9 116.179 236.633 116.349 236.317 116.544C235.492 117.029 234.52 117.636 233.573 118.194C231.51 119.457 229.494 120.646 229.373 120.646C229.251 120.67 227.042 119.384 224.905 118.122C224.225 117.733 223.546 117.32 222.963 116.956C222.696 116.811 222.453 116.665 222.259 116.519C222.113 116.422 221.943 116.349 221.822 116.277L222.113 111.033C222.113 109.892 222.89 108.727 224.395 107.853C225.027 107.489 225.731 107.222 226.483 107.003L235.88 108.144C237.094 108.994 237.725 110.013 237.725 111.057L237.968 115.548Z" fill="#2E2E42"/>
<path d="M238.94 120.258C239.304 120.476 239.304 120.816 238.94 121.035C238.551 121.253 237.944 121.253 237.58 121.035C237.191 120.816 237.191 120.476 237.58 120.258C237.944 120.039 238.551 120.039 238.94 120.258Z" fill="#323247"/>
<path d="M239.28 120.525C239.255 119.7 239.012 119.19 238.964 118.826H237.507C237.507 118.826 237.264 119.651 237.264 120.501C237.264 121.375 237.24 123.341 237.313 123.535C237.313 123.681 237.41 123.802 237.58 123.924C237.944 124.142 238.527 124.142 238.891 123.924C239.061 123.827 239.158 123.681 239.158 123.535C239.182 123.535 239.304 121.326 239.28 120.525Z" fill="url(#paint12_linear)"/>
<path d="M238.77 118.583C239.061 118.753 239.061 119.02 238.77 119.19C238.479 119.36 238.017 119.36 237.726 119.19C237.435 119.02 237.435 118.753 237.726 118.583C238.042 118.413 238.479 118.413 238.77 118.583Z" fill="#FFDA7D"/>
<path d="M238.891 118.461C238.891 118.85 238.576 119.141 238.212 119.141C237.847 119.141 237.532 118.826 237.532 118.461C237.532 118.073 237.847 117.782 238.212 117.782C238.6 117.782 238.891 118.073 238.891 118.461Z" fill="url(#paint13_radial)"/>
<path d="M245.058 109.382L229.932 118.17L214.708 109.382L229.834 100.594L245.058 109.382Z" fill="#34344C"/>
<path d="M214.708 109.382V108.363L215.606 108.921L214.708 109.382Z" fill="#34344C"/>
<path d="M245.059 109.382V108.363L244.088 108.921L245.059 109.382Z" fill="#65657C"/>
<path d="M245.058 108.363L229.931 117.175L214.707 108.363L229.834 99.575L245.058 108.363Z" fill="#474763"/>
<path d="M229.932 117.175V118.17L245.059 109.382V108.363L229.932 117.175Z" fill="#0C1528"/>
<path d="M238.162 118.607C238.065 118.607 237.992 118.534 237.992 118.437V113.048L230.805 108.873C230.708 108.824 230.684 108.703 230.733 108.63C230.781 108.533 230.903 108.508 230.975 108.557L238.26 112.781C238.308 112.805 238.357 112.878 238.357 112.927V118.413C238.357 118.534 238.26 118.607 238.162 118.607Z" fill="#F2B725"/>
<path d="M232.166 108.678V108.484H232.118C232.02 108.266 231.85 108.071 231.583 107.926C230.806 107.465 229.544 107.465 228.767 107.926C228.5 108.071 228.305 108.29 228.233 108.484H228.184V108.703C228.16 109.018 228.354 109.309 228.767 109.552C229.544 109.989 230.806 109.989 231.583 109.552C231.996 109.309 232.19 108.97 232.166 108.678Z" fill="#111B34"/>
<path d="M231.582 107.61C232.359 108.071 232.359 108.775 231.582 109.237C230.805 109.698 229.542 109.698 228.765 109.237C227.988 108.775 227.988 108.071 228.765 107.61C229.542 107.149 230.805 107.149 231.582 107.61Z" fill="#292942"/>
<path d="M82.815 167.911L82.5479 192.697L118.581 171.771V146.913L82.815 167.911Z" fill="#B3B2DA"/>
<path d="M125.743 166.698L126.01 191.459L161.849 170.922L161.752 145.966L125.743 166.698Z" fill="#8B9BB1"/>
<path d="M125.938 154.195V162.328L147.378 149.874L147.329 141.621L125.938 154.195Z" fill="#9F1C3B"/>
<path d="M151.189 128.148L162.164 121.812L161.849 142.373L151.189 148.466V128.148Z" fill="#0400A4"/>
<path d="M127.2 125.769L163.136 198.329L164.083 36.749L129.774 122.079C129.75 122.079 127.176 121.545 127.2 125.769Z" fill="url(#paint14_linear)"/>
<path d="M190.403 73.9639C190.403 73.9639 183.556 85.4464 181.443 87.4127C179.331 89.3791 175.664 91.1755 174.086 84.7181C173.066 80.4941 174.038 78.2122 174.839 77.1441C175.276 76.5614 175.664 76.3187 175.664 76.3187C175.664 76.3187 176.393 81.7807 177.923 81.538C179.477 81.2952 186.445 73.1385 188.412 71.0994L189.553 72.7501L190.403 73.9639Z" fill="#FFC8AF"/>
<path opacity="0.3" d="M190.403 73.9639C190.403 73.9639 183.556 85.4464 181.443 87.4128C179.331 89.3791 175.665 91.1755 174.086 84.7181C173.067 80.4941 174.038 78.2122 174.839 77.1441C174.742 81.4894 175.058 83.917 177.364 85.2279C179.962 86.7088 183.119 83.8199 185.11 80.9797C186.834 78.5278 188.97 73.9882 189.529 72.7744L190.403 73.9639Z" fill="url(#paint15_linear)"/>
<path opacity="0.5" d="M172.702 84.5723C174.839 87.2912 177.607 87.4125 180.788 88.6263C184.964 90.2285 190.67 91.0054 190.67 91.0054L191.69 90.3499C189.213 89.7673 185.523 88.1894 180.108 86.6357C175.13 85.2034 172.921 81.9747 173.649 78.1392C173.649 78.1392 172.314 81.2465 172.702 84.5723Z" fill="url(#paint16_linear)"/>
<path d="M153.812 78.4064C156.58 81.8293 157.867 83.9413 156.361 88.0196C154.929 91.8552 151.821 99.7206 151.724 105.158C151.724 105.62 151.724 106.057 151.772 106.469C150.801 122.758 154.468 150.53 154.468 150.53C155.196 150.117 156.944 149.146 159.154 147.932C165.904 144.194 177.049 138.028 177.049 138.028C181.808 116.617 180.448 98.0213 179.501 94.2828C179.501 94.2828 177.923 89.816 175.033 85.5435C174.183 84.3054 173.819 82.9217 173.746 81.5865C173.625 79.426 174.329 77.4839 175.228 76.7071L175.252 76.6828C177.704 74.5951 177.656 71.7062 176.126 67.9677C173.455 61.3404 168.575 53.378 163.354 55.5871C157.697 57.9661 150.68 62.0444 149.174 63.8651C147.645 65.6858 148.349 71.7062 152.185 76.4157C152.768 77.144 153.326 77.7752 153.812 78.4064Z" fill="#0400A4"/>
<path d="M153.812 78.4064C156.58 81.8293 157.867 83.9413 156.361 88.0196C154.929 91.8552 151.821 99.7206 151.724 105.158C151.724 105.62 151.724 106.057 151.772 106.469C150.801 122.758 154.468 150.53 154.468 150.53C155.196 150.117 156.944 149.146 159.154 147.932C165.904 144.194 177.049 138.028 177.049 138.028C181.808 116.617 180.448 98.0213 179.501 94.2828C179.501 94.2828 177.923 89.816 175.033 85.5435C174.183 84.3054 173.819 82.9217 173.746 81.5865C173.625 79.426 174.329 77.4839 175.228 76.7071L175.252 76.6828C177.704 74.5951 177.656 71.7062 176.126 67.9677C173.455 61.3404 168.575 53.378 163.354 55.5871C157.697 57.9661 150.68 62.0444 149.174 63.8651C147.645 65.6858 148.349 71.7062 152.185 76.4157C152.768 77.144 153.326 77.7752 153.812 78.4064Z" fill="url(#paint17_linear)"/>
<path d="M157.964 148.612C157.964 148.635 157.94 148.635 157.964 148.612V148.612Z" fill="#C6C6C6"/>
<path d="M158.061 148.564C158.085 148.539 158.206 148.466 158.401 148.369C158.425 148.369 158.206 148.491 158.061 148.564Z" fill="#C6C6C6"/>
<path d="M157.963 148.612C157.988 148.612 158.012 148.563 158.061 148.563C158.012 148.588 157.988 148.612 157.963 148.612Z" fill="#C6C6C6"/>
<path d="M174.839 170.8C176.805 172.305 181.637 176.384 181.079 177.864C180.545 179.345 176.635 180.098 174.037 177.743C171.439 175.364 169.91 174.223 168.38 173.762C166.85 173.301 167.117 171.213 167.943 170.29C169.036 169.077 171.973 168.615 174.839 170.8Z" fill="#0B162D"/>
<path d="M159.493 177.476C160.125 178.933 161.12 180.778 162.14 181.821C163.16 182.865 166.462 185.973 163.524 187.575C160.61 189.177 155.074 183.861 154.37 181.433C153.666 179.005 154.2 177.67 154.977 177.403C155.754 177.112 159.493 177.476 159.493 177.476Z" fill="#0B162D"/>
<path d="M167.968 170.266C168.138 171.504 169.886 173.058 171.755 174.053C173.674 175.073 175.737 175.485 176.344 174.393C176.49 174.15 176.539 173.883 176.539 173.641C176.587 171.601 173.018 169.417 173.018 169.417C173.698 159.828 176.466 142.519 177 138.028L171.173 141.232L168.453 142.737C168.477 142.762 166.778 166.746 167.968 170.266Z" fill="#FFC8AF"/>
<path d="M154.443 178.617C154.516 179.127 154.759 179.637 155.147 180.146C156.58 182.088 159.833 183.788 160.78 183.278C161.994 182.598 159.275 177.525 159.275 177.525C160.343 164.707 163.621 145.432 163.621 145.432L156.677 149.267L154.419 150.53C152.622 157.691 153.957 177.015 154.443 178.617Z" fill="#FFC8AF"/>
<path opacity="0.3" d="M154.467 150.53C155.196 150.117 156.944 149.146 159.153 147.932C158.643 144.412 157.866 139.12 156.725 131.716C154.37 116.398 153.812 108.848 156.215 102.804C158.619 96.7346 157.769 89.1119 159.396 87.6554C160.999 86.1988 166.462 80.931 170.104 81.0766C171.342 81.1252 172.605 81.3437 173.746 81.5864C173.625 79.4259 174.329 77.4838 175.227 76.707C174.304 77.2896 173.26 77.678 171.439 77.678C168.55 77.678 166.802 79.1346 165.005 81.0038C163.208 82.873 155.73 82.5817 154.831 76.4399L153.836 78.382C156.604 81.8049 157.891 83.9169 156.385 87.9952C154.953 91.8308 151.845 99.6962 151.748 105.134C151.748 105.595 151.748 106.032 151.796 106.445C150.801 122.758 154.467 150.506 154.467 150.53Z" fill="#E92440"/>
<path opacity="0.3" d="M167.968 170.266C168.138 171.504 169.886 173.058 171.755 174.053C170.857 173.203 169.813 172.014 169.157 170.776C167.798 168.251 168.138 162.983 168.648 157.011C169.109 151.404 170.032 145.092 171.173 141.232L168.453 142.737C168.478 142.762 166.778 166.746 167.968 170.266Z" fill="url(#paint18_linear)"/>
<path opacity="0.3" d="M154.443 178.617C154.516 179.127 154.759 179.637 155.147 180.146C154.2 176.214 154.079 167.377 154.394 161.357C154.686 155.871 155.681 152.181 156.701 149.292L154.443 150.554C152.622 157.691 153.957 177.015 154.443 178.617Z" fill="url(#paint19_linear)"/>
<path d="M192.2 71.609C192.977 71.6333 193.244 76.4156 192.297 76.3428C191.326 76.2699 191.52 71.5847 192.2 71.609Z" fill="url(#paint20_linear)"/>
<path d="M193.486 72.653C194.166 72.9929 194.433 76.8285 193.413 77.0712C192.394 77.2897 192.806 72.2889 193.486 72.653Z" fill="url(#paint21_linear)"/>
<path d="M193.341 96.7345L174.087 107.853V83.0429L193.341 71.9246V96.7345Z" fill="#EEEEEE"/>
<path d="M192.564 73.187L174.888 83.3829V106.591L192.564 96.3947V73.187ZM175.058 83.4557L192.37 73.454V96.3219L175.058 106.324V83.4557Z" fill="#0400A4"/>
<path d="M184.6 80.2514C184.6 80.3 184.6 80.3728 184.575 80.4213C184.527 80.6884 184.478 80.9311 184.357 81.0768C184.114 81.4167 183.92 81.6594 183.799 81.7565C183.726 81.8293 183.701 81.8536 183.701 81.8536C183.701 81.8536 183.653 81.8536 183.604 81.8779C183.483 81.9022 183.289 81.9265 183.046 81.8293C182.949 81.7808 182.876 81.6109 182.827 81.3924C182.827 81.3438 182.827 81.2953 182.803 81.2225C182.754 80.7855 182.779 80.3 182.779 80.3L184.6 79.2561C184.624 79.3047 184.648 79.7659 184.6 80.2514Z" fill="#FF3D60"/>
<path d="M183.823 79.7659V81.7808C183.75 81.8536 183.726 81.8779 183.726 81.8779C183.726 81.8779 183.678 81.8779 183.629 81.9021V79.8872L183.823 79.7659Z" fill="white"/>
<path d="M184.6 80.2512C184.6 80.2998 184.6 80.3726 184.576 80.4212L182.827 81.4165C182.827 81.3679 182.827 81.3194 182.803 81.2465L184.6 80.2512Z" fill="white"/>
<path d="M183.799 80.8095C183.799 80.8581 183.774 80.9066 183.726 80.9552C183.677 80.9795 183.629 80.9552 183.629 80.9066C183.629 80.8581 183.677 80.7853 183.726 80.761C183.774 80.7367 183.799 80.761 183.799 80.8095Z" fill="#D32E1C"/>
<path d="M191.156 95.5209L176.296 104.09V89.6461L191.156 81.0525V95.5209Z" fill="#F4F4F4"/>
<path d="M183.143 97.4145L182.488 99.9149L182.828 99.4779L182.998 99.7692L183.653 97.2688L183.143 97.4145Z" fill="#0400A4"/>
<path d="M184.309 96.7346L184.94 98.5068L184.6 98.4582L184.43 98.9437L183.774 97.1959L184.309 96.7346Z" fill="#0400A4"/>
<path d="M184.819 96.2006C184.819 96.8075 184.309 97.5843 183.702 97.9484C183.095 98.3126 182.585 98.0941 182.585 97.4872C182.585 96.8803 183.07 96.1035 183.702 95.7393C184.333 95.3995 184.819 95.5937 184.819 96.2006Z" fill="#FF3D60"/>
<path d="M184.503 96.3948C184.503 96.8318 184.163 97.3658 183.726 97.6086C183.289 97.8514 182.949 97.7057 182.949 97.293C182.949 96.8561 183.289 96.322 183.726 96.0792C184.139 95.8365 184.503 95.9821 184.503 96.3948Z" fill="#9F1C3B"/>
<path d="M190.064 85.2521L177.365 92.5834V92.4378L190.064 85.1064V85.2521Z" fill="#BAAB9B"/>
<path d="M190.064 85.9076L177.365 93.2389V93.0933L190.064 85.762V85.9076Z" fill="#BAAB9B"/>
<path d="M190.064 86.5629L177.365 93.8942V93.7243L190.064 86.4172V86.5629Z" fill="#BAAB9B"/>
<path d="M190.064 87.2185L177.365 94.5498V94.4042L190.064 87.0486V87.2185Z" fill="#BAAB9B"/>
<path d="M174.086 83.0431L193.34 71.9247L193.146 71.8276L173.891 82.9217L174.086 83.0431Z" fill="#F9EFE1"/>
<path d="M177.001 86.7086C176.903 86.8057 176.831 86.9028 176.733 87.0242C176.661 87.1456 176.612 87.267 176.563 87.3884C176.515 87.5097 176.515 87.6554 176.515 87.7768C176.515 88.0195 176.563 88.1895 176.709 88.238C176.831 88.3108 177.049 88.238 177.316 88.0924C177.365 88.0681 177.389 88.0438 177.438 88.0195C177.462 87.9952 177.51 87.971 177.535 87.9467C177.559 87.9224 177.608 87.8981 177.632 87.8496C177.68 87.8253 177.705 87.7768 177.729 87.7525C177.753 87.7282 177.778 87.7039 177.778 87.7039C177.802 87.7039 177.802 87.7039 177.826 87.7039C177.826 87.7039 177.85 87.7039 177.85 87.7282C177.85 87.7282 177.85 87.7525 177.875 87.7525H177.899C177.899 87.7525 177.899 87.7282 177.923 87.7282V87.7039C177.923 87.6554 177.923 87.6068 177.923 87.534C177.923 87.4855 177.923 87.4369 177.923 87.3641C177.923 87.3398 177.923 87.3155 177.923 87.267C177.923 87.2427 177.923 87.2184 177.923 87.1699C177.923 87.1699 177.923 87.1699 177.923 87.1456C177.923 87.1456 177.923 87.1456 177.899 87.1456C177.875 87.1456 177.875 87.1456 177.875 87.1699C177.875 87.1699 177.875 87.1941 177.85 87.1941C177.85 87.267 177.826 87.3641 177.802 87.4369C177.778 87.5097 177.729 87.5826 177.68 87.6554C177.632 87.7039 177.583 87.7525 177.535 87.801C177.486 87.8496 177.413 87.8981 177.34 87.9467C177.243 87.9952 177.171 88.0195 177.098 88.0195C177.025 88.0195 176.976 87.9952 176.952 87.9467C176.903 87.8981 176.879 87.8496 176.855 87.7768C176.831 87.7039 176.831 87.6311 176.831 87.534C176.831 87.4612 176.831 87.3641 176.855 87.2913C176.879 87.1941 176.903 87.1213 176.952 87.0242C176.976 86.9271 177.049 86.8543 177.098 86.7572C177.171 86.6844 177.243 86.6115 177.365 86.5387C177.486 86.4659 177.608 86.4416 177.68 86.4416C177.778 86.4659 177.826 86.5144 177.875 86.6358H177.899L177.923 86.6115V86.5872C177.923 86.5387 177.923 86.5144 177.923 86.4659C177.899 86.4173 177.899 86.393 177.899 86.3445C177.899 86.3202 177.899 86.2959 177.899 86.2717C177.899 86.2474 177.899 86.2231 177.899 86.1746C177.875 86.1746 177.875 86.1746 177.875 86.1746C177.875 86.1746 177.85 86.1746 177.85 86.1988V86.2231C177.85 86.2474 177.826 86.2717 177.802 86.2959H177.778C177.753 86.2959 177.753 86.2959 177.729 86.2959C177.68 86.2959 177.608 86.3202 177.559 86.3445C177.486 86.3688 177.438 86.393 177.365 86.4173C177.195 86.5387 177.098 86.6358 177.001 86.7086Z" fill="black"/>
<path d="M178.36 85.9319C178.311 85.9562 178.263 85.9804 178.214 86.0047C178.166 86.029 178.117 86.0533 178.069 86.0775C178.069 86.0775 178.069 86.0775 178.069 86.1018V86.1261V86.1504C178.093 86.1504 178.117 86.1261 178.117 86.1261C178.141 86.1261 178.141 86.1018 178.166 86.1018C178.19 86.1018 178.214 86.1018 178.214 86.1018C178.239 86.1261 178.239 86.1261 178.263 86.1504C178.263 86.1747 178.263 86.1989 178.263 86.2232C178.263 86.2475 178.263 86.296 178.263 86.3203V87.1942C178.263 87.2428 178.263 87.2671 178.263 87.2913C178.239 87.3156 178.239 87.3399 178.214 87.3642C178.19 87.3884 178.166 87.4127 178.141 87.437C178.117 87.4613 178.069 87.4855 178.044 87.5098C178.02 87.5098 178.02 87.5341 178.02 87.5584V87.5826V87.6069C178.02 87.6069 178.02 87.6069 178.044 87.6069C178.093 87.5827 178.141 87.5341 178.19 87.5098C178.239 87.4855 178.311 87.437 178.36 87.4127L179.185 86.9272C179.21 86.9272 179.234 86.9029 179.234 86.8787V86.8544C179.234 86.7815 179.234 86.733 179.234 86.6844C179.234 86.6359 179.258 86.5631 179.258 86.4902V86.466H179.234L179.21 86.4902C179.21 86.4902 179.21 86.5145 179.185 86.5145C179.185 86.5631 179.185 86.6116 179.161 86.6359C179.161 86.6844 179.137 86.7087 179.137 86.733C179.113 86.7573 179.113 86.7815 179.088 86.8058C179.064 86.8301 179.04 86.8544 179.015 86.9029C178.991 86.9029 178.967 86.9272 178.943 86.9515C178.918 86.9758 178.87 87 178.846 87.0243C178.821 87.0486 178.797 87.0486 178.773 87.0729C178.748 87.0729 178.724 87.0971 178.7 87.0971C178.676 87.0971 178.651 87.1214 178.627 87.1214C178.603 87.1214 178.603 87.1214 178.578 87.0971C178.578 87.0971 178.554 87.0486 178.554 87.0243C178.554 86.9758 178.554 86.9515 178.554 86.9029V86.5873C178.554 86.5631 178.554 86.5631 178.554 86.5388C178.554 86.5388 178.554 86.5145 178.578 86.5145C178.651 86.466 178.7 86.4417 178.748 86.4174C178.797 86.3931 178.821 86.3931 178.846 86.3931C178.87 86.3931 178.87 86.3931 178.894 86.4174C178.894 86.4417 178.918 86.4902 178.918 86.5145V86.5388C178.918 86.5388 178.918 86.5388 178.943 86.5388C178.943 86.5388 178.967 86.5388 178.967 86.5145V86.4902C178.967 86.4417 178.967 86.3931 178.967 86.3689C178.967 86.3446 178.967 86.296 178.967 86.2475C178.967 86.2232 178.967 86.1989 178.967 86.1747C178.967 86.1504 178.967 86.1261 178.967 86.1018C178.967 86.0775 178.967 86.0533 178.967 86.0533C178.967 86.029 178.967 86.0047 178.967 85.9804V85.9562H178.943C178.943 85.9562 178.918 85.9562 178.918 85.9804V86.0047C178.918 86.0533 178.918 86.0775 178.894 86.1261C178.894 86.1504 178.87 86.1747 178.846 86.1989C178.821 86.2232 178.797 86.2475 178.748 86.296C178.724 86.3203 178.651 86.3689 178.578 86.3931H178.554C178.554 86.3931 178.554 86.3931 178.554 86.3689V85.9804C178.554 85.9319 178.554 85.9076 178.554 85.8833C178.554 85.8591 178.578 85.8348 178.578 85.8348C178.578 85.8105 178.603 85.7862 178.627 85.7862C178.651 85.762 178.676 85.762 178.724 85.7377L178.87 85.6649C178.918 85.6406 178.967 85.6163 178.991 85.592C179.015 85.5678 179.04 85.5678 179.088 85.5678C179.113 85.5678 179.113 85.592 179.137 85.6163C179.137 85.6406 179.161 85.6891 179.161 85.7377C179.161 85.7377 179.161 85.7377 179.185 85.7377H179.21C179.21 85.7377 179.234 85.7377 179.234 85.7134V85.6891C179.234 85.6406 179.234 85.5678 179.234 85.4949C179.234 85.4707 179.234 85.4464 179.234 85.4221C179.234 85.3978 179.234 85.3735 179.234 85.3493C179.234 85.325 179.234 85.3007 179.234 85.325C179.234 85.325 179.21 85.325 179.21 85.3493L178.36 85.9319Z" fill="black"/>
<path d="M179.647 86.3931C179.647 86.4416 179.647 86.4659 179.647 86.5144C179.647 86.5387 179.623 86.5873 179.623 86.5873C179.623 86.6115 179.598 86.6358 179.55 86.6601C179.525 86.6844 179.477 86.7086 179.453 86.7329L179.428 86.7572V86.7815C179.428 86.7815 179.428 86.7815 179.428 86.8057C179.428 86.8057 179.428 86.8057 179.453 86.8057C179.501 86.7815 179.55 86.7329 179.623 86.7086C179.695 86.6601 179.744 86.6358 179.792 86.6115C179.841 86.5873 179.89 86.5387 179.962 86.5144C180.011 86.4902 180.084 86.4416 180.157 86.4173L180.181 86.3931C180.181 86.3688 180.181 86.3688 180.181 86.3688V86.3445C180.181 86.3445 180.181 86.3445 180.157 86.3445C180.108 86.3688 180.084 86.3931 180.06 86.3931C180.035 86.3931 180.011 86.4173 179.987 86.3931C179.962 86.3931 179.938 86.3688 179.938 86.3445C179.938 86.3202 179.914 86.2717 179.914 86.2231V85.9075C179.914 85.8833 179.914 85.859 179.938 85.8347C179.962 85.8104 179.987 85.7862 180.011 85.7862C180.084 85.7376 180.157 85.7133 180.181 85.7376C180.23 85.7619 180.254 85.8104 180.278 85.8833C180.278 85.9075 180.278 85.9318 180.302 85.9561C180.302 85.9804 180.302 86.0046 180.327 86.0289C180.327 86.0532 180.351 86.0775 180.351 86.1017C180.351 86.126 180.351 86.1503 180.375 86.1746C180.375 86.1988 180.424 86.2231 180.448 86.2231C180.497 86.2231 180.545 86.2231 180.569 86.1746C180.594 86.1503 180.642 86.126 180.667 86.1017C180.691 86.0775 180.715 86.0532 180.739 86.0046C180.764 85.9804 180.788 85.9318 180.812 85.9075C180.837 85.859 180.837 85.8347 180.837 85.7862C180.837 85.7862 180.837 85.7862 180.837 85.7619H180.812C180.812 85.7619 180.788 85.7619 180.788 85.7862C180.788 85.7862 180.764 85.8104 180.764 85.8347C180.764 85.859 180.739 85.9075 180.739 85.9075C180.715 85.9318 180.715 85.9561 180.691 85.9561C180.691 85.9804 180.667 85.9804 180.642 85.9561C180.618 85.9561 180.618 85.9318 180.618 85.9075C180.594 85.859 180.594 85.8104 180.594 85.7862C180.594 85.7376 180.569 85.7133 180.545 85.6648C180.521 85.6405 180.497 85.6162 180.448 85.592C180.399 85.5677 180.351 85.5677 180.278 85.5677H180.254C180.254 85.5677 180.254 85.5434 180.278 85.5434C180.327 85.4948 180.375 85.4706 180.399 85.422C180.448 85.3735 180.472 85.3249 180.497 85.2764C180.521 85.2278 180.545 85.1793 180.569 85.1307C180.594 85.0822 180.594 85.0093 180.594 84.9608C180.594 84.8879 180.569 84.8394 180.545 84.7908C180.521 84.7423 180.472 84.718 180.448 84.718C180.399 84.718 180.351 84.718 180.302 84.7423C180.23 84.7666 180.181 84.7908 180.108 84.8151C180.06 84.8394 179.987 84.8879 179.938 84.9122C179.865 84.9608 179.792 84.9851 179.72 85.0579C179.671 85.0822 179.623 85.1064 179.574 85.1307C179.525 85.155 179.501 85.1793 179.428 85.2035L179.404 85.2278V85.2521V85.2764C179.404 85.2764 179.404 85.2764 179.428 85.2764C179.453 85.2764 179.453 85.2521 179.477 85.2521C179.477 85.2521 179.501 85.2278 179.525 85.2278C179.55 85.2278 179.574 85.2278 179.598 85.2278C179.598 85.2278 179.622 85.2521 179.647 85.2764C179.647 85.3006 179.647 85.3249 179.647 85.3492C179.647 85.3735 179.647 85.422 179.647 85.4463V86.3931ZM179.914 85.2278C179.914 85.1793 179.914 85.155 179.938 85.1064C179.962 85.0822 180.011 85.0579 180.06 85.0093C180.108 84.9851 180.157 84.9608 180.205 84.9365C180.254 84.9365 180.278 84.9365 180.302 84.9365C180.327 84.9365 180.327 84.9608 180.351 85.0093C180.375 85.0336 180.375 85.0822 180.375 85.1307C180.375 85.2035 180.375 85.2521 180.351 85.3006C180.351 85.3492 180.327 85.3977 180.302 85.4463C180.278 85.4948 180.23 85.5191 180.205 85.5677C180.157 85.6162 180.108 85.6405 180.06 85.6648C180.011 85.6891 179.987 85.7133 179.962 85.7133C179.938 85.7133 179.914 85.7133 179.914 85.6648V85.2278Z" fill="black"/>
<path d="M181.565 84.2812C181.565 84.2327 181.589 84.1841 181.614 84.1599C181.638 84.1356 181.686 84.087 181.759 84.0628C181.808 84.0385 181.856 84.0142 181.881 83.9899C181.905 83.9899 181.954 83.9899 181.978 83.9899C182.002 83.9899 182.026 84.0142 182.026 84.0385C182.051 84.0628 182.051 84.1113 182.051 84.1599C182.051 84.1599 182.051 84.1841 182.075 84.1599H182.099C182.099 84.1599 182.124 84.1599 182.124 84.1356V84.1113C182.124 84.087 182.124 84.0628 182.124 84.0142C182.124 83.9657 182.124 83.9414 182.124 83.9171C182.124 83.8928 182.124 83.8443 182.124 83.82C182.124 83.7957 182.124 83.7714 182.124 83.7472C182.124 83.7229 182.124 83.7229 182.099 83.7229C182.075 83.7229 182.051 83.7472 182.026 83.7472L180.812 84.4512C180.788 84.4755 180.764 84.4755 180.74 84.4997C180.715 84.524 180.715 84.5483 180.715 84.5483C180.715 84.5968 180.715 84.6697 180.715 84.7182C180.715 84.7668 180.715 84.8153 180.715 84.8881C180.715 84.8881 180.715 84.8881 180.74 84.8881C180.74 84.8881 180.74 84.8639 180.764 84.8639C180.764 84.8639 180.764 84.8639 180.764 84.8396C180.764 84.7668 180.788 84.7182 180.812 84.6697C180.812 84.6211 180.837 84.5968 180.861 84.5483C180.885 84.4997 180.91 84.4755 180.958 84.4512C181.007 84.4269 181.055 84.3783 181.104 84.3541C181.177 84.3055 181.225 84.3055 181.249 84.3055C181.274 84.3055 181.274 84.3298 181.274 84.3783V85.3979C181.274 85.4465 181.274 85.495 181.274 85.5193C181.274 85.5679 181.249 85.5679 181.249 85.5921C181.225 85.6164 181.201 85.6407 181.177 85.665C181.152 85.6892 181.104 85.7135 181.079 85.7378C181.055 85.7378 181.055 85.7621 181.055 85.7621C181.055 85.7864 181.055 85.7864 181.055 85.7864V85.8106C181.055 85.8106 181.055 85.8106 181.079 85.8106C181.128 85.7863 181.177 85.7378 181.249 85.7135C181.322 85.665 181.371 85.6407 181.419 85.5921C181.468 85.5679 181.541 85.5436 181.589 85.5193C181.662 85.495 181.686 85.4708 181.759 85.4222L181.784 85.3979C181.784 85.3737 181.784 85.3737 181.784 85.3494V85.3251C181.784 85.3251 181.784 85.3251 181.759 85.3251C181.711 85.3494 181.662 85.3737 181.638 85.3737C181.614 85.3737 181.589 85.3737 181.565 85.3737C181.541 85.3737 181.541 85.3494 181.541 85.3251C181.541 85.3008 181.541 85.2766 181.541 85.228V84.2812H181.565Z" fill="black"/>
<path d="M182.488 84.7667C182.488 84.8153 182.488 84.8638 182.488 84.8881C182.488 84.9124 182.464 84.9609 182.464 84.9852C182.464 85.0095 182.439 85.0337 182.391 85.058C182.367 85.0823 182.318 85.1066 182.269 85.1308L182.245 85.1551V85.1794V85.2037C182.245 85.2037 182.245 85.2037 182.269 85.2037C182.318 85.1794 182.367 85.1309 182.439 85.1066C182.512 85.058 182.561 85.0337 182.609 84.9852C182.658 84.9609 182.706 84.9366 182.779 84.9124C182.828 84.8881 182.876 84.8638 182.949 84.8153L182.974 84.791V84.7667V84.7424C182.974 84.7424 182.974 84.7424 182.949 84.7424C182.901 84.7667 182.852 84.7667 182.828 84.791C182.804 84.791 182.779 84.791 182.755 84.791C182.731 84.791 182.731 84.7667 182.731 84.7424C182.731 84.7182 182.731 84.6696 182.731 84.6211V83.7229C182.731 83.6743 182.731 83.6258 182.731 83.6015C182.731 83.5529 182.731 83.5286 182.755 83.5044C182.755 83.4801 182.779 83.4558 182.828 83.4315C182.852 83.4073 182.901 83.383 182.949 83.3587C182.949 83.3587 182.949 83.3344 182.974 83.3344V83.3102V83.2859C182.974 83.2859 182.974 83.2859 182.949 83.2859C182.925 83.3102 182.876 83.3344 182.852 83.3344C182.828 83.3587 182.804 83.383 182.779 83.383C182.755 83.4073 182.731 83.4073 182.706 83.4315C182.682 83.4558 182.634 83.4801 182.609 83.4801C182.561 83.5044 182.488 83.5286 182.439 83.5772C182.391 83.6015 182.318 83.6257 182.269 83.6743C182.269 83.6743 182.269 83.6743 182.245 83.6986C182.245 83.7229 182.245 83.7229 182.245 83.7229V83.7471C182.245 83.7471 182.245 83.7471 182.269 83.7471C182.318 83.7229 182.367 83.7229 182.391 83.6986C182.415 83.6986 182.439 83.6986 182.464 83.6986C182.488 83.7229 182.488 83.7471 182.488 83.7714C182.488 83.7957 182.488 83.8442 182.488 83.8928V84.7667Z" fill="black"/>
<path d="M183.41 82.9945C183.362 83.0188 183.313 83.043 183.265 83.0673C183.216 83.0916 183.168 83.1159 183.143 83.1401C183.119 83.1401 183.119 83.1644 183.119 83.1644V83.1887V83.213C183.119 83.213 183.119 83.213 183.143 83.213C183.143 83.213 183.168 83.1887 183.192 83.1887C183.216 83.1887 183.24 83.1644 183.24 83.1644C183.265 83.1644 183.289 83.1644 183.313 83.1644C183.337 83.1887 183.337 83.1887 183.362 83.213C183.362 83.2372 183.362 83.2615 183.386 83.2858C183.386 83.3101 183.386 83.3586 183.386 83.3829V84.2326C183.386 84.2811 183.386 84.3297 183.386 84.3539C183.386 84.3782 183.362 84.4025 183.362 84.4268C183.337 84.451 183.337 84.4753 183.289 84.4996C183.265 84.5239 183.216 84.5481 183.192 84.5724L183.168 84.5967V84.621C183.168 84.621 183.168 84.6452 183.192 84.6452C183.192 84.6452 183.192 84.6452 183.216 84.6452C183.265 84.621 183.313 84.5724 183.386 84.5481C183.435 84.4996 183.483 84.4753 183.556 84.451C183.605 84.4268 183.677 84.3782 183.726 84.3539C183.775 84.3297 183.847 84.2811 183.944 84.2326L183.969 84.2083V84.184V84.1597H183.944C183.896 84.184 183.847 84.2083 183.823 84.2083C183.775 84.2083 183.75 84.2326 183.726 84.2083C183.702 84.2083 183.702 84.184 183.677 84.1597C183.677 84.1355 183.653 84.0869 183.653 84.0383V83.6499C183.653 83.6257 183.653 83.6257 183.677 83.6014C183.677 83.5771 183.702 83.5771 183.702 83.5771C183.775 83.5286 183.823 83.5043 183.872 83.5043C183.92 83.48 183.944 83.48 183.969 83.48C183.993 83.48 183.993 83.5043 184.017 83.5286C184.017 83.5528 184.017 83.5771 184.042 83.6257C184.042 83.6257 184.042 83.6257 184.066 83.6257C184.066 83.6257 184.066 83.6257 184.09 83.6014V83.5771C184.09 83.5286 184.09 83.48 184.09 83.4557C184.09 83.4315 184.09 83.3829 184.09 83.3343C184.09 83.3101 184.09 83.2858 184.09 83.2615C184.09 83.2372 184.09 83.213 184.09 83.1887C184.09 83.1644 184.09 83.1401 184.09 83.1401C184.09 83.1159 184.09 83.0916 184.09 83.0673H184.066C184.042 83.0673 184.042 83.0916 184.042 83.0916V83.1159C184.042 83.1644 184.042 83.1887 184.017 83.213C184.017 83.2372 183.993 83.2858 183.969 83.3101C183.944 83.3343 183.92 83.3586 183.872 83.3829C183.847 83.4072 183.775 83.4557 183.702 83.48C183.702 83.48 183.702 83.48 183.677 83.48C183.677 83.48 183.653 83.4557 183.653 83.4315V83.043C183.653 82.9945 183.653 82.9702 183.653 82.9459C183.653 82.9217 183.677 82.8974 183.677 82.8731C183.702 82.8488 183.702 82.8246 183.726 82.8246C183.75 82.8003 183.775 82.8003 183.823 82.776L183.944 82.6789C183.993 82.6546 184.042 82.6304 184.066 82.6304C184.09 82.6061 184.139 82.6061 184.139 82.6061C184.163 82.6061 184.163 82.6303 184.187 82.6546C184.212 82.6789 184.212 82.7275 184.212 82.776H184.236L184.26 82.7517V82.7275C184.26 82.6789 184.26 82.6303 184.26 82.5818C184.26 82.5332 184.26 82.4604 184.26 82.4361C184.26 82.4119 184.26 82.4119 184.26 82.4119C184.26 82.4119 184.236 82.4119 184.236 82.4361L183.41 82.9945Z" fill="black"/>
<path d="M184.625 83.5527C184.625 83.6013 184.625 83.6498 184.625 83.6741C184.625 83.6984 184.625 83.7226 184.6 83.7469C184.576 83.7712 184.552 83.7955 184.527 83.8198C184.503 83.844 184.455 83.8683 184.406 83.9169C184.406 83.9169 184.382 83.9169 184.382 83.9411V83.9654V83.9897C184.382 83.9897 184.382 83.9897 184.406 83.9897C184.455 83.9654 184.503 83.9169 184.576 83.8926C184.625 83.844 184.697 83.8198 184.746 83.7712C184.795 83.7469 184.843 83.6984 184.916 83.6741C184.964 83.6498 185.013 83.6255 185.086 83.577L185.11 83.5527V83.5284V83.5042C185.11 83.5042 185.11 83.5042 185.086 83.5042C185.037 83.5284 185.013 83.5527 184.989 83.5527C184.964 83.5527 184.94 83.5527 184.916 83.5527C184.892 83.5527 184.892 83.5284 184.892 83.5042C184.892 83.4799 184.892 83.4556 184.892 83.4071V82.5089C184.892 82.4603 184.892 82.4117 184.892 82.3875C184.892 82.3632 184.916 82.3146 184.916 82.2904C184.94 82.2661 184.964 82.2418 184.989 82.2175C185.013 82.1933 185.062 82.169 185.11 82.1204C185.11 82.1204 185.11 82.1204 185.134 82.0962V82.0719C185.134 82.0476 185.134 82.0476 185.134 82.0476C185.134 82.0476 185.134 82.0476 185.11 82.0476C185.086 82.0719 185.037 82.0719 185.013 82.0962C184.989 82.1204 184.964 82.1204 184.94 82.1447C184.916 82.169 184.892 82.169 184.867 82.1933C184.843 82.2175 184.819 82.2175 184.77 82.2418C184.722 82.2661 184.649 82.3146 184.6 82.3389C184.527 82.3632 184.479 82.4117 184.43 82.436C184.43 82.436 184.406 82.436 184.406 82.4603C184.406 82.4846 184.406 82.4846 184.406 82.4846C184.406 82.5089 184.406 82.5089 184.406 82.5089C184.406 82.5089 184.406 82.5089 184.43 82.5089C184.479 82.4846 184.527 82.4603 184.552 82.4603C184.576 82.4603 184.6 82.4603 184.625 82.4603C184.649 82.4603 184.649 82.4846 184.649 82.5331C184.649 82.5574 184.649 82.606 184.649 82.6545V83.5527H184.625Z" fill="black"/>
<path d="M185.765 81.6594C185.668 81.7565 185.571 81.8536 185.498 81.975C185.425 82.0721 185.353 82.1935 185.328 82.3391C185.304 82.4605 185.255 82.5819 185.255 82.7275C185.255 82.9703 185.328 83.1402 185.45 83.1888C185.595 83.2616 185.79 83.213 186.057 83.0431C186.105 83.0188 186.13 82.9946 186.178 82.9703C186.202 82.946 186.251 82.9217 186.275 82.8975C186.3 82.8732 186.324 82.8489 186.372 82.8004C186.397 82.7761 186.445 82.7518 186.47 82.7032C186.494 82.679 186.518 82.6547 186.518 82.6547C186.542 82.6547 186.542 82.6304 186.567 82.6547C186.567 82.6547 186.591 82.6547 186.591 82.679C186.591 82.679 186.591 82.7032 186.615 82.7032H186.639C186.639 82.7032 186.664 82.7033 186.664 82.679V82.6547C186.664 82.6061 186.664 82.5333 186.664 82.4848C186.664 82.4362 186.664 82.3877 186.664 82.3391C186.664 82.3148 186.664 82.2906 186.664 82.242C186.664 82.2177 186.664 82.1935 186.664 82.1449V82.1206H186.639C186.639 82.1206 186.615 82.1206 186.615 82.1449L186.591 82.1692C186.591 82.242 186.567 82.3391 186.542 82.4119C186.518 82.4848 186.47 82.5576 186.421 82.6304C186.372 82.679 186.324 82.7518 186.275 82.8004C186.227 82.8489 186.154 82.8975 186.081 82.9217C185.984 82.9703 185.911 82.9946 185.838 82.9946C185.765 82.9946 185.717 82.9703 185.668 82.9217C185.62 82.8732 185.595 82.8246 185.571 82.7518C185.547 82.679 185.547 82.6061 185.547 82.509C185.547 82.4362 185.547 82.3391 185.571 82.2663C185.595 82.1692 185.62 82.0964 185.644 81.9993C185.693 81.9021 185.741 81.8293 185.79 81.7322C185.862 81.6594 185.935 81.5866 186.032 81.5137C186.154 81.4409 186.275 81.4166 186.348 81.4409C186.445 81.4409 186.494 81.5137 186.518 81.6351C186.518 81.6351 186.518 81.6351 186.542 81.6351C186.567 81.6351 186.567 81.6351 186.567 81.6351L186.591 81.6108C186.591 81.6108 186.591 81.6108 186.591 81.5866C186.591 81.538 186.591 81.5137 186.567 81.4652C186.567 81.4166 186.567 81.3924 186.567 81.3438C186.567 81.3195 186.567 81.2953 186.567 81.2467C186.567 81.2224 186.567 81.1982 186.567 81.1739C186.567 81.1739 186.567 81.1496 186.567 81.1739C186.567 81.1739 186.567 81.1739 186.542 81.1739C186.542 81.1739 186.518 81.1739 186.518 81.1981L186.494 81.2224C186.494 81.2467 186.47 81.271 186.445 81.2953C186.445 81.2953 186.421 81.2953 186.397 81.3195C186.397 81.3195 186.372 81.3195 186.348 81.3195C186.3 81.3195 186.227 81.3438 186.178 81.3438C186.13 81.3681 186.057 81.3924 185.984 81.4409C185.96 81.4895 185.838 81.5623 185.765 81.6594Z" fill="black"/>
<path d="M187.684 81.5379C187.708 81.5136 187.733 81.5136 187.757 81.4893C187.781 81.4893 187.781 81.4893 187.781 81.5136C187.805 81.5622 187.83 81.5865 187.83 81.6107C187.83 81.6593 187.854 81.6593 187.854 81.6836C187.854 81.7078 187.854 81.7078 187.854 81.7321C187.854 81.7321 187.854 81.7564 187.854 81.7807C187.854 81.8049 187.854 81.8535 187.805 81.8778C187.781 81.902 187.733 81.9263 187.684 81.9749C187.684 81.9749 187.684 81.9991 187.66 81.9991V82.0234V82.0477C187.66 82.0477 187.66 82.0477 187.684 82.0477C187.733 82.0234 187.781 81.9749 187.854 81.9506C187.902 81.902 187.975 81.8778 188.024 81.8292C188.072 81.7807 188.145 81.7807 188.17 81.7564C188.218 81.7321 188.267 81.7078 188.315 81.6836C188.315 81.6836 188.34 81.6836 188.34 81.6593V81.635V81.6107C188.34 81.6107 188.34 81.6107 188.315 81.6107C188.291 81.6107 188.291 81.6107 188.267 81.635C188.242 81.635 188.218 81.635 188.218 81.635C188.194 81.635 188.194 81.635 188.17 81.6107C188.17 81.5865 188.145 81.5622 188.121 81.5379C188.072 81.4651 188.024 81.368 188 81.2951C187.951 81.2223 187.902 81.1252 187.854 81.0281C187.805 80.931 187.757 80.8582 187.733 80.7611C187.684 80.664 187.635 80.5911 187.611 80.5183C187.587 80.5183 187.587 80.5183 187.563 80.5426C187.538 80.5426 187.538 80.5669 187.514 80.5911L187.004 82.1934C186.98 82.2419 186.98 82.2905 186.956 82.3147C186.931 82.3633 186.907 82.3876 186.907 82.4118C186.907 82.4361 186.883 82.4604 186.858 82.4847C186.858 82.5089 186.834 82.5332 186.81 82.5332L186.786 82.5575L186.761 82.5818V82.606V82.6303C186.761 82.6303 186.761 82.6303 186.786 82.6303C186.834 82.606 186.883 82.5818 186.907 82.5575C186.956 82.5332 186.98 82.5089 187.028 82.4847C187.077 82.4604 187.125 82.4361 187.174 82.4118C187.223 82.3876 187.271 82.3876 187.295 82.3633L187.32 82.339V82.3147C187.32 82.2905 187.32 82.2905 187.32 82.2905C187.32 82.2905 187.32 82.2905 187.295 82.2905C187.271 82.2905 187.247 82.3147 187.223 82.3147C187.198 82.3147 187.174 82.339 187.174 82.339C187.15 82.339 187.15 82.339 187.126 82.339C187.126 82.339 187.126 82.3147 187.126 82.2905C187.126 82.2662 187.126 82.2419 187.126 82.2419L187.223 81.902C187.223 81.8778 187.247 81.8535 187.247 81.8535C187.247 81.8535 187.271 81.8292 187.295 81.8292L187.684 81.5379ZM187.32 81.6593C187.295 81.6593 187.295 81.6836 187.295 81.6593C187.295 81.6593 187.295 81.635 187.295 81.6107L187.49 80.9553C187.49 80.9553 187.49 80.931 187.514 80.931H187.538L187.733 81.3437C187.733 81.368 187.733 81.368 187.733 81.3922C187.733 81.3922 187.708 81.4165 187.684 81.4165L187.32 81.6593Z" fill="black"/>
<path d="M189.092 79.9356C189.092 79.8628 189.117 79.8385 189.141 79.8143C189.165 79.79 189.214 79.7414 189.287 79.7172C189.335 79.6929 189.384 79.6686 189.408 79.6443C189.432 79.6443 189.481 79.6201 189.505 79.6443C189.529 79.6443 189.554 79.6686 189.578 79.6929C189.602 79.7172 189.602 79.7657 189.626 79.8143C189.626 79.8143 189.651 79.8143 189.651 79.79C189.651 79.79 189.675 79.79 189.675 79.7657V79.7414C189.675 79.7172 189.675 79.6929 189.675 79.6443C189.675 79.6201 189.675 79.5715 189.675 79.5472C189.675 79.523 189.675 79.4987 189.675 79.4501C189.675 79.4259 189.675 79.4016 189.675 79.3773C189.675 79.353 189.675 79.353 189.651 79.353C189.626 79.353 189.602 79.3773 189.578 79.3773L188.364 80.0813C188.34 80.1056 188.315 80.1056 188.291 80.1299C188.267 80.1541 188.267 80.1541 188.267 80.1784C188.267 80.227 188.267 80.2998 188.267 80.3483C188.267 80.3969 188.267 80.4697 188.267 80.5183H188.291C188.291 80.5183 188.315 80.5183 188.315 80.494V80.4697C188.315 80.3969 188.34 80.3483 188.364 80.2998C188.364 80.2512 188.388 80.227 188.412 80.1784C188.437 80.1299 188.461 80.1056 188.51 80.0813C188.534 80.057 188.607 80.0328 188.655 79.9842C188.728 79.9356 188.777 79.9356 188.801 79.9114C188.825 79.9114 188.85 79.9356 188.85 79.9842V81.0038C188.85 81.0523 188.85 81.0766 188.85 81.1252C188.85 81.1494 188.825 81.1737 188.825 81.198C188.801 81.2223 188.777 81.2465 188.752 81.2708C188.728 81.2951 188.68 81.3194 188.631 81.3436L188.607 81.3679C188.607 81.3922 188.607 81.3922 188.607 81.4165V81.4408C188.607 81.4408 188.607 81.4408 188.631 81.4408C188.68 81.4165 188.728 81.3922 188.801 81.3436C188.85 81.2951 188.922 81.2708 188.971 81.2465C189.019 81.198 189.068 81.1737 189.141 81.1494C189.189 81.1252 189.262 81.1009 189.311 81.0523C189.311 81.0523 189.335 81.0523 189.335 81.0281C189.335 81.0038 189.335 81.0038 189.335 80.9795C189.335 80.9795 189.335 80.9795 189.335 80.9552C189.335 80.9552 189.335 80.9552 189.311 80.9552C189.262 80.9795 189.214 81.0038 189.189 81.0038C189.165 81.0038 189.141 81.0038 189.117 81.0038C189.092 81.0038 189.092 80.9795 189.092 80.9552C189.092 80.931 189.092 80.8824 189.092 80.8339V79.9356Z" fill="black"/>
<path d="M190.088 79.1588C190.039 79.1831 189.991 79.2074 189.942 79.2316C189.918 79.2559 189.869 79.2802 189.796 79.3045C189.796 79.3045 189.772 79.3045 189.772 79.3287V79.353V79.3773H189.796C189.821 79.3773 189.821 79.353 189.845 79.353C189.845 79.353 189.869 79.3287 189.893 79.3287C189.918 79.3287 189.942 79.3287 189.966 79.3287C189.966 79.3287 189.991 79.353 189.991 79.3773C189.991 79.4016 189.991 79.4258 189.991 79.4501C189.991 79.4744 189.991 79.5229 189.991 79.5472V80.4212C189.991 80.4697 189.991 80.494 189.991 80.5183C189.991 80.5425 189.966 80.5668 189.966 80.5911C189.942 80.6154 189.918 80.6396 189.893 80.6639C189.869 80.6882 189.845 80.7125 189.796 80.7367C189.772 80.7367 189.772 80.761 189.772 80.761V80.7853C189.772 80.7853 189.772 80.8096 189.796 80.8096C189.796 80.8096 189.796 80.8096 189.821 80.8096C189.869 80.7853 189.918 80.761 189.966 80.7125C190.015 80.6639 190.088 80.6396 190.136 80.6154L190.962 80.1541C190.986 80.1298 191.01 80.1298 191.01 80.1056C191.01 80.0813 191.01 80.0813 191.01 80.0813C191.01 80.0085 191.01 79.9599 191.01 79.9114C191.01 79.8628 191.035 79.79 191.035 79.7172V79.6929C191.035 79.6929 191.01 79.6929 191.01 79.7172C191.01 79.7172 190.986 79.7172 190.986 79.7414C190.986 79.7657 190.986 79.7657 190.962 79.7657C190.962 79.8143 190.962 79.8628 190.937 79.8871C190.937 79.9356 190.913 79.9599 190.913 79.9842C190.889 80.0085 190.889 80.0327 190.84 80.057C190.816 80.0813 190.792 80.1056 190.768 80.1298C190.743 80.1541 190.719 80.1541 190.695 80.1784C190.67 80.2027 190.622 80.2269 190.598 80.2512C190.573 80.2755 190.549 80.2755 190.5 80.2998C190.476 80.324 190.452 80.324 190.428 80.324C190.403 80.324 190.379 80.3483 190.355 80.324C190.33 80.324 190.306 80.324 190.306 80.2998C190.306 80.2998 190.282 80.2755 190.282 80.2269C190.282 80.2027 190.282 80.1541 190.282 80.1056V79.79C190.282 79.79 190.282 79.7657 190.306 79.7414C190.306 79.7414 190.306 79.7172 190.33 79.7172C190.403 79.6929 190.452 79.6443 190.5 79.62C190.549 79.5958 190.573 79.5958 190.598 79.5958C190.622 79.5958 190.622 79.5958 190.646 79.6443C190.646 79.6686 190.646 79.6929 190.646 79.7414C190.646 79.7414 190.646 79.7657 190.67 79.7657C190.67 79.7657 190.67 79.7657 190.695 79.7657L190.719 79.7414L190.743 79.7172C190.743 79.6686 190.743 79.62 190.743 79.5715C190.743 79.5472 190.743 79.4987 190.743 79.4501C190.743 79.4016 190.743 79.4016 190.743 79.3773C190.743 79.353 190.743 79.3287 190.743 79.3045C190.743 79.2802 190.743 79.2559 190.743 79.2316C190.743 79.2074 190.743 79.1831 190.743 79.1588C190.743 79.1588 190.743 79.1588 190.719 79.1588H190.695C190.67 79.1588 190.67 79.1831 190.67 79.1831C190.67 79.1831 190.67 79.2074 190.646 79.2074C190.646 79.2559 190.646 79.2802 190.646 79.3287C190.646 79.353 190.622 79.3773 190.598 79.4016C190.573 79.4258 190.549 79.4501 190.5 79.4744C190.452 79.4987 190.403 79.5472 190.33 79.5715H190.306L190.282 79.5472V79.1588C190.282 79.1103 190.282 79.086 190.282 79.0617C190.282 79.0374 190.306 79.0132 190.306 79.0132C190.306 78.9889 190.33 78.9646 190.355 78.9646C190.379 78.9403 190.403 78.9403 190.452 78.916L190.598 78.8432C190.646 78.8189 190.695 78.7947 190.719 78.7704C190.743 78.7461 190.768 78.7461 190.792 78.7704C190.816 78.7704 190.816 78.7947 190.84 78.8189C190.865 78.8432 190.865 78.8918 190.865 78.9403C190.865 78.9403 190.865 78.9403 190.889 78.9403C190.889 78.9403 190.913 78.9403 190.913 78.916C190.913 78.916 190.937 78.916 190.937 78.8918C190.937 78.8675 190.937 78.8675 190.937 78.8675C190.937 78.8189 190.937 78.7461 190.937 78.6733C190.937 78.649 190.937 78.6247 190.937 78.6005C190.937 78.5762 190.937 78.5519 190.937 78.5519C190.937 78.5276 190.937 78.5034 190.937 78.5276C190.937 78.5276 190.913 78.5276 190.913 78.5519L190.088 79.1588Z" fill="black"/>
<path d="M176.514 80.6153C175.592 79.6685 174.378 79.887 173.406 80.6396C172.241 81.1493 168.235 82.8001 162.65 84.2324C157.284 85.6161 157.284 83.2856 157.284 83.2856V83.3099C156.58 76.4641 157.939 60.3207 151.335 62.2627C151.189 62.3113 150.995 62.3598 150.825 62.4327C150.534 62.5298 150.194 62.6754 149.927 62.9182C146.649 65.54 147.596 81.5863 151.505 89.8644C151.529 89.8887 151.554 89.9372 151.578 89.9615C152.379 91.2481 154.346 93.9427 160.805 91.5394C161.339 91.3452 161.849 91.1267 162.359 90.9568C169.133 88.2622 172.192 85.9802 172.994 85.3248C173.333 85.6161 173.819 85.956 174.426 86.4415C175.98 87.6796 175.883 86.3201 174.96 85.1549C175.422 85.6647 176.223 86.4415 176.563 86.4415C177.024 86.4415 176.393 84.8878 174.936 83.2371C174.936 83.2371 175.737 84.1353 176.393 84.8878C177.024 85.6404 177.34 86.2716 177.947 85.9074C178.335 85.6647 177.51 84.1838 176.903 83.2128C177.34 83.8682 177.947 84.6208 178.19 84.4751C178.578 84.1838 178.432 82.6545 176.514 80.6153Z" fill="#FFC8AF"/>
<path d="M194.7 76.6584C195.647 76.7798 195.113 72.6772 193.705 70.7837C192.297 68.8902 190.33 69.2543 188.776 70.6138C187.611 71.6333 188.655 73.4055 189.529 74.1095C190.111 74.5707 191.058 75.4204 191.617 75.1048C192.175 74.7649 190.184 73.1142 190.913 72.7258C191.617 72.3373 192.442 72.5073 192.855 73.2113C193.244 73.9638 193.924 76.5613 194.7 76.6584Z" fill="#FFC8AF"/>
<path opacity="0.3" d="M173.163 85.1066C173.163 85.1066 170.347 87.7527 162.31 90.9328C161.824 91.1028 161.314 91.3212 160.756 91.5154C154.297 93.9188 152.331 91.2241 151.529 89.9375C151.505 89.889 151.481 89.8647 151.456 89.8404C147.523 81.5623 146.6 65.516 149.878 62.8942C150.17 62.6514 150.485 62.5301 150.777 62.4087C150.048 64.4236 149.223 69.9585 150.17 77.4354C151.286 86.1748 153.156 89.5248 154.807 90.7872C156.483 92.0495 173.163 85.1066 173.163 85.1066Z" fill="url(#paint22_linear)"/>
<path d="M172.241 45.4153C171.925 43.4005 170.784 39.7348 166.632 39.7105C162.043 39.6862 159.736 45.6581 159.687 48.644C159.687 48.644 158.498 47.5031 157.405 47.94C157.308 47.9886 157.186 48.0371 157.089 48.11C156.215 49.0325 157.259 51.46 158.522 52.5039C159.032 52.9409 159.59 53.1351 160.027 52.8923V52.7952C160.222 53.1108 160.464 53.4021 160.683 53.6691C162.504 55.8054 165.223 56.8493 167.409 56.8978C168.453 56.9221 169.351 56.7522 169.958 56.3395C172.071 54.9558 172.799 49.6636 172.241 45.4153Z" fill="#FFC8AF"/>
<path d="M158.546 52.4796C158.109 53.0622 157.332 53.3293 156.288 53.0379C153.277 52.1883 153.326 48.8868 154.637 47.8429C155.244 47.3574 155.827 47.2846 156.288 47.3574C156.555 47.9886 156.847 48.2799 157.114 48.0857C156.215 49.0324 157.284 51.4357 158.546 52.4796Z" fill="#CB6E05"/>
<path d="M172.362 46.702C172.362 46.702 172.362 46.168 172.241 45.4154C171.925 43.4005 170.784 39.7349 166.632 39.7106C163.718 39.6863 161.751 42.0896 160.659 44.59C160.028 46.0466 159.712 47.5274 159.688 48.6198C159.688 48.6198 158.498 47.4789 157.405 47.9158L157.381 47.8916H157.357C157.332 47.8916 157.332 47.8916 157.308 47.8916C157.211 47.9401 157.138 48.0129 157.09 48.0858C156.822 48.28 156.531 47.9887 156.264 47.3575C155.584 45.6582 155.341 41.507 157.405 38.7153C157.599 38.4482 157.818 38.2055 158.061 37.9627C161.751 34.2728 167.142 36.2877 170.541 39.395C173.94 42.5023 173.528 46.1437 172.362 46.702Z" fill="#CB6E05"/>
<path d="M157.114 48.0857C157.211 48.0128 157.308 47.9643 157.429 47.9157L157.405 47.8915C157.405 47.8915 157.381 47.8915 157.381 47.8672C157.356 47.8672 157.356 47.8672 157.332 47.8915C157.235 47.9643 157.162 48.0128 157.114 48.0857Z" fill="#CB6E05"/>
<path d="M169.181 71.3664C169.181 71.3664 168.04 70.0555 164.786 67.0696C163.159 65.5645 161.775 63.7438 160.78 62.2872C159.784 60.8307 159.226 59.7383 159.226 59.7383C158.546 58.7915 158.813 57.7234 159.129 57.335C159.542 56.898 160.27 54.8588 160.707 53.6936C160.707 53.6936 160.731 53.6693 160.731 53.645C162.552 55.757 165.272 56.8009 167.433 56.8737L167.846 58.4759L168.186 59.8354C168.647 61.5104 169.764 68.8174 169.181 71.3664Z" fill="#FFC8AF"/>
<path opacity="0.3" d="M167.846 58.4759C163.742 59.1314 161.946 56.1697 160.707 53.6936C160.707 53.6936 160.732 53.6693 160.732 53.645C162.553 55.757 165.272 56.8009 167.433 56.8737L167.846 58.4759Z" fill="url(#paint23_linear)"/>
<path opacity="0.1" d="M157.09 48.11C156.216 49.0325 157.284 51.4358 158.547 52.5039C158.11 53.0865 157.333 53.3536 156.289 53.0623C153.278 52.2126 153.326 48.9111 154.637 47.8672C155.244 47.3817 155.827 47.3089 156.289 47.3817C155.609 45.6824 155.366 41.5312 157.43 38.7395C157.43 40.7301 158.425 43.0363 160.683 44.6143C160.052 46.0708 159.736 47.5516 159.712 48.644C159.712 48.644 158.522 47.5031 157.43 47.9401L157.405 47.9158H157.381C157.357 47.9158 157.357 47.9158 157.333 47.9158C157.235 47.9643 157.163 48.0129 157.09 48.11C157.114 48.0857 157.114 48.0857 157.09 48.11Z" fill="#CB6E05"/>
<defs>
<linearGradient id="paint0_linear" x1="56.7153" y1="0" x2="246.152" y2="258.779" gradientUnits="userSpaceOnUse">
<stop stop-color="#D85855"/>
<stop offset="1" stop-color="#6E2287"/>
</linearGradient>
<linearGradient id="paint1_linear" x1="163.842" y1="238.146" x2="122.602" y2="190.065" gradientUnits="userSpaceOnUse">
<stop stop-color="#1B2944"/>
<stop offset="1" stop-color="#111B34"/>
</linearGradient>
<linearGradient id="paint2_linear" x1="141.014" y1="211.355" x2="125.923" y2="193.761" gradientUnits="userSpaceOnUse">
<stop stop-color="#DADAE8"/>
<stop offset="0.535" stop-color="#BDBDD1"/>
<stop offset="1" stop-color="#84849B"/>
</linearGradient>
<linearGradient id="paint3_linear" x1="126.282" y1="216.141" x2="114.565" y2="202.48" gradientUnits="userSpaceOnUse">
<stop stop-color="#DADAE8"/>
<stop offset="0.535" stop-color="#BDBDD1"/>
<stop offset="1" stop-color="#84849B"/>
</linearGradient>
<linearGradient id="paint4_linear" x1="248.509" y1="182.525" x2="196.046" y2="205.736" gradientUnits="userSpaceOnUse">
<stop stop-color="#6E2287"/>
<stop offset="0.671875" stop-color="#D85855"/>
</linearGradient>
<linearGradient id="paint5_linear" x1="207.787" y1="152.491" x2="184.873" y2="170.614" gradientUnits="userSpaceOnUse">
<stop offset="0.01" stop-color="#DAA191"/>
<stop offset="0.99" stop-color="#DE807A"/>
</linearGradient>
<linearGradient id="paint6_linear" x1="237.192" y1="197.285" x2="218.5" y2="200.451" gradientUnits="userSpaceOnUse">
<stop stop-color="#6E2287"/>
<stop offset="0.671875" stop-color="#D85855"/>
</linearGradient>
<linearGradient id="paint7_linear" x1="224.146" y1="191.046" x2="208.934" y2="192.924" gradientUnits="userSpaceOnUse">
<stop stop-color="#6E2287"/>
<stop offset="0.671875" stop-color="#D85855"/>
</linearGradient>
<linearGradient id="paint8_linear" x1="223.297" y1="131.654" x2="235.341" y2="141.18" gradientUnits="userSpaceOnUse">
<stop offset="0.01" stop-color="#DAA191"/>
<stop offset="0.99" stop-color="#DE807A"/>
</linearGradient>
<linearGradient id="paint9_linear" x1="192.783" y1="150.229" x2="213.004" y2="186.572" gradientUnits="userSpaceOnUse">
<stop offset="0.01" stop-color="#DAA191"/>
<stop offset="0.99" stop-color="#DE807A"/>
</linearGradient>
<linearGradient id="paint10_linear" x1="223.675" y1="134.35" x2="230.177" y2="112.451" gradientUnits="userSpaceOnUse">
<stop offset="0.0200391" stop-color="#56261B"/>
<stop offset="0.99" stop-color="#4D1B12"/>
</linearGradient>
<linearGradient id="paint11_linear" x1="227.126" y1="134.652" x2="228.649" y2="125.215" gradientUnits="userSpaceOnUse">
<stop offset="0.0200391" stop-color="#56261B"/>
<stop offset="0.99" stop-color="#4D1B12"/>
</linearGradient>
<linearGradient id="paint12_linear" x1="239.208" y1="118.943" x2="237.429" y2="123.687" gradientUnits="userSpaceOnUse">
<stop stop-color="#FFD150"/>
<stop offset="1" stop-color="#F2B725"/>
</linearGradient>
<radialGradient id="paint13_radial" cx="0" cy="0" r="1" gradientUnits="userSpaceOnUse" gradientTransform="translate(238.336 117.975) scale(0.881414 0.881238)">
<stop stop-color="#FFD150"/>
<stop offset="1" stop-color="#F2B725"/>
</radialGradient>
<linearGradient id="paint14_linear" x1="127.117" y1="124.685" x2="153.622" y2="124.685" gradientUnits="userSpaceOnUse">
<stop stop-color="#00D4FF" stop-opacity="0.45"/>
<stop offset="1" stop-color="#00FFFF" stop-opacity="0"/>
</linearGradient>
<linearGradient id="paint15_linear" x1="179.529" y1="74.9139" x2="188.414" y2="90.8814" gradientUnits="userSpaceOnUse">
<stop offset="0.01" stop-color="#DAA191"/>
<stop offset="0.99" stop-color="#DE807A"/>
</linearGradient>
<linearGradient id="paint16_linear" x1="191.786" y1="84.7431" x2="172.609" y2="84.3997" gradientUnits="userSpaceOnUse">
<stop offset="0.01" stop-color="#C9D9DC"/>
<stop offset="0.99" stop-color="#B8CFD4"/>
</linearGradient>
<linearGradient id="paint17_linear" x1="180.435" y1="55.2109" x2="124.961" y2="74.4366" gradientUnits="userSpaceOnUse">
<stop stop-color="#D85855"/>
<stop offset="1" stop-color="#6E2287"/>
</linearGradient>
<linearGradient id="paint18_linear" x1="177.452" y1="145.776" x2="156.779" y2="181.415" gradientUnits="userSpaceOnUse">
<stop offset="0.01" stop-color="#DAA191"/>
<stop offset="0.99" stop-color="#DE807A"/>
</linearGradient>
<linearGradient id="paint19_linear" x1="161.871" y1="153.142" x2="141.641" y2="188.017" gradientUnits="userSpaceOnUse">
<stop offset="0.01" stop-color="#DAA191"/>
<stop offset="0.99" stop-color="#DE807A"/>
</linearGradient>
<linearGradient id="paint20_linear" x1="191.628" y1="73.972" x2="192.907" y2="73.972" gradientUnits="userSpaceOnUse">
<stop offset="0.01" stop-color="#DAA191"/>
<stop offset="0.99" stop-color="#DE807A"/>
</linearGradient>
<linearGradient id="paint21_linear" x1="192.799" y1="74.8458" x2="194.086" y2="74.8458" gradientUnits="userSpaceOnUse">
<stop offset="0.01" stop-color="#DAA191"/>
<stop offset="0.99" stop-color="#DE807A"/>
</linearGradient>
<linearGradient id="paint22_linear" x1="149.333" y1="64.1266" x2="171.54" y2="104.039" gradientUnits="userSpaceOnUse">
<stop offset="0.01" stop-color="#DAA191"/>
<stop offset="0.99" stop-color="#DE807A"/>
</linearGradient>
<linearGradient id="paint23_linear" x1="162.664" y1="52.8172" x2="168.141" y2="62.6606" gradientUnits="userSpaceOnUse">
<stop offset="0.01" stop-color="#DAA191"/>
<stop offset="0.99" stop-color="#DE807A"/>
</linearGradient>
</defs>
</svg>
