<svg width="510" height="531" viewBox="0 0 510 531" fill="none" xmlns="http://www.w3.org/2000/svg">
<g opacity="0.4">
<path opacity="0.3" d="M498.129 473.396C483.884 456.106 467.982 456.106 466.215 432.564C464.448 418.4 473.282 404.333 473.282 390.169C473.282 333.708 428.889 336.834 379.305 341.523C322.544 346.212 302.998 336.834 294.163 288.188C276.384 183.081 159.327 261.52 104.332 205.06C77.7179 178.392 81.2518 142.249 40.5027 120.27C21.8398 110.6 -4.99498 108.255 -26.8604 112.065V497.523C-23.8787 500.747 -20.4553 503.775 -16.3694 506.412H509.725C511.492 494.495 504.424 480.038 498.129 473.396Z" fill="#FF77CF"/>
</g>
<path d="M142.793 448.07C139.809 438.681 138.261 428.785 139.035 419.228C140.804 400.535 160.921 397.321 181.039 401.466C180.486 387.341 177.502 367.718 197.067 359.514C217.737 351.31 238.518 369.495 243.271 383.619C258.083 378.629 267.589 358.584 283.506 373.639C296.55 385.903 288.259 397.744 292.349 411.023C307.161 401.889 324.294 396.476 336.122 411.446C344.854 422.188 347.839 435.721 343.307 448.07H142.793Z" fill="#693899"/>
<path fill-rule="evenodd" clip-rule="evenodd" d="M196.293 368.057C199.056 366.788 201.488 365.35 203.809 363.658C204.804 362.897 206.352 364.081 205.357 364.843C202.925 366.619 200.272 368.141 197.398 369.494C196.182 370.087 195.077 368.649 196.293 368.057ZM209.557 372.032C211.326 371.82 213.094 371.694 214.863 371.567C216.631 371.44 218.4 371.313 220.169 371.101C221.605 370.932 222.158 372.539 220.721 372.708C218.953 372.92 217.184 373.047 215.415 373.174C213.647 373.301 211.878 373.427 210.11 373.639C208.783 373.893 208.12 372.201 209.557 372.032ZM269.91 379.729C271.126 377.868 272.231 376.092 272.784 374.062C273.115 372.962 275.216 373.47 274.884 374.485C274.331 376.684 273.115 378.629 271.789 380.574C271.126 381.505 269.247 380.659 269.91 379.729ZM261.841 392.078C261.177 389.794 260.072 387.679 258.746 385.565C258.082 384.634 256.203 385.48 256.867 386.326C258.193 388.356 259.188 390.386 259.74 392.5C259.962 393.6 262.172 393.177 261.841 392.078ZM267.699 395.376C269.799 393.431 271.678 391.401 273.446 389.202C274.22 388.271 276.099 389.117 275.326 390.047C273.557 392.331 271.457 394.446 269.246 396.56C268.362 397.406 266.814 396.222 267.699 395.376ZM258.713 399.901L258.711 399.897C258.576 399.575 258.44 399.252 258.303 398.929C257.861 397.914 255.651 398.336 256.093 399.351C256.333 399.888 256.57 400.428 256.807 400.968L256.808 400.97L256.809 400.972L256.809 400.972L256.809 400.972L256.809 400.972L256.809 400.973L256.81 400.973C257.88 403.411 258.957 405.864 260.404 408.148C260.956 409.163 262.946 408.317 262.283 407.302C260.812 404.902 259.777 402.435 258.713 399.901ZM273.779 408.74C277.206 408.655 280.411 407.894 283.506 406.963C284.833 406.541 285.385 408.232 284.059 408.571C280.743 409.585 277.316 410.347 273.668 410.431C272.342 410.431 272.342 408.74 273.779 408.74ZM301.902 418.853L301.902 418.853L301.902 418.854C301.554 419.177 301.207 419.499 300.86 419.82C299.865 420.666 301.523 421.85 302.408 421.004C305.061 418.466 307.713 416.014 310.698 413.73C311.693 412.969 310.145 411.785 309.15 412.546C306.556 414.531 304.213 416.707 301.902 418.853ZM321.714 418.056C321.329 419.06 320.944 420.066 320.647 421.089C320.426 422.188 322.526 422.611 322.747 421.511C323.052 420.251 323.526 419.015 324 417.778C324.385 416.774 324.771 415.768 325.068 414.745C325.4 413.73 323.3 413.223 322.968 414.322C322.663 415.583 322.189 416.818 321.714 418.056ZM333.026 428.362C330.815 429.546 328.384 430.561 325.952 431.492C324.625 431.999 325.731 433.437 327.057 432.93C329.489 431.999 331.921 431.069 334.131 429.8C335.237 429.208 334.131 427.686 333.026 428.362ZM306.055 426.84C308.929 427.263 311.803 427.263 314.677 427.263C316.114 427.263 316.114 428.954 314.677 428.954C311.582 428.954 308.487 428.87 305.503 428.447C304.066 428.278 304.618 426.671 306.055 426.84ZM300.75 436.82C301.273 436.954 301.796 437.089 302.319 437.225C305.115 437.949 307.922 438.677 310.808 439.104C312.245 439.273 311.582 440.965 310.256 440.711C307.37 440.284 304.562 439.556 301.767 438.832L301.762 438.831L301.76 438.83L301.758 438.83L301.756 438.829L301.754 438.829C301.235 438.694 300.716 438.56 300.197 438.427C298.76 438.089 299.313 436.482 300.75 436.82ZM291.353 428.447C288.922 430.731 287.043 433.268 285.716 436.059C285.274 437.074 287.374 437.582 287.816 436.482C289.032 433.945 290.69 431.746 292.901 429.631C293.785 428.785 292.238 427.601 291.353 428.447ZM279.747 421.511C283.063 420.243 286.379 419.228 290.027 418.72C291.464 418.551 292.017 420.158 290.58 420.327C287.153 420.835 283.947 421.765 280.742 422.949C279.636 423.457 278.421 422.019 279.747 421.511ZM267.851 420.806C267.193 419.421 266.529 418.026 265.93 416.606C265.488 415.591 263.388 416.014 263.83 417.029C264.383 418.297 264.991 419.587 265.599 420.877C266.207 422.167 266.815 423.457 267.367 424.725C267.809 425.825 269.91 425.317 269.468 424.302C268.961 423.14 268.408 421.977 267.851 420.806ZM243.05 400.113L243.05 400.113C241.53 401.064 240.01 402.016 238.628 403.073C237.633 403.834 239.181 405.018 240.176 404.257C241.557 403.2 243.077 402.248 244.597 401.297C246.117 400.345 247.637 399.394 249.019 398.336C250.014 397.575 248.466 396.391 247.471 397.152C246.089 398.21 244.57 399.161 243.05 400.113ZM235.864 386.495V395.545C235.864 396.645 233.654 396.645 233.654 395.545V386.495C233.654 385.396 235.864 385.396 235.864 386.495ZM222.374 385.257C221.443 387.199 220.514 389.135 220.058 391.232C219.837 392.331 221.937 392.754 222.158 391.655C222.672 389.293 223.719 387.134 224.782 384.943L224.782 384.942L224.782 384.942L224.782 384.942L224.782 384.942L224.782 384.942C225.089 384.308 225.398 383.672 225.695 383.027C226.248 382.012 224.037 381.59 223.595 382.604C223.217 383.499 222.795 384.378 222.375 385.255L222.375 385.255L222.375 385.255L222.375 385.255L222.374 385.255L222.374 385.256L222.374 385.256L222.374 385.256L222.374 385.256L222.374 385.256L222.374 385.256L222.374 385.256L222.374 385.256L222.374 385.256L222.374 385.257L222.374 385.257L222.374 385.257L222.374 385.257L222.374 385.257L222.374 385.257L222.374 385.257L222.374 385.257L222.374 385.257ZM207.367 384.884C206.691 382.758 206.013 380.625 205.025 378.545C204.583 377.53 202.372 377.953 202.924 378.968C203.813 380.961 204.479 383.003 205.144 385.042C205.72 386.809 206.296 388.573 207.014 390.301C207.456 391.401 209.557 390.893 209.115 389.878C208.432 388.237 207.9 386.563 207.367 384.884ZM197.619 388.61C193.971 386.072 190.987 383.196 189.66 379.475C189.218 378.375 187.118 378.883 187.45 379.898C188.887 383.873 192.092 387.087 196.071 389.794C197.066 390.555 198.724 389.371 197.619 388.61ZM188.776 398.083L194.745 402.65C195.74 403.411 194.192 404.595 193.197 403.834L187.228 399.267C186.123 398.506 187.781 397.321 188.776 398.083ZM213.534 405.057C213.115 405.887 212.696 406.717 212.32 407.556C211.877 408.571 213.978 408.993 214.42 407.979C214.799 407.135 215.22 406.308 215.642 405.482C216.572 403.658 217.5 401.838 217.957 399.859C218.289 398.844 216.078 398.336 215.857 399.436C215.399 401.362 214.467 403.208 213.534 405.057ZM199.387 411.7C201.598 413.73 204.141 415.422 206.904 417.029C208.009 417.705 206.904 419.143 205.799 418.467C202.925 416.775 200.161 415.083 197.84 412.884C196.956 412.038 198.503 410.854 199.387 411.7ZM231.332 409.839C231.056 408.634 230.78 407.429 230.448 406.202C230.227 405.103 228.016 405.526 228.348 406.625C228.666 407.8 228.933 408.975 229.197 410.141L229.197 410.141L229.197 410.141L229.197 410.141L229.197 410.141L229.197 410.141L229.197 410.141L229.197 410.141L229.198 410.141L229.198 410.142L229.198 410.142L229.198 410.142L229.198 410.142L229.198 410.142L229.198 410.142L229.198 410.142L229.198 410.143L229.198 410.143L229.198 410.143L229.198 410.143C229.486 411.41 229.771 412.666 230.116 413.899C230.338 414.999 232.548 414.576 232.217 413.476C231.885 412.25 231.609 411.045 231.332 409.839ZM245.37 421.934C245.833 421.719 246.299 421.508 246.763 421.297C249.404 420.098 252.018 418.911 253.992 417.113C254.876 416.267 256.424 417.452 255.54 418.297C253.393 420.313 250.472 421.604 247.612 422.867C247.232 423.036 246.852 423.203 246.476 423.372C245.26 423.964 244.154 422.526 245.37 421.934ZM228.016 426.417C226.247 423.795 224.368 421.258 221.936 418.974C221.052 418.044 219.394 419.312 220.389 420.158C222.599 422.357 224.478 424.81 226.137 427.263C226.689 428.278 228.679 427.432 228.016 426.417ZM238.96 430.646C238.739 429.546 240.839 429.124 241.06 430.223C241.613 432.676 241.613 435.044 241.06 437.497C240.839 438.597 238.628 438.089 238.96 437.074C239.513 434.875 239.513 432.76 238.96 430.646ZM268.141 433.184C266.151 435.213 264.493 437.328 263.277 439.696C262.725 440.711 264.825 441.134 265.378 440.204C266.593 438.005 268.141 435.975 270.02 434.029C270.904 433.184 269.025 432.338 268.141 433.184ZM251.118 431.746C252.444 433.776 252.997 435.805 252.997 438.089C252.997 439.189 250.786 439.189 250.786 438.089C250.786 436.144 250.234 434.368 249.128 432.591C248.576 431.661 250.455 430.815 251.118 431.746ZM221.605 433.014C218.4 434.96 215.415 436.99 213.094 439.527C212.21 440.373 214.199 441.219 215.084 440.373C217.184 437.92 220.168 436.059 223.153 434.198L223.153 434.198C224.258 433.522 222.711 432.338 221.605 433.014ZM202.041 427.686C202.041 430.139 202.704 432.422 203.809 434.706C204.362 435.721 202.151 436.144 201.709 435.129C200.493 432.761 199.941 430.223 199.941 427.686C199.83 426.586 202.041 426.586 202.041 427.686ZM185.018 440.077L185.018 440.077L185.017 440.077L185.017 440.077L185.017 440.077L185.016 440.077L185.016 440.077C183.414 440.648 181.812 441.219 180.265 441.895C179.049 442.487 180.154 443.925 181.37 443.333C182.918 442.656 184.52 442.086 186.123 441.515C187.726 440.944 189.329 440.373 190.876 439.696C192.092 439.189 190.987 437.666 189.771 438.258C188.223 438.935 186.621 439.506 185.018 440.077ZM181.923 419.735C182.475 422.357 183.249 424.895 184.244 427.432C184.686 428.447 182.586 428.955 182.144 427.855C181.038 425.318 180.375 422.78 179.822 420.158C179.601 419.143 181.702 418.72 181.923 419.735ZM169.322 430.054C166.116 431.069 163.132 432.507 160.589 434.368C159.484 435.129 161.031 436.313 162.026 435.552C164.347 433.86 167 432.591 169.874 431.661C171.201 431.323 170.648 429.631 169.322 430.054ZM152.078 415.337C154.266 417.489 155.766 419.866 157.319 422.327C157.414 422.478 157.509 422.629 157.605 422.78C158.268 423.795 156.279 424.641 155.726 423.626C155.562 423.366 155.399 423.106 155.237 422.847C153.865 420.656 152.507 418.487 150.531 416.521C149.646 415.675 151.194 414.407 152.078 415.337ZM169.882 409.943L169.881 409.943C169.218 410.186 168.552 410.43 167.885 410.685C166.559 411.108 167.664 412.63 168.99 412.208C169.582 411.981 170.174 411.763 170.764 411.546L170.764 411.546C172.816 410.79 174.839 410.045 176.728 408.994C177.944 408.401 176.838 406.879 175.623 407.556C173.802 408.506 171.857 409.218 169.882 409.943ZM159.152 407.725L159.152 407.725L159.152 407.725C159.456 408.401 159.76 409.078 160.036 409.755C160.479 410.77 158.378 411.277 157.936 410.178C157.66 409.501 157.356 408.824 157.052 408.148C156.748 407.471 156.444 406.794 156.168 406.118C155.615 405.103 157.826 404.68 158.268 405.695C158.544 406.371 158.848 407.048 159.152 407.725ZM149.314 439.189C149.867 436.905 149.978 434.79 148.651 432.676C148.098 431.661 146.109 432.591 146.772 433.522C147.767 435.213 147.656 436.99 147.214 438.766C146.883 439.781 149.093 440.288 149.314 439.189Z" fill="#DD7494" fill-opacity="0.69"/>
<path d="M112.322 455.036C112.322 437.272 114.089 418.737 119.17 401.857C123.258 387.404 126.019 363.793 138.391 354.305C151.647 344.265 151.647 371.406 156.729 376.15C161.479 368.427 165.345 360.483 169.432 352.539C174.182 343.382 176.833 331.246 186.885 326.281C198.374 320.985 201.909 335.218 201.356 342.499C200.473 353.753 202.792 351.105 206.99 348.457C210.856 345.809 224.444 334.556 228.31 331.908C234.496 327.826 250.513 316.572 247.862 333.121C245.542 348.237 231.292 354.415 225.106 366.551C233.06 365.338 244.659 363.572 251.176 369.53C260.897 378.357 244.106 386.411 237.258 389.279C228.973 393.141 220.356 395.237 212.072 397.885C208.205 399.098 201.688 400.864 198.816 403.843C194.949 408.256 200.252 409.469 204.781 410.904C211.298 413.221 227.537 414.765 227.868 423.923C228.199 433.411 210.746 433.963 204.229 434.294C195.612 434.625 187.327 433.742 179.042 434.294C176.06 434.625 168.659 434.845 169.874 439.369C170.758 442.568 179.042 444.113 182.025 444.665C188.542 446.43 201.798 452.057 190.31 458.235C183.24 461.766 173.188 462.097 165.455 462.317C150.653 462.869 136.734 461.435 122.595 457.904C119.391 457.021 115.525 456.139 112.874 455.256" fill="#48662E"/>
<path d="M112.322 455.036C112.322 437.272 114.089 418.737 119.17 401.857C123.258 387.404 126.019 363.793 138.391 354.305C151.647 344.265 151.647 371.406 156.729 376.15C161.479 368.427 165.345 360.483 169.432 352.539C174.182 343.382 176.833 331.246 186.885 326.281C198.374 320.985 201.909 335.218 201.356 342.499C200.473 353.753 202.792 351.105 206.99 348.457C210.856 345.809 224.444 334.556 228.31 331.908C234.496 327.826 250.513 316.572 247.862 333.121C245.542 348.237 231.292 354.415 225.106 366.551C233.06 365.338 244.659 363.572 251.176 369.53C260.897 378.357 244.106 386.411 237.258 389.279C228.973 393.141 220.356 395.237 212.072 397.885C208.205 399.098 201.688 400.864 198.816 403.843C194.949 408.256 200.252 409.469 204.781 410.904C211.298 413.221 227.537 414.765 227.868 423.923C228.199 433.411 210.746 433.963 204.229 434.294C195.612 434.625 187.327 433.742 179.042 434.294C176.06 434.625 168.659 434.845 169.874 439.369C170.758 442.568 179.042 444.113 182.025 444.665C188.542 446.43 201.798 452.057 190.31 458.235C183.24 461.766 173.188 462.097 165.455 462.317C150.653 462.869 136.734 461.435 122.595 457.904C119.391 457.021 115.525 456.139 112.874 455.256" fill="#FF77CF"/>
<path d="M251.065 369.309C244.548 363.351 233.06 365.227 224.996 366.33C231.182 354.194 245.432 348.016 247.752 332.901C248.193 329.811 248.083 327.715 247.531 326.391C247.31 326.722 247.089 326.943 246.757 327.163C218.589 351.657 112.321 452.939 112.321 455.035H112.653C115.304 455.918 119.17 456.801 122.374 457.683C136.624 461.214 150.432 462.758 165.234 462.096C172.967 461.765 183.019 461.545 190.089 458.014C201.577 451.836 188.321 446.209 181.804 444.444C178.821 443.892 170.536 442.347 169.653 439.148C168.438 434.735 175.839 434.404 178.821 434.073C187.106 433.521 195.391 434.404 204.007 434.073C210.525 433.742 227.978 433.19 227.647 423.702C227.315 414.544 211.077 413.11 204.56 410.683C200.141 409.249 194.839 408.035 198.595 403.622C201.577 400.643 208.095 398.878 211.85 397.664C220.135 395.016 228.752 392.92 237.036 389.058C243.996 386.19 260.786 378.246 251.065 369.309Z" fill="black" fill-opacity="0.16"/>
<path fill-rule="evenodd" clip-rule="evenodd" d="M216.932 352.319C225.106 344.265 233.612 336.652 242.449 329.37C243.775 328.267 245.763 330.143 244.327 331.356C235.048 338.969 226.211 347.023 217.705 355.518C215.174 358.046 212.702 360.632 210.23 363.218L210.23 363.218C205.903 367.743 201.577 372.269 196.937 376.481C195.996 377.339 195.058 378.201 194.124 379.066C201.031 378.744 207.86 378.269 214.612 377.253C216.38 377.033 217.153 379.681 215.385 379.901C207.369 381.075 199.146 381.63 191.016 381.965C186.444 386.259 181.936 390.616 177.427 394.974L177.427 394.975C176.83 395.551 176.234 396.128 175.637 396.705C183.45 397.016 191.255 396.013 199.019 395.016C201.09 394.75 203.158 394.484 205.223 394.244C206.99 394.023 206.99 396.782 205.223 397.002C203.159 397.242 201.092 397.508 199.022 397.774L199.022 397.774L199.022 397.774L199.022 397.774L199.022 397.774L199.021 397.774L199.021 397.774L199.021 397.774L199.021 397.774L199.021 397.774L199.021 397.774L199.02 397.774L199.02 397.774L199.02 397.774L199.02 397.774L199.02 397.774L199.019 397.774L199.019 397.774C190.364 398.886 181.657 400.004 172.946 399.302C172.291 399.933 171.635 400.564 170.978 401.195C165.232 406.734 159.536 412.354 153.835 417.979L153.835 417.979L152.704 419.094C155.371 419.092 158.026 418.707 160.689 418.32C162.566 418.047 164.447 417.774 166.339 417.634C171.973 417.193 177.717 417.193 183.351 417.193H183.351C185.118 417.193 185.118 419.951 183.351 419.951H183.35C176.943 419.951 170.426 419.951 164.13 420.613C163.113 420.735 162.108 420.872 161.109 421.007C157.426 421.509 153.83 421.998 150.08 421.682C144.74 426.945 139.386 432.197 133.972 437.375C136.765 437.652 139.554 437.971 142.343 438.29C150.272 439.197 158.201 440.104 166.228 440.031C167.996 440.031 167.996 442.789 166.228 442.789C158.201 442.863 150.272 441.955 142.343 441.048C138.677 440.629 135.011 440.209 131.335 439.887C125.533 445.388 119.656 450.794 113.647 456.029C112.321 457.132 110.333 455.256 111.658 454.043C117.576 448.908 123.361 443.602 129.066 438.199C129.077 438.148 129.093 438.097 129.112 438.045C130.778 433.561 131.541 428.887 132.305 424.21C132.707 421.752 133.108 419.294 133.641 416.862C134.017 415.084 134.41 413.307 134.804 411.528C136.144 405.468 137.487 399.392 138.17 393.251C138.391 391.486 141.153 391.486 140.932 393.251C140.213 399.983 138.763 406.496 137.295 413.087C136.959 414.597 136.622 416.112 136.292 417.634C135.849 419.813 135.49 422.013 135.131 424.215C134.58 427.59 134.029 430.968 133.173 434.28C137.8 429.836 142.381 425.337 146.947 420.824C146.739 420.497 146.669 420.082 146.787 419.73C146.99 419.059 147.194 418.388 147.398 417.715L147.399 417.712L147.399 417.71C150.753 406.663 154.169 395.409 153.857 383.763C153.746 381.998 156.508 381.998 156.729 383.653C157.032 395.163 153.727 406.396 150.455 417.352C151.363 416.452 152.27 415.552 153.178 414.653L153.183 414.647L153.188 414.642L153.188 414.642C158.678 409.198 164.164 403.759 169.695 398.392C169.547 398.108 169.496 397.75 169.542 397.333C169.732 396.102 169.92 394.869 170.108 393.637C172.111 380.513 174.12 367.353 178.159 354.746C178.711 353.091 181.362 353.864 180.81 355.518C176.537 368.635 174.525 382.144 172.549 395.675C174.444 393.863 176.332 392.043 178.22 390.223C181.793 386.779 185.367 383.334 188.992 379.939C190.471 376.224 191.44 372.381 192.409 368.537C193.403 364.593 194.397 360.649 195.944 356.842C196.606 355.187 199.258 355.96 198.484 357.615C196.938 361.421 195.944 365.365 194.949 369.31L194.949 369.31L194.949 369.31L194.949 369.31L194.949 369.31L194.949 369.31L194.949 369.31L194.949 369.31L194.949 369.31L194.949 369.31L194.949 369.31L194.949 369.31L194.949 369.31L194.949 369.31L194.949 369.31L194.949 369.31L194.949 369.31L194.949 369.311L194.949 369.311C194.375 371.589 193.8 373.868 193.119 376.121C193.837 375.466 194.557 374.813 195.28 374.164C199.91 370.01 204.213 365.489 208.512 360.973C211.291 358.053 214.069 355.135 216.932 352.319ZM224.113 379.57C225.88 379.57 225.88 376.812 224.113 376.812C222.345 376.812 222.345 379.57 224.113 379.57ZM229.193 375.488H229.525C231.292 375.488 231.292 372.729 229.525 372.729H229.193C227.426 372.729 227.426 375.488 229.193 375.488ZM229.525 381.666C231.292 381.666 231.292 378.908 229.525 378.908C227.758 378.908 227.647 381.666 229.525 381.666ZM187.217 345.037H187.548C189.316 345.037 189.316 342.279 187.548 342.279H187.217C185.339 342.279 185.339 345.037 187.217 345.037ZM189.205 351.215C190.973 351.215 190.973 348.457 189.205 348.457C187.438 348.457 187.438 351.215 189.205 351.215ZM192.74 346.471C194.508 346.471 194.508 343.713 192.74 343.713C190.973 343.713 190.973 346.471 192.74 346.471ZM135.74 381.004H135.409C133.641 381.004 133.641 378.246 135.409 378.246H135.74C137.507 378.246 137.507 381.004 135.74 381.004ZM140.269 379.68V380.011C140.269 381.777 143.031 381.777 143.031 380.011V379.68C143.031 377.915 140.269 377.915 140.269 379.68ZM139.275 375.709C141.042 375.709 141.042 372.95 139.275 372.95C137.507 372.95 137.507 375.709 139.275 375.709ZM193.734 423.923C195.501 423.923 195.501 421.165 193.734 421.165C191.967 421.165 191.856 423.923 193.734 423.923ZM198.374 418.296C200.141 418.296 200.141 415.538 198.374 415.538C196.606 415.538 196.606 418.296 198.374 418.296ZM200.142 423.923C201.909 423.923 201.909 421.165 200.142 421.165C198.374 421.165 198.374 423.923 200.142 423.923ZM160.263 451.063C162.031 451.063 162.031 448.305 160.263 448.305C158.496 448.305 158.496 451.063 160.263 451.063ZM165.566 449.299C167.333 449.299 167.333 446.54 165.566 446.54C163.798 446.54 163.798 449.299 165.566 449.299ZM165.234 453.38C167.002 453.38 167.002 450.622 165.234 450.622C163.467 450.622 163.467 453.38 165.234 453.38Z" fill="#C4C4C4"/>
<path fill-rule="evenodd" clip-rule="evenodd" d="M216.932 352.319C225.106 344.265 233.612 336.652 242.449 329.37C243.775 328.267 245.763 330.143 244.327 331.356C235.048 338.969 226.211 347.023 217.705 355.518C215.174 358.046 212.702 360.632 210.23 363.218L210.23 363.218C205.903 367.743 201.577 372.269 196.937 376.481C195.996 377.339 195.058 378.201 194.124 379.066C201.031 378.744 207.86 378.269 214.612 377.253C216.38 377.033 217.153 379.681 215.385 379.901C207.369 381.075 199.146 381.63 191.016 381.965C186.444 386.259 181.936 390.616 177.427 394.974L177.427 394.975C176.83 395.551 176.234 396.128 175.637 396.705C183.45 397.016 191.255 396.013 199.019 395.016C201.09 394.75 203.158 394.484 205.223 394.244C206.99 394.023 206.99 396.782 205.223 397.002C203.159 397.242 201.092 397.508 199.022 397.774L199.022 397.774L199.022 397.774L199.022 397.774L199.022 397.774L199.021 397.774L199.021 397.774L199.021 397.774L199.021 397.774L199.021 397.774L199.021 397.774L199.02 397.774L199.02 397.774L199.02 397.774L199.02 397.774L199.02 397.774L199.019 397.774L199.019 397.774C190.364 398.886 181.657 400.004 172.946 399.302C172.291 399.933 171.635 400.564 170.978 401.195C165.232 406.734 159.536 412.354 153.835 417.979L153.835 417.979L152.704 419.094C155.371 419.092 158.026 418.707 160.689 418.32C162.566 418.047 164.447 417.774 166.339 417.634C171.973 417.193 177.717 417.193 183.351 417.193H183.351C185.118 417.193 185.118 419.951 183.351 419.951H183.35C176.943 419.951 170.426 419.951 164.13 420.613C163.113 420.735 162.108 420.872 161.109 421.007C157.426 421.509 153.83 421.998 150.08 421.682C144.74 426.945 139.386 432.197 133.972 437.375C136.765 437.652 139.554 437.971 142.343 438.29C150.272 439.197 158.201 440.104 166.228 440.031C167.996 440.031 167.996 442.789 166.228 442.789C158.201 442.863 150.272 441.955 142.343 441.048C138.677 440.629 135.011 440.209 131.335 439.887C125.533 445.388 119.656 450.794 113.647 456.029C112.321 457.132 110.333 455.256 111.658 454.043C117.576 448.908 123.361 443.602 129.066 438.199C129.077 438.148 129.093 438.097 129.112 438.045C130.778 433.561 131.541 428.887 132.305 424.21C132.707 421.752 133.108 419.294 133.641 416.862C134.017 415.084 134.41 413.307 134.804 411.528C136.144 405.468 137.487 399.392 138.17 393.251C138.391 391.486 141.153 391.486 140.932 393.251C140.213 399.983 138.763 406.496 137.295 413.087C136.959 414.597 136.622 416.112 136.292 417.634C135.849 419.813 135.49 422.013 135.131 424.215C134.58 427.59 134.029 430.968 133.173 434.28C137.8 429.836 142.381 425.337 146.947 420.824C146.739 420.497 146.669 420.082 146.787 419.73C146.99 419.059 147.194 418.388 147.398 417.715L147.399 417.712L147.399 417.71C150.753 406.663 154.169 395.409 153.857 383.763C153.746 381.998 156.508 381.998 156.729 383.653C157.032 395.163 153.727 406.396 150.455 417.352C151.363 416.452 152.27 415.552 153.178 414.653L153.183 414.647L153.188 414.642L153.188 414.642C158.678 409.198 164.164 403.759 169.695 398.392C169.547 398.108 169.496 397.75 169.542 397.333C169.732 396.102 169.92 394.869 170.108 393.637C172.111 380.513 174.12 367.353 178.159 354.746C178.711 353.091 181.362 353.864 180.81 355.518C176.537 368.635 174.525 382.144 172.549 395.675C174.444 393.863 176.332 392.043 178.22 390.223C181.793 386.779 185.367 383.334 188.992 379.939C190.471 376.224 191.44 372.381 192.409 368.537C193.403 364.593 194.397 360.649 195.944 356.842C196.606 355.187 199.258 355.96 198.484 357.615C196.938 361.421 195.944 365.365 194.949 369.31L194.949 369.31L194.949 369.31L194.949 369.31L194.949 369.31L194.949 369.31L194.949 369.31L194.949 369.31L194.949 369.31L194.949 369.31L194.949 369.31L194.949 369.31L194.949 369.31L194.949 369.31L194.949 369.31L194.949 369.31L194.949 369.31L194.949 369.311L194.949 369.311C194.375 371.589 193.8 373.868 193.119 376.121C193.837 375.466 194.557 374.813 195.28 374.164C199.91 370.01 204.213 365.489 208.512 360.973C211.291 358.053 214.069 355.135 216.932 352.319ZM224.113 379.57C225.88 379.57 225.88 376.812 224.113 376.812C222.345 376.812 222.345 379.57 224.113 379.57ZM229.193 375.488H229.525C231.292 375.488 231.292 372.729 229.525 372.729H229.193C227.426 372.729 227.426 375.488 229.193 375.488ZM229.525 381.666C231.292 381.666 231.292 378.908 229.525 378.908C227.758 378.908 227.647 381.666 229.525 381.666ZM187.217 345.037H187.548C189.316 345.037 189.316 342.279 187.548 342.279H187.217C185.339 342.279 185.339 345.037 187.217 345.037ZM189.205 351.215C190.973 351.215 190.973 348.457 189.205 348.457C187.438 348.457 187.438 351.215 189.205 351.215ZM192.74 346.471C194.508 346.471 194.508 343.713 192.74 343.713C190.973 343.713 190.973 346.471 192.74 346.471ZM135.74 381.004H135.409C133.641 381.004 133.641 378.246 135.409 378.246H135.74C137.507 378.246 137.507 381.004 135.74 381.004ZM140.269 379.68V380.011C140.269 381.777 143.031 381.777 143.031 380.011V379.68C143.031 377.915 140.269 377.915 140.269 379.68ZM139.275 375.709C141.042 375.709 141.042 372.95 139.275 372.95C137.507 372.95 137.507 375.709 139.275 375.709ZM193.734 423.923C195.501 423.923 195.501 421.165 193.734 421.165C191.967 421.165 191.856 423.923 193.734 423.923ZM198.374 418.296C200.141 418.296 200.141 415.538 198.374 415.538C196.606 415.538 196.606 418.296 198.374 418.296ZM200.142 423.923C201.909 423.923 201.909 421.165 200.142 421.165C198.374 421.165 198.374 423.923 200.142 423.923ZM160.263 451.063C162.031 451.063 162.031 448.305 160.263 448.305C158.496 448.305 158.496 451.063 160.263 451.063ZM165.566 449.299C167.333 449.299 167.333 446.54 165.566 446.54C163.798 446.54 163.798 449.299 165.566 449.299ZM165.234 453.38C167.002 453.38 167.002 450.622 165.234 450.622C163.467 450.622 163.467 453.38 165.234 453.38Z" fill="url(#paint0_linear)"/>
<path d="M159.041 205.155C156.505 197.555 153.81 189.639 154.444 181.564C155.078 174.915 157.931 168.74 160.468 162.566C162.687 157.816 163.48 151.958 165.857 147.841C172.198 165.732 180.758 194.389 159.992 206.58" fill="#FF77CF"/>
<path d="M145.462 252.336C117.335 232.953 124.724 196.788 129.73 168.424C140.694 184.97 152.374 199.152 151.898 220.426C151.659 231.535 146.177 241.226 145.7 251.863" fill="#FF77CF"/>
<path d="M165.381 215.763C168.235 209.905 171.247 204.205 176.161 199.297C181.55 193.756 194.39 188.214 201.841 187.423C201.841 196.447 189.476 209.588 182.184 214.021C176.953 217.346 171.247 217.98 165.54 217.505" fill="#FF77CF"/>
<path d="M169.661 257.402C167.442 250.119 174.892 240.145 179.331 235.078C186.94 226.212 196.768 219.562 205.645 211.488C207.072 226.054 202.316 237.136 192.805 247.586C186.306 254.552 179.648 257.56 170.771 258.352" fill="#FF77CF"/>
<path d="M122.264 276.718C113.863 270.702 107.839 259.936 107.046 249.328C106.729 242.52 107.839 235.237 108.948 228.587C109.741 223.521 109.424 218.138 111.009 213.546C113.704 218.771 117.984 223.679 120.203 229.062C122.74 235.237 124.166 242.361 124.959 249.011C126.068 258.036 124.642 267.852 121.63 276.56" fill="#FF77CF"/>
<path d="M161.894 284.475C159.992 276.243 174.734 267.218 180.441 263.577C190.903 257.244 204.535 254.552 215.632 249.644C213.888 261.36 201.365 273.393 191.378 279.409C184.562 283.209 171.246 288.275 163.479 285.9" fill="#FF77CF"/>
<path fill-rule="evenodd" clip-rule="evenodd" d="M142.554 280.993C141.874 282.609 141.191 284.225 140.505 285.84C165.644 287.059 186.851 273.214 205.17 257.244C207.072 255.661 209.926 258.352 207.865 259.935C188.526 277.034 165.699 291.6 138.909 289.7C138.892 289.699 138.874 289.698 138.857 289.697C126.054 319.502 111.77 348.779 90.2431 373.454C88.4994 375.512 85.646 372.662 87.5483 370.921C107.259 348.404 121.211 321.39 133.064 293.875C116.663 281.924 114.723 261.594 112.887 242.361L112.887 242.361L112.887 242.361C112.433 237.602 111.986 232.91 111.327 228.429C110.851 226.054 114.656 224.946 115.131 227.479C115.745 231.772 116.142 236.356 116.548 241.05C118.114 259.148 119.823 278.897 134.689 290.069C136.84 284.988 138.926 279.896 140.969 274.818C143.097 269.505 145.029 264.138 146.746 258.712C146.611 258.618 146.481 258.499 146.359 258.352C136.848 246.794 133.361 227.954 133.995 213.388C134.153 210.855 138.116 210.855 138.116 213.388C137.509 226.128 140.247 243.371 148.142 254.124C150.852 244.848 152.929 235.395 154.285 225.737C155.015 220.587 156.008 215.424 157.002 210.251L157.003 210.251C159.463 197.455 161.935 184.602 160.467 171.749C160.15 169.215 164.113 169.215 164.43 171.749C165.926 185.082 163.328 198.499 160.761 211.757C160.36 213.829 159.96 215.896 159.576 217.959C169.047 213.599 176.632 206.415 184.193 199.254C184.792 198.687 185.39 198.121 185.989 197.555C187.733 195.656 190.586 198.505 188.842 200.405C188.447 200.786 188.052 201.167 187.657 201.547C179.342 209.564 171.046 217.561 160.151 222.096C159.682 222.283 159.227 222.298 158.815 222.195C158.556 223.695 158.312 225.193 158.089 226.687C156.059 240.096 152.824 253.023 148.441 265.698C172.111 260.754 188.405 238.418 199.78 218.613C201.049 216.396 204.536 218.296 203.268 220.512C191.062 241.886 173.149 265.793 147.311 269.91C147.178 269.935 147.049 269.948 146.925 269.95C145.565 273.649 144.108 277.327 142.554 280.993Z" fill="#C4C4C4"/>
<path fill-rule="evenodd" clip-rule="evenodd" d="M142.554 280.993C141.874 282.609 141.191 284.225 140.505 285.84C165.644 287.059 186.851 273.214 205.17 257.244C207.072 255.661 209.926 258.352 207.865 259.935C188.526 277.034 165.699 291.6 138.909 289.7C138.892 289.699 138.874 289.698 138.857 289.697C126.054 319.502 111.77 348.779 90.2431 373.454C88.4994 375.512 85.646 372.662 87.5483 370.921C107.259 348.404 121.211 321.39 133.064 293.875C116.663 281.924 114.723 261.594 112.887 242.361L112.887 242.361L112.887 242.361C112.433 237.602 111.986 232.91 111.327 228.429C110.851 226.054 114.656 224.946 115.131 227.479C115.745 231.772 116.142 236.356 116.548 241.05C118.114 259.148 119.823 278.897 134.689 290.069C136.84 284.988 138.926 279.896 140.969 274.818C143.097 269.505 145.029 264.138 146.746 258.712C146.611 258.618 146.481 258.499 146.359 258.352C136.848 246.794 133.361 227.954 133.995 213.388C134.153 210.855 138.116 210.855 138.116 213.388C137.509 226.128 140.247 243.371 148.142 254.124C150.852 244.848 152.929 235.395 154.285 225.737C155.015 220.587 156.008 215.424 157.002 210.251L157.003 210.251C159.463 197.455 161.935 184.602 160.467 171.749C160.15 169.215 164.113 169.215 164.43 171.749C165.926 185.082 163.328 198.499 160.761 211.757C160.36 213.829 159.96 215.896 159.576 217.959C169.047 213.599 176.632 206.415 184.193 199.254C184.792 198.687 185.39 198.121 185.989 197.555C187.733 195.656 190.586 198.505 188.842 200.405C188.447 200.786 188.052 201.167 187.657 201.547C179.342 209.564 171.046 217.561 160.151 222.096C159.682 222.283 159.227 222.298 158.815 222.195C158.556 223.695 158.312 225.193 158.089 226.687C156.059 240.096 152.824 253.023 148.441 265.698C172.111 260.754 188.405 238.418 199.78 218.613C201.049 216.396 204.536 218.296 203.268 220.512C191.062 241.886 173.149 265.793 147.311 269.91C147.178 269.935 147.049 269.948 146.925 269.95C145.565 273.649 144.108 277.327 142.554 280.993Z" fill="url(#paint1_linear)"/>
<path d="M61.3487 483.587C37.0952 473.296 9.19587 445.431 -7.44865 426.274C-17.5939 414.874 -32.9702 396.983 -34.2384 380.518C-36.7747 353.761 -13.7894 361.519 1.42842 351.228C-13.7894 325.737 -45.6518 306.738 -51.9926 274.915C-58.3333 240.559 -35.5066 243.092 -9.98496 249.425C-22.6665 229.001 -54.5289 206.202 -59.6015 181.979C-64.6741 151.422 -19.9717 165.83 -2.21752 165.83C-14.8991 156.963 -48.1881 122.29 -51.9926 106.933C-60.8696 73.843 -26.471 81.4426 -6.1805 85.2424C-7.44865 71.3098 -13.7894 -2.46949 10.3055 0.0637038C37.0953 2.5969 38.3634 77.6428 42.1679 96.6417C53.5813 82.7091 96.857 48.3527 89.2481 89.0422C86.8703 109.624 58.3368 135.748 50.7279 156.172C71.1769 154.905 113.502 130.048 104.624 164.405C98.2837 189.895 78.9443 207.627 62.6169 231.851C76.5665 225.518 114.77 208.894 118.574 230.584C122.379 252.275 82.9073 280.14 74.0302 298.031C86.7118 295.497 124.915 276.34 123.647 304.364C122.379 321.938 86.8703 344.895 77.8347 358.827C87.9799 360.094 113.502 355.027 118.574 365.16C126.183 377.826 103.356 402.05 95.5888 412.183C80.371 432.607 67.5309 449.072 63.7265 475.829" fill="url(#paint2_linear)"/>
<path d="M61.3487 483.587C37.0952 473.296 9.19587 445.431 -7.44865 426.274C-17.5939 414.874 -32.9702 396.983 -34.2384 380.518C-36.7747 353.761 -13.7894 361.519 1.42842 351.228C-13.7894 325.737 -45.6518 306.738 -51.9926 274.915C-58.3333 240.559 -35.5066 243.092 -9.98496 249.425C-22.6665 229.001 -54.5289 206.202 -59.6015 181.979C-64.6741 151.422 -19.9717 165.83 -2.21752 165.83C-14.8991 156.963 -48.1881 122.29 -51.9926 106.933C-60.8696 73.843 -26.471 81.4426 -6.1805 85.2424C-7.44865 71.3098 -13.7894 -2.46949 10.3055 0.0637038C37.0953 2.5969 38.3634 77.6428 42.1679 96.6417C53.5813 82.7091 96.857 48.3527 89.2481 89.0422C86.8703 109.624 58.3368 135.748 50.7279 156.172C71.1769 154.905 113.502 130.048 104.624 164.405C98.2837 189.895 78.9443 207.627 62.6169 231.851C76.5665 225.518 114.77 208.894 118.574 230.584C122.379 252.275 82.9073 280.14 74.0302 298.031C86.7118 295.497 124.915 276.34 123.647 304.364C122.379 321.938 86.8703 344.895 77.8347 358.827C87.9799 360.094 113.502 355.027 118.574 365.16C126.183 377.826 103.356 402.05 95.5888 412.183C80.371 432.607 67.5309 449.072 63.7265 475.829" fill="url(#paint3_linear)"/>
<path d="M61.3487 483.587C37.0952 473.296 9.19587 445.431 -7.44865 426.274C-17.5939 414.874 -32.9702 396.983 -34.2384 380.518C-36.7747 353.761 -13.7894 361.519 1.42842 351.228C-13.7894 325.737 -45.6518 306.738 -51.9926 274.915C-58.3333 240.559 -35.5066 243.092 -9.98496 249.425C-22.6665 229.001 -54.5289 206.202 -59.6015 181.979C-64.6741 151.422 -19.9717 165.83 -2.21752 165.83C-14.8991 156.963 -48.1881 122.29 -51.9926 106.933C-60.8696 73.843 -26.471 81.4426 -6.1805 85.2424C-7.44865 71.3098 -13.7894 -2.46949 10.3055 0.0637038C37.0953 2.5969 38.3634 77.6428 42.1679 96.6417C53.5813 82.7091 96.857 48.3527 89.2481 89.0422C86.8703 109.624 58.3368 135.748 50.7279 156.172C71.1769 154.905 113.502 130.048 104.624 164.405C98.2837 189.895 78.9443 207.627 62.6169 231.851C76.5665 225.518 114.77 208.894 118.574 230.584C122.379 252.275 82.9073 280.14 74.0302 298.031C86.7118 295.497 124.915 276.34 123.647 304.364C122.379 321.938 86.8703 344.895 77.8347 358.827C87.9799 360.094 113.502 355.027 118.574 365.16C126.183 377.826 103.356 402.05 95.5888 412.183C80.371 432.607 67.5309 449.072 63.7265 475.829" fill="url(#paint4_linear)"/>
<g opacity="0.5">
<path fill-rule="evenodd" clip-rule="evenodd" d="M15.8542 55.0024C16.6896 83.3715 18.8295 111.686 21.3828 139.947C15.2849 130.569 7.37345 122.65 -0.578777 114.691C-4.51566 110.751 -8.46254 106.801 -12.2043 102.658C-13.948 100.917 -16.6428 103.608 -15.0576 105.508C-11.3895 109.579 -7.51436 113.468 -3.6429 117.355L-3.64254 117.355L-3.64247 117.355L-3.64211 117.355L-3.64203 117.355C6.038 127.072 15.695 136.766 22.0359 149.206C22.099 149.332 22.1761 149.445 22.2648 149.546C23.2041 159.614 24.1831 169.675 25.1614 179.73L25.1615 179.73L25.1618 179.734L25.1622 179.738L25.1624 179.739L25.1628 179.744C25.8159 186.456 26.4686 193.164 27.1091 199.869C27.6175 205.244 28.131 210.618 28.6489 215.992C18.6738 204.206 7.24803 193.73 -4.15425 183.275C-6.57919 181.052 -9.00306 178.83 -11.4117 176.596C-13.1554 174.854 -16.0087 177.546 -14.1065 179.287C-11.3183 181.898 -8.50348 184.487 -5.68741 187.078L-5.68711 187.078L-5.68616 187.079L-5.68393 187.081C6.68378 198.459 19.0756 209.858 29.344 223.178C31.9081 249.586 34.5742 275.995 37.2758 302.404C31.9417 297.548 26.6308 292.666 21.3161 287.781L21.314 287.779C12.2583 279.455 3.19125 271.12 -6.02148 262.883C-8.08223 261.299 -10.9356 264.149 -9.03334 265.891C-1.67279 272.535 5.62457 279.243 12.9293 285.958L12.9306 285.959L12.9313 285.96L12.9325 285.961L12.9332 285.961L12.9353 285.963C21.2219 293.58 29.518 301.206 37.9265 308.758C39.1524 320.719 40.3844 332.679 41.6165 344.639L41.6168 344.642C42.3128 351.398 43.0088 358.155 43.7037 364.911C37.0939 357.977 30.0877 351.403 23.0735 344.821L23.0727 344.82L23.0724 344.82L23.0722 344.82L23.0719 344.819L23.0716 344.819L23.0713 344.819L23.0711 344.818L23.0708 344.818L23.0705 344.818L23.0702 344.818L23.07 344.817L23.0697 344.817C17.8137 339.885 12.5532 334.949 7.45186 329.854C5.54963 328.271 2.69628 330.962 4.59851 332.862C9.32454 337.527 14.1871 342.075 19.0562 346.628L19.0573 346.63L19.0577 346.63C27.7303 354.741 36.4236 362.872 44.4032 371.717C44.7154 374.756 45.0273 377.795 45.3388 380.834L45.3388 380.835L45.3389 380.836L45.3389 380.836L45.339 380.837L45.339 380.837C46.3654 390.942 47.3918 401.047 48.4025 411.167C47.754 410.613 47.1039 410.061 46.4537 409.508L46.451 409.506L46.4484 409.504L46.4457 409.501L46.4431 409.499L46.4404 409.497L46.4278 409.486C39.8146 403.866 33.1857 398.232 28.06 391.284C26.4748 389.384 22.9874 391.442 24.5726 393.5C30.3166 401.193 37.5656 407.383 44.8147 413.572C46.2132 414.766 47.6117 415.96 48.9993 417.165C49.9678 426.934 50.9187 436.721 51.8381 446.539C52.0599 448.849 52.2943 451.159 52.5288 453.47L52.5292 453.474C53.4677 462.72 54.4061 471.966 54.5329 481.212C54.5329 483.745 58.4959 483.745 58.4959 481.212C58.4959 472.027 57.5474 462.748 56.6043 453.52L56.6042 453.519L56.604 453.517C56.3279 450.816 56.0523 448.12 55.8011 445.431C54.8757 435.793 53.9228 426.154 52.9653 416.516C53.3012 415.938 53.6366 415.361 53.9719 414.784C58.5811 406.85 63.1633 398.962 68.7995 391.601C70.3847 389.542 66.8972 387.642 65.3121 389.542C60.5077 395.982 56.4092 402.825 52.2927 409.75C51.1768 398.528 50.0621 387.306 48.9847 376.085L48.5794 372.121C52.4701 363.144 57.2869 354.605 62.1024 346.069L62.1026 346.069L62.1027 346.069C65.9157 339.309 69.7278 332.552 73.0788 325.579C74.1885 323.363 70.701 321.304 69.5914 323.521C66.2713 330.429 62.4984 337.097 58.7206 343.773C54.9228 350.484 51.1199 357.204 47.767 364.187C47.013 356.83 46.2574 349.47 45.5017 342.109L45.5015 342.107L45.4925 342.018L45.4899 341.993L45.4873 341.968L45.4847 341.943L45.4821 341.917C44.4347 331.715 43.387 321.509 42.3429 311.302C42.7925 311.161 43.195 310.862 43.4365 310.38C46.1194 304.498 49.1533 298.805 52.1816 293.123L52.1821 293.122L52.1823 293.121L52.1824 293.121C56.4901 285.038 60.7863 276.977 64.044 268.424C64.9951 266.049 61.0322 264.941 60.2396 267.316C57.103 275.7 52.8926 283.549 48.702 291.361L48.7019 291.361L48.7018 291.361L48.7017 291.361L48.7016 291.361L48.7014 291.362L48.7013 291.362L48.7012 291.362L48.7011 291.362L48.701 291.363L48.7009 291.363L48.7008 291.363L48.7006 291.363L48.7005 291.364L48.7004 291.364L48.7003 291.364L48.7002 291.364L48.7001 291.364L48.7 291.365L48.6998 291.365L48.6997 291.365L48.6996 291.365L48.6995 291.366L48.6994 291.366L48.6993 291.366L48.6992 291.366L48.699 291.367L48.6989 291.367C46.2864 295.864 43.8805 300.348 41.6901 304.916C38.9159 277.754 36.1723 250.584 33.5308 223.437C34.436 222.155 35.3434 220.875 36.2509 219.595C45.9155 205.959 55.599 192.297 62.9338 177.071C64.0435 174.854 60.556 172.796 59.4464 175.012C52.3068 189.694 42.9418 203.017 33.535 216.399L32.9314 217.258C32.197 209.665 31.471 202.075 30.755 194.486C30.2376 189.078 29.7136 183.668 29.1895 178.256C28.207 168.11 27.2239 157.957 26.2815 147.8C30.732 139.443 34.3804 130.765 38.0364 122.069L38.0364 122.069L38.0365 122.069L38.0367 122.069C40.298 116.69 42.5623 111.304 45.0212 105.983C46.1308 103.608 42.6434 101.708 41.5337 103.925C39.0748 109.246 36.8105 114.632 34.5491 120.011C31.6873 126.818 28.8303 133.614 25.5895 140.253C23.0193 111.86 20.8471 83.4312 19.9757 55.0024C19.6587 52.4692 15.6957 52.4692 15.8542 55.0024ZM60.2389 99.175C57.227 99.175 57.227 103.925 60.2389 103.925C63.4093 104.083 63.4093 99.175 60.2389 99.175ZM67.8487 87.3007C64.8369 87.3007 64.8369 92.0504 67.8487 92.0504C71.0191 92.2088 71.0191 87.3007 67.8487 87.3007ZM71.3351 97.5918C68.3232 97.5918 68.3232 102.342 71.3351 102.342C74.3469 102.342 74.3469 97.5918 71.3351 97.5918ZM76.4077 163.613H75.6151C74.3469 163.613 73.2373 164.721 73.2373 165.988C73.2373 167.255 74.3469 168.363 75.6151 168.363H76.4077C77.6758 168.363 78.7855 167.255 78.7855 165.988C78.7855 164.721 77.6758 163.613 76.4077 163.613ZM86.5538 159.497C83.542 159.497 83.542 164.246 86.5538 164.246C89.7242 164.246 89.7242 159.497 86.5538 159.497ZM81.4801 172.954C78.4682 172.954 78.4682 177.704 81.4801 177.704C84.492 177.704 84.492 172.954 81.4801 172.954ZM84.0172 239.926C81.0053 239.926 81.0053 244.675 84.0172 244.675C87.0291 244.834 87.0291 239.926 84.0172 239.926ZM92.5768 235.809C89.5649 235.809 89.5649 240.559 92.5768 240.559C95.5886 240.559 95.5886 235.809 92.5768 235.809ZM90.8336 248.475C87.8217 248.475 87.8217 253.225 90.8336 253.225C93.8455 253.225 93.8455 248.475 90.8336 248.475ZM17.7565 249.267C14.7446 249.267 14.7446 254.017 17.7565 254.017C20.9268 254.017 20.9268 249.267 17.7565 249.267ZM17.7565 236.601C14.7446 236.601 14.7446 241.35 17.7565 241.35C20.9268 241.35 20.9268 236.601 17.7565 236.601ZM-18.7033 124.665C-19.9714 124.665 -21.0811 125.774 -21.0811 127.04V127.832C-21.0811 129.098 -19.9714 130.207 -18.7033 130.207C-17.4351 130.207 -16.3255 129.098 -16.3255 127.832V127.04C-16.3255 125.774 -17.4351 124.665 -18.7033 124.665ZM-11.0946 134.006C-14.1065 134.006 -14.1065 138.756 -11.0946 138.756C-7.92423 138.756 -7.92423 134.006 -11.0946 134.006ZM30.5963 85.7174C27.5844 85.7174 27.5844 90.4672 30.5963 90.4672C33.6082 90.4672 33.6082 85.7174 30.5963 85.7174ZM54.3741 316.238C51.3623 316.238 51.3623 320.988 54.3741 320.988C57.386 321.146 57.386 316.238 54.3741 316.238ZM62.775 306.105C59.7631 306.105 59.7631 310.855 62.775 310.855C65.9454 310.855 65.9454 306.105 62.775 306.105ZM83.2242 368.802C80.2124 368.802 80.2124 373.552 83.2242 373.552C86.2361 373.71 86.2361 368.802 83.2242 368.802ZM89.09 384.159C86.0781 384.159 86.0781 388.909 89.09 388.909C92.2603 388.909 92.2603 384.159 89.09 384.159ZM97.65 372.285C94.6381 372.285 94.6381 377.035 97.65 377.035C100.662 377.035 100.662 372.285 97.65 372.285ZM-7.60682 383.209C-10.6187 383.209 -10.6187 387.959 -7.60682 387.959C-4.59496 388.117 -4.59496 383.209 -7.60682 383.209ZM-8.55848 369.752C-11.5703 369.752 -11.5703 374.501 -8.55848 374.501C-5.54662 374.501 -5.3881 369.752 -8.55848 369.752ZM-26.1538 289.006V289.64C-26.1538 292.648 -21.3982 292.648 -21.3982 289.64V289.006C-21.3982 285.998 -26.1538 285.998 -26.1538 289.006ZM-26.3129 271.432C-29.3247 271.432 -29.3247 276.182 -26.3129 276.182C-23.301 276.182 -23.301 271.432 -26.3129 271.432ZM102.723 305.314C99.7109 305.314 99.7109 310.063 102.723 310.063C105.735 310.063 105.735 305.314 102.723 305.314ZM-30.5922 187.362C-33.604 187.362 -33.604 192.112 -30.5922 192.112C-27.4218 192.27 -27.4218 187.362 -30.5922 187.362Z" fill="#C4C4C4"/>
<path fill-rule="evenodd" clip-rule="evenodd" d="M15.8542 55.0024C16.6896 83.3715 18.8295 111.686 21.3828 139.947C15.2849 130.569 7.37345 122.65 -0.578777 114.691C-4.51566 110.751 -8.46254 106.801 -12.2043 102.658C-13.948 100.917 -16.6428 103.608 -15.0576 105.508C-11.3895 109.579 -7.51436 113.468 -3.6429 117.355L-3.64254 117.355L-3.64247 117.355L-3.64211 117.355L-3.64203 117.355C6.038 127.072 15.695 136.766 22.0359 149.206C22.099 149.332 22.1761 149.445 22.2648 149.546C23.2041 159.614 24.1831 169.675 25.1614 179.73L25.1615 179.73L25.1618 179.734L25.1622 179.738L25.1624 179.739L25.1628 179.744C25.8159 186.456 26.4686 193.164 27.1091 199.869C27.6175 205.244 28.131 210.618 28.6489 215.992C18.6738 204.206 7.24803 193.73 -4.15425 183.275C-6.57919 181.052 -9.00306 178.83 -11.4117 176.596C-13.1554 174.854 -16.0087 177.546 -14.1065 179.287C-11.3183 181.898 -8.50348 184.487 -5.68741 187.078L-5.68711 187.078L-5.68616 187.079L-5.68393 187.081C6.68378 198.459 19.0756 209.858 29.344 223.178C31.9081 249.586 34.5742 275.995 37.2758 302.404C31.9417 297.548 26.6308 292.666 21.3161 287.781L21.314 287.779C12.2583 279.455 3.19125 271.12 -6.02148 262.883C-8.08223 261.299 -10.9356 264.149 -9.03334 265.891C-1.67279 272.535 5.62457 279.243 12.9293 285.958L12.9306 285.959L12.9313 285.96L12.9325 285.961L12.9332 285.961L12.9353 285.963C21.2219 293.58 29.518 301.206 37.9265 308.758C39.1524 320.719 40.3844 332.679 41.6165 344.639L41.6168 344.642C42.3128 351.398 43.0088 358.155 43.7037 364.911C37.0939 357.977 30.0877 351.403 23.0735 344.821L23.0727 344.82L23.0724 344.82L23.0722 344.82L23.0719 344.819L23.0716 344.819L23.0713 344.819L23.0711 344.818L23.0708 344.818L23.0705 344.818L23.0702 344.818L23.07 344.817L23.0697 344.817C17.8137 339.885 12.5532 334.949 7.45186 329.854C5.54963 328.271 2.69628 330.962 4.59851 332.862C9.32454 337.527 14.1871 342.075 19.0562 346.628L19.0573 346.63L19.0577 346.63C27.7303 354.741 36.4236 362.872 44.4032 371.717C44.7154 374.756 45.0273 377.795 45.3388 380.834L45.3388 380.835L45.3389 380.836L45.3389 380.836L45.339 380.837L45.339 380.837C46.3654 390.942 47.3918 401.047 48.4025 411.167C47.754 410.613 47.1039 410.061 46.4537 409.508L46.451 409.506L46.4484 409.504L46.4457 409.501L46.4431 409.499L46.4404 409.497L46.4278 409.486C39.8146 403.866 33.1857 398.232 28.06 391.284C26.4748 389.384 22.9874 391.442 24.5726 393.5C30.3166 401.193 37.5656 407.383 44.8147 413.572C46.2132 414.766 47.6117 415.96 48.9993 417.165C49.9678 426.934 50.9187 436.721 51.8381 446.539C52.0599 448.849 52.2943 451.159 52.5288 453.47L52.5292 453.474C53.4677 462.72 54.4061 471.966 54.5329 481.212C54.5329 483.745 58.4959 483.745 58.4959 481.212C58.4959 472.027 57.5474 462.748 56.6043 453.52L56.6042 453.519L56.604 453.517C56.3279 450.816 56.0523 448.12 55.8011 445.431C54.8757 435.793 53.9228 426.154 52.9653 416.516C53.3012 415.938 53.6366 415.361 53.9719 414.784C58.5811 406.85 63.1633 398.962 68.7995 391.601C70.3847 389.542 66.8972 387.642 65.3121 389.542C60.5077 395.982 56.4092 402.825 52.2927 409.75C51.1768 398.528 50.0621 387.306 48.9847 376.085L48.5794 372.121C52.4701 363.144 57.2869 354.605 62.1024 346.069L62.1026 346.069L62.1027 346.069C65.9157 339.309 69.7278 332.552 73.0788 325.579C74.1885 323.363 70.701 321.304 69.5914 323.521C66.2713 330.429 62.4984 337.097 58.7206 343.773C54.9228 350.484 51.1199 357.204 47.767 364.187C47.013 356.83 46.2574 349.47 45.5017 342.109L45.5015 342.107L45.4925 342.018L45.4899 341.993L45.4873 341.968L45.4847 341.943L45.4821 341.917C44.4347 331.715 43.387 321.509 42.3429 311.302C42.7925 311.161 43.195 310.862 43.4365 310.38C46.1194 304.498 49.1533 298.805 52.1816 293.123L52.1821 293.122L52.1823 293.121L52.1824 293.121C56.4901 285.038 60.7863 276.977 64.044 268.424C64.9951 266.049 61.0322 264.941 60.2396 267.316C57.103 275.7 52.8926 283.549 48.702 291.361L48.7019 291.361L48.7018 291.361L48.7017 291.361L48.7016 291.361L48.7014 291.362L48.7013 291.362L48.7012 291.362L48.7011 291.362L48.701 291.363L48.7009 291.363L48.7008 291.363L48.7006 291.363L48.7005 291.364L48.7004 291.364L48.7003 291.364L48.7002 291.364L48.7001 291.364L48.7 291.365L48.6998 291.365L48.6997 291.365L48.6996 291.365L48.6995 291.366L48.6994 291.366L48.6993 291.366L48.6992 291.366L48.699 291.367L48.6989 291.367C46.2864 295.864 43.8805 300.348 41.6901 304.916C38.9159 277.754 36.1723 250.584 33.5308 223.437C34.436 222.155 35.3434 220.875 36.2509 219.595C45.9155 205.959 55.599 192.297 62.9338 177.071C64.0435 174.854 60.556 172.796 59.4464 175.012C52.3068 189.694 42.9418 203.017 33.535 216.399L32.9314 217.258C32.197 209.665 31.471 202.075 30.755 194.486C30.2376 189.078 29.7136 183.668 29.1895 178.256C28.207 168.11 27.2239 157.957 26.2815 147.8C30.732 139.443 34.3804 130.765 38.0364 122.069L38.0364 122.069L38.0365 122.069L38.0367 122.069C40.298 116.69 42.5623 111.304 45.0212 105.983C46.1308 103.608 42.6434 101.708 41.5337 103.925C39.0748 109.246 36.8105 114.632 34.5491 120.011C31.6873 126.818 28.8303 133.614 25.5895 140.253C23.0193 111.86 20.8471 83.4312 19.9757 55.0024C19.6587 52.4692 15.6957 52.4692 15.8542 55.0024ZM60.2389 99.175C57.227 99.175 57.227 103.925 60.2389 103.925C63.4093 104.083 63.4093 99.175 60.2389 99.175ZM67.8487 87.3007C64.8369 87.3007 64.8369 92.0504 67.8487 92.0504C71.0191 92.2088 71.0191 87.3007 67.8487 87.3007ZM71.3351 97.5918C68.3232 97.5918 68.3232 102.342 71.3351 102.342C74.3469 102.342 74.3469 97.5918 71.3351 97.5918ZM76.4077 163.613H75.6151C74.3469 163.613 73.2373 164.721 73.2373 165.988C73.2373 167.255 74.3469 168.363 75.6151 168.363H76.4077C77.6758 168.363 78.7855 167.255 78.7855 165.988C78.7855 164.721 77.6758 163.613 76.4077 163.613ZM86.5538 159.497C83.542 159.497 83.542 164.246 86.5538 164.246C89.7242 164.246 89.7242 159.497 86.5538 159.497ZM81.4801 172.954C78.4682 172.954 78.4682 177.704 81.4801 177.704C84.492 177.704 84.492 172.954 81.4801 172.954ZM84.0172 239.926C81.0053 239.926 81.0053 244.675 84.0172 244.675C87.0291 244.834 87.0291 239.926 84.0172 239.926ZM92.5768 235.809C89.5649 235.809 89.5649 240.559 92.5768 240.559C95.5886 240.559 95.5886 235.809 92.5768 235.809ZM90.8336 248.475C87.8217 248.475 87.8217 253.225 90.8336 253.225C93.8455 253.225 93.8455 248.475 90.8336 248.475ZM17.7565 249.267C14.7446 249.267 14.7446 254.017 17.7565 254.017C20.9268 254.017 20.9268 249.267 17.7565 249.267ZM17.7565 236.601C14.7446 236.601 14.7446 241.35 17.7565 241.35C20.9268 241.35 20.9268 236.601 17.7565 236.601ZM-18.7033 124.665C-19.9714 124.665 -21.0811 125.774 -21.0811 127.04V127.832C-21.0811 129.098 -19.9714 130.207 -18.7033 130.207C-17.4351 130.207 -16.3255 129.098 -16.3255 127.832V127.04C-16.3255 125.774 -17.4351 124.665 -18.7033 124.665ZM-11.0946 134.006C-14.1065 134.006 -14.1065 138.756 -11.0946 138.756C-7.92423 138.756 -7.92423 134.006 -11.0946 134.006ZM30.5963 85.7174C27.5844 85.7174 27.5844 90.4672 30.5963 90.4672C33.6082 90.4672 33.6082 85.7174 30.5963 85.7174ZM54.3741 316.238C51.3623 316.238 51.3623 320.988 54.3741 320.988C57.386 321.146 57.386 316.238 54.3741 316.238ZM62.775 306.105C59.7631 306.105 59.7631 310.855 62.775 310.855C65.9454 310.855 65.9454 306.105 62.775 306.105ZM83.2242 368.802C80.2124 368.802 80.2124 373.552 83.2242 373.552C86.2361 373.71 86.2361 368.802 83.2242 368.802ZM89.09 384.159C86.0781 384.159 86.0781 388.909 89.09 388.909C92.2603 388.909 92.2603 384.159 89.09 384.159ZM97.65 372.285C94.6381 372.285 94.6381 377.035 97.65 377.035C100.662 377.035 100.662 372.285 97.65 372.285ZM-7.60682 383.209C-10.6187 383.209 -10.6187 387.959 -7.60682 387.959C-4.59496 388.117 -4.59496 383.209 -7.60682 383.209ZM-8.55848 369.752C-11.5703 369.752 -11.5703 374.501 -8.55848 374.501C-5.54662 374.501 -5.3881 369.752 -8.55848 369.752ZM-26.1538 289.006V289.64C-26.1538 292.648 -21.3982 292.648 -21.3982 289.64V289.006C-21.3982 285.998 -26.1538 285.998 -26.1538 289.006ZM-26.3129 271.432C-29.3247 271.432 -29.3247 276.182 -26.3129 276.182C-23.301 276.182 -23.301 271.432 -26.3129 271.432ZM102.723 305.314C99.7109 305.314 99.7109 310.063 102.723 310.063C105.735 310.063 105.735 305.314 102.723 305.314ZM-30.5922 187.362C-33.604 187.362 -33.604 192.112 -30.5922 192.112C-27.4218 192.27 -27.4218 187.362 -30.5922 187.362Z" fill="url(#paint5_linear)"/>
</g>
<path d="M66.1338 470.681C59.5596 455.036 52.3533 440.556 51.1819 425.03C50.1423 405.011 55.9682 387.43 65.0973 371.414C82.0201 340.866 110.981 326.436 143.443 312.525C153.824 307.68 164.657 303.7 177.067 302.257C190.831 365.57 179.558 420.438 131.8 455.904C125.086 461.348 83.2434 475.37 66.1338 470.681Z" fill="#FFD7CA"/>
<path d="M66.1338 470.681C59.5596 455.036 52.3533 440.556 51.1819 425.03C50.1423 405.011 55.9682 387.43 65.0973 371.414C82.0201 340.866 110.981 326.436 143.443 312.525C153.824 307.68 164.657 303.7 177.067 302.257C190.831 365.57 179.558 420.438 131.8 455.904C125.086 461.348 83.2434 475.37 66.1338 470.681Z" fill="url(#paint6_linear)"/>
<path d="M116.256 387.175C126.744 372.631 137.97 358.764 149.819 345.356C161.011 332.628 172.256 319.761 178.195 303.572C178.248 303.431 178.301 303.291 178.354 303.151C166.614 304.726 156.2 308.576 146.25 313.304C112.827 327.458 83.4292 342.02 66.1149 372.996C56.7749 389.236 50.8653 406.924 51.8697 427.37C52.991 442.259 59.3334 455.972 65.8639 470.764C80.5336 441.515 97.2923 413.579 116.256 387.175Z" fill="black" fill-opacity="0.1"/>
<path fill-rule="evenodd" clip-rule="evenodd" d="M72.1879 457.332C67.4732 465.231 62.7558 473.135 59.3332 481.721C58.5301 483.681 55.3406 482.289 56.2714 480.385C59.7871 471.563 64.6834 463.344 69.5796 455.125C72.1257 450.851 74.6717 446.577 77.0237 442.219C77.2031 441.884 77.3832 441.551 77.564 441.217C73.284 426.984 71.7786 412.308 71.6925 397.695C71.6801 395.589 75.0196 396.052 74.9072 398.104C75.0105 400.947 76.7534 430.175 79.7523 437.252C83.7789 430.079 88.0794 423.065 92.5294 416.131C92.3647 415.822 92.2773 415.472 92.2951 415.146C92.7808 409.504 92.8693 403.835 92.9575 398.181C93.0815 390.242 93.205 382.332 94.4269 374.561C94.8388 372.489 98.135 373.073 97.6473 374.973C96.3375 383.183 96.2041 391.482 96.0707 399.779C96.0098 403.563 95.949 407.347 95.7766 411.121C97.222 408.912 98.6798 406.708 100.146 404.509C105.068 397.179 109.982 390.007 115.264 383.057C113.915 373.72 112.852 364.476 113.443 355.171C113.556 353.117 116.847 353.699 116.833 355.516C116.289 363.478 117.032 371.392 118.124 379.366C120.661 376.155 123.293 372.995 126.06 369.894C127.896 367.861 129.734 365.823 131.546 363.764C131.078 358.525 131.445 353.371 131.985 348.152C132.272 346.028 135.566 346.612 135.253 348.444C135.219 348.823 135.185 349.201 135.151 349.578C134.829 353.146 134.515 356.639 134.637 360.193C141.154 352.518 147.114 344.423 151.158 335.068C151.961 333.108 155.151 334.499 154.347 336.459C150.322 345.723 144.511 353.787 138.05 361.468C142.433 360.898 146.701 359.84 150.668 358.212C152.583 357.496 153.997 360.497 152.032 361.332C146.619 363.542 140.752 364.711 134.886 365.149C133.893 366.282 132.89 367.41 131.88 368.534C127.867 373.006 124.067 377.522 120.421 382.127C126.992 381.685 133.418 380.469 139.851 379.251L139.852 379.251C142.762 378.7 145.673 378.149 148.6 377.669C150.791 377.355 151.209 380.62 149.143 380.988C146.542 381.433 143.937 381.929 141.326 382.427L141.326 382.427L141.325 382.427C133.559 383.906 125.729 385.397 117.715 385.599C113.558 391.011 109.587 396.559 105.707 402.314C105.19 403.088 104.672 403.863 104.155 404.638C102.132 407.666 100.105 410.699 98.0953 413.747C107.768 413.559 117.186 410.763 126.468 408.007C129.883 406.993 133.28 405.985 136.664 405.114C138.781 404.625 140.147 407.749 138.029 408.239C134.499 409.141 130.974 410.179 127.438 411.221L127.438 411.221C117.136 414.255 106.747 417.315 95.8855 417.117C91.3382 424.092 86.9166 431.16 82.8631 438.427C92.4475 436.403 101.889 434.048 111.355 431.688L111.356 431.688C116.25 430.467 121.151 429.245 126.082 428.066C128.147 427.698 129.559 430.689 127.445 431.176C122.417 432.389 117.411 433.652 112.408 434.915C101.887 437.571 91.3788 440.224 80.7007 442.392C80.4945 442.779 80.2894 443.166 80.0856 443.554C77.6193 448.232 74.9042 452.781 72.1881 457.332L72.1879 457.332ZM118.779 399.982C120.785 400.854 122.018 397.853 120.012 396.981C118.006 396.109 116.773 399.109 118.779 399.982ZM126.367 393.863C128.373 394.736 129.606 391.735 127.6 390.863C125.594 389.991 124.361 392.991 126.367 393.863ZM127.104 401.534C129.11 402.406 130.343 399.406 128.337 398.534C126.331 397.661 125.098 400.662 127.104 401.534ZM103.969 382.613C105.975 383.485 107.208 380.485 105.202 379.613C103.196 378.742 101.838 381.686 103.969 382.613ZM104.953 372.772L105.101 372.411C105.89 370.49 109.026 371.854 108.237 373.775L108.089 374.135C107.299 376.057 104.164 374.693 104.953 372.772ZM108.67 379.638C110.676 380.51 111.909 377.51 109.903 376.638C107.897 375.766 106.664 378.766 108.67 379.638ZM135.201 373.526C137.207 374.398 138.44 371.397 136.434 370.525C134.428 369.653 133.195 372.653 135.201 373.526ZM140.743 373.064C142.749 373.936 143.982 370.936 141.976 370.064C139.97 369.192 138.737 372.192 140.743 373.064ZM139.555 345.13C141.561 346.002 142.794 343.002 140.788 342.13C138.782 341.258 137.549 344.258 139.555 345.13ZM141.994 339.923C143.999 340.796 145.232 337.795 143.226 336.923C141.22 336.051 139.988 339.051 141.994 339.923ZM152.334 352.706C154.34 353.578 155.572 350.579 153.567 349.707C151.561 348.835 150.203 351.78 152.334 352.706ZM83.0677 407.656C85.0737 408.529 86.3065 405.528 84.3005 404.656C82.2945 403.784 81.0618 406.784 83.0677 407.656ZM83.4794 413.315C85.4854 414.187 86.7181 411.186 84.7121 410.314C82.7061 409.442 81.4734 412.442 83.4794 413.315ZM109.926 424.212C111.932 425.084 113.165 422.084 111.159 421.212C109.153 420.34 107.92 423.34 109.926 424.212ZM115.004 423.126C117.01 423.998 118.243 420.998 116.237 420.126C114.231 419.254 112.998 422.254 115.004 423.126ZM103.594 445.147C105.6 446.019 106.833 443.019 104.827 442.147C102.821 441.275 101.588 444.275 103.594 445.147ZM98.3629 451.514C100.368 452.386 101.601 449.387 99.5953 448.515C97.4646 447.589 96.2322 450.588 98.3629 451.514ZM63.1809 435.132L63.5565 435.295C65.5596 436.165 66.7909 433.172 64.7878 432.302L64.4122 432.139C62.409 431.269 61.1777 434.262 63.1809 435.132ZM63.4466 442.906C65.4526 443.778 66.6854 440.778 64.6794 439.906C62.6734 439.033 61.4406 442.034 63.4466 442.906Z" fill="#C4C4C4"/>
<path fill-rule="evenodd" clip-rule="evenodd" d="M72.1879 457.332C67.4732 465.231 62.7558 473.135 59.3332 481.721C58.5301 483.681 55.3406 482.289 56.2714 480.385C59.7871 471.563 64.6834 463.344 69.5796 455.125C72.1257 450.851 74.6717 446.577 77.0237 442.219C77.2031 441.884 77.3832 441.551 77.564 441.217C73.284 426.984 71.7786 412.308 71.6925 397.695C71.6801 395.589 75.0196 396.052 74.9072 398.104C75.0105 400.947 76.7534 430.175 79.7523 437.252C83.7789 430.079 88.0794 423.065 92.5294 416.131C92.3647 415.822 92.2773 415.472 92.2951 415.146C92.7808 409.504 92.8693 403.835 92.9575 398.181C93.0815 390.242 93.205 382.332 94.4269 374.561C94.8388 372.489 98.135 373.073 97.6473 374.973C96.3375 383.183 96.2041 391.482 96.0707 399.779C96.0098 403.563 95.949 407.347 95.7766 411.121C97.222 408.912 98.6798 406.708 100.146 404.509C105.068 397.179 109.982 390.007 115.264 383.057C113.915 373.72 112.852 364.476 113.443 355.171C113.556 353.117 116.847 353.699 116.833 355.516C116.289 363.478 117.032 371.392 118.124 379.366C120.661 376.155 123.293 372.995 126.06 369.894C127.896 367.861 129.734 365.823 131.546 363.764C131.078 358.525 131.445 353.371 131.985 348.152C132.272 346.028 135.566 346.612 135.253 348.444C135.219 348.823 135.185 349.201 135.151 349.578C134.829 353.146 134.515 356.639 134.637 360.193C141.154 352.518 147.114 344.423 151.158 335.068C151.961 333.108 155.151 334.499 154.347 336.459C150.322 345.723 144.511 353.787 138.05 361.468C142.433 360.898 146.701 359.84 150.668 358.212C152.583 357.496 153.997 360.497 152.032 361.332C146.619 363.542 140.752 364.711 134.886 365.149C133.893 366.282 132.89 367.41 131.88 368.534C127.867 373.006 124.067 377.522 120.421 382.127C126.992 381.685 133.418 380.469 139.851 379.251L139.852 379.251C142.762 378.7 145.673 378.149 148.6 377.669C150.791 377.355 151.209 380.62 149.143 380.988C146.542 381.433 143.937 381.929 141.326 382.427L141.326 382.427L141.325 382.427C133.559 383.906 125.729 385.397 117.715 385.599C113.558 391.011 109.587 396.559 105.707 402.314C105.19 403.088 104.672 403.863 104.155 404.638C102.132 407.666 100.105 410.699 98.0953 413.747C107.768 413.559 117.186 410.763 126.468 408.007C129.883 406.993 133.28 405.985 136.664 405.114C138.781 404.625 140.147 407.749 138.029 408.239C134.499 409.141 130.974 410.179 127.438 411.221L127.438 411.221C117.136 414.255 106.747 417.315 95.8855 417.117C91.3382 424.092 86.9166 431.16 82.8631 438.427C92.4475 436.403 101.889 434.048 111.355 431.688L111.356 431.688C116.25 430.467 121.151 429.245 126.082 428.066C128.147 427.698 129.559 430.689 127.445 431.176C122.417 432.389 117.411 433.652 112.408 434.915C101.887 437.571 91.3788 440.224 80.7007 442.392C80.4945 442.779 80.2894 443.166 80.0856 443.554C77.6193 448.232 74.9042 452.781 72.1881 457.332L72.1879 457.332ZM118.779 399.982C120.785 400.854 122.018 397.853 120.012 396.981C118.006 396.109 116.773 399.109 118.779 399.982ZM126.367 393.863C128.373 394.736 129.606 391.735 127.6 390.863C125.594 389.991 124.361 392.991 126.367 393.863ZM127.104 401.534C129.11 402.406 130.343 399.406 128.337 398.534C126.331 397.661 125.098 400.662 127.104 401.534ZM103.969 382.613C105.975 383.485 107.208 380.485 105.202 379.613C103.196 378.742 101.838 381.686 103.969 382.613ZM104.953 372.772L105.101 372.411C105.89 370.49 109.026 371.854 108.237 373.775L108.089 374.135C107.299 376.057 104.164 374.693 104.953 372.772ZM108.67 379.638C110.676 380.51 111.909 377.51 109.903 376.638C107.897 375.766 106.664 378.766 108.67 379.638ZM135.201 373.526C137.207 374.398 138.44 371.397 136.434 370.525C134.428 369.653 133.195 372.653 135.201 373.526ZM140.743 373.064C142.749 373.936 143.982 370.936 141.976 370.064C139.97 369.192 138.737 372.192 140.743 373.064ZM139.555 345.13C141.561 346.002 142.794 343.002 140.788 342.13C138.782 341.258 137.549 344.258 139.555 345.13ZM141.994 339.923C143.999 340.796 145.232 337.795 143.226 336.923C141.22 336.051 139.988 339.051 141.994 339.923ZM152.334 352.706C154.34 353.578 155.572 350.579 153.567 349.707C151.561 348.835 150.203 351.78 152.334 352.706ZM83.0677 407.656C85.0737 408.529 86.3065 405.528 84.3005 404.656C82.2945 403.784 81.0618 406.784 83.0677 407.656ZM83.4794 413.315C85.4854 414.187 86.7181 411.186 84.7121 410.314C82.7061 409.442 81.4734 412.442 83.4794 413.315ZM109.926 424.212C111.932 425.084 113.165 422.084 111.159 421.212C109.153 420.34 107.92 423.34 109.926 424.212ZM115.004 423.126C117.01 423.998 118.243 420.998 116.237 420.126C114.231 419.254 112.998 422.254 115.004 423.126ZM103.594 445.147C105.6 446.019 106.833 443.019 104.827 442.147C102.821 441.275 101.588 444.275 103.594 445.147ZM98.3629 451.514C100.368 452.386 101.601 449.387 99.5953 448.515C97.4646 447.589 96.2322 450.588 98.3629 451.514ZM63.1809 435.132L63.5565 435.295C65.5596 436.165 66.7909 433.172 64.7878 432.302L64.4122 432.139C62.409 431.269 61.1777 434.262 63.1809 435.132ZM63.4466 442.906C65.4526 443.778 66.6854 440.778 64.6794 439.906C62.6734 439.033 61.4406 442.034 63.4466 442.906Z" fill="url(#paint7_linear)"/>
<defs>
<linearGradient id="paint0_linear" x1="244.826" y1="329.036" x2="227.352" y2="470.126" gradientUnits="userSpaceOnUse">
<stop stop-color="#4B12AD"/>
<stop offset="1" stop-color="#D6739A"/>
</linearGradient>
<linearGradient id="paint1_linear" x1="208.581" y1="169.849" x2="160.69" y2="389.277" gradientUnits="userSpaceOnUse">
<stop stop-color="#4B12AD"/>
<stop offset="1" stop-color="#D6739A"/>
</linearGradient>
<linearGradient id="paint2_linear" x1="-60" y1="36.269" x2="263.447" y2="160.35" gradientUnits="userSpaceOnUse">
<stop stop-color="#A634FF"/>
<stop offset="1" stop-color="#FD5925"/>
</linearGradient>
<linearGradient id="paint3_linear" x1="-60" y1="0" x2="249.036" y2="121.125" gradientUnits="userSpaceOnUse">
<stop stop-color="#D85855"/>
<stop offset="1" stop-color="#6E2287"/>
</linearGradient>
<linearGradient id="paint4_linear" x1="123.372" y1="-62.8878" x2="23.1532" y2="487.298" gradientUnits="userSpaceOnUse">
<stop stop-color="#00D4FF" stop-opacity="0.71"/>
<stop offset="1" stop-color="#DB6B93"/>
</linearGradient>
<linearGradient id="paint5_linear" x1="104.982" y1="53.1025" x2="-63.4753" y2="468.6" gradientUnits="userSpaceOnUse">
<stop stop-color="#4B12AD"/>
<stop offset="1" stop-color="#D6739A"/>
</linearGradient>
<linearGradient id="paint6_linear" x1="158.025" y1="265.581" x2="61.1689" y2="470.005" gradientUnits="userSpaceOnUse">
<stop stop-color="#00D4FF"/>
<stop offset="1" stop-color="#320B84" stop-opacity="0"/>
</linearGradient>
<linearGradient id="paint7_linear" x1="165.482" y1="340.011" x2="40.2558" y2="472.534" gradientUnits="userSpaceOnUse">
<stop stop-color="#4B12AD"/>
<stop offset="1" stop-color="#D6739A"/>
</linearGradient>
</defs>
</svg>
