<svg width="420" height="412" viewBox="0 0 420 412" fill="none" xmlns="http://www.w3.org/2000/svg">
<path opacity="0.4" d="M4.12862 406.1C-4.41962 383.789 0.909147 352.376 14.5641 337.28C42.3182 305.091 101.157 318.41 137.792 320.63C169.987 321.74 235.486 320.63 205.512 274.011C189.97 251.811 152.224 206.302 202.181 195.202C234.376 188.542 266.571 219.621 297.655 208.521C333.18 196.312 306.537 149.692 316.528 124.162C329.85 84.2027 390.909 98.6325 415.332 118.612C419.107 122.053 422.437 125.827 425.324 130.045V406.1H4.12862Z" fill="#C3E5D7"/>
<path d="M434.61 392.257C451.267 378.221 456.263 345.151 462.688 324.691C467.685 308.037 472.92 287.815 470.302 269.971C466.495 243.325 457.453 243.325 447.459 266.165C441.035 281.391 425.806 308.275 424.617 276.395C424.617 259.741 436.038 240.708 439.845 225.482C441.035 216.679 448.649 183.372 429.613 190.985C418.192 195.981 415.575 233.095 412.957 243.325C410.34 256.173 407.96 277.822 397.729 257.362C390.114 243.325 400.346 219.059 404.153 206.449C407.96 192.413 415.575 173.38 412.957 159.343C407.96 137.693 398.918 141.5 391.304 158.154C386.307 168.384 386.307 193.84 376.075 200.264C357.04 213.111 358.229 188.844 360.847 175.997C363.464 156.964 385.117 102.007 353.232 94.3936C346.808 109.62 355.85 130.08 346.808 144.117C328.962 170.763 325.155 128.891 327.772 116.043C328.962 105.813 336.576 23.0206 311.116 54.9006C303.501 63.7032 317.54 102.007 298.267 104.624C277.803 107.241 285.417 66.3202 286.845 57.5175C288.035 51.0939 294.459 14.2179 278.041 18.0245C271.616 19.214 271.617 56.328 266.62 62.5136C253.77 53.711 230.928 -3.62537 214.271 0.181193C187.621 6.60477 244.966 74.1713 248.774 85.591C233.545 90.5871 214.271 70.3647 199.043 76.7882C170.965 89.6354 209.274 99.6277 220.696 103.434C232.117 106.051 270.427 112.237 271.617 127.701C274.234 146.734 240.921 128.891 229.5 130.318C210.464 132.935 198.805 145.544 219.268 156.964C237.114 165.767 261.385 155.775 280.421 161.96C302.074 168.384 305.881 183.61 283.038 188.606C271.617 191.223 233.307 182.182 230.69 202.643C226.882 239.519 330.152 202.643 321.11 234.523C317.302 247.37 277.803 239.519 268.761 253.556C252.105 277.822 282.8 274.016 296.839 271.399C309.688 270.209 343.952 261.169 350.377 279.012C359.181 300.662 319.682 291.859 308.26 291.859C294.221 293.049 262.337 302.089 283.99 317.316C296.839 327.546 327.296 313.509 341.335 313.509C348.949 313.509 366.795 313.509 370.602 323.739C377.027 340.393 351.567 335.159 341.335 336.586C309.45 343.01 306.833 359.426 337.528 371.083C359.181 377.507 411.529 396.54 429.375 392.733" fill="url(#paint0_linear)"/>
<path d="M434.61 392.257C451.267 378.221 456.263 345.151 462.688 324.691C467.685 308.037 472.92 287.815 470.302 269.971C466.495 243.325 457.453 243.325 447.459 266.165C441.035 281.391 425.806 308.275 424.617 276.395C424.617 259.741 436.038 240.708 439.845 225.482C441.035 216.679 448.649 183.372 429.613 190.985C418.192 195.981 415.575 233.095 412.957 243.325C410.34 256.173 407.96 277.822 397.729 257.362C390.114 243.325 400.346 219.059 404.153 206.449C407.96 192.413 415.575 173.38 412.957 159.343C407.96 137.693 398.918 141.5 391.304 158.154C386.307 168.384 386.307 193.84 376.075 200.264C357.04 213.111 358.229 188.844 360.847 175.997C363.464 156.964 385.117 102.007 353.232 94.3936C346.808 109.62 355.85 130.08 346.808 144.117C328.962 170.763 325.155 128.891 327.772 116.043C328.962 105.813 336.576 23.0206 311.116 54.9006C303.501 63.7032 317.54 102.007 298.267 104.624C277.803 107.241 285.417 66.3202 286.845 57.5175C288.035 51.0939 294.459 14.2179 278.041 18.0245C271.616 19.214 271.617 56.328 266.62 62.5136C253.77 53.711 230.928 -3.62537 214.271 0.181193C187.621 6.60477 244.966 74.1713 248.774 85.591C233.545 90.5871 214.271 70.3647 199.043 76.7882C170.965 89.6354 209.274 99.6277 220.696 103.434C232.117 106.051 270.427 112.237 271.617 127.701C274.234 146.734 240.921 128.891 229.5 130.318C210.464 132.935 198.805 145.544 219.268 156.964C237.114 165.767 261.385 155.775 280.421 161.96C302.074 168.384 305.881 183.61 283.038 188.606C271.617 191.223 233.307 182.182 230.69 202.643C226.882 239.519 330.152 202.643 321.11 234.523C317.302 247.37 277.803 239.519 268.761 253.556C252.105 277.822 282.8 274.016 296.839 271.399C309.688 270.209 343.952 261.169 350.377 279.012C359.181 300.662 319.682 291.859 308.26 291.859C294.221 293.049 262.337 302.089 283.99 317.316C296.839 327.546 327.296 313.509 341.335 313.509C348.949 313.509 366.795 313.509 370.602 323.739C377.027 340.393 351.567 335.159 341.335 336.586C309.45 343.01 306.833 359.426 337.528 371.083C359.181 377.507 411.529 396.54 429.375 392.733" fill="url(#paint1_linear)"/>
<path d="M434.61 392.257C451.267 378.221 456.263 345.151 462.688 324.691C467.685 308.037 472.92 287.815 470.302 269.971C466.495 243.325 457.453 243.325 447.459 266.165C441.035 281.391 425.806 308.275 424.617 276.395C424.617 259.741 436.038 240.708 439.845 225.482C441.035 216.679 448.649 183.372 429.613 190.985C418.192 195.981 415.575 233.095 412.957 243.325C410.34 256.173 407.96 277.822 397.729 257.362C390.114 243.325 400.346 219.059 404.153 206.449C407.96 192.413 415.575 173.38 412.957 159.343C407.96 137.693 398.918 141.5 391.304 158.154C386.307 168.384 386.307 193.84 376.075 200.264C357.04 213.111 358.229 188.844 360.847 175.997C363.464 156.964 385.117 102.007 353.232 94.3936C346.808 109.62 355.85 130.08 346.808 144.117C328.962 170.763 325.155 128.891 327.772 116.043C328.962 105.813 336.576 23.0206 311.116 54.9006C303.501 63.7032 317.54 102.007 298.267 104.624C277.803 107.241 285.417 66.3202 286.845 57.5175C288.035 51.0939 294.459 14.2179 278.041 18.0245C271.616 19.214 271.617 56.328 266.62 62.5136C253.77 53.711 230.928 -3.62537 214.271 0.181193C187.621 6.60477 244.966 74.1713 248.774 85.591C233.545 90.5871 214.271 70.3647 199.043 76.7882C170.965 89.6354 209.274 99.6277 220.696 103.434C232.117 106.051 270.427 112.237 271.617 127.701C274.234 146.734 240.921 128.891 229.5 130.318C210.464 132.935 198.805 145.544 219.268 156.964C237.114 165.767 261.385 155.775 280.421 161.96C302.074 168.384 305.881 183.61 283.038 188.606C271.617 191.223 233.307 182.182 230.69 202.643C226.882 239.519 330.152 202.643 321.11 234.523C317.302 247.37 277.803 239.519 268.761 253.556C252.105 277.822 282.8 274.016 296.839 271.399C309.688 270.209 343.952 261.169 350.377 279.012C359.181 300.662 319.682 291.859 308.26 291.859C294.221 293.049 262.337 302.089 283.99 317.316C296.839 327.546 327.296 313.509 341.335 313.509C348.949 313.509 366.795 313.509 370.602 323.739C377.027 340.393 351.567 335.159 341.335 336.586C309.45 343.01 306.833 359.426 337.528 371.083C359.181 377.507 411.529 396.54 429.375 392.733" fill="url(#paint2_linear)"/>
<path fill-rule="evenodd" clip-rule="evenodd" d="M269.532 91.0511C258.428 75.1743 247.347 59.3018 236.639 43.2427C234.497 39.9119 229.501 43.0048 231.404 46.3356C242.112 62.5135 253.236 78.3345 264.36 94.1555C264.539 94.4099 264.718 94.6642 264.896 94.9186C260.034 94.0768 255.237 92.3742 250.622 90.7361C250.482 90.6863 250.342 90.6366 250.202 90.5869C246.395 89.1595 244.967 94.8693 248.536 96.2968C255.205 98.9235 262.389 101.379 269.505 101.476C278.905 114.864 288.259 128.292 297.316 141.975C299.096 144.657 300.856 147.355 302.598 150.065C292.849 146.751 283.191 143.196 273.995 138.407C270.426 136.742 267.571 141.738 270.902 143.641C281.809 149.53 293.316 153.419 304.873 157.326L304.873 157.326C305.857 157.658 306.841 157.991 307.825 158.325C317.292 173.509 326.239 189.061 334.928 204.716C330.433 202.456 325.983 200.104 321.533 197.752C317.831 195.796 314.13 193.84 310.402 191.937C306.833 190.271 303.977 195.505 307.309 197.171C311.036 199.074 314.736 201.029 318.437 202.985L318.44 202.986C325.562 206.75 332.683 210.514 339.994 213.902C341.718 217.047 343.433 220.194 345.143 223.341C352.415 236.852 359.562 250.418 366.619 264.029C360.983 260.404 355.097 257.173 349.207 253.94L349.207 253.94C342.165 250.075 335.118 246.207 328.486 241.66C325.154 239.519 322.299 244.753 325.392 246.894C331.972 251.441 339.023 255.28 346.067 259.114C355.318 264.15 364.556 269.179 372.692 275.795C381.539 293.011 390.256 310.294 398.911 327.625C393.493 324.143 388.699 319.619 383.925 315.115C380.425 311.813 376.936 308.522 373.221 305.658C370.127 303.517 367.034 308.513 370.127 310.892C374.064 313.902 377.7 317.262 381.32 320.608C388.151 326.921 394.924 333.18 403.55 336.931C409.163 348.208 414.754 359.504 420.342 370.812C417.099 369.209 413.83 367.649 410.558 366.089L410.557 366.088C400.779 361.424 390.979 356.749 381.786 350.861C378.455 348.958 375.362 353.954 378.693 356.095C387.773 361.77 397.446 366.429 407.105 371.082L407.105 371.082C413.073 373.956 419.035 376.828 424.849 379.936L428.01 386.336C429.258 388.864 430.507 391.393 431.756 393.922C433.659 397.253 438.656 394.16 436.99 390.83L436.91 390.665L436.831 390.504C434.882 386.526 432.934 382.549 430.985 378.572C430.992 378.539 430.998 378.506 431.004 378.473C431.02 378.39 431.032 378.306 431.041 378.221C432.945 355.619 433.897 333.018 433.897 310.417C433.897 306.372 427.948 306.372 427.948 310.417C427.948 329.664 427.258 348.911 425.877 368.158C420.601 357.408 415.314 346.663 409.998 335.931C410.066 335.682 410.102 335.423 410.102 335.159C411.054 317.078 412.006 298.759 411.054 280.678C410.816 276.871 404.868 276.871 405.105 280.44C405.886 295.277 405.386 310.274 404.655 325.168C396.625 309.032 388.519 292.93 380.281 276.888C380.358 276.598 380.388 276.275 380.358 275.919C379.716 268.533 379.94 261.099 380.165 253.66C380.44 244.566 380.715 235.464 379.406 226.434C378.93 222.627 373.22 224.293 373.696 227.861C375.005 236.629 374.729 245.47 374.455 254.303V254.303V254.304V254.305C374.342 257.925 374.229 261.544 374.226 265.156C365.887 249.08 357.401 233.071 348.712 217.155C347.595 215.117 346.477 213.08 345.357 211.045C347.046 198.014 347.046 184.974 347.046 171.715V171.714C347.046 167.908 341.097 167.908 341.573 171.476C341.573 181.818 341.573 192.159 340.633 202.5C331.491 186.045 322.137 169.739 312.153 153.791C313.972 144.857 313.475 135.724 312.98 126.615L312.98 126.615C312.792 123.163 312.604 119.714 312.543 116.281C312.543 112.475 306.594 112.475 307.07 116.281C307.07 120.066 307.277 123.851 307.483 127.629C307.828 133.955 308.172 140.264 307.545 146.528C305.435 143.248 303.296 139.986 301.123 136.741C292.813 124.419 284.321 112.207 275.803 100.019C276.238 99.5209 276.476 98.9029 276.376 98.2C275.424 90.5869 275.424 82.9738 275.424 75.3606C275.424 71.3162 269.475 71.3162 269.238 75.5986V75.5989C269.238 80.7496 269.238 85.9004 269.532 91.0511Z" fill="url(#paint3_linear)" fill-opacity="0.4"/>
<path d="M293.125 361.609C305.558 325.978 312.774 268.925 300.23 233.183C285.909 194.889 277.027 249.278 276.139 264.374C275.251 286.685 273.475 309.883 272.587 332.083C265.482 317.764 221.741 207.209 195.874 229.52C172.672 250.055 244.944 332.083 255.601 351.619C233.287 333.748 209.196 319.54 183.33 306.997C177.113 303.446 158.351 291.791 150.358 297.23C138.812 305.221 150.358 318.652 156.575 324.868C180.665 348.955 226.182 378.37 260.042 384.586" fill="#FF77CF"/>
<path fill-rule="evenodd" clip-rule="evenodd" d="M292.125 229.076C295.012 229.076 295.012 233.516 292.125 233.516C289.239 233.516 289.239 229.076 292.125 229.076ZM199.427 239.732C202.313 239.732 202.313 244.172 199.427 244.172C196.541 244.172 196.541 239.732 199.427 239.732ZM213.637 244.172C216.524 244.172 216.524 248.612 213.637 248.612C210.751 248.723 210.751 244.172 213.637 244.172ZM224.405 258.491C227.292 258.491 227.292 262.931 224.405 262.931C221.519 262.931 221.519 258.491 224.405 258.491ZM235.951 274.475C238.837 274.475 238.837 278.915 235.951 278.915C233.065 279.026 233.065 274.475 235.951 274.475ZM229.734 295.897C232.621 295.897 232.621 300.337 229.734 300.337C226.848 300.337 226.848 295.897 229.734 295.897ZM250.273 300.337C253.159 300.337 253.159 304.777 250.273 304.777C247.386 304.888 247.386 300.337 250.273 300.337ZM242.168 319.984C245.054 319.984 245.054 324.424 242.168 324.424C239.281 324.424 239.281 319.984 242.168 319.984ZM260.042 322.648C262.928 322.648 262.928 327.088 260.042 327.088C257.155 327.088 257.155 322.648 260.042 322.648ZM263.594 347.623C266.481 347.623 266.481 352.063 263.594 352.063C260.708 352.063 260.708 347.623 263.594 347.623ZM277.915 356.614C280.802 356.614 280.802 361.054 277.915 361.054C275.029 361.054 275.029 356.614 277.915 356.614ZM218.078 278.138C220.964 278.138 220.964 282.578 218.078 282.578C215.191 282.578 215.191 278.138 218.078 278.138ZM208.308 263.819C211.195 263.819 211.195 268.259 208.308 268.259C205.422 268.259 205.422 263.819 208.308 263.819ZM258.265 369.046C261.152 369.046 261.152 373.486 258.265 373.486C255.379 373.486 255.379 369.046 258.265 369.046ZM240.391 348.511C243.278 348.511 243.278 352.951 240.391 352.951C237.505 352.951 237.505 348.511 240.391 348.511ZM233.287 360.166C236.173 360.166 236.173 364.606 233.287 364.606C230.4 364.606 230.4 360.166 233.287 360.166ZM222.629 341.407C225.515 341.407 225.515 345.847 222.629 345.847C219.742 345.847 219.742 341.407 222.629 341.407ZM212.749 353.839C215.635 353.839 215.635 358.279 212.749 358.279C209.862 358.39 209.862 353.839 212.749 353.839ZM206.532 332.527C209.418 332.527 209.418 336.967 206.532 336.967C203.645 336.967 203.645 332.527 206.532 332.527ZM194.986 342.295C197.873 342.295 197.873 346.735 194.986 346.735C192.1 346.735 192.1 342.295 194.986 342.295ZM193.099 319.984C195.985 319.984 195.985 324.424 193.099 324.424C190.324 324.424 190.324 319.984 193.099 319.984ZM180.665 327.976C183.551 327.976 183.551 332.416 180.665 332.416C177.779 332.527 177.779 327.976 180.665 327.976ZM174.448 308.44C177.335 308.44 177.335 312.88 174.448 312.88C171.562 312.88 171.562 308.44 174.448 308.44ZM164.568 317.32C167.454 317.32 167.454 321.76 164.568 321.76C161.793 321.76 161.793 317.32 164.568 317.32ZM157.463 304.888C160.349 304.888 160.349 309.328 157.463 309.328C154.577 309.328 154.577 304.888 157.463 304.888ZM290.349 336.967C293.235 336.967 293.235 341.407 290.349 341.407C287.462 341.407 287.462 336.967 290.349 336.967ZM284.132 316.432C287.019 316.432 287.019 320.872 284.132 320.872C281.246 320.872 281.246 316.432 284.132 316.432ZM295.678 308.44C298.565 308.44 298.565 312.88 295.678 312.88C292.792 312.88 292.792 308.44 295.678 308.44ZM281.468 287.906C284.354 287.906 284.354 292.345 281.468 292.345C278.581 292.345 278.581 287.906 281.468 287.906ZM295.678 281.69C298.565 281.69 298.565 286.13 295.678 286.13C292.792 286.13 292.792 281.69 295.678 281.69ZM283.244 268.259C286.13 268.259 286.13 272.699 283.244 272.699C280.358 272.699 280.358 268.259 283.244 268.259ZM295.678 260.267C298.565 260.267 298.565 264.707 295.678 264.707C292.792 264.707 292.792 260.267 295.678 260.267ZM287.684 249.611C290.571 249.611 290.571 254.051 287.684 254.051C284.798 254.051 284.798 249.611 287.684 249.611Z" fill="#F23E6A"/>
<path d="M205.697 405.755C201.256 399.539 199.924 386.108 201.7 379.004C205.697 362.466 224.903 366.573 236.893 370.125C233.784 358.581 232.008 350.478 237.781 338.934C243.109 328.278 252.102 320.175 264.536 319.731C274.305 319.287 288.626 321.507 296.175 328.611C303.28 334.827 304.612 345.594 310.052 353.142C319.822 341.154 338.139 333.051 352.904 338.823C360.009 341.931 367.226 346.815 370.334 354.03C372.998 360.246 372.11 368.349 374.775 374.121C384.1 364.353 401.085 365.685 409.967 374.565C417.96 382.556 419.292 397.763 418.848 408.419C391.205 412.859 360.009 408.419 331.922 409.307C307.832 410.195 283.741 411.527 260.095 411.527C243.554 411.527 223.571 413.303 207.473 409.751" fill="#693899"/>
<path fill-rule="evenodd" clip-rule="evenodd" d="M313.056 393.411C312.523 399.006 311.802 406.579 308.055 410.638C307.959 411.423 307.309 412.155 306.389 411.971C306.055 411.877 305.719 411.773 305.38 411.66C305.172 411.647 304.97 411.582 304.792 411.456C299.311 409.479 293.306 405.297 288.959 401.759C283.297 396.986 279.19 391.436 276.192 384.665C270.107 370.727 270.638 352.819 271.081 337.865L271.086 337.713C271.086 336.825 271.974 336.048 272.862 336.381C275.19 337.086 276.891 338.465 278.648 339.888L278.648 339.888C279.655 340.705 280.681 341.536 281.854 342.264C282.224 342.492 282.597 342.721 282.97 342.95L282.97 342.95C286.405 345.059 289.941 347.231 292.845 350.034C298.84 355.806 305.39 362.466 309.053 370.014C312.384 376.896 313.827 384.665 313.161 392.324C313.126 392.677 313.092 393.04 313.056 393.411ZM309.245 399.398C308.718 402.202 307.955 406.261 306.272 408.385C304.441 404.583 302.879 400.646 301.415 396.655C301.616 396.552 301.795 396.4 301.948 396.209C303.179 394.469 304.361 392.697 305.544 390.923C307.04 388.679 308.538 386.434 310.138 384.249C310.246 385.191 310.328 386.143 310.385 387.107C310.607 390.992 310.163 394.877 309.386 398.651C309.341 398.888 309.294 399.137 309.245 399.397L309.245 399.398ZM309.531 380.407C308.543 375.551 306.717 371.014 303.724 366.795C303.049 365.819 302.348 364.837 301.623 363.857C299.857 366.962 298.312 370.14 296.767 373.319C296.047 374.801 295.327 376.282 294.585 377.756C296.13 381.643 297.512 385.6 298.892 389.55C299.364 390.901 299.836 392.252 300.314 393.599C301.146 392.392 301.966 391.18 302.787 389.968L302.787 389.968L302.787 389.968L302.787 389.968L302.787 389.968C304.958 386.762 307.129 383.555 309.497 380.447C309.508 380.434 309.52 380.42 309.531 380.407ZM296.348 390.775L296.347 390.774L296.347 390.772L296.347 390.772L296.347 390.772C294.955 386.772 293.563 382.77 291.993 378.839C288.719 377.019 285.29 375.539 281.86 374.058L281.86 374.058C279.576 373.072 277.291 372.085 275.051 370.998C275.625 374.147 276.394 377.206 277.414 380.115C278.399 382.935 279.601 385.684 281.063 388.272C286.459 389.21 291.788 390.414 296.903 392.371C296.718 391.84 296.534 391.309 296.349 390.778L296.348 390.777L296.348 390.775ZM282.951 391.304C284.76 393.942 286.893 396.354 289.403 398.429C293.041 401.474 297.902 405.034 302.663 407.342C300.955 403.549 299.487 399.659 298.089 395.74C293.23 393.619 288.135 392.317 282.951 391.304ZM294.324 371.852C293.933 372.663 293.542 373.474 293.147 374.283C292.591 372.997 292.012 371.721 291.403 370.458C290.173 367.868 288.805 365.33 287.435 362.789L287.435 362.788L287.434 362.788L287.434 362.788L287.434 362.788L287.434 362.788L287.434 362.788L287.434 362.788L287.434 362.787L287.433 362.785L287.432 362.784L287.43 362.781L287.429 362.779L287.429 362.777C287.137 362.236 286.845 361.695 286.554 361.153C286.924 359.652 287.458 358.216 287.989 356.787C288.711 354.844 289.428 352.914 289.724 350.853C293.356 353.87 296.736 357.57 299.763 361.418C299.751 361.434 299.739 361.45 299.728 361.467C297.729 364.797 296.027 368.324 294.325 371.851L294.324 371.852ZM282.592 371.421L282.592 371.421L282.592 371.421C285.202 372.555 287.816 373.692 290.368 374.958C289.916 373.932 289.448 372.913 288.96 371.901C287.686 369.252 286.319 366.673 284.955 364.1L284.955 364.1L284.955 364.1L284.955 364.1C284.645 363.515 284.335 362.931 284.026 362.346C282.765 361.595 281.437 360.919 280.105 360.241C277.839 359.087 275.562 357.928 273.588 356.385C273.723 360.197 274.006 364.012 274.527 367.736C274.564 367.753 274.601 367.772 274.638 367.794C277.236 369.092 279.911 370.255 282.591 371.421L282.592 371.421ZM283.787 346.759L283.787 346.759L283.787 346.759L283.787 346.759C282.235 345.78 280.679 344.799 279.19 343.707C278.809 343.448 278.443 343.178 278.083 342.903C279.288 345.075 280.218 347.396 281.157 349.738L281.157 349.738L281.157 349.738L281.157 349.739L281.157 349.739L281.157 349.739L281.157 349.739L281.157 349.74L281.158 349.74C281.315 350.134 281.473 350.528 281.633 350.923C282.548 353.247 283.62 355.507 284.759 357.736C284.917 357.305 285.08 356.875 285.244 356.445C286.093 354.208 286.939 351.978 287.072 349.59C287.086 349.363 287.144 349.165 287.234 348.995C286.106 348.221 284.948 347.49 283.787 346.759ZM281.851 358.134C281.319 357.071 280.8 356.001 280.301 354.918C279.695 353.563 279.157 352.177 278.619 350.794C277.288 347.368 275.965 343.961 273.641 341.077C273.53 344.84 273.451 348.747 273.5 352.692C275.644 355.022 278.562 356.485 281.46 357.938L281.851 358.134ZM331.589 409.64C330.953 410.004 330.354 409.828 329.968 409.425C329.359 409.779 328.59 409.746 328.259 408.974C323.818 398.651 323.374 386.885 327.815 376.452C331.271 368.464 336.747 362.018 342.257 355.532C344.711 352.644 347.171 349.748 349.463 346.704C350.129 345.816 351.683 345.816 352.016 347.037C355.347 359.469 358.011 372.234 352.571 384.443C348.02 394.877 341.248 403.424 331.589 409.64ZM331.714 374.735C332.188 373.742 332.702 372.759 333.254 371.79C335.223 368.334 337.605 365.155 340.136 362.081C340.356 362.894 340.6 363.701 340.844 364.507L340.844 364.507C341.533 366.784 342.221 369.056 342.358 371.456C342.358 371.583 342.376 371.706 342.409 371.825C341.879 373.336 341.311 374.841 340.692 376.34C338.843 380.838 337.241 385.425 335.644 390.011C335.081 387.208 334.31 384.461 333.538 381.704C332.891 379.4 332.244 377.09 331.714 374.735ZM333.941 394.871C333.688 394.598 333.526 394.227 333.476 393.878C332.971 389.834 331.854 385.883 330.738 381.935C330.466 380.972 330.194 380.009 329.93 379.045C326.929 387.575 326.771 396.704 329.888 405.439C331.365 401.965 332.677 398.428 333.941 394.871ZM336.92 394.535C335.688 398.122 334.438 401.691 333.026 405.191C338.85 400.842 343.659 395.386 347.207 389.07C343.926 391.183 340.497 393.026 336.92 394.535ZM349.653 384.117C351.87 378.926 352.739 373.793 352.752 368.65C350.346 370.014 347.869 371.289 345.278 372.342C344.381 374.651 343.441 376.942 342.495 379.251L342.494 379.252L342.494 379.252C342.301 379.724 342.107 380.196 341.913 380.669C340.56 384.031 339.359 387.438 338.186 390.846C342.026 389.029 345.674 386.777 349.13 384.332C349.308 384.218 349.484 384.148 349.653 384.117ZM342.358 359.469L342.354 359.447C343.122 358.551 343.896 357.661 344.67 356.77L344.671 356.77L344.671 356.77L344.671 356.769C345.799 355.472 346.926 354.175 348.031 352.867C347.443 354.867 346.887 356.866 346.331 358.861L346.331 358.861L346.331 358.863L346.331 358.863L346.33 358.864C345.652 361.301 344.975 363.733 344.245 366.154C344.025 365.353 343.781 364.556 343.537 363.756C343.108 362.353 342.676 360.939 342.358 359.469ZM346.622 368.762C348.7 367.791 350.701 366.663 352.653 365.44C352.405 361.472 351.708 357.49 350.788 353.464C350.398 354.963 350.041 356.466 349.685 357.97L349.685 357.97L349.685 357.97C349.046 360.662 348.408 363.354 347.575 366.018C347.268 366.939 346.949 367.853 346.622 368.762Z" fill="#EE81AB"/>
<path fill-rule="evenodd" clip-rule="evenodd" d="M272.862 325.392C269.975 325.392 269.975 329.832 272.862 329.832C275.748 329.832 275.748 325.392 272.862 325.392ZM262.204 333.051C259.318 333.051 259.318 337.491 262.204 337.491C265.091 337.491 265.091 333.051 262.204 333.051ZM248.549 349.701C245.663 349.701 245.663 354.141 248.549 354.141C251.436 354.141 251.436 349.701 248.549 349.701ZM264.536 361.023C261.65 361.023 261.65 365.463 264.536 365.463C267.422 365.463 267.422 361.023 264.536 361.023ZM249.104 372.345C246.218 372.345 246.218 376.785 249.104 376.785C251.991 376.785 251.991 372.345 249.104 372.345ZM224.125 375.897C221.239 375.897 221.239 380.337 224.125 380.337C227.012 380.337 227.012 375.897 224.125 375.897ZM218.242 386.552C215.355 386.552 215.355 390.992 218.242 390.992C221.128 390.992 221.128 386.552 218.242 386.552ZM241.999 391.325C239.113 391.325 239.113 395.765 241.999 395.765C244.886 395.765 244.886 391.325 241.999 391.325ZM261.649 389.549C258.763 389.549 258.763 393.989 261.649 393.989C264.536 393.989 264.536 389.549 261.649 389.549ZM290.18 330.72C287.294 330.72 287.294 335.16 290.18 335.16C293.067 335.16 293.067 330.72 290.18 330.72ZM311.607 357.471C308.72 357.471 308.72 361.911 311.607 361.911C314.382 361.911 314.382 357.471 311.607 357.471ZM337.14 346.704C334.254 346.704 334.254 351.144 337.14 351.144C340.027 351.255 340.027 346.704 337.14 346.704ZM323.485 366.351C320.599 366.351 320.599 370.791 323.485 370.791C326.371 370.791 326.371 366.351 323.485 366.351ZM317.49 389.549C314.604 389.549 314.604 393.989 317.49 393.989C320.377 393.989 320.377 389.549 317.49 389.549ZM356.79 394.323C353.903 394.323 353.903 398.762 356.79 398.762C359.565 398.762 359.565 394.323 356.79 394.323ZM365.671 377.118C362.785 377.118 362.785 381.558 365.671 381.558C368.557 381.558 368.557 377.118 365.671 377.118ZM363.895 356.25C361.009 356.25 361.009 360.69 363.895 360.69C366.781 360.69 366.781 356.25 363.895 356.25ZM374.552 390.104C371.666 390.104 371.666 394.544 374.552 394.544C377.439 394.655 377.439 390.104 374.552 390.104ZM392.981 374.676C390.095 374.676 390.095 379.115 392.981 379.115C395.868 379.115 395.868 374.676 392.981 374.676ZM392.981 390.104C390.095 390.104 390.095 394.544 392.981 394.544C395.868 394.655 395.868 390.104 392.981 390.104ZM406.636 386.552C403.75 386.552 403.75 390.992 406.636 390.992C409.523 390.992 409.523 386.552 406.636 386.552Z" fill="#F07090"/>
<defs>
<linearGradient id="paint0_linear" x1="471" y1="29.4924" x2="97.3395" y2="300.17" gradientUnits="userSpaceOnUse">
<stop stop-color="#A634FF"/>
<stop offset="1" stop-color="#FD5925"/>
</linearGradient>
<linearGradient id="paint1_linear" x1="471" y1="0" x2="117.318" y2="261.764" gradientUnits="userSpaceOnUse">
<stop stop-color="#D85855"/>
<stop offset="1" stop-color="#6E2287"/>
</linearGradient>
<linearGradient id="paint2_linear" x1="59.6771" y1="89.7151" x2="152.013" y2="445.902" gradientUnits="userSpaceOnUse">
<stop stop-color="#00D4FF" stop-opacity="0.71"/>
<stop offset="1" stop-color="#320B84" stop-opacity="0"/>
</linearGradient>
<linearGradient id="paint3_linear" x1="230.98" y1="41.8122" x2="524.878" y2="218.821" gradientUnits="userSpaceOnUse">
<stop stop-color="#6E2287"/>
</linearGradient>
</defs>
</svg>
