<svg width="674" height="407" viewBox="0 0 674 407" fill="none" xmlns="http://www.w3.org/2000/svg">
<path fill-rule="evenodd" clip-rule="evenodd" d="M10.4 0C7.2 0 7.2 5 10.4 5C13.6 5 13.6 0 10.4 0ZM671.4 9C668.2 9 668.2 14 671.4 14C674.6 14 674.6 9 671.4 9ZM653.4 17C650.2 17 650.2 22 653.4 22C656.6 22 656.6 17 653.4 17ZM182.4 103C179.2 103 179.2 108 182.4 108C185.6 108 185.6 103 182.4 103ZM170.4 122C167.2 122 167.2 127 170.4 127C173.6 127 173.6 122 170.4 122ZM188.4 118C185.2 118 185.2 123 188.4 123C191.6 123 191.6 118 188.4 118ZM438.4 295C435.2 295 435.2 300 438.4 300C441.6 300 441.6 295 438.4 295ZM452.4 286C449.2 286 449.2 291 452.4 291C455.6 291 455.6 286 452.4 286ZM451.4 306C448.2 306 448.2 311 451.4 311C454.6 311 454.6 306 451.4 306ZM670.4 26C667.2 26 667.2 31 670.4 31C673.6 31 673.6 26 670.4 26ZM2.4 14C-0.8 14 -0.8 19 2.4 19C5.6 19 5.6 14 2.4 14ZM16.4 13C13.2 13 13.2 18 16.4 18C19.6 18 19.6 13 16.4 13ZM333.4 119C330.2 119 330.2 124 333.4 124C336.6 124 336.6 119 333.4 119ZM100.4 75C97.2 75 97.2 80 100.4 80C103.6 80 103.6 75 100.4 75ZM284.4 208C281.2 208 281.2 213 284.4 213C287.6 213 287.6 208 284.4 208ZM534.4 358C531.2 358 531.2 363 534.4 363C537.6 363 537.6 358 534.4 358ZM653.4 313C650.2 313 650.2 318 653.4 318C656.6 318 656.6 313 653.4 313ZM610.4 402C607.2 402 607.2 407 610.4 407C613.6 407 613.6 402 610.4 402ZM452.4 56C449.2 56 449.2 61 452.4 61C455.6 61 455.6 56 452.4 56Z" fill="#DBCBFE"/>
</svg>
