<svg width="67" height="67" viewBox="0 0 67 67" fill="none" xmlns="http://www.w3.org/2000/svg">
<path d="M8.232 8.40981C12.52 3.22581 17.544 0.63381 23.304 0.63381C29.064 0.63381 34.088 3.22581 38.376 8.40981C43.816 14.8738 46.536 23.2578 46.536 33.5618C46.536 43.8658 43.816 52.2498 38.376 58.7138C33.96 63.9618 28.936 66.5858 23.304 66.5858C17.672 66.5858 12.648 63.9618 8.232 58.7138C2.792 52.2498 0.0720001 43.8658 0.0720001 33.5618C0.0720001 23.2578 2.792 14.8738 8.232 8.40981ZM11.4 56.2178C14.92 60.5698 18.888 62.7458 23.304 62.7458C27.72 62.7458 31.688 60.5698 35.208 56.2178C39.816 50.5218 42.12 42.9698 42.12 33.5618C42.12 24.1538 39.816 16.6018 35.208 10.9058C31.752 6.61781 27.784 4.47381 23.304 4.47381C18.824 4.47381 14.856 6.61781 11.4 10.9058C6.792 16.6018 4.488 24.1538 4.488 33.5618C4.488 42.9698 6.792 50.5218 11.4 56.2178ZM62.487 65.5298V5.33781H52.503L54.423 1.49781H66.711V65.5298H62.487Z" fill="url(#paint0_linear)"/>
<defs>
<linearGradient id="paint0_linear" x1="43" y1="-28.4702" x2="43" y2="94.5298" gradientUnits="userSpaceOnUse">
<stop stop-color="#00F0FF"/>
<stop offset="0.96875" stop-color="#FF07D7" stop-opacity="0.03125"/>
<stop offset="1" stop-color="#8F00FF" stop-opacity="0"/>
</linearGradient>
</defs>
</svg>
