<svg width="92" height="67" viewBox="0 0 92 67" fill="none" xmlns="http://www.w3.org/2000/svg">
<path d="M8.232 8.40981C12.52 3.22581 17.544 0.63381 23.304 0.63381C29.064 0.63381 34.088 3.22581 38.376 8.40981C43.816 14.8738 46.536 23.2578 46.536 33.5618C46.536 43.8658 43.816 52.2498 38.376 58.7138C33.96 63.9618 28.936 66.5858 23.304 66.5858C17.672 66.5858 12.648 63.9618 8.232 58.7138C2.792 52.2498 0.0720001 43.8658 0.0720001 33.5618C0.0720001 23.2578 2.792 14.8738 8.232 8.40981ZM11.4 56.2178C14.92 60.5698 18.888 62.7458 23.304 62.7458C27.72 62.7458 31.688 60.5698 35.208 56.2178C39.816 50.5218 42.12 42.9698 42.12 33.5618C42.12 24.1538 39.816 16.6018 35.208 10.9058C31.752 6.61781 27.784 4.47381 23.304 4.47381C18.824 4.47381 14.856 6.61781 11.4 10.9058C6.792 16.6018 4.488 24.1538 4.488 33.5618C4.488 42.9698 6.792 50.5218 11.4 56.2178ZM91.1535 65.5298H51.6975L76.2735 38.4578C79.6655 34.6178 82.0015 31.7378 83.2815 29.8178C85.7775 25.9778 87.0255 22.3298 87.0255 18.8738C87.0255 14.7778 85.6175 11.3538 82.8015 8.60181C80.0495 5.84981 76.4975 4.47381 72.1455 4.47381C67.5375 4.47381 63.8575 6.04181 61.1055 9.17781C58.6095 11.9298 57.3615 15.4178 57.3615 19.6418H53.1375C53.1375 14.2018 54.8335 9.72181 58.2255 6.20181C61.8095 2.48981 66.5455 0.63381 72.4335 0.63381C77.9375 0.63381 82.4815 2.39381 86.0655 5.91381C89.6495 9.36981 91.4415 13.6898 91.4415 18.8738C91.4415 23.4178 89.9055 27.8018 86.8335 32.0258C85.3615 34.0738 83.4735 36.3778 81.1695 38.9378L60.6255 61.6898H91.1535V65.5298Z" fill="url(#paint0_linear)"/>
<defs>
<linearGradient id="paint0_linear" x1="48" y1="-28.4702" x2="48" y2="94.5298" gradientUnits="userSpaceOnUse">
<stop stop-color="#00F0FF"/>
<stop offset="0.96875" stop-color="#FF07D7" stop-opacity="0.03125"/>
<stop offset="1" stop-color="#8F00FF" stop-opacity="0"/>
</linearGradient>
</defs>
</svg>
