<svg width="94" height="67" viewBox="0 0 94 67" fill="none" xmlns="http://www.w3.org/2000/svg">
<path d="M8.232 8.40981C12.52 3.22581 17.544 0.63381 23.304 0.63381C29.064 0.63381 34.088 3.22581 38.376 8.40981C43.816 14.8738 46.536 23.2578 46.536 33.5618C46.536 43.8658 43.816 52.2498 38.376 58.7138C33.96 63.9618 28.936 66.5858 23.304 66.5858C17.672 66.5858 12.648 63.9618 8.232 58.7138C2.792 52.2498 0.0720001 43.8658 0.0720001 33.5618C0.0720001 23.2578 2.792 14.8738 8.232 8.40981ZM11.4 56.2178C14.92 60.5698 18.888 62.7458 23.304 62.7458C27.72 62.7458 31.688 60.5698 35.208 56.2178C39.816 50.5218 42.12 42.9698 42.12 33.5618C42.12 24.1538 39.816 16.6018 35.208 10.9058C31.752 6.61781 27.784 4.47381 23.304 4.47381C18.824 4.47381 14.856 6.61781 11.4 10.9058C6.792 16.6018 4.488 24.1538 4.488 33.5618C4.488 42.9698 6.792 50.5218 11.4 56.2178ZM56.8898 49.9778H61.1138C61.2418 52.4738 61.9458 54.7458 63.2258 56.7938C64.4418 58.5218 66.1058 59.9618 68.2178 61.1138C70.3298 62.2018 72.4418 62.7458 74.5538 62.7458C78.4578 62.7458 81.8178 61.2738 84.6338 58.3298C87.5138 55.3858 88.9538 51.8978 88.9538 47.8658C88.9538 42.6178 86.9378 38.7138 82.9058 36.1538C80.9218 34.8738 78.2018 34.2338 74.7458 34.2338V30.3938C78.2018 30.3938 81.0818 29.4018 83.3858 27.4178C86.5218 24.7938 88.0898 21.3058 88.0898 16.9538C88.0898 13.3698 87.0018 10.3938 84.8258 8.02581C82.6498 5.65781 79.6418 4.47381 75.8018 4.47381C71.8338 4.47381 68.7618 5.72181 66.5858 8.21782C64.5378 10.4578 63.4498 13.3058 63.3218 16.7618H59.2898C59.3538 12.2178 60.9218 8.37781 63.9938 5.24181C67.0018 2.16981 70.9378 0.63381 75.8018 0.63381C80.9218 0.63381 84.9858 2.16981 87.9938 5.24181C91.0018 8.31381 92.5058 12.1218 92.5058 16.6658C92.5058 19.8658 91.7058 22.9058 90.1058 25.7858C88.5058 28.6018 85.9458 30.7138 82.4258 32.1218C85.8178 33.2098 88.4738 35.1618 90.3938 37.9778C92.3778 40.7938 93.3698 44.0578 93.3698 47.7698C93.3698 53.0818 91.5458 57.5618 87.8978 61.2098C84.2498 64.7938 79.8018 66.5858 74.5538 66.5858C71.5458 66.5858 68.6338 65.8498 65.8178 64.3778C63.0018 62.9058 60.7938 60.8578 59.1938 58.2338C57.6578 55.7378 56.8898 52.9858 56.8898 49.9778Z" fill="url(#paint0_linear)"/>
<defs>
<linearGradient id="paint0_linear" x1="50" y1="-28.4702" x2="50" y2="94.5298" gradientUnits="userSpaceOnUse">
<stop stop-color="#00F0FF"/>
<stop offset="0.96875" stop-color="#FF07D7" stop-opacity="0.03125"/>
<stop offset="1" stop-color="#8F00FF" stop-opacity="0"/>
</linearGradient>
</defs>
</svg>
