<svg width="99" height="68" viewBox="0 0 99 68" fill="none" xmlns="http://www.w3.org/2000/svg">
<path d="M8.232 9.41015C12.52 4.22615 17.544 1.63415 23.304 1.63415C29.064 1.63415 34.088 4.22615 38.376 9.41015C43.816 15.8741 46.536 24.2582 46.536 34.5622C46.536 44.8662 43.816 53.2502 38.376 59.7142C33.96 64.9622 28.936 67.5862 23.304 67.5862C17.672 67.5862 12.648 64.9622 8.232 59.7142C2.792 53.2502 0.0720001 44.8662 0.0720001 34.5622C0.0720001 24.2582 2.792 15.8741 8.232 9.41015ZM11.4 57.2182C14.92 61.5702 18.888 63.7462 23.304 63.7462C27.72 63.7462 31.688 61.5702 35.208 57.2182C39.816 51.5222 42.12 43.9702 42.12 34.5622C42.12 25.1542 39.816 17.6021 35.208 11.9062C31.752 7.61815 27.784 5.47415 23.304 5.47415C18.824 5.47415 14.856 7.61815 11.4 11.9062C6.792 17.6021 4.488 25.1542 4.488 34.5622C4.488 43.9702 6.792 51.5222 11.4 57.2182ZM89.4338 0.38615V50.4982H98.3618V54.3382H89.4338V66.5302H85.2098V54.3382H50.7458L89.4338 0.38615ZM58.2338 50.4982H85.2098V12.8661L58.2338 50.4982Z" fill="url(#paint0_linear)"/>
<defs>
<linearGradient id="paint0_linear" x1="50" y1="-27.4698" x2="50" y2="95.5302" gradientUnits="userSpaceOnUse">
<stop stop-color="#00F0FF"/>
<stop offset="0.96875" stop-color="#FF07D7" stop-opacity="0.03125"/>
<stop offset="1" stop-color="#8F00FF" stop-opacity="0"/>
</linearGradient>
</defs>
</svg>
