<svg width="95" height="67" viewBox="0 0 95 67" fill="none" xmlns="http://www.w3.org/2000/svg">
<path d="M8.232 8.41015C12.52 3.22615 17.544 0.634146 23.304 0.634146C29.064 0.634146 34.088 3.22615 38.376 8.41015C43.816 14.8741 46.536 23.2582 46.536 33.5622C46.536 43.8662 43.816 52.2502 38.376 58.7142C33.96 63.9622 28.936 66.5862 23.304 66.5862C17.672 66.5862 12.648 63.9622 8.232 58.7142C2.792 52.2502 0.0720001 43.8662 0.0720001 33.5622C0.0720001 23.2582 2.792 14.8741 8.232 8.41015ZM11.4 56.2182C14.92 60.5702 18.888 62.7462 23.304 62.7462C27.72 62.7462 31.688 60.5702 35.208 56.2182C39.816 50.5222 42.12 42.9702 42.12 33.5622C42.12 24.1542 39.816 16.6021 35.208 10.9062C31.752 6.61815 27.784 4.47415 23.304 4.47415C18.824 4.47415 14.856 6.61815 11.4 10.9062C6.792 16.6021 4.488 24.1542 4.488 33.5622C4.488 42.9702 6.792 50.5222 11.4 56.2182ZM94.7138 1.49815V5.33815H73.2098L67.8338 22.6181C69.3698 22.2341 70.8098 22.0422 72.1538 22.0422C78.8738 22.0422 84.2498 24.1222 88.2818 28.2822C92.3778 32.4422 94.4258 37.7541 94.4258 44.2181C94.4258 50.9382 92.2178 56.3462 87.8018 60.4422C83.4498 64.5382 78.0738 66.5862 71.6738 66.5862C62.9698 66.5862 56.5698 63.0662 52.4738 56.0262L56.2178 54.4902C59.9298 59.9942 65.1138 62.7462 71.7698 62.7462C77.0818 62.7462 81.4338 61.0182 84.8258 57.5622C88.2818 54.1062 90.0098 49.6902 90.0098 44.3141C90.0098 38.8741 88.3138 34.4581 84.9218 31.0661C81.5938 27.6101 77.2738 25.8821 71.9618 25.8821C68.3138 25.8821 64.9858 26.8102 61.9778 28.6662L70.2338 1.49815H94.7138Z" fill="url(#paint0_linear)"/>
<defs>
<linearGradient id="paint0_linear" x1="50" y1="-28.4698" x2="50" y2="94.5302" gradientUnits="userSpaceOnUse">
<stop stop-color="#00F0FF"/>
<stop offset="0.96875" stop-color="#FF07D7" stop-opacity="0.03125"/>
<stop offset="1" stop-color="#8F00FF" stop-opacity="0"/>
</linearGradient>
</defs>
</svg>
