<svg width="1400" height="926" viewBox="0 0 1400 926" fill="none" xmlns="http://www.w3.org/2000/svg">
<path fill-rule="evenodd" clip-rule="evenodd" d="M1372.61 24.8502C1388.21 22.6858 1396.9 21.4813 1400 22.8193V43V43.9396V926H0V43.94V43V22.8196C3.12335 21.4733 12.518 22.7012 29.2721 24.891C87.6161 32.5166 235.207 51.8068 518 14.6763C606.508 3.05538 659.818 -0.578441 706.252 0.0726516C752.685 -0.578033 805.995 3.05605 894.5 14.6767C1177.8 51.8731 1317.84 32.4478 1372.61 24.8502Z" fill="#DEE1FF"/>
<path fill-rule="evenodd" clip-rule="evenodd" d="M1372.61 24.8502C1388.21 22.6858 1396.9 21.4813 1400 22.8193V43V43.9396V926H0V43.94V43V22.8196C3.12335 21.4733 12.518 22.7012 29.2721 24.891C87.6161 32.5166 235.207 51.8068 518 14.6763C606.508 3.05538 659.818 -0.578441 706.252 0.0726516C752.685 -0.578033 805.995 3.05605 894.5 14.6767C1177.8 51.8731 1317.84 32.4478 1372.61 24.8502Z" fill="url(#paint0_linear)"/>
<defs>
<linearGradient id="paint0_linear" x1="326" y1="-87" x2="1636" y2="1427" gradientUnits="userSpaceOnUse">
<stop stop-color="#53056F"/>
<stop offset="0.982875" stop-color="#004766"/>
</linearGradient>
</defs>
</svg>
