<svg width="1083" height="399" viewBox="0 0 1083 399" fill="none" xmlns="http://www.w3.org/2000/svg">
<path fill-rule="evenodd" clip-rule="evenodd" d="M14.4 352.53C11.2 352.53 11.2 357.53 14.4 357.53C17.6 357.53 17.6 352.53 14.4 352.53ZM2.4 371.53C-0.8 371.53 -0.8 376.53 2.4 376.53C5.6 376.53 5.6 371.53 2.4 371.53ZM20.4 367.53C17.2 367.53 17.2 372.53 20.4 372.53C23.6 372.53 23.6 367.53 20.4 367.53Z" fill="#00F0FF"/>
<path d="M620.4 286.53C617.2 286.53 617.2 291.53 620.4 291.53C623.6 291.53 623.6 286.53 620.4 286.53Z" fill="#00F0FF"/>
<path d="M634.4 277.53C631.2 277.53 631.2 282.53 634.4 282.53C637.6 282.53 637.6 277.53 634.4 277.53Z" fill="#00F0FF"/>
<path d="M633.4 297.53C630.2 297.53 630.2 302.53 633.4 302.53C636.6 302.53 636.6 297.53 633.4 297.53Z" fill="#00F0FF"/>
<path fill-rule="evenodd" clip-rule="evenodd" d="M1080.4 0.529694C1077.2 0.529694 1077.2 5.52969 1080.4 5.52969C1083.6 5.52969 1083.6 0.529694 1080.4 0.529694ZM1062.4 8.52969C1059.2 8.52969 1059.2 13.5297 1062.4 13.5297C1065.6 13.5297 1065.6 8.52969 1062.4 8.52969ZM1079.4 17.5297C1076.2 17.5297 1076.2 22.5297 1079.4 22.5297C1082.6 22.5297 1082.6 17.5297 1079.4 17.5297Z" fill="#00F0FF"/>
<path d="M515.4 110.53C512.2 110.53 512.2 115.53 515.4 115.53C518.6 115.53 518.6 110.53 515.4 110.53Z" fill="#00F0FF"/>
<path d="M282.4 66.5297C279.2 66.5297 279.2 71.5297 282.4 71.5297C285.6 71.5297 285.6 66.5297 282.4 66.5297Z" fill="#00F0FF"/>
<path d="M253.4 291.53C250.2 291.53 250.2 296.53 253.4 296.53C256.6 296.53 256.6 291.53 253.4 291.53Z" fill="#00F0FF"/>
<path d="M993.4 129.53C990.2 129.53 990.2 134.53 993.4 134.53C996.6 134.53 996.6 129.53 993.4 129.53Z" fill="#00F0FF"/>
<path d="M716.4 349.53C713.2 349.53 713.2 354.53 716.4 354.53C719.6 354.53 719.6 349.53 716.4 349.53Z" fill="#00F0FF"/>
<path d="M835.4 304.53C832.2 304.53 832.2 309.53 835.4 309.53C838.6 309.53 838.6 304.53 835.4 304.53Z" fill="#00F0FF"/>
<path d="M792.4 393.53C789.2 393.53 789.2 398.53 792.4 398.53C795.6 398.53 795.6 393.53 792.4 393.53Z" fill="#00F0FF"/>
<path d="M634.4 47.5297C631.2 47.5297 631.2 52.5297 634.4 52.5297C637.6 52.5297 637.6 47.5297 634.4 47.5297Z" fill="#00F0FF"/>
</svg>
