<svg width="287" height="305" viewBox="0 0 287 305" fill="none" xmlns="http://www.w3.org/2000/svg">
<path d="M240.4 96.7096C243.407 89.2704 244.99 81.1981 244.99 72.8092C244.99 32.6059 207.794 0 162.051 0C116.307 0 79.1115 32.6059 79.1115 72.8092C79.1115 81.1981 80.6942 89.1121 83.7016 96.7096H240.4Z" fill="#ADD8ED"/>
<path d="M83.7016 48.9089C80.6942 56.3481 79.1115 64.4204 79.1115 72.8093C79.1115 81.1982 80.6942 89.1123 83.7016 96.7097H240.4C243.407 89.2705 244.99 81.1982 244.99 72.8093C244.99 64.4204 243.407 56.3481 240.4 48.9089C240.4 48.9089 217.449 37.5127 163.95 37.5127C110.293 37.5127 83.7016 48.9089 83.7016 48.9089Z" fill="#96BFD4"/>
<path d="M83.7016 48.9089C80.6942 56.3481 79.1115 64.4204 79.1115 72.8093C79.1115 81.1982 80.6942 89.1123 83.7016 96.7097H240.4C243.407 89.2705 244.99 81.1982 244.99 72.8093C244.99 64.4204 243.407 56.3481 240.4 48.9089C240.4 48.9089 217.449 37.5127 163.95 37.5127C110.293 37.5127 83.7016 48.9089 83.7016 48.9089Z" fill="#96A6D4"/>
<path d="M248.947 59.197C248.947 59.197 223.464 47.8008 164.108 47.8008C104.753 47.8008 75.1546 59.197 75.1546 59.197" stroke="#6F7A9C" stroke-width="3.1517" stroke-miterlimit="10" stroke-linecap="round" stroke-linejoin="round"/>
<path d="M149.072 8.70537C148.281 7.91396 147.173 7.12256 145.906 7.12256C145.273 7.12256 144.64 7.12258 144.165 7.43914C143.532 7.59742 143.057 7.91397 142.582 8.38881C142.108 8.86365 141.633 9.33851 141.474 9.81335C141.158 10.2882 141 10.9213 141 11.5544C141 12.8207 141.316 14.0869 142.108 15.0366C142.899 15.828 144.007 16.6194 145.273 16.6194C145.906 16.6194 146.539 16.6194 147.014 16.3029C147.647 16.1446 148.122 15.828 148.597 15.3532C149.072 14.8783 149.547 14.4035 149.705 13.9286C150.022 13.4538 150.18 12.8207 150.18 12.1876C150.18 10.9213 150.022 9.65505 149.072 8.70537Z" fill="#D1EDFE"/>
<path d="M130.237 13.9287C125.33 13.2955 120.582 16.7777 116.625 19.1519C112.351 21.6844 108.711 24.85 105.228 28.6488C101.271 33.0806 106.178 38.937 111.243 35.6131C114.884 33.2389 119.157 31.3395 123.114 29.2819C127.071 27.3825 131.978 26.1163 134.194 22.1593C136.41 18.6771 134.352 14.5618 130.237 13.9287Z" fill="#D1EDFE"/>
<path opacity="0.4" d="M227.821 74.8673C238.745 67.6135 239.564 49.6304 229.65 34.701C219.737 19.7716 202.845 13.5493 191.921 20.8031C180.997 28.0569 180.178 46.0399 190.091 60.9693C200.005 75.8988 216.897 82.1211 227.821 74.8673Z" fill="#ADD8ED"/>
<path d="M286.301 76.924C285.035 75.4995 283.452 74.3915 281.552 73.7584C261.134 66.1609 227.262 56.9806 181.044 55.7144H143.69C97.4718 56.9806 63.5997 66.3192 43.1815 73.7584C41.757 74.2332 40.4907 75.0246 39.3827 75.9743C38.2748 76.924 37.6417 78.3485 37.6417 79.773V92.4355C38.7496 94.0183 40.3324 95.2846 42.2318 96.2342C62.4917 105.889 96.6804 108.897 143.69 110.163H181.044C227.895 108.897 262.242 105.731 282.502 96.2342C284.085 95.4428 285.351 94.4931 286.301 93.3852V76.924Z" fill="#A1BBED"/>
<path d="M286.301 76.924C285.035 75.4995 283.452 74.3915 281.552 73.7584C261.134 66.1609 227.262 56.9806 181.044 55.7144H143.69C97.4718 56.9806 63.5997 66.3192 43.1815 73.7584C41.757 74.2332 40.4907 75.0246 39.3827 75.9743C38.2748 76.924 37.6417 78.3485 37.6417 79.773V92.2772C37.9582 92.7521 38.1165 92.7521 38.4331 92.5938C39.6993 91.3275 41.2821 90.2196 43.1815 89.4282C63.5997 81.8307 97.4718 72.6504 143.69 71.3842H181.044C227.262 72.6504 261.134 81.989 281.552 89.4282C283.452 90.2196 285.035 91.3275 286.301 92.5938V76.924Z" fill="#8296BF"/>
<path opacity="0.44" d="M39.5404 79.9319C39.5404 79.2988 39.8569 78.6656 40.3318 78.0325C41.598 76.7663 43.1808 76.1332 45.0802 75.3417C65.4984 67.7443 99.3705 58.564 145.589 57.2977H182.943C229.161 58.564 263.033 67.9025 283.451 75.3417C284.559 75.8166 285.509 76.2914 286.458 76.9246V76.7663C285.192 75.3417 283.609 74.2338 281.71 73.6007C261.292 66.0032 227.42 56.8229 181.202 55.5566H143.847C97.6294 56.8229 63.7573 66.1614 43.3391 73.6007C41.9146 74.0755 40.6483 74.8669 39.5404 75.8166C38.4324 76.7663 37.7993 78.1908 37.7993 79.6153V92.1195C37.9575 92.5944 39.2238 83.0975 39.5404 79.9319Z" fill="#D1EDFE"/>
<path d="M162.368 101.775C200.481 101.775 231.378 98.1604 231.378 93.7022C231.378 89.244 200.481 85.6299 162.368 85.6299C124.254 85.6299 93.3571 89.244 93.3571 93.7022C93.3571 98.1604 124.254 101.775 162.368 101.775Z" fill="#8296BF"/>
<path d="M101.43 89.9035C112.984 92.436 135.935 94.177 162.526 94.177C189.117 94.177 212.068 92.436 223.623 89.9035C212.068 87.371 189.117 85.6299 162.526 85.6299C135.935 85.6299 112.984 87.2127 101.43 89.9035Z" fill="#5A6885"/>
<path d="M69.1403 93.702C74.8224 93.702 79.4286 92.4265 79.4286 90.853C79.4286 89.2795 74.8224 88.0039 69.1403 88.0039C63.4583 88.0039 58.8521 89.2795 58.8521 90.853C58.8521 92.4265 63.4583 93.702 69.1403 93.702Z" fill="#EEF7FF"/>
<path d="M79.1112 90.0616C78.0032 88.7954 73.8879 87.8457 69.1395 87.8457C63.4413 87.8457 58.8512 89.112 58.8512 90.6948L56.3187 98.134C56.3187 98.134 59.8009 101.616 69.1395 101.616C78.9529 101.616 82.4351 97.9757 82.4351 97.9757L79.1112 90.0616Z" fill="url(#paint0_radial)"/>
<path d="M76.5783 105.89C79.9875 105.89 82.7512 105.11 82.7512 104.149C82.7512 103.187 79.9875 102.408 76.5783 102.408C73.1691 102.408 70.4053 103.187 70.4053 104.149C70.4053 105.11 73.1691 105.89 76.5783 105.89Z" fill="#EEF7FF"/>
<path d="M82.5929 103.832C81.9598 103.04 79.4273 102.565 76.5782 102.565C73.096 102.565 70.4053 103.357 70.4053 104.306L68.8224 108.738C68.8224 108.738 70.8801 110.796 76.5782 110.796C82.4346 110.796 84.6505 108.58 84.6505 108.58L82.5929 103.832Z" fill="url(#paint1_radial)"/>
<path d="M248.313 103.832C251.723 103.832 254.486 103.053 254.486 102.091C254.486 101.13 251.723 100.35 248.313 100.35C244.904 100.35 242.14 101.13 242.14 102.091C242.14 103.053 244.904 103.832 248.313 103.832Z" fill="#EEF7FF"/>
<path d="M254.328 101.774C253.695 100.983 251.162 100.508 248.313 100.508C244.831 100.508 242.14 101.299 242.14 102.249L240.558 106.681C240.558 106.681 242.615 108.738 248.313 108.738C254.17 108.738 256.386 106.523 256.386 106.523L254.328 101.774Z" fill="url(#paint2_radial)"/>
<path d="M254.487 93.702C260.169 93.702 264.775 92.4265 264.775 90.853C264.775 89.2795 260.169 88.0039 254.487 88.0039C248.805 88.0039 244.199 89.2795 244.199 90.853C244.199 92.4265 248.805 93.702 254.487 93.702Z" fill="#EEF7FF"/>
<path d="M264.458 90.0616C263.35 88.7954 259.235 87.8457 254.486 87.8457C248.788 87.8457 244.198 89.112 244.198 90.6948L241.666 98.134C241.666 98.134 245.148 101.616 254.486 101.616C264.3 101.616 267.782 97.9757 267.782 97.9757L264.458 90.0616Z" fill="url(#paint3_radial)"/>
<path d="M110.292 84.6802C117.11 84.6802 122.638 83.1211 122.638 81.198C122.638 79.2748 117.11 77.7158 110.292 77.7158C103.474 77.7158 97.946 79.2748 97.946 81.198C97.946 83.1211 103.474 84.6802 110.292 84.6802Z" fill="#EEF7FF"/>
<path d="M122.321 80.4066C121.055 78.8238 116.148 77.7158 110.292 77.7158C103.486 77.7158 97.9461 79.2986 97.9461 81.198L94.7805 90.22C94.7805 90.22 98.8958 94.3353 110.292 94.3353C122.163 94.3353 126.437 89.9034 126.437 89.9034L122.321 80.4066Z" fill="url(#paint4_radial)"/>
<path d="M214.441 84.6802C221.26 84.6802 226.787 83.1211 226.787 81.198C226.787 79.2748 221.26 77.7158 214.441 77.7158C207.623 77.7158 202.096 79.2748 202.096 81.198C202.096 83.1211 207.623 84.6802 214.441 84.6802Z" fill="#EEF7FF"/>
<path d="M226.471 80.4066C225.205 78.8238 220.298 77.7158 214.442 77.7158C207.635 77.7158 202.096 79.2986 202.096 81.198L198.93 90.22C198.93 90.22 203.045 94.3353 214.442 94.3353C226.313 94.3353 230.586 89.9034 230.586 89.9034L226.471 80.4066Z" fill="url(#paint5_radial)"/>
<path d="M163.792 84.3636C173.145 84.3636 180.728 82.2376 180.728 79.6151C180.728 76.9926 173.145 74.8667 163.792 74.8667C154.438 74.8667 146.855 76.9926 146.855 79.6151C146.855 82.2376 154.438 84.3636 163.792 84.3636Z" fill="#EEF7FF"/>
<path d="M180.253 78.5072C178.512 76.4495 171.864 74.8667 163.792 74.8667C154.453 74.8667 146.855 77.0826 146.855 79.6151L142.582 91.961C142.582 91.961 148.28 97.6592 163.792 97.6592C179.936 97.6592 185.793 91.6445 185.793 91.6445L180.253 78.5072Z" fill="url(#paint6_radial)"/>
<path d="M56.6359 77.0827C57.1107 78.8238 56.161 80.5649 54.4199 81.0397C52.6788 81.5146 50.9378 80.7232 50.3046 78.9821C49.6715 77.241 50.6212 75.4999 52.3623 74.8668C54.42 74.3919 56.161 75.4999 56.6359 77.0827Z" fill="#D1EDFE"/>
<path d="M69.2985 73.7589C69.7733 75.5 68.6653 77.2411 66.9242 77.7159C65.1831 78.1908 63.4421 77.0828 62.9672 75.3417C62.4924 73.6006 63.6003 71.8595 65.3414 71.3847C67.0825 70.9099 68.8236 72.0178 69.2985 73.7589Z" fill="#D1EDFE"/>
<path d="M81.9607 70.9101C82.2773 72.6512 81.1693 74.3923 79.4282 74.7089C77.6871 75.0254 75.946 73.9175 75.6295 72.1764C75.3129 70.4353 76.4209 68.6942 78.1619 68.3776C79.903 68.0611 81.4859 69.169 81.9607 70.9101Z" fill="#D1EDFE"/>
<path d="M94.6231 68.5358C94.9397 70.2769 93.6735 72.018 91.9324 72.3346C90.1913 72.6512 88.4502 71.5432 88.1336 69.6438C87.8171 67.9027 88.925 66.1616 90.8244 65.8451C92.7238 65.6868 94.4649 66.7948 94.6231 68.5358Z" fill="#D1EDFE"/>
<path d="M107.603 66.6364C107.761 68.3775 106.653 70.1186 104.754 70.2769C103.012 70.5934 101.43 69.3272 101.113 67.5861C100.796 65.845 102.063 64.1039 103.962 63.9456C105.703 63.6291 107.286 64.8953 107.603 66.6364Z" fill="#D1EDFE"/>
<path d="M120.423 65.3702C120.581 67.1113 119.315 68.6941 117.574 68.8524C115.833 69.0107 114.25 67.7444 113.933 66.0033C113.617 64.2622 115.041 62.6794 116.783 62.5211C118.682 62.2046 120.265 63.4708 120.423 65.3702Z" fill="#D1EDFE"/>
<path d="M133.402 64.262C133.56 66.0031 132.135 67.5859 130.394 67.7442C128.653 67.9025 127.07 66.478 126.912 64.7369C126.754 62.9958 128.178 61.413 129.919 61.2547C131.819 61.0964 133.243 62.5209 133.402 64.262Z" fill="#D1EDFE"/>
<path d="M146.381 63.629C146.381 65.3701 144.957 66.9529 143.216 66.9529C141.474 67.1112 139.892 65.6866 139.892 63.9456C139.733 62.2045 141.158 60.6217 143.057 60.4634C144.798 60.4634 146.381 61.8879 146.381 63.629Z" fill="#D1EDFE"/>
<path d="M159.36 63.6288C159.36 65.3699 157.935 66.9527 156.194 66.9527C154.453 66.9527 153.029 65.5282 152.87 63.7871C152.87 62.046 154.295 60.4632 156.036 60.4632C157.935 60.3049 159.36 61.7294 159.36 63.6288Z" fill="#D1EDFE"/>
<path d="M172.34 63.7873C172.34 65.5284 170.757 66.9529 169.016 66.9529C167.275 66.9529 165.85 65.3701 165.85 63.629C165.85 61.8879 167.433 60.4634 169.174 60.4634C170.915 60.4634 172.498 62.0462 172.34 63.7873Z" fill="#D1EDFE"/>
<path d="M185.318 64.4206C185.16 66.1617 183.736 67.5862 181.836 67.5862C179.937 67.5862 178.671 66.0034 178.829 64.2623C178.987 62.5212 180.412 61.0967 182.311 61.0967C184.052 61.0967 185.477 62.5212 185.318 64.4206Z" fill="#D1EDFE"/>
<path d="M198.297 65.5284C198.139 67.2695 196.556 68.694 194.815 68.5357C193.074 68.3774 191.65 66.7946 191.808 65.0535C191.966 63.3125 193.549 61.8879 195.29 62.0462C197.189 62.2045 198.456 63.7873 198.297 65.5284Z" fill="#D1EDFE"/>
<path d="M211.276 66.9528C211.118 68.6939 209.377 69.9602 207.636 69.6436C205.895 69.4853 204.628 67.9025 204.787 66.1614C204.945 64.4203 206.528 62.9958 208.427 63.3124C210.168 63.4706 211.434 65.0535 211.276 66.9528Z" fill="#D1EDFE"/>
<path d="M224.097 68.694C223.78 70.4351 222.198 71.7013 220.456 71.3848C218.715 71.0682 217.449 69.4854 217.766 67.7443C218.082 66.0032 219.665 64.737 221.406 65.0535C223.147 65.3701 224.255 66.9529 224.097 68.694Z" fill="#D1EDFE"/>
<path d="M236.918 70.9101C236.602 72.6512 234.861 73.7591 233.119 73.4426C231.378 73.126 230.27 71.3849 230.429 69.6438C230.745 67.9027 232.486 66.6365 234.227 67.1113C235.969 67.4279 237.235 69.169 236.918 70.9101Z" fill="#D1EDFE"/>
<path d="M249.58 73.442C249.264 75.1831 247.523 76.2911 245.781 75.9745C244.04 75.6579 242.932 73.9168 243.249 72.1758C243.566 70.4347 245.307 69.3267 247.048 69.6433C248.789 69.9598 250.055 71.7009 249.58 73.442Z" fill="#D1EDFE"/>
<path d="M262.242 76.2914C261.768 78.0325 260.026 79.1405 258.285 78.6656C256.544 78.1908 255.436 76.4497 255.911 74.7086C256.386 72.9675 258.127 71.8596 259.868 72.3344C261.609 72.8092 262.717 74.5503 262.242 76.2914Z" fill="#D1EDFE"/>
<path d="M274.905 79.6152C274.431 81.3562 272.69 82.3059 270.948 81.9894C269.207 81.5145 268.258 79.7734 268.574 78.0323C269.049 76.2913 270.79 75.1833 272.531 75.6581C274.272 76.133 275.38 77.8741 274.905 79.6152Z" fill="#D1EDFE"/>
<path fill-rule="evenodd" clip-rule="evenodd" d="M236.066 94.4322C236.215 94.2159 236.291 93.9971 236.291 93.7762C236.291 89.318 205.394 85.7039 167.28 85.7039C129.167 85.7039 98.2697 89.318 98.2697 93.7762C98.2697 93.8868 98.2888 93.997 98.3265 94.1065H98.2637L0 261.31C51.9767 294.28 181.673 340.437 284.642 261.31L236.066 94.4322Z" fill="url(#paint7_linear)"/>
<defs>
<radialGradient id="paint0_radial" cx="0" cy="0" r="1" gradientUnits="userSpaceOnUse" gradientTransform="translate(69.1108 91.6301) scale(18.3587 7.81347)">
<stop stop-color="#D7E7FF"/>
<stop offset="1" stop-color="#D7E7FF" stop-opacity="0"/>
</radialGradient>
<radialGradient id="paint1_radial" cx="0" cy="0" r="1" gradientUnits="userSpaceOnUse" gradientTransform="translate(76.4995 104.717) scale(11.0789 4.71515)">
<stop stop-color="#D7E7FF"/>
<stop offset="1" stop-color="#D7E7FF" stop-opacity="0"/>
</radialGradient>
<radialGradient id="paint2_radial" cx="0" cy="0" r="1" gradientUnits="userSpaceOnUse" gradientTransform="translate(248.272 102.635) scale(11.0789 4.71518)">
<stop stop-color="#D7E7FF"/>
<stop offset="1" stop-color="#D7E7FF" stop-opacity="0"/>
</radialGradient>
<radialGradient id="paint3_radial" cx="0" cy="0" r="1" gradientUnits="userSpaceOnUse" gradientTransform="translate(254.417 91.6301) scale(18.3587 7.81347)">
<stop stop-color="#D7E7FF"/>
<stop offset="1" stop-color="#D7E7FF" stop-opacity="0"/>
</radialGradient>
<radialGradient id="paint4_radial" cx="0" cy="0" r="1" gradientUnits="userSpaceOnUse" gradientTransform="translate(110.292 82.256) scale(22.1577 9.43033)">
<stop stop-color="#D7E7FF"/>
<stop offset="1" stop-color="#D7E7FF" stop-opacity="0"/>
</radialGradient>
<radialGradient id="paint5_radial" cx="0" cy="0" r="1" gradientUnits="userSpaceOnUse" gradientTransform="translate(214.398 82.256) scale(22.1577 9.43033)">
<stop stop-color="#D7E7FF"/>
<stop offset="1" stop-color="#D7E7FF" stop-opacity="0"/>
</radialGradient>
<radialGradient id="paint6_radial" cx="0" cy="0" r="1" gradientUnits="userSpaceOnUse" gradientTransform="translate(163.808 80.97) scale(30.1851 12.8468)">
<stop stop-color="#D7E7FF"/>
<stop offset="1" stop-color="#D7E7FF" stop-opacity="0"/>
</radialGradient>
<linearGradient id="paint7_linear" x1="128.461" y1="69.9448" x2="128.461" y2="264.245" gradientUnits="userSpaceOnUse">
<stop offset="0.0266904" stop-color="#EFFCFF"/>
<stop offset="0.484375" stop-color="#00D4FF" stop-opacity="0.23"/>
<stop offset="1" stop-color="#00D4FF" stop-opacity="0"/>
</linearGradient>
</defs>
</svg>
