<svg width="457" height="531" viewBox="0 0 457 531" fill="none" xmlns="http://www.w3.org/2000/svg">
<path fill-rule="evenodd" clip-rule="evenodd" d="M457 0.625977C456.744 5.25662 456.116 9.80223 455.008 14.1175C451.642 27.4061 445.086 39.8088 436.936 50.794C422.584 70.1068 404.334 86.053 382.541 96.1523C379.706 97.747 376.694 99.1644 373.859 100.228C370.432 101.636 366.967 102.995 363.494 104.357L363.492 104.358C353.861 108.134 344.172 111.934 335.057 116.883C330.276 119.49 325.745 122.331 321.25 125.149L321.249 125.15C311.083 131.524 301.098 137.785 288.812 140.979C281.059 142.946 272.928 143.629 264.814 144.31H264.813C260.504 144.672 256.199 145.033 251.959 145.586C248.462 146.052 244.953 146.555 241.436 147.059C231.584 148.472 221.661 149.894 211.739 150.547C211.296 150.547 210.897 150.591 210.498 150.636C210.1 150.68 209.701 150.724 209.258 150.724C207.132 150.813 205.05 150.901 202.968 150.99C200.886 151.078 198.804 151.167 196.678 151.256H194.198H191.717H189.059C137.323 151.433 82.7508 141.865 40.4045 110.504C34.2032 105.897 28.0018 100.582 24.6354 93.6718C22.4936 89.2544 21.5654 84.3313 20.6283 79.361C20.325 77.7526 20.0209 76.139 19.6743 74.5363C18.0797 67.0947 15.0676 60.539 9.22064 55.5779C3.52554 50.8952 6.63813e-08 47.8398 6.63813e-08 42.5373C6.63813e-08 42.0418 0.0307808 41.5268 0.0934483 40.9889L0 41.0002L6.63813e-08 42.5373L0 531H457V0.625977Z" fill="#F8FBFF"/>
</svg>
