<svg width="91" height="134" viewBox="0 0 91 134" fill="none" xmlns="http://www.w3.org/2000/svg">
<path d="M68.0112 0.999877C68.0112 0.999877 78.4649 -0.458206 74.5669 17.9686C74.5669 17.9686 79.528 7.86931 85.5521 11.0586C91.5763 14.425 76.8703 30.9028 76.8703 30.9028C76.8703 30.9028 85.1978 22.5753 90.1589 28.5995C95.1199 34.6236 76.5159 47.9122 76.5159 47.9122C76.5159 47.9122 84.489 43.4827 88.0327 47.3807C91.7535 51.4558 77.0475 66.5162 68.0112 66.339V0.999877Z" fill="#878CF0"/>
<path d="M68.0108 66.516C68.0108 66.516 55.0766 65.2757 48.3437 55.708C43.2055 48.4435 47.8122 42.0651 58.6202 47.3805C58.6202 47.3805 42.3195 38.8758 47.1034 29.4852C50.6471 22.5751 59.6833 31.0798 59.6833 31.0798C59.6833 31.0798 43.9142 17.6141 51.8873 12.1215C57.5571 8.22349 62.341 17.9684 62.341 17.9684C62.341 17.9684 59.5061 1 68.0108 1V66.516Z" fill="#878CF0"/>
<path d="M76.5156 55.5309C75.0982 56.4168 73.8579 57.1255 72.4405 57.8342C71.3774 58.3658 70.1371 58.8973 69.074 59.2516L68.8969 43.3054C70.4915 42.7738 72.0861 42.0651 73.5035 41.1792C75.0982 40.2933 76.6928 39.2302 78.1103 38.1671C79.5277 37.104 80.9451 35.8638 82.3626 34.6235C83.6029 33.3832 85.0203 31.9658 86.0834 30.5483C85.0203 31.9658 83.6029 33.3832 82.1854 34.4463C80.768 35.6866 79.3505 36.7497 77.9331 37.8128C76.3384 38.8759 74.921 39.7617 73.1492 40.6476C71.7318 41.3564 70.3143 41.8879 68.8969 42.4194L68.7197 30.0168C70.1371 28.9537 71.5546 27.8906 72.972 26.8275C73.6807 26.296 74.3895 25.5873 74.921 24.8785C75.6297 24.1698 76.1613 23.4611 76.6928 22.7524C77.9331 21.3349 78.9962 19.9175 80.0593 18.3229C81.1223 16.7282 82.0082 15.1336 82.717 13.539C81.8311 15.1336 80.9452 16.7282 79.8821 18.3229C78.819 19.9175 77.7559 21.3349 76.5156 22.5752C75.9841 23.2839 75.2754 23.8155 74.5666 24.5242C73.8579 25.0557 73.1492 25.7645 72.4405 26.296C71.2002 27.3591 69.9599 28.245 68.5425 29.1309L68.3653 5.21143L67.8338 29.3081C66.5935 28.4222 65.176 27.7134 64.113 26.6503C62.6955 25.5873 61.4552 24.347 60.215 23.1067C58.9747 21.8665 57.7344 20.449 56.6713 19.2088C55.6082 17.7913 54.368 16.3738 53.4821 14.9564C54.368 16.551 55.4311 17.9685 56.4942 19.3859C57.5573 20.8034 58.7976 22.2208 60.0378 23.4611C61.2781 24.7014 62.5183 25.9417 63.9358 27.1819C65.176 28.245 66.5935 29.3081 68.011 30.194L67.6566 42.7738C66.2391 42.4195 64.6445 41.8879 63.4042 41.3564C61.8096 40.6477 60.215 39.7618 58.7975 38.6987C57.3801 37.6356 55.9626 36.5725 54.5452 35.3322C53.1277 34.0919 51.8875 32.8517 50.6472 31.6114C51.7103 33.0289 52.9506 34.2691 54.368 35.5094C55.6083 36.7497 57.0257 37.9899 58.4431 39.053C59.8606 40.1161 61.4552 41.002 63.0499 41.8879C64.4673 42.5966 66.062 43.1282 67.6566 43.6597L67.3022 59.606C66.0619 59.0745 64.6445 58.7201 63.4042 58.0114C61.8096 57.3027 60.215 56.4168 58.6203 55.5309C57.0257 54.645 55.6083 53.7591 54.1908 52.696C52.7734 51.6329 51.3559 50.5698 49.9385 49.5067C51.1787 50.747 52.5962 51.8101 54.0136 52.8732C55.4311 53.9363 56.8485 54.9993 58.4431 55.8852C59.8606 56.7711 61.4552 57.657 63.0499 58.5429C64.4673 59.2517 65.7076 59.7832 67.1251 60.3147L66.7707 78.9188H69.2512L69.074 60.3147C70.3143 59.7832 71.5546 59.2517 72.7948 58.5429C74.2123 57.8342 75.6298 56.9483 76.87 55.8852C78.1103 54.9993 79.5277 53.9363 80.5908 52.8732C81.831 51.8101 83.0713 50.747 84.1344 49.5067C83.0713 50.5698 81.831 51.6329 80.5908 52.696C79.1733 53.7591 77.9331 54.645 76.5156 55.5309Z" fill="#56548C"/>
<path d="M59.5059 90.6127C59.5059 90.6127 50.824 96.4596 41.6106 93.8019C34.7006 91.8529 34.169 85.4744 43.914 83.3483C43.914 83.3483 29.2079 86.3603 27.4361 77.8556C26.1959 71.6543 36.118 72.3631 36.118 72.3631C36.118 72.3631 19.1086 71.8315 21.5892 64.3899C23.1838 59.0745 31.1569 62.7953 31.1569 62.7953C31.1569 62.7953 21.0074 53.4295 26.5 49L59.5059 90.6127Z" fill="#878CF0"/>
<path d="M26.5 49C26.5 49 31.6891 42.774 38.5991 56.4169C38.5991 56.4169 36.6501 47.3807 42.1428 46.3176C47.6354 45.2545 46.7495 63.327 46.7495 63.327C46.7495 63.327 47.8125 53.9364 54.0139 55.1766C60.2152 56.4169 55.2541 74.3122 55.2541 74.3122C55.2541 74.3122 57.9119 67.4021 62.3414 68.1108C66.7709 68.8196 65.1763 85.829 59.3293 90.4357L26.5 49Z" fill="#878CF0"/>
<path d="M59.3293 79.2733C58.9749 80.5136 58.4434 81.7538 57.9119 82.8169C57.5575 83.7028 57.026 84.5887 56.4944 85.4746L48.1669 75.3753C48.8756 74.135 49.4072 72.8947 49.9387 71.6545C50.4703 70.237 51.0018 68.8196 51.3561 67.4021C51.7105 65.9847 52.0649 64.3901 52.242 62.9726C52.4192 61.5552 52.5964 59.9605 52.4192 58.5431C52.4192 59.9605 52.2421 61.5552 52.0649 62.9726C51.8877 64.3901 51.5334 65.9847 51.0018 67.4021C50.6474 68.8196 50.1159 70.237 49.4072 71.6545C48.8757 72.8947 48.3441 73.9579 47.6354 75.0209L41.2569 67.2249C41.6112 65.8075 42.1428 64.3901 42.32 62.9726C42.4971 62.2639 42.4971 61.5552 42.6743 60.6693C42.6743 59.9605 42.8515 59.2518 42.8515 58.3659C42.8515 56.9484 42.8515 55.3538 42.6743 53.9364C42.4971 52.5189 42.3199 50.9243 41.9656 49.5068C42.3199 50.9243 42.4971 52.5189 42.4971 53.9364C42.6743 55.3538 42.6743 56.9484 42.4971 58.3659C42.4971 59.0746 42.32 59.7834 42.32 60.6693C42.1428 61.378 42.1427 62.0867 41.9656 62.7954C41.7884 64.0357 41.434 65.276 40.9025 66.5162L28.4998 51.4558L40.3709 67.0478C39.1307 67.225 37.8904 67.4021 36.6501 67.4021C35.2327 67.4021 33.8152 67.4021 32.2206 67.2249C30.8032 67.0478 29.3857 66.8706 27.9683 66.5162C26.5508 66.1619 25.1334 65.8075 23.7159 65.4531C25.1334 65.9847 26.5508 66.3391 27.9683 66.6934C29.3857 67.0478 30.8032 67.225 32.2206 67.5793C33.6381 67.7565 35.0555 67.9337 36.6501 67.9337C38.0676 67.9337 39.485 67.9337 40.9025 67.7565L47.1038 75.9069C46.0407 76.4384 44.8005 76.7927 43.5602 77.1471C42.1427 77.5015 40.7253 77.6786 39.3079 77.8558C37.8904 78.033 36.473 78.033 34.8783 77.8558C33.4609 77.8558 32.0434 77.6787 30.4488 77.5015C31.8662 77.8558 33.2837 78.033 34.8783 78.033C36.2958 78.2102 37.8904 78.2102 39.3079 78.2102C40.7253 78.2102 42.3199 78.033 43.7374 77.6787C44.9776 77.3243 46.2179 76.9699 47.4582 76.4384L55.4313 86.7149C54.3683 87.0692 53.3051 87.4236 52.242 87.778C50.8246 88.1323 49.4072 88.4867 47.9897 88.6639C46.5723 88.841 45.1548 89.0183 43.7374 89.1954C42.3199 89.3726 40.9025 89.3726 39.485 89.3726C40.9025 89.3726 42.3199 89.3726 43.7374 89.3726C45.1548 89.3726 46.5723 89.1954 47.9897 89.0182C49.4072 88.8411 50.8246 88.6639 52.242 88.3095C53.4823 88.1323 54.5454 87.778 55.7857 87.2464L64.9991 99.2947L66.5937 98.0545L57.026 86.3605C57.5575 85.4746 58.089 84.4115 58.4434 83.3484C58.9749 82.1082 59.3293 80.8679 59.6837 79.6276C60.038 78.3873 60.3924 77.1471 60.5696 75.7297C60.7468 74.4894 60.9239 73.0719 61.1011 71.8317C60.9239 73.0719 60.7467 74.4894 60.3924 75.7297C60.038 76.7927 59.6837 78.033 59.3293 79.2733Z" fill="#56548C"/>
<path d="M16.8054 74.6665C17.337 76.4383 16.9826 78.5645 16.9826 80.5135C16.9826 82.6397 16.8054 84.5887 17.6913 86.5377C18.4001 88.3095 21.4122 87.7779 21.7665 86.0061C22.2981 83.7028 21.4122 81.5766 20.5262 79.6276C20.1719 78.7417 19.6404 77.8558 19.1088 77.1471C18.5773 76.2611 17.8686 75.5524 17.337 74.6665C17.1598 74.135 16.6283 74.3122 16.8054 74.6665Z" fill="#B1B2F3"/>
<path d="M5.4661 83.88C7.23791 84.9431 7.76949 87.0693 8.65539 88.8411C9.5413 90.6129 10.7816 93.2706 13.0849 93.625C14.8567 93.8022 16.097 92.2075 15.2111 90.6129C14.6795 89.5498 13.7936 89.0183 12.9077 88.3096C12.199 87.6008 11.4902 86.8921 10.6043 86.0062C9.89562 85.2975 9.00972 84.7659 8.12382 84.2344C7.41509 83.7028 6.5292 83.3485 5.6433 82.9941C5.28893 82.9941 5.11174 83.7029 5.4661 83.88Z" fill="#B1B2F3"/>
<path d="M32.9287 76.0839C32.0428 76.261 31.5113 76.6154 30.8026 77.3241C30.0939 78.0329 29.5623 78.9188 29.0308 79.6275C28.4992 80.3362 27.7905 81.2222 27.0818 82.1081C26.373 83.1711 24.9556 84.2342 24.7784 85.4745C24.424 87.0691 25.6643 88.8409 27.4361 88.3094C29.7394 87.6007 31.5113 84.4114 32.0428 82.1081C32.22 81.2222 32.22 80.3362 32.3972 79.4503C32.5744 78.7416 32.5744 77.3242 33.2831 76.7926C33.6375 76.6154 33.2831 75.9067 32.9287 76.0839Z" fill="#B1B2F3"/>
<path d="M38.0676 94.8652C37.1817 94.8652 36.1187 94.1565 35.2328 93.8021C34.1697 93.2706 33.2837 92.7391 32.2207 92.3847C30.9804 91.8532 30.2717 91.4988 29.0314 90.9673C27.614 90.4357 25.8422 90.6129 25.4878 92.3847C24.9563 95.3968 29.563 96.4598 31.6891 96.4598C32.9294 96.4598 33.9925 96.2827 35.2328 96.1055C36.1187 95.9283 37.0046 95.574 37.8905 95.2196C38.2448 95.2196 38.2448 94.8652 38.0676 94.8652Z" fill="#B1B2F3"/>
<path d="M32.3977 105.142C32.0434 103.902 30.9802 102.661 30.2715 101.421C29.5628 100.004 28.8541 98.2318 27.791 97.1687C26.3735 95.7513 23.5387 97.1687 24.2474 99.2949C24.9561 101.244 26.5508 102.484 28.1454 103.547C29.2085 104.433 30.8031 105.496 32.3977 105.496C32.3977 105.496 32.5749 105.319 32.3977 105.142Z" fill="#B1B2F3"/>
<path d="M12.9074 109.749C13.2617 109.217 13.7932 108.863 14.3248 108.331C15.0335 107.622 15.5651 106.914 16.2738 106.205C17.5141 104.787 19.6403 102.838 19.2859 100.889C18.9315 99.6492 17.3369 98.9405 16.2738 99.6492C15.3879 100.181 14.8563 101.244 14.3248 102.13C13.7932 103.016 13.2617 103.902 12.7302 104.787C12.0214 106.205 11.1356 107.977 12.0215 109.571C12.3758 109.926 12.7302 109.926 12.9074 109.749Z" fill="#B1B2F3"/>
<path d="M0.859457 99.2946C1.56818 99.8262 2.63131 100.003 3.34003 100.181C4.40312 100.535 5.46619 100.889 6.52927 101.066C9.00981 101.421 11.8447 100.712 13.9709 99.649C15.3883 98.9403 15.2111 96.2826 13.4393 95.9282C10.9588 95.5739 8.83261 96.9913 6.35208 97.1685C5.28899 97.1685 4.22593 97.3457 3.16284 97.5228C2.27694 97.7 1.03667 97.8772 0.505127 98.7631C0.505127 98.9403 0.682276 99.1175 0.859457 99.2946Z" fill="#B1B2F3"/>
<path d="M35.5867 95.0426C32.7518 95.0426 30.2712 93.6251 27.6135 92.9164C25.6645 92.3848 23.3612 92.562 21.4122 93.0936C21.5893 92.562 21.9437 92.2077 22.2981 91.8533C23.5383 90.6131 24.6015 89.1956 25.4874 87.7781C26.5504 86.1835 27.6135 84.5889 28.6766 82.9943C29.2081 82.1084 29.7397 81.3996 30.094 80.5137C30.4484 79.805 30.6256 78.9191 31.3343 78.3876C31.3343 78.3876 31.3343 78.2104 31.1571 78.2104C30.6256 78.5647 30.4484 79.2734 30.094 79.805C29.5625 80.8681 29.0309 81.754 28.3222 82.6399C27.0819 84.4117 25.8417 86.3607 24.6015 88.1325C24.0699 89.0184 23.3612 89.7271 22.6525 90.613C22.1209 91.3218 21.4122 91.8533 20.8806 92.562C20.8806 92.7392 20.7035 92.7392 20.7035 92.9164C20.7035 92.562 20.7034 92.2077 20.5263 91.8533C20.3491 90.4359 19.9947 88.8413 19.8175 87.4238C19.6404 86.0064 19.4632 84.4117 19.1088 82.9943C18.7545 81.2225 18.0458 79.4507 17.5142 77.6788C17.5142 77.5017 17.337 77.6788 17.337 77.6788C17.8686 79.2735 18.4001 80.8681 18.7545 82.4627C19.1088 84.0573 19.1088 85.4748 19.286 87.0694C19.4632 88.4869 19.8176 90.0815 19.9947 91.4989C20.1719 92.2077 20.1719 93.0936 20.1719 93.8023C17.8686 93.0936 15.388 93.0936 13.439 91.6761C11.3128 90.4359 9.71824 88.3097 8.47797 86.1835C8.47797 86.1835 8.30079 86.1835 8.47797 86.1835C9.71824 88.3097 11.1357 90.2587 13.0847 91.6761C15.0337 93.0936 17.5142 93.6251 19.8175 94.1567C17.6914 95.5741 15.2108 96.2828 12.7303 96.9916C10.0726 97.7003 7.23768 98.5862 4.57997 98.9406C4.40279 98.9406 4.57997 99.1177 4.57997 99.1177C7.41486 98.7633 10.2498 97.8775 13.0847 97.1688C15.5652 96.6372 17.8686 95.9284 19.9947 94.6882C19.8176 95.2197 19.8175 95.7513 19.6404 96.2829C19.1088 97.5231 18.4001 98.5862 17.8685 99.6493C16.4511 101.953 15.0337 104.256 13.6162 106.737C15.0337 104.433 16.8055 102.307 18.0457 100.004C18.7545 98.9405 19.286 97.8775 19.8175 96.8144C19.9947 96.46 20.1719 95.9284 20.3491 95.5741C20.3491 95.9284 20.3491 96.1056 20.3491 96.46C20.5263 98.5862 21.0578 100.89 21.4122 102.839C21.9437 106.205 22.2981 109.571 22.6525 112.761C23.184 116.127 23.3612 119.671 23.5384 123.214C23.7155 126.581 23.7156 129.947 24.6015 133.136C24.9558 134.554 27.082 134.022 26.7276 132.605C26.0189 129.239 25.6645 126.049 25.4874 122.683C25.133 119.316 24.6014 116.304 24.0699 112.938C23.5383 109.749 23.0068 106.559 22.2981 103.37C21.7665 100.89 21.0578 98.409 20.8806 95.9285L21.0578 95.7513C21.0578 95.5741 21.0578 95.5741 21.0578 95.3969C22.2981 96.9916 24.4242 97.8775 25.6645 99.2949C26.5504 100.181 27.2592 100.89 27.9679 101.953C28.6766 102.839 29.2081 103.547 30.094 104.256C30.2712 104.256 30.2712 104.079 30.2712 104.079C29.2081 103.37 28.4994 102.307 27.7907 101.421C27.2592 100.712 26.5504 100.004 25.8417 99.2949C24.2471 97.7003 22.2981 96.6372 21.0578 94.6882C21.0578 94.511 21.0578 94.511 21.0578 94.3339V94.1567C23.3612 93.2708 26.0189 93.2707 28.3222 93.9795C30.9799 94.1566 33.1061 95.2197 35.5867 95.0426C35.7638 95.0426 35.7638 95.2197 35.5867 95.0426Z" fill="#56548C"/>
</svg>
