<svg width="210" height="100" viewBox="0 0 210 100" fill="none" xmlns="http://www.w3.org/2000/svg">
<path d="M38.7191 86.3803C38.7191 86.3803 26.6708 90.987 16.3943 85.3172C8.59832 81.0648 9.83855 73.2689 22.064 73.446C22.064 73.446 3.63722 72.9145 3.99158 62.4608C4.16876 54.6649 16.0399 58.2085 16.0399 58.2085C16.0399 58.2085 -4.15875 52.8931 0.802317 44.5655C4.34594 38.5414 12.6735 45.2743 12.6735 45.2743C12.6735 45.2743 2.75131 31.277 10.5473 27.5562L38.7191 86.3803Z" fill="#878CF0"/>
<path d="M10.5464 27.5563C10.5464 27.5563 18.6967 21.5322 23.1263 39.959C23.1263 39.959 23.1262 28.6194 30.0363 28.9738C36.9464 29.3282 30.9222 50.7671 30.9222 50.7671C30.9222 50.7671 34.8202 39.7818 41.7303 42.9711C48.8175 46.1604 38.0094 66.359 38.0094 66.359C38.0094 66.359 43.1477 58.9174 48.286 60.8664C53.2471 62.8154 46.8685 82.8368 38.541 86.7348L10.5464 27.5563Z" fill="#878CF0"/>
<path d="M41.5536 72.9148C40.6677 74.3323 39.7818 75.5726 38.8959 76.8128C38.1872 77.6987 37.3013 78.7618 36.4154 79.6477L29.3281 65.2961C30.3912 64.0558 31.6315 62.8155 32.5174 61.3981C33.5805 59.9806 34.6436 58.386 35.3523 56.6142C36.2382 55.0195 36.9469 53.2477 37.6557 51.4759C38.3644 49.7041 38.8959 47.9323 39.0731 46.1605C38.7187 47.9323 38.01 49.7041 37.4785 51.4759C36.7697 53.2477 36.061 54.8424 34.9979 56.437C34.112 58.0317 33.0489 59.6262 31.9858 61.0437C31.0999 62.284 30.0368 63.5242 28.9737 64.5873L23.4812 53.4249C24.3671 51.8303 25.253 50.2356 25.7845 48.641C26.1389 47.7551 26.4932 46.8692 26.6704 45.9833C26.8476 45.0974 27.2019 44.2115 27.3791 43.3256C27.9107 41.5538 28.265 39.782 28.4422 37.833C28.6194 36.0612 28.7966 34.1122 28.7966 32.3404C28.7966 34.1122 28.6194 36.0612 28.265 37.833C27.9107 39.6048 27.5563 41.3766 27.0248 43.1484C26.8476 44.0343 26.4933 44.9203 26.1389 45.8062C25.7845 46.6921 25.4302 47.578 25.0758 48.2867C24.3671 49.7041 23.6583 51.1216 22.7724 52.539L12.1416 31.1001L22.2409 52.8934C20.6463 52.7162 19.2288 52.539 17.6342 52.1846C15.8624 51.8303 14.0906 51.2987 12.4959 50.7672C10.7241 50.2357 9.12949 49.5269 7.53486 48.8182C5.94023 48.1095 4.34561 47.2236 2.75098 46.3377C4.34561 47.2236 5.76305 48.1095 7.53486 48.9954C9.12949 49.7041 10.7241 50.59 12.4959 51.1216C14.0906 51.8303 15.8624 52.3618 17.6342 52.7162C19.2288 53.2478 21.0006 53.4249 22.7724 53.6021L28.0878 64.9417C26.6704 65.2961 25.0758 65.4732 23.4812 65.4732C21.7094 65.4732 19.9376 65.2961 18.1657 65.1189C16.3939 64.7645 14.6221 64.4101 12.8503 64.0558C11.0785 63.5242 9.48386 62.9927 7.71205 62.284C9.30668 62.9927 11.0785 63.7014 12.6731 64.233C14.4449 64.7645 16.2167 65.296 17.9886 65.4732C19.7604 65.8276 21.5322 66.0048 23.304 66.0048C24.8986 66.0048 26.4932 65.8276 28.265 65.4732L34.8208 80.0021C33.4033 80.1793 31.9859 80.3565 30.5684 80.3565C28.7966 80.3565 27.0248 80.3565 25.253 80.1793C23.4812 80.0021 21.7094 79.8249 19.9376 79.6477C18.1657 79.4705 16.3939 79.1162 14.7993 78.5847C16.5711 79.1162 18.1657 79.4705 19.9376 79.8249C21.7094 80.1792 23.4812 80.3564 25.253 80.5336C27.0248 80.7108 28.7966 80.888 30.5684 80.888C32.1631 80.888 33.5805 80.888 35.1751 80.7108L42.9711 97.543L45.0972 96.4799L36.7698 79.8249C37.6557 78.7618 38.5416 77.8759 39.2503 76.6356C40.1362 75.3954 41.0221 73.9779 41.7308 72.5605C42.4395 71.143 43.1483 69.7256 43.857 68.3081C44.5657 66.8907 45.0973 65.296 45.6288 63.8786C45.0973 65.4732 44.3885 66.8907 43.6798 68.3081C43.1483 70.0799 42.4395 71.4974 41.5536 72.9148Z" fill="#56548C"/>
<path d="M151.406 84.4314C151.406 84.4314 137.408 74.3321 136.168 58.9173C135.282 47.2234 144.673 42.7939 153.532 56.4368C153.532 56.4368 140.598 35.5294 152.469 28.265C161.328 22.7724 165.934 38.5415 165.934 38.5415C165.934 38.5415 157.075 12.3187 170.01 11.61C179.223 11.0784 177.983 25.2529 177.983 25.2529C177.983 25.2529 186.31 4.16839 196.055 10.0154L151.406 84.4314Z" fill="#878CF0"/>
<path d="M196.233 10.0156C196.233 10.0156 208.813 14.7995 191.803 33.0492C191.803 33.0492 204.383 24.7216 209.167 32.6948C213.774 40.6679 185.779 49.527 185.779 49.527C185.779 49.527 200.839 45.629 202.434 55.9055C204.029 66.0048 173.908 68.8398 173.908 68.8398C173.908 68.8398 186.133 69.0169 187.551 76.1041C188.968 83.1914 162.037 90.4558 151.76 84.2545L196.233 10.0156Z" fill="#878CF0"/>
<path d="M168.593 77.5212C166.467 77.6984 164.34 77.5212 162.214 77.344C160.62 77.1668 159.025 76.9896 157.43 76.6353L168.061 58.2085C170.187 58.5628 172.491 58.9172 174.794 58.9172C177.275 59.0944 179.755 58.9172 182.236 58.74C184.716 58.5628 187.197 58.0312 189.5 57.4997C191.804 56.9681 194.284 56.2594 196.587 55.1964C194.284 56.0823 191.981 56.6138 189.5 57.1454C187.02 57.6769 184.716 58.0313 182.236 58.0313C179.755 58.2084 177.275 58.2084 174.971 58.0313C172.845 57.8541 170.896 57.4997 168.77 57.1454L177.098 42.7937C179.401 42.6165 181.881 42.4393 184.185 41.9078C185.425 41.7306 186.665 41.3762 187.728 41.0219C188.969 40.6675 190.032 40.3131 191.272 39.9588C193.575 39.0729 195.879 38.187 198.005 37.1239C200.131 36.0608 202.257 34.8206 204.383 33.4031C202.257 34.8206 200.131 35.8836 198.005 36.9467C195.702 38.0098 193.575 38.8957 191.095 39.6044C189.855 39.9588 188.791 40.3132 187.551 40.4904C186.311 40.6675 185.248 41.0219 184.008 41.1991C181.881 41.5534 179.755 41.7306 177.806 41.7306L193.753 14.0903L176.743 41.1991C175.857 39.4273 174.971 37.4782 174.263 35.5293C173.377 33.2259 172.668 31.0997 172.136 28.7964C171.605 26.493 171.073 24.1897 170.719 21.8863C170.365 19.583 170.01 17.1025 169.833 14.7991C169.833 17.1025 170.01 19.583 170.365 21.8863C170.719 24.1897 171.073 26.6702 171.605 28.9736C172.136 31.2769 172.845 33.5803 173.554 35.8836C174.263 38.0098 175.149 40.136 176.212 42.2622L167.353 56.4366C165.935 55.0192 164.518 53.4246 163.455 51.8299C162.214 49.8809 160.974 47.7548 159.911 45.6286C158.848 43.5024 157.962 41.199 157.253 38.8957C156.545 36.5923 155.836 34.289 155.481 31.9856C155.836 34.289 156.367 36.7695 157.076 39.0729C157.785 41.3762 158.493 43.6796 159.379 45.8058C160.265 47.932 161.506 50.2353 162.746 52.1843C163.986 53.9561 165.226 55.7279 166.821 57.3226L155.659 75.2178C154.418 73.8003 153.355 72.3829 152.292 70.7883C150.875 68.8393 149.634 66.8903 148.571 64.7641C147.331 62.638 146.268 60.689 145.382 58.5628C144.319 56.4366 143.433 54.3105 142.724 52.0071C143.433 54.3105 144.319 56.4366 145.205 58.74C146.091 60.8662 147.154 62.9923 148.217 65.1185C149.28 67.2447 150.52 69.1937 151.761 71.3198C152.824 73.0917 154.064 74.6863 155.304 76.2809L142.193 97.1883L145.028 98.7829L157.43 77.344C159.202 77.6984 160.974 77.8755 162.746 77.8755C164.872 77.8755 166.998 77.8756 169.124 77.6984C171.251 77.5212 173.377 77.1668 175.503 76.8125C177.629 76.4581 179.755 75.9265 181.704 75.395C179.578 75.9265 177.452 76.2809 175.503 76.4581C172.845 77.344 170.719 77.5212 168.593 77.5212Z" fill="#56548C"/>
<path d="M83.5454 1.15674C84.9629 4.346 89.038 6.47217 94.7078 8.24398C95.7709 12.4963 97.5427 16.5715 97.8971 20.8238C98.2514 19.4064 98.4286 17.8118 98.4286 16.3943C98.4286 13.9138 98.0743 11.4332 97.7199 9.12989C100.2 9.83861 102.858 10.3702 105.693 11.0789C107.465 15.6856 107.996 20.8238 107.819 25.7849C107.819 29.5057 107.288 33.0493 106.756 36.5929C107.642 35.1755 108.528 33.5809 109.237 32.1634C109.945 30.5688 110.654 28.9741 111.186 27.3795C111.54 25.7849 111.717 24.0131 111.717 22.4185C111.717 19.052 111.363 15.5084 110.831 12.142C113.843 12.8507 117.033 13.5594 120.222 14.2681C120.399 15.154 120.576 15.8627 120.753 16.7486C122.171 25.0762 121.285 33.5809 118.45 41.3769C118.804 41.0225 118.982 40.6681 119.159 40.3138C120.576 38.3648 121.816 36.4158 123.057 34.2896C123.765 32.8722 124.474 31.4547 124.829 29.8601C126.069 25.2534 125.183 20.4695 124.651 15.5084C128.195 16.5715 131.561 17.8118 134.574 19.2292C134.574 22.2413 134.396 25.2533 134.219 28.2654C134.042 29.6829 134.042 30.9232 133.688 32.3406C133.333 34.1124 132.625 35.707 132.093 37.3017C129.612 43.8574 126.6 50.4131 122.348 55.9057C123.411 55.1969 124.297 54.1339 125.36 53.248C133.688 44.9204 138.472 33.4037 139.357 21.5326C142.015 23.1272 144.496 25.0762 146.445 27.3795C147.685 28.797 148.748 30.2145 149.811 31.6319C149.811 34.9983 149.457 38.5419 148.925 41.9084C148.394 44.5661 147.862 47.2238 146.622 49.5271C145.913 50.9446 144.85 52.1849 143.964 53.4251C139.003 59.6265 132.802 64.7647 126.423 69.5486C136.345 66.3594 145.559 59.9808 151.229 51.299C152.823 48.8184 154.241 46.1607 155.658 43.6802C158.67 53.9567 157.076 64.5875 149.102 72.7379C136.7 85.4949 119.159 80.8882 119.159 80.8882L83.5454 1.15674Z" fill="#B1B2F3"/>
<path d="M118.805 81.0652C118.805 81.0652 107.288 99.6692 88.3296 99.1376C78.5846 98.9604 70.4343 91.8732 65.296 83.3685C67.245 84.2544 69.1941 84.9632 71.1431 85.4947C77.1672 87.2665 83.5457 86.7349 89.5699 84.9631C93.8222 83.7229 97.8974 81.9511 101.795 79.8249C97.543 80.3564 93.1135 80.5336 88.684 80.5336C86.3806 80.5336 84.0773 80.7108 81.7739 80.1793C79.6477 79.8249 77.6988 78.939 75.7498 78.2303C73.4464 77.3444 71.143 76.4584 69.0169 75.2182C64.9417 72.9148 61.5753 69.7256 58.7404 66.0048C58.386 63.8786 58.386 61.9296 58.7404 60.1578C59.0947 57.6773 59.6263 55.3739 60.1578 52.8934C61.5753 54.1337 62.8156 55.5511 64.233 56.7914C65.6505 58.2088 67.245 59.6263 68.8397 60.8666C70.6115 62.1068 72.3833 63.1699 74.3323 63.8786C80.3564 66.5363 86.9122 67.7766 93.4679 67.5994C90.4558 66.8907 87.4437 65.8276 84.6088 64.5873C82.1283 63.5242 79.8249 62.1068 77.3444 60.6894C75.2182 59.4491 73.092 58.2088 70.9659 56.7914C67.4222 54.3108 64.4102 51.4759 61.5753 48.2867C62.6384 45.2746 63.8786 42.4397 65.1189 39.6048C66.8907 42.0854 68.8397 44.2115 70.9659 46.1605C75.041 49.8813 80.0021 52.539 85.4947 52.8934C86.3806 53.0706 87.2665 53.0705 88.3296 53.0705C83.3685 51.1216 78.7618 48.4638 74.5095 45.0974C73.2692 44.2115 72.2062 43.1484 71.3202 41.9082C69.5484 39.9592 68.3081 37.6558 67.2451 35.1753C68.6625 32.5176 70.0799 29.8598 71.6746 27.3793C73.8007 31.1001 76.6357 34.2894 80.0021 36.7699C82.6598 38.7189 85.4947 40.1364 88.684 41.0223C86.2034 39.4276 84.0772 37.3015 82.3054 34.9981C79.1162 30.9229 76.99 26.139 75.3954 21.3551C76.4585 19.5833 77.5215 17.8115 78.5846 16.0397C80.3564 19.229 82.837 21.8867 85.4947 24.1901C83.0142 20.8236 81.2424 17.28 80.0021 13.2048C83.0142 7.7122 84.6088 3.4599 83.3685 0.625L118.805 81.0652Z" fill="#B1B2F3"/>
<path d="M136.877 70.4342C135.282 71.3201 133.687 72.0288 132.093 72.7375C130.498 73.269 128.726 73.9777 126.954 74.3321C123.765 75.0408 120.399 75.3952 117.032 75.218L113.666 67.9536C117.387 66.5362 120.93 64.7644 124.12 62.6382C125.005 62.1067 125.891 61.3979 126.777 60.8664C127.663 60.1577 128.372 59.6261 129.258 58.9174C130.852 57.4999 132.27 56.0825 133.687 54.4879C136.522 51.2986 138.648 47.755 140.42 44.0342C142.192 40.1362 143.432 36.2382 143.787 31.9858C143.255 36.061 142.015 40.1362 140.243 43.857C138.471 47.5778 136.168 51.1214 133.333 54.1335C131.916 55.7281 130.498 57.1455 128.903 58.3858C128.195 59.0945 127.309 59.6261 126.423 60.3348C125.537 60.8664 124.651 61.5751 123.765 62.1066C120.399 64.2328 116.855 65.8274 113.311 67.2449L109.236 58.2087L112.957 55.3738C114.197 54.3107 115.615 53.0704 116.855 52.0073L118.627 50.2355C118.981 49.8812 119.336 49.704 119.513 49.3496L120.399 48.2865C120.93 47.5778 121.462 47.0462 122.171 46.3375L123.765 44.2113C125.714 41.3764 127.309 38.1872 128.372 34.9979C129.435 31.6315 130.144 28.265 129.612 24.7214C129.789 28.265 129.081 31.6315 128.018 34.8208C126.777 38.01 125.183 41.0221 123.234 43.857L121.639 45.9831C121.107 46.6919 120.576 47.2234 119.867 47.9321L118.981 48.818C118.627 49.1724 118.273 49.3496 118.095 49.7039L116.146 51.4758C114.906 52.5388 113.489 53.602 112.071 54.6651L108.35 57.1456L105.161 50.2355C106.047 49.1724 106.933 48.1093 107.819 47.0462L109.059 45.2744C109.236 44.9201 109.591 44.7429 109.768 44.3885L110.299 43.5026L111.54 41.5536L112.603 39.6047C112.78 39.2503 112.957 38.8959 113.134 38.5416L113.489 37.4785C113.666 36.7697 114.02 36.061 114.197 35.3523C115.26 32.5174 115.792 29.6825 115.969 26.6704C116.146 23.6583 116.146 20.8235 115.438 17.9886C115.969 20.8235 115.969 23.8355 115.615 26.6704C115.261 29.5053 114.552 32.3402 113.489 35.1751C113.311 35.8839 112.957 36.5925 112.603 37.1241L112.248 38.1872C112.071 38.5415 111.894 38.8959 111.717 39.0731L110.654 41.0221L109.414 42.7939L108.882 43.6798C108.705 44.0342 108.528 44.2113 108.173 44.5657L106.756 46.3375C106.047 47.2234 105.161 48.1093 104.275 48.9952L99.3142 38.1872C100.023 36.2382 100.554 34.2892 100.909 32.3402C101.263 30.3912 101.618 28.4423 101.618 26.3161C101.972 22.4181 101.972 18.3429 101.618 14.4449C101.795 18.3429 101.618 22.4181 101.086 26.3161C100.909 28.2651 100.554 30.214 100.023 32.163C99.6685 33.7577 99.137 35.3523 98.6055 36.7698L87.9746 13.3818L98.2511 37.3013C96.3021 37.1241 94.3531 36.5926 92.4041 35.8838C90.278 34.9979 88.3289 33.9349 86.5571 32.5174C84.7853 31.1 83.1907 29.5053 81.5961 27.9107C80.1786 26.1389 78.7612 24.3671 77.5209 22.4181C78.584 24.3671 80.0014 26.3161 81.4189 28.0879C82.8363 29.8597 84.431 31.4543 86.2028 33.0489C87.9746 34.4664 89.9236 35.7067 92.0498 36.7698C94.1759 37.8328 96.4793 38.3644 98.7827 38.5416L103.389 49.3496C102.149 49.5268 100.732 49.5268 99.4914 49.5268C97.8968 49.5268 96.4793 49.3496 94.8847 48.9952C91.8726 48.4637 88.8605 47.4006 86.2028 46.1603C83.3679 44.9201 80.7102 43.3254 78.0525 41.7308C75.5719 39.959 73.0914 38.1872 70.788 36.061C72.9142 38.1872 75.3947 40.1362 77.8753 42.0852C80.3558 43.857 83.0135 45.4516 85.8484 46.869C88.6833 48.2865 91.6954 49.3496 94.7075 49.8811C96.3021 50.2355 97.8967 50.4127 99.3142 50.5899C100.732 50.5899 102.149 50.5898 103.744 50.4127L106.756 57.4999C103.389 58.7402 99.8457 59.6261 96.3021 59.6261C92.5813 59.8033 88.6833 59.2718 84.9625 58.2087C81.2417 57.1456 77.6981 55.7281 74.3317 53.9563C70.9652 52.1845 67.776 50.0583 64.7639 47.5778C67.5988 50.0583 70.788 52.3617 74.1545 54.3107C77.5209 56.2597 81.0645 57.8543 84.7853 58.9174C88.5061 59.9805 92.4041 60.6892 96.3021 60.6892C100.023 60.6892 103.744 59.9805 107.11 58.7402L111.008 67.9536C107.465 69.9026 103.567 71.6744 99.4914 72.7375C97.3652 73.269 95.239 73.6234 93.1129 73.8006C90.9867 73.9778 88.6833 73.9778 86.5571 73.8006C82.1276 73.4462 77.8753 72.3831 73.8001 70.7885C71.8511 69.9026 69.7249 69.0167 67.9531 67.7764C66.0041 66.7134 64.2323 65.2959 62.6377 63.8784C64.2323 65.2959 66.0041 66.7134 67.9531 67.9536C69.9021 69.1939 71.8511 70.257 73.8001 71.1429C77.8753 72.9147 82.1276 74.1549 86.5571 74.5093C88.6833 74.6865 90.9867 74.6865 93.29 74.5093C95.5934 74.3321 97.7195 73.9777 99.8457 73.4462C103.921 72.3831 107.819 70.9657 111.54 69.0167L114.729 76.2811C112.426 79.2932 109.768 81.9509 106.756 84.2543C106.047 84.963 105.161 85.4945 104.275 86.0261C103.389 86.5576 102.681 87.0891 101.795 87.6207C100.023 88.6838 98.2511 89.3925 96.3021 90.1013C92.5813 91.5187 88.5062 92.0502 84.6082 92.2274C80.533 92.2274 76.635 91.6959 72.737 90.4556C76.4578 91.873 80.533 92.4046 84.6082 92.5818C88.6834 92.5818 92.7585 92.0502 96.4793 90.81C98.4283 90.1012 100.2 89.3925 102.149 88.5066C103.035 88.1522 103.921 87.4435 104.807 87.0892C105.693 86.5576 106.579 86.0261 107.287 85.3173C110.299 83.1912 112.957 80.7106 115.26 77.8757L124.297 99.1374L126.423 98.2515L116.855 77.3442C120.044 77.3442 123.234 76.9898 126.423 76.1039C128.195 75.5724 129.967 75.0408 131.561 74.3321C133.156 73.6234 134.928 72.9147 136.345 71.8516C139.534 70.0798 142.369 67.7764 144.85 65.2959C147.507 62.8154 149.811 60.1576 151.76 56.9684C149.811 59.9805 147.33 62.6382 144.673 64.9415C142.901 66.7133 140.066 68.6623 136.877 70.4342Z" fill="#56548C"/>
</svg>
