<svg width="199" height="199" viewBox="0 0 199 199" fill="none" xmlns="http://www.w3.org/2000/svg">
<path d="M62.3735 83.2875C58.7898 97.4541 53.1428 116.92 57.7038 127.734C63.4595 141.576 88.8711 155.202 93.6494 162.88C97.9933 169.91 100.274 184.076 104.401 199H198.988C199.097 195.864 198.445 192.295 197.034 188.294C195.296 183.644 176.509 189.483 173.142 185.05C171.622 182.995 185.848 170.883 184.219 168.828C164.346 144.496 138.5 138.44 130.898 120.597C128.292 114.324 117.649 123.192 115.477 118.326C114.717 116.704 127.532 110.215 127.532 108.377C127.64 97.5623 129.269 75.9338 125.251 67.1742C122.319 60.7938 114.283 53.4401 106.464 46.8434C104.726 45.4376 94.4096 54.9541 92.7806 53.6564C87.3508 49.1144 102.12 42.734 100.165 39.8142C94.6268 31.5953 81.3779 -5.3894 64.8712 0.666578C52.5998 5.20856 59.55 61.1183 64.8712 73.1221C65.5228 74.5279 82.7897 76.2582 82.3554 78.0966C81.8124 79.7188 62.8079 81.4491 62.3735 83.2875Z" fill="url(#paint0_linear)"/>
<path d="M62.3735 83.2875C58.7898 97.4541 53.1428 116.92 57.7038 127.734C63.4595 141.576 88.8711 155.202 93.6494 162.88C97.9933 169.91 100.274 184.076 104.401 199H198.988C199.097 195.864 198.445 192.295 197.034 188.294C195.296 183.644 176.509 189.483 173.142 185.05C171.622 182.995 185.848 170.883 184.219 168.828C164.346 144.496 138.5 138.44 130.898 120.597C128.292 114.324 117.649 123.192 115.477 118.326C114.717 116.704 127.532 110.215 127.532 108.377C127.64 97.5623 129.269 75.9338 125.251 67.1742C122.319 60.7938 114.283 53.4401 106.464 46.8434C104.726 45.4376 94.4096 54.9541 92.7806 53.6564C87.3508 49.1144 102.12 42.734 100.165 39.8142C94.6268 31.5953 81.3779 -5.3894 64.8712 0.666578C52.5998 5.20856 59.55 61.1183 64.8712 73.1221C65.5228 74.5279 82.7897 76.2582 82.3554 78.0966C81.8124 79.7188 62.8079 81.4491 62.3735 83.2875Z" fill="url(#paint1_linear)"/>
<path d="M44.6067 171.217C45.7964 172.633 37.6842 181.132 38.874 182.548C44.3903 189.085 50.4474 195.84 55.8556 198.346C56.3964 198.564 57.0454 198.782 57.6944 199H91.9821C94.2535 196.058 97.7147 189.957 98.6882 190.502C101.284 191.7 99.1209 195.731 98.6882 199H185.651C188.896 196.058 192.574 192.79 191.925 192.463C173.537 180.369 146.172 178.844 136.113 172.633C129.623 168.602 118.374 147.356 106.909 142.454C97.931 138.64 81.4903 143.216 69.7005 146.049C68.1862 146.376 66.5638 162.283 65.1576 162.501C63.6434 162.828 62.2372 148.337 61.1556 147.901C51.2046 143.434 4.36995 137.224 0.584241 147.465C-4.60759 161.193 26.327 172.524 33.1413 177.209C35.4127 178.953 40.8209 166.641 44.6067 171.217Z" fill="#F7AA90"/>
<path d="M44.6067 171.217C45.7964 172.633 37.6842 181.132 38.874 182.548C44.3903 189.085 50.4474 195.84 55.8556 198.346C56.3964 198.564 57.0454 198.782 57.6944 199H91.9821C94.2535 196.058 97.7147 189.957 98.6882 190.502C101.284 191.7 99.1209 195.731 98.6882 199H185.651C188.896 196.058 192.574 192.79 191.925 192.463C173.537 180.369 146.172 178.844 136.113 172.633C129.623 168.602 118.374 147.356 106.909 142.454C97.931 138.64 81.4903 143.216 69.7005 146.049C68.1862 146.376 66.5638 162.283 65.1576 162.501C63.6434 162.828 62.2372 148.337 61.1556 147.901C51.2046 143.434 4.36995 137.224 0.584241 147.465C-4.60759 161.193 26.327 172.524 33.1413 177.209C35.4127 178.953 40.8209 166.641 44.6067 171.217Z" fill="url(#paint2_linear)"/>
<path fill-rule="evenodd" clip-rule="evenodd" d="M81.0193 38.0884C80.9711 36.5035 80.9557 36 81.7017 36C82.0265 36 82.3514 36.3223 82.4597 36.752C82.4597 39.008 82.4597 40.4045 82.6763 43.6273C86.7912 87.4576 126.759 149.691 166.5 199H161C121.367 148.832 83.0012 85.4164 81.052 39.8674C81.052 39.1617 81.0341 38.5743 81.0193 38.0884ZM124 199H119.708C90.4132 180.183 60.4749 165.911 36.331 163.48C33.6484 163.269 32.468 163.269 30.6438 163.269C29.7854 163.163 29.7854 162 30.6438 162C57.2557 162.211 91.379 178.069 124 199Z" fill="#C4C4C4"/>
<path fill-rule="evenodd" clip-rule="evenodd" d="M81.0193 38.0884C80.9711 36.5035 80.9557 36 81.7017 36C82.0265 36 82.3514 36.3223 82.4597 36.752C82.4597 39.008 82.4597 40.4045 82.6763 43.6273C86.7912 87.4576 126.759 149.691 166.5 199H161C121.367 148.832 83.0012 85.4164 81.052 39.8674C81.052 39.1617 81.0341 38.5743 81.0193 38.0884ZM124 199H119.708C90.4132 180.183 60.4749 165.911 36.331 163.48C33.6484 163.269 32.468 163.269 30.6438 163.269C29.7854 163.163 29.7854 162 30.6438 162C57.2557 162.211 91.379 178.069 124 199Z" fill="url(#paint3_linear)"/>
<defs>
<linearGradient id="paint0_linear" x1="199" y1="24.4186" x2="17.9105" y2="138.58" gradientUnits="userSpaceOnUse">
<stop stop-color="#6DC9F7"/>
<stop offset="1" stop-color="#DB6B93"/>
</linearGradient>
<linearGradient id="paint1_linear" x1="120.552" y1="-24.9022" x2="120.552" y2="200.509" gradientUnits="userSpaceOnUse">
<stop stop-color="#00D4FF"/>
<stop offset="1" stop-color="#320B84" stop-opacity="0"/>
</linearGradient>
<linearGradient id="paint2_linear" x1="86.6715" y1="133.742" x2="86.6715" y2="199.44" gradientUnits="userSpaceOnUse">
<stop stop-color="#00D4FF"/>
<stop offset="1" stop-color="#320B84" stop-opacity="0"/>
</linearGradient>
<linearGradient id="paint3_linear" x1="166.5" y1="36" x2="138.71" y2="215.076" gradientUnits="userSpaceOnUse">
<stop stop-color="#4B12AD"/>
<stop offset="1" stop-color="#D6739A"/>
</linearGradient>
</defs>
</svg>
