<svg width="65" height="65" viewBox="0 0 65 65" fill="none" xmlns="http://www.w3.org/2000/svg">
<path fill-rule="evenodd" clip-rule="evenodd" d="M10.9551 0C4.90475 0 0 4.90475 0 10.9551V54.0449C0 60.0953 4.90475 65 10.9551 65H54.0449C60.0953 65 65 60.0953 65 54.0449V10.9551C65 4.90475 60.0953 0 54.0449 0H10.9551ZM16.3913 20.0112C18.3905 20.0112 20.0112 18.3905 20.0112 16.3913C20.0112 14.3921 18.3905 12.7714 16.3913 12.7714C14.3921 12.7714 12.7714 14.3921 12.7714 16.3913C12.7714 18.3905 14.3921 20.0112 16.3913 20.0112ZM21.0103 17.2963C20.5883 19.4623 18.6808 21.0972 16.3913 21.0972C13.7923 21.0972 11.6854 18.9903 11.6854 16.3913C11.6854 13.7923 13.7923 11.6854 16.3913 11.6854C18.9297 11.6854 20.9987 13.6952 21.0938 16.2103H27.7974C27.8925 13.6952 29.9616 11.6854 32.5 11.6854C35.0384 11.6854 37.1075 13.6952 37.2024 16.2103H43.9062C44.0012 13.6952 46.0703 11.6854 48.6087 11.6854C51.2076 11.6854 53.3146 13.7923 53.3146 16.3913C53.3146 18.9903 51.2076 21.0972 48.6087 21.0972C46.3192 21.0972 44.4116 19.4623 43.9896 17.2963H37.119C36.7309 19.2886 35.0859 20.8315 33.0429 21.0663V27.8251C35.3861 28.0943 37.2059 30.0846 37.2059 32.5H43.9028C43.9028 29.9011 46.0098 27.7941 48.6087 27.7941C51.2076 27.7941 53.3146 29.9011 53.3146 32.5C53.3146 35.0989 51.2076 37.2059 48.6087 37.2059C46.3835 37.2059 44.5189 35.6615 44.0287 33.586H37.0799C36.6301 35.4901 35.0236 36.9475 33.0429 37.175V43.9337C35.3861 44.2031 37.2059 46.1933 37.2059 48.6087C37.2059 51.2077 35.0989 53.3146 32.5 53.3146C29.901 53.3146 27.794 51.2077 27.794 48.6087C27.794 46.1933 29.6137 44.2031 31.957 43.9337V37.175C29.6137 36.9056 27.794 34.9154 27.794 32.5C27.794 30.0846 29.6137 28.0943 31.957 27.8251V21.0663C29.914 20.8315 28.2691 19.2886 27.881 17.2963H21.0103ZM18.7442 16.3913C18.7442 17.6908 17.6908 18.7442 16.3913 18.7442C15.0918 18.7442 14.0383 17.6908 14.0383 16.3913C14.0383 15.0918 15.0918 14.0383 16.3913 14.0383C17.6908 14.0383 18.7442 15.0918 18.7442 16.3913ZM36.1199 16.3913C36.1199 18.3905 34.4992 20.0112 32.5 20.0112C30.5006 20.0112 28.88 18.3905 28.88 16.3913C28.88 14.3921 30.5006 12.7714 32.5 12.7714C34.4992 12.7714 36.1199 14.3921 36.1199 16.3913ZM52.2286 16.3913C52.2286 18.3905 50.608 20.0112 48.6087 20.0112C46.6094 20.0112 44.9887 18.3905 44.9887 16.3913C44.9887 14.3921 46.6094 12.7714 48.6087 12.7714C50.608 12.7714 52.2286 14.3921 52.2286 16.3913ZM36.1199 32.5C36.1199 34.4993 34.4992 36.12 32.5 36.12C30.5006 36.12 28.88 34.4993 28.88 32.5C28.88 30.5007 30.5006 28.88 32.5 28.88C34.4992 28.88 36.1199 30.5007 36.1199 32.5ZM36.1199 48.6087C36.1199 50.608 34.4992 52.2286 32.5 52.2286C30.5006 52.2286 28.88 50.608 28.88 48.6087C28.88 46.6094 30.5006 44.9888 32.5 44.9888C34.4992 44.9888 36.1199 46.6094 36.1199 48.6087ZM48.6087 36.3009C50.7079 36.3009 52.4096 34.5992 52.4096 32.5C52.4096 30.4008 50.7079 28.6991 48.6087 28.6991C46.5095 28.6991 44.8077 30.4008 44.8077 32.5C44.8077 34.5992 46.5095 36.3009 48.6087 36.3009ZM50.9616 32.5C50.9616 33.7996 49.9082 34.8529 48.6087 34.8529C47.3091 34.8529 46.2558 33.7996 46.2558 32.5C46.2558 31.2004 47.3091 30.1471 48.6087 30.1471C49.9082 30.1471 50.9616 31.2004 50.9616 32.5Z" fill="white"/>
</svg>
