<svg width="540" height="422" viewBox="0 0 540 422" fill="none" xmlns="http://www.w3.org/2000/svg">
<path d="M112.791 53.3633C113.249 49.4409 113.002 45.438 112.014 41.5261C107.282 22.7786 86.9392 13.1817 66.6408 20.078C46.3425 26.9743 33.6746 47.7867 38.4065 66.5342C39.3938 70.446 41.0277 73.8979 43.2564 76.9873L112.791 53.3633Z" fill="#ADD8ED"/>
<path d="M40.0672 53.5124C39.5537 57.6321 39.7228 61.8396 40.6095 65.9548C41.4961 70.0699 43.0166 73.7045 45.1194 76.9609L112.844 52.4452C113.357 48.3254 113.188 44.1179 112.301 40.0028C111.415 35.8877 109.878 32.1755 107.792 28.9967C107.792 28.9967 96.6678 26.997 73.5458 35.367C50.3554 43.7618 40.0672 53.5124 40.0672 53.5124Z" fill="#96BFD4"/>
<path d="M40.0672 53.5124C39.5537 57.6321 39.7228 61.8396 40.6095 65.9548C41.4961 70.0699 43.0166 73.7045 45.1194 76.9609L112.844 52.4452C113.357 48.3254 113.188 44.1179 112.301 40.0028C111.415 35.8877 109.878 32.1755 107.792 28.9967C107.792 28.9967 96.6678 26.997 73.5458 35.367C50.3554 43.7618 40.0672 53.5124 40.0672 53.5124Z" fill="#96A6D4"/>
<path d="M109.38 32.3068C109.38 32.3068 98.2846 30.6365 73.8441 41.2243C49.4035 51.812 37.8184 63.3078 37.8184 63.3078" stroke="#6F7A9C" stroke-width="3.1517" stroke-miterlimit="10" stroke-linecap="round" stroke-linejoin="round"/>
<path d="M60.0615 29.1049C59.5925 28.8687 58.9764 28.6784 58.3884 28.8625C58.0944 28.9545 57.8004 29.0465 57.6205 29.2561C57.3468 29.4184 57.1669 29.6279 57.0074 29.9077C56.8478 30.1875 56.6882 30.4673 56.6756 30.7011C56.5895 30.9579 56.5973 31.262 56.6785 31.543C56.841 32.1051 57.1505 32.6212 57.6398 32.9278C58.1089 33.164 58.7249 33.3543 59.3129 33.1702C59.6069 33.0782 59.9009 32.9862 60.0808 32.7766C60.3545 32.6143 60.5344 32.4048 60.694 32.125C60.8536 31.8452 61.0132 31.5654 61.0257 31.3316C61.1118 31.0748 61.1041 30.7707 61.0228 30.4897C60.8604 29.9276 60.6244 29.3885 60.0615 29.1049Z" fill="#D1EDFE"/>
<path d="M54.3044 34.5415C52.0165 34.9809 50.3028 37.2772 48.8102 38.9498C47.1944 40.7416 45.9411 42.7288 44.8365 44.9817C43.5953 47.5945 46.5214 49.5419 48.3971 47.2708C49.7471 45.6453 51.4403 44.1427 52.9715 42.6149C54.5221 41.1593 56.5779 39.852 57.0927 37.7148C57.6656 35.7946 56.2357 34.2197 54.3044 34.5415Z" fill="#D1EDFE"/>
<path opacity="0.4" d="M103.272 41.8849C106.608 37.421 104.044 30.0214 97.5435 25.3575C91.0433 20.6935 83.069 20.5313 79.7324 24.9951C76.3958 29.459 78.9603 36.8585 85.4605 41.5225C91.9606 46.1865 99.9349 46.3487 103.272 41.8849Z" fill="#ADD8ED"/>
<path d="M130.932 33.0936C130.264 32.5744 129.491 32.2687 128.628 32.2574C119.273 31.7316 104.071 32.6068 84.365 39.5485L68.5331 45.6813C49.0612 53.9157 35.5663 64.2435 27.5985 71.393C27.0386 71.8693 26.5749 72.4811 26.1929 73.1478C25.8108 73.8144 25.6739 74.6455 25.8053 75.3726L26.9731 81.836C27.5887 82.462 28.3763 82.8485 29.2689 83.0214C38.7462 84.6234 53.5138 80.5454 73.5547 73.4737L89.3866 67.3409C109.127 59.0026 123.392 51.7477 131.103 43.5739C131.701 42.9101 132.15 42.2174 132.451 41.4959L130.932 33.0936Z" fill="#A1BBED"/>
<path d="M129.429 33.5143C128.782 32.9726 128.029 32.6522 127.182 32.6371C118.012 32.0547 103.08 32.9039 83.6262 40.0334L67.9867 46.3383C48.7396 54.8107 35.3214 65.4798 27.3808 72.8709C26.8232 73.3631 26.3578 73.9965 25.9715 74.6871C25.5852 75.3777 25.4366 76.2399 25.5531 76.9953L26.5752 83.6259C26.7466 83.8242 26.8128 83.7975 26.9324 83.6601C27.3591 82.775 27.9312 81.9203 28.6617 81.18C36.5894 73.705 50.0205 63.1199 69.2676 54.6475L84.9071 48.3426C104.361 41.2131 119.306 40.4478 128.463 40.9463C129.323 41.0453 130.076 41.3657 130.71 41.8234L129.429 33.5143Z" fill="#8296BF"/>
<path opacity="0.44" d="M26.335 76.8195C26.2834 76.4835 26.3644 76.094 26.5115 75.6777C26.9384 74.7917 27.5493 74.1883 28.2798 73.4474C36.207 65.9658 49.6365 55.3716 68.878 46.8928L84.5128 40.5833C103.961 33.4488 118.899 32.6843 128.051 33.1842C128.553 33.2491 128.989 33.3407 129.439 33.5164L129.426 33.4324C128.78 32.8901 128.027 32.5694 127.18 32.5541C118.015 31.9702 103.09 32.8187 83.6422 39.9532L68.0075 46.2627C48.7659 54.7415 35.3493 65.4197 27.4092 72.8173C26.8517 73.31 26.3861 73.9439 25.9998 74.6352C25.6134 75.3264 25.4644 76.1895 25.5805 76.9456L26.5991 83.5828C26.704 83.8081 26.4604 78.5533 26.335 76.8195Z" fill="#D1EDFE"/>
<path d="M81.519 65.1499C97.4107 58.5794 110.049 51.323 109.747 48.9421C109.444 46.5612 96.3169 49.9576 80.4253 56.528C64.5336 63.0984 51.8957 70.3549 52.1978 72.7358C52.4998 75.1166 65.6274 71.7203 81.519 65.1499Z" fill="#8296BF"/>
<path d="M55.1459 70.1007C60.0509 69.458 69.6073 66.358 80.5654 61.6478C91.5234 56.9377 100.883 51.9072 105.501 48.4566C100.596 49.0992 91.0392 52.1993 80.0812 56.9094C69.1232 61.6195 59.755 66.5623 55.1459 70.1007Z" fill="#5A6885"/>
<path d="M43.1391 78.6348C45.5775 77.7312 47.4355 76.3526 47.2891 75.5555C47.1427 74.7584 45.0473 74.8447 42.6089 75.7482C40.1705 76.6518 38.3125 78.0305 38.4589 78.8276C38.6053 79.6247 40.7007 79.5384 43.1391 78.6348Z" fill="#EEF7FF"/>
<path d="M47.4956 75.033C46.8639 74.6026 44.9338 74.7766 42.8283 75.4947C40.3017 76.3564 38.4069 77.6485 38.5825 78.3959L38.285 82.2914C38.285 82.2914 40.2153 83.409 44.356 81.9967C48.7073 80.5126 49.8475 78.2671 49.8475 78.2671L47.4956 75.033Z" fill="url(#paint0_radial)"/>
<path d="M48.5299 82.033C49.994 81.4916 51.1078 80.6587 51.0177 80.1725C50.9277 79.6863 49.6678 79.731 48.2037 80.2723C46.7396 80.8136 45.6258 81.6466 45.7158 82.1328C45.8059 82.619 47.0658 82.5743 48.5299 82.033Z" fill="#EEF7FF"/>
<path d="M51.1849 79.9094C50.8169 79.631 49.6425 79.7898 48.3804 80.2211C46.8379 80.7482 45.7336 81.5297 45.8387 81.9787L45.6281 84.3141C45.6281 84.3141 46.7673 84.9756 49.2915 84.1131C51.8857 83.2267 52.622 81.8434 52.622 81.8434L51.1849 79.9094Z" fill="url(#paint1_radial)"/>
<path d="M117.339 48.965C118.804 48.4237 119.917 47.5908 119.827 47.1047C119.737 46.6185 118.477 46.6632 117.013 47.2045C115.549 47.7458 114.435 48.5787 114.525 49.0648C114.615 49.551 115.875 49.5063 117.339 48.965Z" fill="#EEF7FF"/>
<path d="M119.994 46.842C119.626 46.5636 118.452 46.7224 117.19 47.1537C115.647 47.6808 114.543 48.4623 114.648 48.9114L114.437 51.2466C114.437 51.2466 115.576 51.9082 118.1 51.0457C120.695 50.1592 121.431 48.776 121.431 48.776L119.994 46.842Z" fill="url(#paint2_radial)"/>
<path d="M117.819 43.8415C120.257 42.9379 122.115 41.5592 121.969 40.762C121.822 39.9649 119.727 40.0512 117.289 40.9548C114.85 41.8583 112.992 43.237 113.139 44.0342C113.285 44.8313 115.38 44.745 117.819 43.8415Z" fill="#EEF7FF"/>
<path d="M122.175 40.2396C121.543 39.8093 119.613 39.9832 117.508 40.7013C114.981 41.563 113.087 42.855 113.262 43.6024L112.965 47.4978C112.965 47.4978 114.895 48.6154 119.036 47.2032C123.387 45.7191 124.527 43.4737 124.527 43.4737L122.175 40.2396Z" fill="url(#paint3_radial)"/>
<path d="M57.9683 67.3362C60.8966 66.2535 63.1244 64.5877 62.9444 63.6155C62.7643 62.6433 60.2445 62.7328 57.3162 63.8155C54.388 64.8982 52.1601 66.564 52.3402 67.5362C52.5203 68.5084 55.04 68.4189 57.9683 67.3362Z" fill="#EEF7FF"/>
<path d="M63.2452 63.0359C62.5084 62.4797 60.2106 62.6987 57.6146 63.5846C54.5977 64.6142 52.3175 66.1999 52.528 67.0971L52.125 71.8377C52.125 71.8377 54.4054 73.1591 59.457 71.4351C64.7191 69.6393 66.1222 66.8993 66.1222 66.8993L63.2452 63.0359Z" fill="url(#paint4_radial)"/>
<path d="M99.9326 47.7855C102.861 46.7028 105.089 45.0369 104.909 44.0647C104.729 43.0924 102.209 43.182 99.2806 44.2647C96.3523 45.3474 94.1245 47.0133 94.3045 47.9855C94.4846 48.9578 97.0044 48.8682 99.9326 47.7855Z" fill="#EEF7FF"/>
<path d="M105.209 43.4852C104.472 42.9291 102.174 43.148 99.5784 44.0339C96.5615 45.0635 94.2813 46.6491 94.4919 47.5463L94.0889 52.2869C94.0889 52.2869 96.3693 53.6082 101.421 51.8843C106.683 50.0885 108.086 47.3486 108.086 47.3486L105.209 43.4852Z" fill="url(#paint5_radial)"/>
<path d="M79.3449 57.2979C83.3609 55.812 86.4179 53.532 86.1729 52.2053C85.9278 50.8786 82.4736 51.0077 78.4576 52.4936C74.4416 53.9795 71.3847 56.2596 71.6297 57.5862C71.8747 58.9129 75.3289 58.7838 79.3449 57.2979Z" fill="#EEF7FF"/>
<path d="M86.5718 51.409C85.5715 50.7007 82.4482 50.9587 78.8689 52.1794C74.7281 53.5916 71.6052 55.7867 71.8862 56.9824L71.3611 63.4577C71.3611 63.4577 74.52 65.2864 81.3979 62.9408C88.5566 60.4994 90.4859 56.774 90.4859 56.774L86.5718 51.409Z" fill="url(#paint6_radial)"/>
<path d="M35.5137 74.0852C35.947 74.7922 35.7153 75.7074 34.9602 76.1738C34.2052 76.6402 33.2963 76.542 32.7891 75.8582C32.282 75.1744 32.5137 74.2591 33.2495 73.7222C34.1522 73.2095 35.0997 73.4489 35.5137 74.0852Z" fill="#D1EDFE"/>
<path d="M39.9876 70.3729C40.4226 71.0777 40.116 72.0136 39.3581 72.479C38.6003 72.9444 37.6492 72.706 37.2142 72.0013C36.7791 71.2965 37.0858 70.3606 37.8436 69.8952C38.6015 69.4298 39.5526 69.6681 39.9876 70.3729Z" fill="#D1EDFE"/>
<path d="M44.5456 66.8545C44.9063 67.5824 44.5996 68.5184 43.8223 68.9134C43.045 69.3085 42.0939 69.0702 41.7331 68.3423C41.3723 67.6144 41.6791 66.6785 42.4564 66.2834C43.2337 65.8883 44.1106 66.1498 44.5456 66.8545Z" fill="#D1EDFE"/>
<path d="M49.2015 63.5266C49.5621 64.2548 49.1815 65.2142 48.4047 65.6094C47.6279 66.0045 46.6773 65.766 46.2974 64.9674C45.9368 64.2392 46.2433 63.3028 47.0942 62.8846C47.9645 62.5367 48.915 62.7752 49.2015 63.5266Z" fill="#D1EDFE"/>
<path d="M54.0673 60.329C54.3533 61.0812 54.0471 62.0185 53.1781 62.3666C52.4024 62.7621 51.508 62.4296 51.148 61.7006C50.788 60.9716 51.1683 60.0112 52.0373 59.663C52.813 59.2675 53.7073 59.6 54.0673 60.329Z" fill="#D1EDFE"/>
<path d="M58.9826 57.4196C59.2685 58.172 58.8693 59.0623 58.0748 59.3873C57.2803 59.7124 56.3864 59.3797 56.0266 58.6504C55.6667 57.921 56.1399 57.0076 56.9344 56.6826C57.7836 56.2639 58.6775 56.5966 58.9826 57.4196Z" fill="#D1EDFE"/>
<path d="M64.003 54.5394C64.2897 55.2904 63.8153 56.2022 63.0187 56.5269C62.2222 56.8515 61.3066 56.4493 61.02 55.6983C60.7333 54.9473 61.2077 54.0355 62.0043 53.7108C62.875 53.3631 63.7164 53.7884 64.003 54.5394Z" fill="#D1EDFE"/>
<path d="M69.1037 51.8541C69.3162 52.6283 68.842 53.5401 68.0262 53.7944C67.2297 54.119 66.3141 53.7167 66.1016 52.9426C65.8149 52.1915 66.2892 51.2797 67.1598 50.932C67.9756 50.6777 68.8912 51.08 69.1037 51.8541Z" fill="#D1EDFE"/>
<path d="M74.3327 49.4182C74.5452 50.1922 74.0708 51.1039 73.2548 51.3582C72.4388 51.6125 71.5973 51.1872 71.3106 50.4362C71.098 49.6622 71.5724 48.7504 72.3884 48.4962C73.2593 48.1485 74.1008 48.5738 74.3327 49.4182Z" fill="#D1EDFE"/>
<path d="M79.5813 47.0516C79.7937 47.8258 79.2259 48.6905 78.4102 48.9448C77.5945 49.1991 76.7339 48.7034 76.5215 47.9291C76.3091 47.1549 76.8768 46.2903 77.6926 46.036C78.5083 45.7816 79.443 46.2543 79.5813 47.0516Z" fill="#D1EDFE"/>
<path d="M84.9294 44.8704C85.0677 45.668 84.5742 46.5097 83.6846 46.7871C82.7949 47.0645 82.0087 46.5455 81.8705 45.7479C81.7322 44.9504 82.2256 44.1087 83.1153 43.8312C83.9308 43.5769 84.7718 44.0025 84.9294 44.8704Z" fill="#D1EDFE"/>
<path d="M90.3573 42.8868C90.4956 43.684 89.9277 44.5486 89.0925 44.7325C88.2573 44.9164 87.3967 44.4207 87.2584 43.6235C87.1201 42.8262 87.6879 41.9616 88.5231 41.7777C89.4325 41.5707 90.219 42.0895 90.3573 42.8868Z" fill="#D1EDFE"/>
<path d="M95.8367 41.0346C95.9748 41.8328 95.3144 42.6509 94.4612 42.7644C93.6273 42.9484 92.842 42.4289 92.7039 41.6307C92.5659 40.8326 93.1329 39.9671 94.0602 39.8305C94.8941 39.6465 95.6794 40.166 95.8367 41.0346Z" fill="#D1EDFE"/>
<path d="M101.328 39.3266C101.392 40.1465 100.805 40.9404 99.9498 41.0539C99.0947 41.1675 98.3078 40.6489 98.2436 39.829C98.1794 39.009 98.7669 38.2152 99.6219 38.1016C100.477 37.9881 101.19 38.5297 101.328 39.3266Z" fill="#D1EDFE"/>
<path d="M106.898 37.8219C106.962 38.6429 106.282 39.3903 105.428 39.5039C104.575 39.6174 103.844 39.0045 103.706 38.2066C103.642 37.3856 104.302 36.5677 105.175 36.5246C106.029 36.4111 106.834 37.0008 106.898 37.8219Z" fill="#D1EDFE"/>
<path d="M112.472 36.4607C112.536 37.2815 111.856 38.0287 111.002 38.1423C110.148 38.2558 109.417 37.6431 109.353 36.8224C109.289 36.0016 109.969 35.2544 110.823 35.1408C111.676 35.0273 112.482 35.6169 112.472 36.4607Z" fill="#D1EDFE"/>
<path d="M118.101 35.2392C118.091 36.0827 117.41 36.8296 116.536 36.8728C115.662 36.916 114.931 36.3036 114.941 35.4602C114.951 34.6167 115.632 33.8697 116.505 33.8266C117.379 33.7834 118.111 34.3958 118.101 35.2392Z" fill="#D1EDFE"/>
<path d="M123.824 34.202C123.813 35.0455 123.114 35.722 122.259 35.8355C121.385 35.8787 120.728 35.2433 120.664 34.423C120.674 33.5795 121.354 32.8326 122.228 32.7895C123.102 32.7463 123.834 33.3586 123.824 34.202Z" fill="#D1EDFE"/>
<path d="M50.1275 415.289C69.1275 407.789 100.627 96.289 63.6274 67.289C74.6274 58.7891 97.6274 49.789 101.627 51.289C124.127 58.289 539.127 183.789 539.127 366.289C550.127 436.289 31.1275 422.789 50.1275 415.289Z" fill="url(#paint7_linear)"/>
<defs>
<radialGradient id="paint0_radial" cx="0" cy="0" r="1" gradientUnits="userSpaceOnUse" gradientTransform="translate(43.2355 77.2859) rotate(-18.833) scale(8.60074 3.77163)">
<stop stop-color="#D7E7FF"/>
<stop offset="1" stop-color="#D7E7FF" stop-opacity="0"/>
</radialGradient>
<radialGradient id="paint1_radial" cx="0" cy="0" r="1" gradientUnits="userSpaceOnUse" gradientTransform="translate(48.5838 81.2505) rotate(-18.8651) scale(5.18627 2.27867)">
<stop stop-color="#D7E7FF"/>
<stop offset="1" stop-color="#D7E7FF" stop-opacity="0"/>
</radialGradient>
<radialGradient id="paint2_radial" cx="0" cy="0" r="1" gradientUnits="userSpaceOnUse" gradientTransform="translate(117.407 48.1658) rotate(-18.8652) scale(5.18634 2.27863)">
<stop stop-color="#D7E7FF"/>
<stop offset="1" stop-color="#D7E7FF" stop-opacity="0"/>
</radialGradient>
<radialGradient id="paint3_radial" cx="0" cy="0" r="1" gradientUnits="userSpaceOnUse" gradientTransform="translate(117.897 42.4987) rotate(-18.8324) scale(8.60062 3.77155)">
<stop stop-color="#D7E7FF"/>
<stop offset="1" stop-color="#D7E7FF" stop-opacity="0"/>
</radialGradient>
<radialGradient id="paint4_radial" cx="0" cy="0" r="1" gradientUnits="userSpaceOnUse" gradientTransform="translate(58.1181 65.7292) rotate(-18.8435) scale(10.3781 4.5535)">
<stop stop-color="#D7E7FF"/>
<stop offset="1" stop-color="#D7E7FF" stop-opacity="0"/>
</radialGradient>
<radialGradient id="paint5_radial" cx="0" cy="0" r="1" gradientUnits="userSpaceOnUse" gradientTransform="translate(100.062 46.1851) rotate(-18.8431) scale(10.3781 4.55345)">
<stop stop-color="#D7E7FF"/>
<stop offset="1" stop-color="#D7E7FF" stop-opacity="0"/>
</radialGradient>
<radialGradient id="paint6_radial" cx="0" cy="0" r="1" gradientUnits="userSpaceOnUse" gradientTransform="translate(79.5536 55.0585) rotate(-18.8315) scale(14.1412 6.201)">
<stop stop-color="#D7E7FF"/>
<stop offset="1" stop-color="#D7E7FF" stop-opacity="0"/>
</radialGradient>
<linearGradient id="paint7_linear" x1="270.667" y1="6.92837" x2="270.667" y2="424.342" gradientUnits="userSpaceOnUse">
<stop stop-color="#00D4FF"/>
<stop offset="1" stop-color="#320B84" stop-opacity="0"/>
</linearGradient>
</defs>
</svg>
