<svg width="1400" height="307" viewBox="0 0 1400 307" fill="none" xmlns="http://www.w3.org/2000/svg">
<path opacity="0.1" fill-rule="evenodd" clip-rule="evenodd" d="M1392.89 307H1L1 92.7546C49.2228 55.9609 108.202 17.0135 167.36 33.3463C186.41 38.5984 203.051 49.243 219.732 59.9134C235.544 70.0276 251.392 80.1651 269.363 85.7548C283.211 89.9277 297.665 91.3748 312.118 92.8219C316.936 93.3042 321.754 93.7866 326.549 94.3699C382.122 101.19 434.288 122.369 485.738 143.368L485.738 143.368C493.626 146.599 501.514 149.83 508.146 155.035C513.202 159.019 517.289 163.973 521.376 168.926C524.101 172.229 526.826 175.531 529.838 178.547C537.008 185.546 545.613 190.931 554.218 196.136C592.178 219.261 630.316 242.566 668.455 265.871L668.59 265.954C676.657 270.979 685.262 276.005 694.763 277.082C702.651 277.979 710.718 276.005 718.427 273.851C748.434 265.353 777.482 253.789 806.51 242.233C847.368 225.968 888.185 209.719 931.575 202.059C935.366 201.377 939.197 200.753 943.034 200.129C962.421 196.974 981.982 193.792 997.546 182.854C1002.42 179.431 1006.72 175.314 1011.01 171.204C1015.73 166.694 1020.43 162.192 1025.87 158.624C1035.64 152.231 1047.33 148.927 1058.93 145.644C1073.72 141.462 1088.39 137.314 1098.83 126.856C1103.66 122.019 1107.19 116.204 1110.7 110.42C1115.01 103.327 1119.28 96.2802 1125.9 91.1392C1132.3 86.0765 1140.3 83.4844 1148.26 80.9034C1149.9 80.3734 1151.53 79.8438 1153.15 79.2935C1177.1 70.9141 1198.5 57.1853 1219.78 43.5363C1224.93 40.2289 1230.08 36.9261 1235.25 33.7053C1261.79 17.0135 1290.83 1.93709 1322.56 0.142277C1354.29 -1.65254 1388.89 13.6033 1400 41.9614L1392.89 307Z" fill="url(#paint0_linear)"/>
<path opacity="0.1" fill-rule="evenodd" clip-rule="evenodd" d="M0 237.238V168.91C4.03944 163.669 8.31081 158.612 12.8015 153.775C16.0069 150.221 19.5684 146.667 24.1983 144.713C31.1591 141.819 38.8285 143.403 46.341 144.954C48.0534 145.308 49.7577 145.66 51.4436 145.957C85.6339 151.643 118.399 132.452 147.96 114.328C177.52 96.2041 211.176 77.9023 245.01 85.3652C260.147 88.7412 273.858 97.0925 287.036 105.444C301.638 114.506 316.418 123.746 331.02 132.985C342.061 139.915 354.704 147.2 367.525 144.18C372.096 143.04 376.242 140.63 380.389 138.22C383.35 136.498 386.312 134.777 389.428 133.518C409.551 125.345 432.166 136.539 449.261 149.866C452.28 152.164 455.276 154.554 458.282 156.95C472.475 168.27 486.861 179.743 504.642 182.383C508.749 182.982 512.856 183.076 516.963 183.17C520.157 183.243 523.351 183.315 526.545 183.626C544.628 185.395 560.768 194.913 576.374 204.114L576.584 204.238C590.61 212.521 610.963 232.283 631.356 252.083C636.336 256.918 641.318 261.756 646.211 266.429C660.991 280.644 683.607 283.131 701.236 272.648C717.619 263.053 730.44 255.59 735.07 253.458L735.399 253.307C773.046 236.12 811.555 218.538 842.805 186.825C849.853 179.661 856.511 171.816 863.167 163.974C874.505 150.615 885.836 137.264 899.076 127.299C904.775 123.035 911.185 119.303 917.774 119.481C924.326 119.605 930.276 123.409 936.222 127.211C938.842 128.886 941.46 130.561 944.129 131.919C972.087 146.134 1003.07 125.345 1027.65 102.956C1028.26 102.396 1028.88 101.834 1029.5 101.272C1036.72 94.692 1044.03 88.036 1052.4 83.9436C1077.15 71.6832 1104.75 84.299 1128.61 99.2248C1131.17 100.821 1133.72 102.449 1136.29 104.082C1157.72 117.727 1179.71 131.729 1203.41 130.142C1209.45 129.745 1215.43 128.319 1221.4 126.894C1228.79 125.132 1236.16 123.371 1243.65 123.568C1266.18 124.036 1285.4 141.508 1303.99 158.395C1306.56 160.732 1309.12 163.057 1311.67 165.325C1334.11 185.403 1358.15 202.284 1383.44 215.788C1387.95 218.197 1392.51 220.501 1397.08 222.806C1398.06 223.297 1399.03 223.788 1400 224.28V307H75.1215L0 237.238Z" fill="url(#paint1_linear)"/>
<path opacity="0.1" fill-rule="evenodd" clip-rule="evenodd" d="M1186.07 307H25.1967C30.3957 293.491 42.8244 281.056 60.0385 272.936C72.0829 267.332 85.9358 263.725 99.6979 260.143C103.178 259.237 106.653 258.333 110.091 257.398C131.308 251.571 151.478 244.249 170.304 235.434C172.537 234.412 174.775 233.361 177.025 232.305C192.534 225.024 208.589 217.486 227.38 217.355C233.537 217.274 239.607 218.028 245.684 218.783C250.814 219.42 255.949 220.057 261.147 220.194C280.821 220.854 299.094 214.863 316.896 209.027C319.238 208.259 321.572 207.494 323.899 206.747C343.921 200.322 367.079 194.794 387.848 200.173C394.396 201.842 400.173 204.505 405.84 207.117C406.767 207.544 407.692 207.97 408.616 208.391C429.235 218.102 455.232 227.216 478.69 220.941C480.906 220.353 483.082 219.628 485.258 218.903C490.269 217.233 495.281 215.562 500.803 215.562C506.331 215.562 511.71 217.056 516.491 218.999C527.776 223.398 537.407 229.266 547.071 235.153C552.506 238.464 557.951 241.781 563.705 244.847C590.002 258.742 622.424 266.362 654.099 273.683C657.82 274.542 667.848 277.594 680.768 281.527L682.487 282.05C697.279 286.682 716.254 285.487 728.656 279.361C733.044 277.198 737.517 274.95 741.982 272.706C758.802 264.253 775.505 255.86 787.076 252.318L787.194 252.281C800.306 248.258 813.866 244.098 829.06 243.353C831.686 243.225 834.311 243.179 836.936 243.133C840.437 243.072 843.937 243.011 847.438 242.755C862.572 241.63 874.774 236.525 886.85 231.474C889.199 230.491 891.544 229.51 893.905 228.561C908.248 222.883 927.224 217.953 944.107 221.389C946.696 221.944 949.159 222.677 951.619 223.41C955.123 224.452 958.623 225.495 962.485 226.021C973.242 227.366 983.851 224.228 993.114 221.24C999.24 219.223 1005.4 217.243 1011.57 215.263C1017.73 213.284 1023.89 211.304 1030.02 209.287L1030.07 209.271C1041.11 205.69 1052.6 201.964 1065.28 200.472C1093.67 197.185 1121.91 205.103 1146.71 213.022C1171.51 220.792 1199 229.159 1227.69 226.768C1229.42 226.633 1231.17 226.451 1232.93 226.268C1238.93 225.646 1245.01 225.016 1250.55 226.171C1254.44 226.918 1257.42 228.561 1260.11 230.055C1273.26 237.376 1284.17 245.893 1292.39 254.858L1292.42 254.897C1293.16 255.785 1294.02 256.813 1293.13 257.696C1292.24 258.593 1288.95 258.593 1288.95 257.547L1186.07 307Z" fill="url(#paint2_linear)"/>
<path fill-rule="evenodd" clip-rule="evenodd" d="M1400 206.758V307H1344.21H241H0V241.941L2.8209 237.863C28.987 236.357 65.078 236.87 86.432 239.027C88.759 239.266 90.922 239.52 93.087 239.773C96.8 240.208 100.52 240.644 105.079 241.012C109.891 241.388 115.305 241.662 121.02 241.936C125.681 242.158 130.268 242.381 134.855 242.603L135.043 242.612C139.566 242.832 144.092 243.051 148.69 243.271C172.148 244.4 195.531 245.53 218.913 246.659L221.497 246.784C244.022 247.872 266.548 248.96 289.145 250.048L290.398 250.108C301.431 250.637 312.764 251.181 324.935 251.28C332.214 251.35 339.573 251.266 346.93 251.182L346.942 251.182L346.943 251.182C353.868 251.103 360.79 251.025 367.643 251.074C399.372 251.297 420.499 253.941 441.628 256.584L441.63 256.585C452.893 257.994 464.156 259.403 477.024 260.446C542.195 250.816 612.144 242.788 681.582 234.878C706.082 232.05 731.114 229.221 758.01 228.176C770.792 227.684 783.811 227.575 796.83 227.466L796.874 227.465C803.368 227.411 809.863 227.356 816.329 227.254C854.676 226.639 892.49 224.241 926.576 220.183C928.327 219.977 930.077 219.764 931.833 219.551L931.921 219.541C942.684 218.234 953.615 216.907 965.72 216.801C973.53 216.732 981.17 217.171 988.83 217.611C994.75 217.952 1000.69 218.293 1006.73 218.4C1033.09 218.892 1056.53 214.957 1077.57 211.206L1138.28 200.323C1151.33 197.987 1166.24 195.528 1182.49 196.142C1186.32 196.285 1189.97 196.587 1193.62 196.887L1193.63 196.888L1193.64 196.889C1197.85 197.236 1202.03 197.581 1206.45 197.68C1221.48 197.937 1232.13 195.241 1243 192.494L1243.02 192.488C1252.94 189.977 1263.03 187.424 1276.76 187.043C1290.5 186.69 1301.88 188.582 1313.5 190.515L1313.51 190.516L1313.54 190.52C1322.18 191.956 1330.95 193.414 1340.93 193.99C1355.29 196.206 1382.9 201.265 1400 206.758Z" fill="white"/>
<defs>
<linearGradient id="paint0_linear" x1="675.504" y1="20300.4" x2="12369.2" y2="16028.5" gradientUnits="userSpaceOnUse">
<stop stop-color="#F5B391"/>
<stop offset="1" stop-color="#2E2D66"/>
</linearGradient>
<linearGradient id="paint1_linear" x1="677.182" y1="498.234" x2="730.825" y2="-238.069" gradientUnits="userSpaceOnUse">
<stop stop-color="#F5B391"/>
<stop offset="1" stop-color="#2E2D66"/>
</linearGradient>
<linearGradient id="paint2_linear" x1="697.096" y1="1394.28" x2="1090.06" y2="-681.026" gradientUnits="userSpaceOnUse">
<stop stop-color="#F5B391"/>
<stop offset="1" stop-color="#2E2D66"/>
</linearGradient>
</defs>
</svg>
