<svg width="459" height="444" viewBox="0 0 459 444" fill="none" xmlns="http://www.w3.org/2000/svg">
<path fill-rule="evenodd" clip-rule="evenodd" d="M36.1521 325.303C24.6354 305.104 20.2059 281.362 22.1548 258.329C23.2179 246.28 26.0528 234.055 30.8367 223.069C35.4434 212.616 41.6448 202.871 41.1132 191C40.5817 179.306 33.6716 167.612 37.3924 156.627C44.3025 136.074 75.3092 135.719 91.787 127.746C115.175 116.584 120.845 93.9045 133.07 73.3515C145.473 52.7985 164.254 35.7891 186.756 27.6388C209.258 19.4885 235.481 20.5515 256.388 32.2455C266.665 38.0925 273.22 45.1797 278.359 55.6334C282.257 63.6065 286.155 72.1112 293.419 76.8951C302.455 83.0965 313.795 81.1475 324.071 82.0334C347.459 83.9823 370.847 92.3099 388.388 108.079C396.893 115.698 403.626 125.088 408.232 135.542C412.662 145.819 414.965 157.513 421.698 166.903C428.254 175.762 438.53 181.255 444.732 190.468C452.705 202.517 445.972 215.628 447.744 228.739C450.579 249.647 467.765 278.704 452.882 298.549C446.858 306.522 438.176 305.813 429.14 305.636C417.269 305.636 404.512 304.75 393.172 301.029C383.427 297.84 373.859 293.942 363.583 293.588C355.964 293.233 348.345 292.702 340.726 292.524C335.765 292.524 330.804 293.942 325.843 294.296C315.567 295.359 305.113 296.422 294.836 297.486C271.803 299.966 248.947 302.269 225.913 304.75C182.149 309.357 138.386 313.963 94.4447 318.57C80.2702 319.988 66.0957 321.582 51.9213 323C50.8582 323.708 36.6837 326.366 36.1521 325.303Z" fill="url(#paint0_linear)" fill-opacity="0.2"/>
<path fill-rule="evenodd" clip-rule="evenodd" d="M373.859 392.454C360.925 397.77 347.459 402.376 335.057 409.109C319.465 417.614 306.53 428.599 288.812 433.206C276.941 436.218 264.184 436.218 251.959 437.813C238.67 439.585 225.204 441.888 211.739 442.774C210.853 442.774 210.144 442.951 209.258 442.951C205.006 443.128 200.931 443.305 196.678 443.482C195.792 443.482 195.084 443.482 194.198 443.482C193.312 443.482 192.603 443.482 191.717 443.482C190.831 443.482 189.945 443.482 189.059 443.482C137.323 443.66 82.7508 434.092 40.4045 402.731C34.2032 398.124 28.0018 392.809 24.6354 385.899C21.8005 380.052 21.0918 373.319 19.6743 366.763C18.0797 359.321 15.0676 352.766 9.22064 347.805C1.24749 341.249 -2.4733 337.883 1.77904 327.075C14.8904 293.056 39.873 264.175 69.4622 242.914C110.745 213.324 161.242 196.492 211.03 188.165C238.847 183.558 267.019 181.786 295.191 183.203C301.924 183.558 308.657 184.089 315.389 184.798C321.768 185.507 328.147 187.101 334.525 186.924C350.471 186.393 367.481 189.405 382.895 194.012C392.995 197.024 408.232 200.213 412.662 211.375C414.079 214.919 415.674 218.108 418.154 221.297C421.698 225.904 427.545 226.436 432.152 229.093C437.29 232.105 441.897 236.181 445.44 240.965C450.579 247.875 453.413 256.202 454.831 264.707C457.311 277.995 458.375 293.233 455.008 306.344C451.642 319.633 445.086 332.036 436.936 343.021C422.584 362.334 404.334 378.28 382.541 388.379C379.706 389.974 376.694 391.391 373.859 392.454Z" fill="url(#paint1_linear)" fill-opacity="0.4"/>
<path fill-rule="evenodd" clip-rule="evenodd" d="M340.727 305.636C339.487 304.395 335.943 305.458 328.856 303.509C321.768 301.56 314.504 302.801 313.441 304.573C312.201 306.344 321.237 312.9 324.603 313.432C327.97 313.963 330.096 318.747 334.703 318.57C339.309 318.57 341.613 314.849 341.613 314.849L340.727 305.636Z" fill="#3C3C6D"/>
<path fill-rule="evenodd" clip-rule="evenodd" d="M141.575 371.37C141.575 371.37 155.218 374.559 159.648 374.559C164.077 374.559 167.798 377.749 165.14 380.761C162.305 383.773 157.344 386.253 151.143 386.608C144.942 386.962 136.26 387.671 132.539 387.139C130.236 383.064 130.058 374.559 130.058 374.559L141.575 371.37Z" fill="#3C3C6D"/>
<path fill-rule="evenodd" clip-rule="evenodd" d="M303.696 322.468C303.696 322.468 290.053 325.657 285.623 325.657C281.194 325.657 277.473 328.846 280.131 331.858C282.966 334.87 287.927 337.351 294.128 337.705C300.329 338.06 309.011 338.768 312.732 338.237C315.035 334.162 315.213 325.657 315.213 325.657L303.696 322.468Z" fill="#3C3C6D"/>
<path fill-rule="evenodd" clip-rule="evenodd" d="M103.481 361.094C104.721 359.853 108.265 360.916 115.352 358.967C122.439 357.018 129.704 358.259 130.944 360.03C132.184 361.802 123.148 368.358 119.781 368.89C116.415 369.421 114.289 374.205 109.682 374.028C105.075 374.028 102.772 370.307 102.772 370.307L103.481 361.094Z" fill="#3C3C6D"/>
<path fill-rule="evenodd" clip-rule="evenodd" d="M101.001 386.962C101.001 387.316 100.824 387.671 100.469 388.025C99.9378 388.557 99.4062 388.911 98.5203 389.088C97.4572 389.443 96.0398 389.443 94.7995 389.088L79.2076 385.19C76.5499 384.482 73.715 385.367 73.0062 386.962L69.6398 396.53C69.2854 397.77 67.3364 398.479 65.3874 398.479C65.2103 398.479 64.8559 398.479 64.6787 398.479C63.2613 398.302 62.1982 397.947 61.4895 397.239C61.1351 396.884 60.9579 396.53 60.9579 396.176C60.9579 395.998 60.9579 395.821 60.9579 395.644L62.1982 388.911L62.7297 385.899C63.0841 384.304 60.6036 382.887 57.7687 383.064L40.5821 384.127C40.4049 384.127 40.2277 384.127 40.0506 384.127C39.3418 384.127 38.6331 383.95 38.1016 383.773C36.8613 383.419 35.9754 382.71 35.7982 381.824C35.4439 380.406 36.8613 379.166 39.1646 378.989L55.9968 377.04C56.7056 377.04 57.4143 376.686 57.9458 376.508C59.3633 375.8 60.072 374.559 59.1861 373.496L53.162 366.055L51.9217 364.46C51.7445 364.106 51.5673 363.929 51.5673 363.574V363.397C51.5673 362.511 52.4532 361.625 53.8707 361.094C55.9969 360.562 58.4774 360.917 59.7177 362.157L68.2224 370.839C69.6398 372.256 73.0062 372.61 74.9552 371.547L87.5351 364.814C88.421 364.283 89.4841 364.106 90.5471 364.106C91.6102 364.106 92.8505 364.283 93.7364 364.814C94.6223 365.346 95.1539 366.055 94.9767 366.763C94.9767 367.295 94.6223 367.827 93.9136 368.358L92.8505 369.067L82.3968 375.8C80.4478 377.04 80.9794 378.812 83.4599 379.698C83.4599 379.698 83.4599 379.698 83.6371 379.698L98.5203 384.659C100.115 385.19 101.001 386.076 101.001 386.962Z" fill="#3C3C6D"/>
<path fill-rule="evenodd" clip-rule="evenodd" d="M58.1227 376.686L52.0985 369.244C51.9213 368.89 51.7441 368.713 51.7441 368.358V363.929C51.7441 364.283 51.9213 364.46 52.0985 364.815L53.3388 366.409L59.3629 373.851C60.2488 374.737 59.7173 375.977 58.1227 376.686Z" fill="#3C3C6D"/>
<path fill-rule="evenodd" clip-rule="evenodd" d="M62.9067 385.899L62.3752 388.911C61.4893 388.025 59.8947 387.494 58.1228 387.671L40.9363 388.734C40.7591 388.734 40.5819 388.734 40.4047 388.734C38.2786 388.734 36.3296 387.848 35.9752 386.608V382.001C36.1524 382.887 37.0383 383.418 38.2786 383.95C38.8101 384.127 39.5188 384.304 40.2276 384.304C40.4047 384.304 40.5819 384.304 40.7591 384.304L57.9457 383.241C60.7806 382.887 63.2611 384.304 62.9067 385.899Z" fill="#3C3C6D"/>
<path fill-rule="evenodd" clip-rule="evenodd" d="M101.001 386.962V391.569C101.001 391.923 100.824 392.278 100.469 392.632C99.4062 393.872 96.9256 394.404 94.7995 393.872L79.2075 389.797C76.5498 389.088 73.7149 389.974 73.0062 391.569L69.6398 401.137C69.2854 402.377 67.3364 403.086 65.3874 403.086C65.2102 403.086 64.8559 403.086 64.6787 403.086C62.5525 402.908 61.1351 402.023 60.9579 400.782C60.9579 400.782 60.9579 400.605 60.9579 400.251V396.176C60.9579 396.53 61.3123 396.884 61.4894 397.239C62.1982 397.947 63.2613 398.302 64.6787 398.479C64.8559 398.479 65.2102 398.479 65.3874 398.479C67.5136 398.479 69.2854 397.593 69.6398 396.53L73.0062 386.962C73.5377 385.368 76.5498 384.482 79.2075 385.19L94.7995 389.265C96.0397 389.62 97.4572 389.62 98.5203 389.265C99.4062 389.088 99.9377 388.734 100.469 388.202C100.824 387.671 101.001 387.317 101.001 386.962Z" fill="#3C3C6D"/>
<path fill-rule="evenodd" clip-rule="evenodd" d="M95.3307 366.94V371.37C95.3307 371.901 94.9763 372.61 94.2676 373.142L83.8139 379.697C81.5106 378.812 80.979 377.04 82.7508 375.799L93.2045 369.067L94.2676 368.358C94.9763 368.181 95.3307 367.649 95.3307 366.94Z" fill="#3C3C6D"/>
<path d="M100.587 395.184C100.732 393.036 99.107 391.177 96.9589 391.033C94.8109 390.889 92.9527 392.514 92.8086 394.662C92.6645 396.81 94.2891 398.668 96.4372 398.812C98.5852 398.956 100.443 397.332 100.587 395.184Z" fill="#3C3C6D"/>
<path d="M69.3524 405.033C69.4964 402.885 67.8719 401.027 65.7238 400.882C63.5758 400.738 61.7176 402.363 61.5735 404.511C61.4294 406.659 63.054 408.517 65.2021 408.661C67.3501 408.805 69.2083 407.181 69.3524 405.033Z" fill="#3C3C6D"/>
<path d="M43.7311 390.853C43.8752 388.705 42.2507 386.847 40.1026 386.703C37.9545 386.559 36.0964 388.183 35.9523 390.331C35.8082 392.479 37.4328 394.338 39.5808 394.482C41.7289 394.626 43.5871 393.001 43.7311 390.853Z" fill="#3C3C6D"/>
<path d="M58.1721 374.42C58.3162 372.272 56.6917 370.414 54.5436 370.27C52.3956 370.126 50.5374 371.75 50.3933 373.898C50.2492 376.046 51.8736 377.904 54.0217 378.049C56.1698 378.193 58.028 376.568 58.1721 374.42Z" fill="#3C3C6D"/>
<path d="M96.7773 376.093C96.9215 373.944 95.2969 372.086 93.1489 371.942C91.0008 371.798 89.1427 373.422 88.9985 375.571C88.8544 377.719 90.4789 379.577 92.6269 379.721C94.775 379.865 96.6332 378.241 96.7773 376.093Z" fill="#3C3C6D"/>
<path fill-rule="evenodd" clip-rule="evenodd" d="M74.7773 382.001C74.7773 387.139 63.7921 386.076 63.7921 382.001V346.033H74.7773V382.001Z" fill="#56548C"/>
<path fill-rule="evenodd" clip-rule="evenodd" d="M61.3122 313.609C61.3122 313.609 92.8504 302.801 106.316 304.395C119.605 305.99 116.77 363.751 116.77 363.751C116.77 363.751 109.683 364.991 102.595 363.751C99.5833 347.628 94.7994 330.087 94.7994 330.087C94.7994 330.087 65.7417 338.414 61.3122 334.339C57.0598 330.087 61.3122 313.609 61.3122 313.609Z" fill="#3C3C6D"/>
<path fill-rule="evenodd" clip-rule="evenodd" d="M61.3122 313.609C61.3122 313.609 92.8504 302.801 106.316 304.395C119.605 305.99 116.77 363.751 116.77 363.751C115.707 365.877 107.025 370.484 102.595 363.751C99.5833 347.628 94.7994 330.087 94.7994 330.087C94.7994 330.087 65.7417 338.414 61.3122 334.339C57.0598 330.087 61.3122 313.609 61.3122 313.609Z" fill="#3C3C6D"/>
<path fill-rule="evenodd" clip-rule="evenodd" d="M113.049 345.856C110.214 348.513 76.7265 367.117 70.348 370.484C69.6392 370.838 68.5762 371.015 67.8674 370.484C64.3238 368.18 62.552 360.384 69.2849 355.423C71.2338 354.006 107.024 329.909 112.694 331.504H112.871C113.049 331.504 113.226 331.681 113.403 331.858C116.238 334.162 115.883 343.198 113.049 345.856Z" fill="#56548C"/>
<path fill-rule="evenodd" clip-rule="evenodd" d="M112.872 331.504C107.202 329.91 71.4112 354.006 69.4622 355.424C62.7293 360.385 64.5011 368.358 68.0447 370.484L28.3562 347.451L26.9387 346.742C23.7495 344.084 22.5092 336.82 29.0649 332.036C31.0139 330.618 67.6904 305.99 72.6515 308.294L73.0058 308.471L112.872 331.504Z" fill="#3C3C6D"/>
<path fill-rule="evenodd" clip-rule="evenodd" d="M200.93 167.966C199.867 159.462 195.969 108.256 188.351 102.409C188.351 102.409 183.212 96.9167 180.909 99.22L143.701 120.659L145.473 143.87L161.596 196.847L197.918 176.117C200.045 175.585 201.462 172.573 200.93 167.966Z" fill="#3C3C6D"/>
<path fill-rule="evenodd" clip-rule="evenodd" d="M150.788 124.379C158.23 130.226 162.305 181.432 163.368 189.936C164.431 198.441 158.407 201.807 152.914 193.126C147.422 184.444 142.46 135.719 142.46 125.442C142.283 115.343 150.788 124.379 150.788 124.379Z" fill="#46467C"/>
<path fill-rule="evenodd" clip-rule="evenodd" d="M211.207 96.2079C200.753 95.6764 183.035 108.079 175.062 118.178C167.089 128.278 172.05 139.263 174.708 150.071C177.365 160.879 173.29 187.988 173.29 190.645C185.516 198.973 215.282 200.036 218.649 187.988C220.066 174.699 210.321 160.702 210.321 152.906C210.675 136.074 224.85 101.169 211.207 96.2079Z" fill="#F9FBFC"/>
<path fill-rule="evenodd" clip-rule="evenodd" d="M201.993 98.6886C207.486 122.254 205.714 147.768 204.474 157.69C203.234 167.612 203.056 200.922 203.056 200.922C211.03 196.847 214.928 189.405 215.105 185.862C215.282 182.495 212.093 153.615 212.447 151.311C212.624 149.008 216.699 126.683 216.345 114.635C215.991 102.587 211.384 100.815 211.384 100.815L201.107 96.208L201.993 98.6886Z" fill="#FFE59B"/>
<path fill-rule="evenodd" clip-rule="evenodd" d="M203.057 104.535L204.474 105.244C204.297 105.953 204.12 106.661 204.12 107.547C204.12 107.37 204.12 107.193 203.943 107.193L203.057 104.535Z" fill="#FBD15B"/>
<path fill-rule="evenodd" clip-rule="evenodd" d="M186.934 101.169C194.907 118.356 191.009 134.125 190.654 148.122C190.3 162.296 183.036 201.808 183.036 201.808C169.038 198.264 167.267 188.874 164.609 184.09C158.053 151.134 166.381 124.38 172.405 114.458C177.189 106.662 186.934 101.169 186.934 101.169Z" fill="#FFE59B"/>
<path fill-rule="evenodd" clip-rule="evenodd" d="M178.251 122.962C165.317 119.773 171.873 150.425 178.251 162.474C181.441 168.675 184.098 172.219 187.996 174.168C189.236 165.84 190.477 157.335 190.831 151.488C187.287 140.326 184.807 126.151 178.251 122.962Z" fill="#EABD4E"/>
<path d="M124.566 234.409L131.83 229.271H134.311L133.248 230.865L125.452 236.181L124.566 234.409Z" fill="#3C3C6D"/>
<path fill-rule="evenodd" clip-rule="evenodd" d="M113.048 210.49C111.985 201.985 108.087 150.78 100.469 144.933C100.469 144.933 95.3303 139.44 93.027 141.743L55.819 163.182L57.5908 186.393L73.7142 239.37L109.859 218.463C112.163 217.931 113.58 214.919 113.048 210.49Z" fill="#3C3C6D"/>
<path fill-rule="evenodd" clip-rule="evenodd" d="M62.9069 166.726C70.3485 172.573 74.4236 223.778 75.4867 232.283C76.5498 240.788 70.5257 244.154 65.0331 235.472C59.5404 226.79 54.5794 178.066 54.5794 167.789C54.4022 157.69 62.9069 166.726 62.9069 166.726Z" fill="#46467C"/>
<path fill-rule="evenodd" clip-rule="evenodd" d="M346.928 38.624C338.246 42.8764 322.3 77.9582 324.958 86.2857C327.615 94.4361 335.057 90.0065 340.195 82.7421C347.105 72.82 354.192 51.2039 353.307 45.7113C352.421 40.2187 346.928 38.624 346.928 38.624Z" fill="#3C3C6D"/>
<path fill-rule="evenodd" clip-rule="evenodd" d="M349.054 220.412C349.054 220.412 335.589 236.004 332.045 237.067C328.501 238.13 331.691 241.851 334.526 242.028C337.183 242.382 346.042 241.851 348.523 239.37C351.003 236.889 358.268 234.232 358.268 234.232C358.268 226.081 356.319 220.943 356.319 220.943L349.054 220.412Z" fill="#56548C"/>
<path fill-rule="evenodd" clip-rule="evenodd" d="M344.27 109.673C344.27 109.673 342.499 144.401 343.207 155.74C343.916 167.08 346.574 223.601 346.574 223.601C353.838 225.195 358.622 223.601 358.622 223.601C361.103 180.369 360.925 167.789 361.634 161.41C362.343 155.032 363.229 136.251 363.229 136.251C368.367 125.62 363.052 111.622 360.394 108.256C357.913 104.889 344.27 109.673 344.27 109.673Z" fill="#3C3C6D"/>
<path fill-rule="evenodd" clip-rule="evenodd" d="M370.847 235.295C370.316 241.673 368.19 249.115 367.481 252.836C366.949 256.557 368.19 258.86 369.076 260.1C369.962 261.341 380.592 257.797 382.187 253.722C383.604 249.647 380.592 245.926 380.415 238.307C377.049 231.929 370.847 235.295 370.847 235.295Z" fill="#56548C"/>
<path fill-rule="evenodd" clip-rule="evenodd" d="M355.433 112.331C355.433 112.331 357.205 143.87 360.217 154.5C363.052 164.954 365.71 195.784 366.95 201.276C368.19 206.592 369.785 239.902 369.785 239.902C376.518 241.496 381.656 239.902 381.656 239.902C381.479 208.718 382.187 183.558 381.656 175.053C381.124 166.549 381.833 141.212 381.833 141.212C384.668 129.518 384.845 127.923 381.833 120.127C378.998 112.154 366.418 105.953 355.433 112.331Z" fill="#3C3C6D"/>
<path fill-rule="evenodd" clip-rule="evenodd" d="M349.409 37.5607C359.154 37.2064 381.479 42.1674 388.92 51.558C396.362 60.9486 385.554 77.6036 383.073 87.703C380.593 97.8023 384.314 122.962 384.314 125.265C372.797 132.884 345.157 133.77 342.145 122.43C340.904 110.028 343.739 95.4989 343.916 88.2345C343.208 72.8197 336.475 41.9902 349.409 37.5607Z" fill="#F9FBFC"/>
<path fill-rule="evenodd" clip-rule="evenodd" d="M357.736 39.8639C351.535 61.6572 350.117 86.2853 350.649 95.4987C351.181 104.712 351.535 134.833 351.535 134.833C344.27 130.935 341.081 124.025 341.081 120.836C341.081 117.646 343.739 90.5377 343.739 88.2343C343.739 86.1081 340.018 61.1256 341.081 49.9632C342.144 38.8008 349.409 37.5605 349.409 37.5605H358.799L357.736 39.8639Z" fill="#3C3C6D"/>
<path fill-rule="evenodd" clip-rule="evenodd" d="M351.712 13.2871C347.459 14.7046 351.712 24.2723 351.712 24.2723V13.2871Z" fill="#3C3C6D"/>
<path fill-rule="evenodd" clip-rule="evenodd" d="M351.535 14.7043C351.535 14.7043 349.94 20.3741 350.472 24.8036C351.004 29.2332 351.535 37.915 355.433 40.7499C359.331 43.5848 365.001 40.2184 368.722 37.2063C372.442 34.017 376.34 28.1701 376.518 21.26C376.518 14.1728 373.86 5.66807 363.761 6.02243C353.307 6.3768 351.535 14.7043 351.535 14.7043Z" fill="#FFC8AF"/>
<path fill-rule="evenodd" clip-rule="evenodd" d="M371.202 30.8281C371.202 30.8281 370.494 39.8644 372.797 43.2308C372.974 45.5342 366.596 54.9247 360.217 53.3301C356.496 52.4442 357.028 48.0147 357.028 48.0147C357.382 44.6482 357.028 36.8523 357.028 36.8523L371.202 30.8281Z" fill="#FFC8AF"/>
<path fill-rule="evenodd" clip-rule="evenodd" d="M349.054 7.0857C347.637 12.224 349.232 14.1729 353.661 15.5904C358.091 17.0078 369.785 13.6414 369.785 13.6414C369.076 19.134 370.67 22.1461 370.67 22.1461C372.619 16.6535 374.391 19.4884 374.568 23.9179C374.746 28.3474 372.265 28.1702 372.265 28.1702C372.442 31.891 373.683 33.1313 373.683 33.1313C378.466 29.9421 384.845 8.14877 376.34 7.61723C375.986 0.175622 352.066 -4.0767 349.054 7.0857Z" fill="#3C3C6D"/>
<path fill-rule="evenodd" clip-rule="evenodd" d="M373.151 41.8135C365.533 57.7598 361.635 72.1114 361.989 85.2228C362.166 98.3342 365.001 136.428 365.001 136.428C378.112 133.239 386.972 129.518 389.452 125.089C383.782 110.383 381.833 100.46 382.896 96.2081C383.959 91.9557 393.882 60.0631 388.743 50.4954C383.959 45.3571 373.151 41.8135 373.151 41.8135Z" fill="#3C3C6D"/>
<path fill-rule="evenodd" clip-rule="evenodd" d="M371.379 39.687C371.379 40.0414 372.973 41.8132 372.973 41.8132C372.973 41.8132 369.784 48.9004 368.544 52.0897C367.304 55.2789 364.292 57.9367 364.292 57.9367L360.039 53.3299C366.063 50.1407 371.379 39.687 371.379 39.687Z" fill="#F9FBFC"/>
<path fill-rule="evenodd" clip-rule="evenodd" d="M357.381 41.9904C357.736 41.4589 358.622 50.8495 360.039 53.33C357.381 55.8106 355.787 56.5193 355.787 56.5193C355.787 56.5193 354.192 46.0656 357.381 41.9904Z" fill="#F9FBFC"/>
<path fill-rule="evenodd" clip-rule="evenodd" d="M360.57 53.1528L357.027 55.4562C357.913 58.2911 357.913 60.2401 357.913 60.2401H361.279L363.76 56.6965L360.57 53.1528Z" fill="#EC827D"/>
<path fill-rule="evenodd" clip-rule="evenodd" d="M357.735 60.0628C352.774 86.1084 353.306 102.232 353.306 102.232L355.786 109.496L361.279 101.523C361.279 101.523 357.204 70.8709 361.102 60.24C359.153 58.8225 357.735 60.0628 357.735 60.0628Z" fill="#EC827D"/>
<path fill-rule="evenodd" clip-rule="evenodd" d="M123.326 138.554C112.872 138.023 90.0157 145.287 82.0425 155.386C74.0694 165.486 84.1687 181.609 86.8264 192.417C89.4841 203.225 85.409 230.334 85.409 232.992C97.6345 241.319 127.401 242.382 130.767 230.334C132.185 217.045 122.44 203.048 122.44 195.252C122.794 178.42 136.969 143.515 123.326 138.554Z" fill="#F9FBFC"/>
<path fill-rule="evenodd" clip-rule="evenodd" d="M114.112 141.035C119.605 164.6 117.833 190.114 116.593 200.036C115.352 209.958 115.175 243.268 115.175 243.268C123.148 239.193 127.046 231.751 127.223 228.208C127.401 224.841 124.211 195.961 124.566 193.657C124.743 191.354 131.83 164.068 131.476 152.02C131.121 139.972 123.148 138.554 123.148 138.554H113.049L114.112 141.035Z" fill="#56548C"/>
<path fill-rule="evenodd" clip-rule="evenodd" d="M123.502 114.103C123.502 114.103 124.388 120.127 124.565 124.911C124.743 132.707 123.325 139.086 119.25 142.098C114.998 145.11 107.202 143.161 103.304 139.794C99.4057 136.428 96.9251 128.455 96.7479 121.013C96.7479 113.394 99.76 104.181 110.568 104.712C121.553 105.244 123.502 114.103 123.502 114.103Z" fill="#FFC8AF"/>
<path fill-rule="evenodd" clip-rule="evenodd" d="M99.9377 131.29C99.9377 131.29 100.824 141.035 98.1659 144.578C97.9887 147.059 104.722 157.158 111.632 155.386C115.707 154.323 115.175 149.716 115.175 149.716C114.821 146.173 115.175 137.668 115.175 137.668L99.9377 131.29Z" fill="#FFC8AF"/>
<path fill-rule="evenodd" clip-rule="evenodd" d="M122.616 106.307C116.592 97.8021 94.0902 104.889 96.0392 112.863C87.3574 115.697 93.0272 138.199 103.304 139.794C103.304 139.794 108.088 135.01 107.733 133.77C106.67 134.301 105.43 134.124 104.898 131.467C103.835 126.86 106.847 123.848 110.214 128.986C110.214 128.986 110.745 124.911 108.442 119.241C108.442 119.241 120.136 118.178 123.857 114.811C125.806 113.217 126.16 111.091 122.616 106.307Z" fill="#3C3C6D"/>
<path fill-rule="evenodd" clip-rule="evenodd" d="M97.6342 143.161C105.607 160.347 103.127 176.294 102.772 190.468C102.418 204.642 95.1537 244.154 95.1537 244.154C81.1564 240.61 79.3846 231.22 76.7269 226.436C70.1712 193.48 74.4235 163.359 80.6248 153.437C85.4087 145.641 97.6342 143.161 97.6342 143.161Z" fill="#56548C"/>
<path fill-rule="evenodd" clip-rule="evenodd" d="M102.595 194.189C98.5198 182.495 94.9762 166.372 88.0661 163.005C75.1319 159.816 79.0299 192.24 85.4084 204.465C89.3064 211.907 93.2043 215.982 99.5829 217.754C101 209.249 102.241 200.39 102.595 194.189Z" fill="#3C3C6D"/>
<path fill-rule="evenodd" clip-rule="evenodd" d="M99.4056 140.857C99.4056 141.212 97.6338 143.161 97.6338 143.161C97.6338 143.161 101.177 150.957 102.418 154.323C103.658 157.69 107.024 160.525 107.024 160.525L111.631 155.563C105.253 152.197 99.4056 140.857 99.4056 140.857Z" fill="#F9FBFC"/>
<path fill-rule="evenodd" clip-rule="evenodd" d="M114.467 143.338C114.112 142.807 113.049 152.906 111.454 155.564C114.289 158.398 116.061 159.107 116.061 159.107C116.061 159.107 118.01 147.768 114.467 143.338Z" fill="#F9FBFC"/>
<path d="M97.1027 232.105L212.625 298.903L355.787 216.159L240.088 149.539L97.1027 232.105Z" fill="#83C9FF"/>
<path d="M105.608 234.232C103.659 235.295 100.469 235.295 98.5203 234.232C96.5713 233.169 96.5713 231.22 98.5203 230.157C100.469 229.094 103.659 229.094 105.608 230.157C107.557 231.22 107.557 232.992 105.608 234.232Z" fill="#83C9FF"/>
<path d="M354.369 218.286C352.42 219.349 349.231 219.349 347.282 218.286C345.333 217.222 345.333 215.273 347.282 214.21C349.231 213.147 352.42 213.147 354.369 214.21C356.318 215.273 356.318 217.222 354.369 218.286Z" fill="#83C9FF"/>
<path d="M353.306 326.897C351.888 327.783 349.585 327.783 348.167 326.897C346.75 326.011 346.75 324.771 348.167 323.885C349.585 322.999 351.888 322.999 353.306 323.885C354.723 324.771 354.723 326.189 353.306 326.897Z" fill="#878CF0"/>
<path d="M345.687 216.159L347.105 325.48H354.369L355.786 216.159H345.687Z" fill="#878CF0"/>
<path d="M215.814 297.84C213.865 298.903 210.675 298.903 208.726 297.84C206.777 296.777 206.777 294.828 208.726 293.765C210.675 292.702 213.865 292.702 215.814 293.765C217.763 294.828 217.763 296.6 215.814 297.84Z" fill="#83C9FF"/>
<path d="M214.928 406.451C213.511 407.337 211.207 407.337 209.79 406.451C208.372 405.566 208.372 404.325 209.79 403.439C211.207 402.553 213.511 402.553 214.928 403.439C216.345 404.325 216.345 405.566 214.928 406.451Z" fill="#878CF0"/>
<path d="M207.309 295.714L208.549 404.857H215.991L217.231 295.714H207.309Z" fill="#878CF0"/>
<path d="M243.454 154.5C241.505 155.564 238.316 155.564 236.367 154.5C234.418 153.437 234.418 151.488 236.367 150.425C238.316 149.362 241.505 149.362 243.454 150.425C245.403 151.488 245.403 153.26 243.454 154.5Z" fill="#83C9FF"/>
<path d="M242.568 263.112C241.151 263.998 238.847 263.998 237.43 263.112C236.013 262.226 236.013 260.986 237.43 260.1C238.847 259.214 241.151 259.214 242.568 260.1C243.986 260.986 243.986 262.226 242.568 263.112Z" fill="#83C9FF"/>
<path d="M234.949 152.374L236.366 261.518H243.631L244.871 152.374H234.949Z" fill="#83C9FF"/>
<path d="M392.995 191.177C392.995 203.757 385.376 215.628 369.961 224.487L226.799 307.053C192.603 326.72 132.893 324.24 93.3816 301.561C72.297 289.335 61.1346 273.743 60.7803 258.86V265.416C61.1346 280.299 72.297 295.891 93.3816 308.116C132.893 330.973 192.603 333.453 226.799 313.609L369.961 231.042C385.376 222.183 392.995 210.135 392.995 197.555V191.177Z" fill="#A8B0F4"/>
<path d="M93.559 301.738C133.07 324.594 192.78 327.075 226.976 307.23L370.139 224.664C385.553 215.805 393.172 203.757 393.172 191.354C393.172 176.116 382.187 160.17 360.571 147.59C321.059 124.734 261.349 122.253 227.153 142.098L83.9912 224.664C68.0449 233.877 60.6033 246.103 60.9576 259.037C61.312 273.92 72.2972 289.512 93.559 301.738Z" fill="#878CF0"/>
<path fill-rule="evenodd" clip-rule="evenodd" d="M349.408 215.274L327.792 202.871L291.47 223.956L288.635 224.31V225.019C288.635 225.373 288.813 225.55 288.99 225.727L310.96 238.484C311.669 238.839 312.732 238.839 313.618 238.307L350.117 217.223C350.649 216.868 350.826 216.514 350.826 216.337V215.097L349.408 215.274Z" fill="#3C3C6D"/>
<path fill-rule="evenodd" clip-rule="evenodd" d="M327.793 201.631L288.636 224.31L279.422 195.252C279.068 194.366 279.422 193.303 280.131 192.949L317.162 171.51C317.87 171.155 318.579 171.51 318.933 172.396L327.793 201.631Z" fill="#56548C"/>
<path fill-rule="evenodd" clip-rule="evenodd" d="M325.844 200.39L289.522 221.298L281.372 195.607L317.871 174.522L325.844 200.39Z" fill="#BEE1F4"/>
<path fill-rule="evenodd" clip-rule="evenodd" d="M349.941 215.983L313.442 237.067C312.733 237.599 311.493 237.599 310.784 237.244L288.459 224.31L327.616 201.631L349.941 214.565C350.827 214.919 350.827 215.451 349.941 215.983Z" fill="#56548C"/>
<path fill-rule="evenodd" clip-rule="evenodd" d="M349.941 215.983L313.442 237.067C312.733 237.599 311.493 237.599 310.784 237.244L288.459 224.31L327.616 201.631L349.941 214.565C350.827 214.919 350.827 215.451 349.941 215.983Z" fill="#56548C"/>
<path fill-rule="evenodd" clip-rule="evenodd" d="M338.601 209.959L303.165 230.512L292.534 224.31L328.147 203.935L338.601 209.959Z" fill="#112B46"/>
<path fill-rule="evenodd" clip-rule="evenodd" d="M333.641 222.716L325.136 227.677C324.604 228.031 323.896 228.031 323.541 227.677L319.466 225.373C319.112 225.196 319.112 224.665 319.643 224.488L328.148 219.527C328.68 219.172 329.388 219.172 329.743 219.527L333.818 221.83C334.172 222.007 334.172 222.361 333.641 222.716Z" fill="#3C3C6D"/>
<path d="M85.9403 278.704C86.8262 276.932 103.658 245.394 103.658 245.394L128.641 253.544C128.641 253.544 113.935 292.347 111.986 291.461C110.037 290.752 85.9403 278.704 85.9403 278.704Z" fill="#F9FBFC"/>
<path d="M138.74 212.084L159.116 196.315L196.324 199.681L175.062 215.805L138.74 212.084Z" fill="#F9FBFC"/>
<path d="M163.723 272.326H163.368C163.368 272.326 163.191 272.326 163.191 272.149L146.005 262.226C145.296 261.872 144.056 261.872 143.347 262.404L120.136 275.692C119.959 275.692 119.959 275.869 119.782 275.869H119.427V276.401C119.427 276.578 119.605 276.932 119.959 277.11L137.146 287.032C137.854 287.386 139.095 287.386 139.803 286.855L163.014 273.566C163.368 273.389 163.723 273.034 163.723 272.68V272.326Z" fill="#A5B7C6"/>
<path d="M137.146 286.677L119.959 276.755C119.25 276.401 119.428 275.692 120.136 275.16L143.347 261.872C144.056 261.34 145.296 261.34 146.005 261.695L163.191 271.617C163.9 271.971 163.723 272.68 163.014 273.211L139.803 286.5C139.095 287.032 137.854 287.209 137.146 286.677Z" fill="#56548C"/>
<path d="M138.917 285.615L122.085 275.87L144.942 262.581L161.951 272.326L138.917 285.615Z" fill="#00F0FF"/>
<path fill-rule="evenodd" clip-rule="evenodd" d="M126.337 139.794C136.082 144.224 133.779 170.092 141.22 176.648C145.473 180.369 166.203 185.153 171.873 185.153C174.176 189.759 170.101 194.898 170.101 194.898C134.665 192.063 132.184 191.177 124.034 177.002C117.833 166.017 113.226 136.959 126.337 139.794Z" fill="#56548C"/>
<path d="M170.81 186.747C170.81 186.747 180.378 185.684 182.149 186.393C183.921 187.279 187.996 189.759 189.237 190.823C190.3 192.063 194.021 195.075 191.008 195.784C190.123 195.961 184.807 194.366 183.39 193.835C181.972 193.126 179.315 192.417 179.315 193.126C179.315 193.835 186.047 195.606 185.161 197.024C184.276 198.441 182.681 197.378 177.897 195.784C173.113 194.189 168.506 193.48 168.506 193.48C167.443 189.937 168.507 187.988 170.81 186.747Z" fill="#FFC8AF"/>
<path d="M155.572 192.24L148.662 200.922C148.485 201.099 148.485 201.63 148.839 201.807C149.016 201.985 149.548 201.985 149.725 201.63L156.635 192.948C156.812 192.771 156.812 192.24 156.458 192.062C156.104 192.063 155.749 192.063 155.572 192.24Z" fill="#3C3C6D"/>
<path fill-rule="evenodd" clip-rule="evenodd" d="M142.815 196.669C145.827 198.264 150.965 197.201 150.965 197.91C150.965 198.441 149.902 200.213 147.776 200.213C145.65 200.213 142.815 196.669 142.815 196.669Z" fill="#FFC8AF"/>
<path fill-rule="evenodd" clip-rule="evenodd" d="M134.311 201.276C136.082 199.327 140.512 194.898 144.233 197.201C147.776 199.504 150.257 199.504 151.32 199.859C152.56 198.087 154.332 199.504 155.395 201.985C156.635 204.466 149.017 207.655 147.776 208.541C146.536 209.604 134.311 207.478 134.311 207.478V201.276Z" fill="#FFC8AF"/>
<path fill-rule="evenodd" clip-rule="evenodd" d="M88.2431 155.563C97.988 160.347 100.823 190.468 108.265 197.555C112.517 201.63 129.349 198.441 135.019 198.441C137.322 203.579 134.133 209.603 134.133 209.603C101.709 213.501 93.3813 212.616 85.231 197.024C79.0296 184.798 75.1317 152.374 88.2431 155.563Z" fill="#56548C"/>
<path fill-rule="evenodd" clip-rule="evenodd" d="M360.925 81.3247C360.04 78.1355 358.091 75.1234 355.433 73.3516C354.724 72.82 353.838 72.4657 353.129 72.1113C352.775 71.9341 352.421 71.7569 352.066 71.7569C351.712 71.7569 351.18 71.5798 350.826 71.7569C350.649 71.9341 350.649 72.1113 350.826 72.2885C351.18 72.9972 351.889 73.5288 352.598 73.8831C353.838 74.5918 354.37 75.6549 354.724 76.8952C353.484 75.6549 352.421 74.4147 351.003 73.3516C349.586 72.4657 347.991 71.7569 346.397 71.2254C345.688 71.0482 344.979 70.6939 344.27 70.871C343.385 71.0482 343.03 71.7569 343.562 72.2885C344.093 72.82 344.802 73.1744 345.511 73.5288C346.397 74.0603 347.105 74.5918 347.991 75.3006C348.346 75.6549 348.7 76.0093 349.054 76.3636C349.231 76.718 349.409 77.2496 349.763 77.4267C348.877 77.0724 347.991 76.5408 347.105 76.1865C346.397 75.8321 345.511 75.6549 344.802 75.1234C344.093 74.769 343.562 74.2375 342.853 73.8831C342.499 73.7059 342.144 73.5287 341.79 73.7059C341.613 73.8831 341.436 74.2375 341.436 74.4147C341.436 74.769 341.613 74.9462 341.79 75.3006C342.144 76.0093 342.676 76.3636 343.385 76.718C343.916 77.0724 344.448 77.4267 344.979 77.7811C345.688 78.3126 346.397 78.667 346.928 79.1985C347.282 79.3757 347.637 79.7301 347.814 80.0845C347.991 80.2616 348.346 80.7932 348.7 80.9704C347.282 80.2616 346.042 79.3757 344.802 78.667C344.27 78.3126 343.739 77.9583 343.385 77.6039C342.853 77.0724 342.321 76.718 341.613 76.718C341.436 76.718 341.258 76.718 341.081 76.718C340.904 76.8952 340.904 77.0724 340.904 77.2495C340.904 77.4267 341.081 77.6039 341.258 77.7811C341.967 78.8442 342.853 79.9073 343.916 80.7932C344.802 81.5019 346.042 82.7422 347.105 82.9193C345.511 82.565 344.093 81.8563 342.853 80.7932C342.321 80.2616 341.613 79.7301 340.904 79.5529C340.727 79.5529 340.372 79.5529 340.195 79.7301C340.018 79.9073 340.195 80.2616 340.372 80.4388C341.258 81.8563 342.499 83.6281 344.093 84.3368C344.979 84.6911 345.688 85.3999 346.574 85.9314C347.46 86.463 348.346 86.9945 349.231 87.5261C351.358 88.7663 353.838 90.0066 356.142 90.7153C356.85 90.8925 357.559 91.0697 358.268 90.8925C358.976 90.8925 359.331 90.7153 359.862 90.1838C360.748 89.2979 361.457 88.2348 361.811 86.9945C362.166 85.5771 361.988 83.9824 361.634 82.565C361.28 82.565 361.103 82.0334 360.925 81.3247Z" fill="#FFC8AF"/>
<path fill-rule="evenodd" clip-rule="evenodd" d="M339.486 82.7418C338.778 78.8438 337.892 74.2371 335.411 71.0479C335.234 70.8707 335.234 70.6935 335.057 70.6935C334.702 70.5163 334.348 71.0478 334.348 71.4022C334.171 72.4653 334.702 73.7056 335.057 74.7687C335.411 76.0089 335.411 77.4264 335.234 78.6666C335.234 78.4895 335.057 78.4895 335.057 78.3123C333.108 75.6546 332.045 72.111 330.804 69.0989C330.627 68.7445 330.45 68.3901 330.096 68.3901C329.564 68.3901 329.387 69.0989 329.387 69.6304C329.387 72.1109 329.919 74.0599 330.982 76.3633C329.919 74.7687 329.033 72.9969 328.324 71.225C328.147 70.8707 327.97 70.3391 327.438 70.1619C325.489 69.9848 327.97 77.2492 328.324 78.3123C327.261 76.8948 326.729 75.4774 326.375 73.7056C326.375 73.3512 326.198 72.9968 326.02 72.8197C325.843 72.4653 325.312 72.1109 324.957 72.4653C324.78 72.8197 324.603 73.5284 324.603 73.8828C324.426 74.9458 324.78 76.0089 325.135 77.072C325.666 78.4895 326.552 79.9069 327.084 81.3244C326.198 80.2613 325.489 79.1982 324.603 78.3123C324.426 78.1351 324.249 77.7807 323.894 77.9579C323.54 77.9579 323.363 78.4895 323.54 78.8438C324.249 81.1472 325.489 83.4505 327.084 85.2223C327.969 86.1082 328.855 86.817 329.564 87.7029C330.273 88.5888 331.336 89.2975 332.576 89.8291C333.816 90.3606 335.057 90.5378 336.297 90.5378C337.36 90.5378 337.892 90.1834 338.423 89.4747C338.955 88.766 339.486 88.0572 339.486 87.1713C339.663 85.5767 339.663 84.1593 339.486 82.7418Z" fill="#FFC8AF"/>
<path fill-rule="evenodd" clip-rule="evenodd" d="M361.811 80.6158L377.934 86.1084C376.34 65.0238 380.06 42.699 388.92 50.6721C394.058 55.2789 394.235 94.6131 390.337 100.46C386.439 106.307 369.607 97.9795 357.913 91.9553C357.558 86.9943 361.811 80.6158 361.811 80.6158Z" fill="#3C3C6D"/>
<path fill-rule="evenodd" clip-rule="evenodd" d="M75.6636 198.618C79.7388 197.91 85.0542 197.91 88.9522 198.973C95.5079 200.922 99.0515 204.997 100.469 211.198C102.064 217.4 102.595 227.676 98.8743 233.523C96.571 237.067 91.7871 236.535 88.2435 235.472C83.9911 234.409 78.3213 232.46 74.9549 229.802C69.9938 226.081 67.5133 218.108 67.1589 212.261C66.9817 207.3 69.6395 199.682 75.6636 198.618Z" fill="#FFC8AF"/>
<path fill-rule="evenodd" clip-rule="evenodd" d="M70.525 199.859C66.627 202.516 66.9813 208.363 67.1585 212.439C67.5129 218.286 69.9934 226.259 74.9545 229.979C77.6122 231.928 77.7894 232.283 81.333 233.346C81.6874 233.169 82.3961 232.637 83.4592 231.928C85.4082 230.511 86.4713 227.853 85.7625 225.55C85.0538 223.247 84.8766 220.412 86.2941 219.703C88.4202 218.463 89.8377 222.715 89.8377 222.715C91.078 222.183 93.0269 220.766 91.9639 218.285C90.9008 215.805 91.9639 213.147 91.9639 213.147C95.8618 213.147 97.6337 208.009 98.8739 207.3C101.532 205.883 102.418 205.174 101.886 202.871C101.532 201.276 101 199.682 99.7598 198.441C98.3424 197.201 93.9129 195.429 91.9639 194.898C81.333 192.24 73.0055 194.012 70.525 199.859Z" fill="#56548C"/>
<path fill-rule="evenodd" clip-rule="evenodd" d="M94.445 238.484C84.8772 234.941 73.7148 228.562 58.1229 240.965C42.531 253.367 46.7833 303.864 50.6813 315.381C54.5793 326.898 80.2705 327.783 88.0665 326.898C95.8625 326.012 88.2437 312.546 90.7242 303.687C93.3819 295.005 113.581 245.571 94.445 238.484Z" fill="#56548C"/>
<path fill-rule="evenodd" clip-rule="evenodd" d="M99.5826 240.61C103.658 243.091 114.111 273.743 114.111 273.743L117.832 249.646C117.832 249.646 126.514 245.571 131.475 251.064C128.109 274.452 126.16 298.371 117.832 299.789C109.505 301.206 95.8618 279.058 88.4202 268.25C81.1558 257.265 87.18 232.991 99.5826 240.61Z" fill="#56548C"/>
<path d="M124.92 235.118L132.716 229.271L134.842 228.739L133.779 230.157L125.451 236.181L124.92 235.118Z" fill="#3C3C6D"/>
<path fill-rule="evenodd" clip-rule="evenodd" d="M119.604 251.064C119.604 250.355 116.592 242.914 117.833 240.256C119.073 237.598 120.49 235.826 120.49 235.826C121.73 231.574 125.274 232.106 128.109 234.763C130.944 237.598 134.842 244.331 129.704 250.001C124.565 254.608 119.604 251.064 119.604 251.064Z" fill="#FFC8AF"/>
<path fill-rule="evenodd" clip-rule="evenodd" d="M20.3826 258.151C20.3826 258.151 20.3826 258.329 20.3826 258.506C17.3706 258.151 13.8269 260.809 12.4095 264.53C9.92896 271.086 13.2954 342.135 19.3195 340.541C21.2685 342.49 63.6148 366.055 63.6148 366.055L66.0954 284.374C66.0954 284.551 36.1517 258.683 20.3826 258.151Z" fill="#46467C"/>
<path fill-rule="evenodd" clip-rule="evenodd" d="M63.6153 366.231C57.5911 367.826 54.0475 296.776 56.7052 290.221C59.1858 283.665 68.3992 280.476 69.9938 291.284C71.5885 301.915 79.7388 362.156 63.6153 366.231Z" fill="#EC827D"/>
<path fill-rule="evenodd" clip-rule="evenodd" d="M230.697 154.323C233.709 155.918 238.847 154.855 238.847 155.564C238.847 156.095 237.784 157.867 235.658 157.867C233.532 157.867 230.697 154.323 230.697 154.323Z" fill="#FFC8AF"/>
<path fill-rule="evenodd" clip-rule="evenodd" d="M222.193 158.93C223.964 156.981 228.394 152.552 232.115 154.855C235.658 157.158 238.139 157.158 239.202 157.513C240.442 155.741 242.214 157.158 243.277 159.639C244.517 162.119 236.899 165.309 235.658 166.194C234.418 167.258 222.193 165.131 222.193 165.131V158.93Z" fill="#FFC8AF"/>
<path fill-rule="evenodd" clip-rule="evenodd" d="M381.301 259.746C381.301 259.746 349.763 248.938 336.297 250.533C322.831 252.127 325.843 309.888 325.843 309.888C325.843 309.888 332.93 311.129 340.018 309.888C343.03 293.765 347.814 276.224 347.814 276.224C347.814 276.224 376.871 284.551 381.301 280.476C385.73 276.224 381.301 259.746 381.301 259.746Z" fill="#3C3C6D"/>
<path fill-rule="evenodd" clip-rule="evenodd" d="M341.79 333.099C341.79 333.453 341.967 333.808 342.321 334.162C342.853 334.693 343.384 335.048 344.27 335.225C345.333 335.579 346.751 335.579 347.991 335.225L363.583 331.15C366.241 330.441 369.076 331.327 369.784 332.922L373.151 342.489C373.505 343.73 375.454 344.438 377.403 344.438C377.58 344.438 377.935 344.438 378.112 344.438C379.529 344.261 380.592 343.907 381.301 343.198C381.656 342.844 381.833 342.489 381.833 342.135C381.833 341.958 381.833 341.781 381.833 341.603L380.592 334.871L380.061 331.859C379.706 330.264 382.187 328.846 385.022 329.024L402.208 330.087C402.386 330.087 402.563 330.087 402.74 330.087C403.449 330.087 404.158 329.91 404.689 329.732C405.929 329.378 406.815 328.669 406.992 327.783C407.347 326.366 405.929 325.126 403.626 324.948L386.794 322.999C386.085 322.999 385.376 322.645 384.845 322.468C383.427 321.759 382.719 320.519 383.604 319.456L389.629 312.014L390.869 310.42C391.046 310.065 391.223 309.888 391.223 309.534V309.357C391.223 308.471 390.337 307.585 388.92 307.053C386.794 306.522 384.313 306.876 383.073 308.116L374.568 316.798C373.151 318.216 369.784 318.57 367.835 317.507L355.256 310.774C354.37 310.242 353.307 310.065 352.243 310.065C351.18 310.065 349.94 310.242 349.054 310.774C348.168 311.306 347.637 312.014 347.814 312.723C347.814 313.255 348.168 313.786 348.877 314.318L349.94 315.026L360.394 321.759C362.343 322.999 361.811 324.771 359.331 325.657C359.331 325.657 359.331 325.657 359.154 325.657L344.27 330.618C342.676 331.327 341.79 332.213 341.79 333.099Z" fill="#3C3C6D"/>
<path fill-rule="evenodd" clip-rule="evenodd" d="M384.49 322.999L390.514 315.558C390.692 315.203 390.869 315.026 390.869 314.672V310.242C390.869 310.597 390.692 310.774 390.514 311.128L389.274 312.723L383.25 320.164C382.541 321.05 383.073 322.29 384.49 322.999Z" fill="#3C3C6D"/>
<path fill-rule="evenodd" clip-rule="evenodd" d="M379.883 332.213L380.415 335.225C381.301 334.339 382.895 333.808 384.667 333.985L401.854 335.048C402.031 335.048 402.208 335.048 402.385 335.048C404.511 335.048 406.46 334.162 406.815 332.922V328.315C406.638 329.201 405.752 329.732 404.511 330.264C403.98 330.441 403.271 330.618 402.562 330.618C402.385 330.618 402.208 330.618 402.031 330.618L384.844 329.555C381.832 329.201 379.529 330.618 379.883 332.213Z" fill="#3C3C6D"/>
<path fill-rule="evenodd" clip-rule="evenodd" d="M341.79 333.099V337.706C341.79 338.06 341.967 338.414 342.321 338.769C343.384 340.009 345.865 340.54 347.991 340.009L363.583 335.934C366.241 335.225 369.076 336.111 369.784 337.706L373.151 347.273C373.505 348.514 375.454 349.222 377.403 349.222C377.58 349.222 377.935 349.222 378.112 349.222C380.238 349.045 381.655 348.159 381.833 346.919C381.833 346.919 381.833 346.742 381.833 346.387V342.312C381.833 342.667 381.478 343.021 381.301 343.375C380.592 344.084 379.529 344.438 378.112 344.616C377.935 344.616 377.58 344.616 377.403 344.616C375.277 344.616 373.505 343.73 373.151 342.667L369.784 333.099C369.253 331.504 366.241 330.618 363.583 331.327L347.991 335.402C346.751 335.757 345.333 335.757 344.27 335.402C343.384 335.225 342.853 334.871 342.321 334.339C341.967 333.985 341.79 333.63 341.79 333.099Z" fill="#3C3C6D"/>
<path fill-rule="evenodd" clip-rule="evenodd" d="M347.46 313.254V317.684C347.46 318.215 347.814 318.924 348.523 319.456L358.977 326.011C361.28 325.126 361.812 323.354 360.04 322.113L349.586 315.381L348.523 314.672C347.814 314.318 347.46 313.786 347.46 313.254Z" fill="#3C3C6D"/>
<path d="M346.334 345.162C348.482 345.018 350.107 343.16 349.963 341.012C349.818 338.864 347.96 337.24 345.812 337.384C343.664 337.528 342.04 339.386 342.184 341.534C342.328 343.682 344.186 345.307 346.334 345.162Z" fill="#3C3C6D"/>
<path d="M377.521 354.912C379.669 354.768 381.293 352.91 381.149 350.762C381.005 348.614 379.147 346.989 376.999 347.133C374.851 347.277 373.226 349.135 373.371 351.283C373.515 353.432 375.373 355.056 377.521 354.912Z" fill="#3C3C6D"/>
<path d="M403.21 340.729C405.358 340.585 406.983 338.727 406.839 336.579C406.695 334.431 404.837 332.806 402.689 332.95C400.54 333.095 398.916 334.953 399.06 337.101C399.204 339.249 401.062 340.873 403.21 340.729Z" fill="#3C3C6D"/>
<path d="M388.853 324.252C391.001 324.108 392.626 322.25 392.482 320.101C392.338 317.953 390.48 316.329 388.331 316.473C386.183 316.617 384.559 318.475 384.703 320.623C384.847 322.771 386.705 324.396 388.853 324.252Z" fill="#3C3C6D"/>
<path d="M350.229 326.028C352.377 325.884 354.002 324.026 353.857 321.878C353.713 319.73 351.855 318.105 349.707 318.249C347.559 318.393 345.935 320.252 346.079 322.4C346.223 324.548 348.081 326.172 350.229 326.028Z" fill="#3C3C6D"/>
<path fill-rule="evenodd" clip-rule="evenodd" d="M367.835 328.315C367.835 333.453 378.82 332.39 378.82 328.315V292.347H367.835V328.315Z" fill="#56548C"/>
<path fill-rule="evenodd" clip-rule="evenodd" d="M329.741 292.17C332.576 294.827 366.063 313.431 372.442 316.798C373.15 317.152 374.214 317.329 374.922 316.798C378.466 314.494 380.238 306.698 373.505 301.737C371.556 300.32 335.765 276.223 330.095 277.818H329.918C329.741 277.818 329.564 277.995 329.387 278.172C326.552 280.298 326.906 289.335 329.741 292.17Z" fill="#56548C"/>
<path fill-rule="evenodd" clip-rule="evenodd" d="M329.918 277.641C335.588 276.046 371.379 299.966 373.328 301.56C380.061 306.521 378.289 314.495 374.745 316.621L414.434 293.587L415.851 292.878C419.041 290.221 420.281 282.956 413.725 278.172C411.776 276.755 375.1 252.127 370.139 254.43L369.784 254.607L329.918 277.641Z" fill="#3C3C6D"/>
<path fill-rule="evenodd" clip-rule="evenodd" d="M310.074 222.715C310.074 222.715 309.188 220.058 307.239 218.64C305.29 217.223 302.632 215.274 301.215 215.982C299.975 216.691 304.227 220.058 304.227 220.058C299.62 218.286 295.191 217.931 293.242 217.754C291.293 217.577 285.446 219.88 286.686 221.652C287.749 223.424 292.356 225.905 294.482 226.968C296.431 228.031 302.81 230.157 307.239 229.625C311.846 228.917 310.074 222.715 310.074 222.715Z" fill="#FFC8AF"/>
<path fill-rule="evenodd" clip-rule="evenodd" d="M381.301 263.998C382.719 285.26 358.622 295.359 324.072 285.791C324.072 285.791 321.768 295.536 315.036 325.125C305.468 326.543 299.444 325.125 299.444 325.125C299.444 325.125 298.381 267.364 315.036 264.884C331.691 262.403 364.823 262.049 364.823 261.163L381.301 263.998Z" fill="#56548C"/>
<path fill-rule="evenodd" clip-rule="evenodd" d="M367.126 144.932C363.051 144.224 357.736 144.224 353.838 145.287C347.282 147.236 343.738 151.311 342.321 157.512C340.726 163.714 340.195 173.99 343.916 179.837C346.219 183.381 351.003 182.849 354.546 181.786C358.799 180.723 364.469 178.774 367.835 176.116C372.796 172.395 375.277 164.422 375.631 158.575C375.808 153.614 373.15 145.818 367.126 144.932Z" fill="#FFC8AF"/>
<path fill-rule="evenodd" clip-rule="evenodd" d="M372.088 145.996C375.986 148.654 375.632 154.501 375.454 158.576C375.1 164.423 372.619 172.396 367.658 176.117C365.001 178.066 364.823 178.42 361.28 179.483C360.925 179.306 360.217 178.774 359.154 178.066C357.205 176.648 356.142 173.99 356.85 171.687C357.559 169.384 357.736 166.549 356.319 165.84C354.193 164.6 352.775 168.852 352.775 168.852C351.535 168.321 349.586 166.903 350.649 164.423C351.712 161.942 350.649 159.284 350.649 159.284C346.751 159.284 344.979 154.146 343.739 153.437C341.081 152.02 340.195 151.311 340.727 149.008C341.081 147.413 341.613 145.819 342.853 144.578C344.27 143.338 348.7 141.566 350.649 141.212C361.457 138.377 369.607 140.326 372.088 145.996Z" fill="#EC827D"/>
<path fill-rule="evenodd" clip-rule="evenodd" d="M346.75 184.621C355.078 178.774 366.063 171.155 381.478 183.558C397.07 195.961 395.83 250.178 392.109 261.695C388.211 273.212 362.52 274.097 354.724 273.212C347.105 272.148 354.546 258.86 352.066 250.001C349.408 241.142 329.918 196.315 346.75 184.621Z" fill="#F9FBFC"/>
<path fill-rule="evenodd" clip-rule="evenodd" d="M343.207 196.492C342.321 197.024 341.258 198.796 340.018 201.276C339.841 211.907 343.562 224.841 346.928 234.941C349.586 231.22 352.066 227.145 354.37 223.955C361.634 213.147 355.433 188.874 343.207 196.492Z" fill="#DCE6EA"/>
<path fill-rule="evenodd" clip-rule="evenodd" d="M422.407 204.465C422.407 204.465 422.407 204.643 422.407 204.82C425.419 204.465 428.963 207.123 430.38 210.844C432.861 217.4 429.494 288.449 423.47 286.855C421.521 288.804 379.175 312.369 379.175 312.369L376.695 230.688C376.517 230.865 406.461 204.82 422.407 204.465Z" fill="#46467C"/>
<path fill-rule="evenodd" clip-rule="evenodd" d="M378.998 312.369C385.022 313.963 388.565 242.914 385.908 236.358C383.427 229.802 374.214 226.613 372.619 237.421C371.025 248.229 362.874 308.471 378.998 312.369Z" fill="#56548C"/>
<path fill-rule="evenodd" clip-rule="evenodd" d="M344.093 188.165C340.017 190.645 328.501 225.196 328.501 225.196L310.96 220.057C308.656 220.057 303.518 224.133 304.581 229.094C315.566 237.421 321.591 240.433 329.918 241.851C338.246 243.268 347.813 226.436 355.255 215.628C362.519 204.82 356.318 180.723 344.093 188.165Z" fill="#F9FBFC"/>
<path fill-rule="evenodd" clip-rule="evenodd" d="M265.424 263.821L243.808 251.418L207.486 272.503L204.651 272.857V273.566C204.651 273.92 204.828 274.098 205.005 274.275L226.976 287.032C227.685 287.386 228.748 287.386 229.634 286.855L266.133 265.77C266.664 265.416 266.842 265.061 266.842 264.884V263.644L265.424 263.821Z" fill="#3C3C6D"/>
<path fill-rule="evenodd" clip-rule="evenodd" d="M243.808 250.178L204.651 272.857L195.438 243.799C195.083 242.914 195.438 241.85 196.147 241.496L233.177 220.057C233.886 219.703 234.595 220.057 234.949 220.943L243.808 250.178Z" fill="#56548C"/>
<path fill-rule="evenodd" clip-rule="evenodd" d="M241.682 249.115L205.537 270.022L197.21 244.331L233.886 223.247L241.682 249.115Z" fill="#00F0FF"/>
<path fill-rule="evenodd" clip-rule="evenodd" d="M265.956 264.707L229.457 285.792C228.748 286.323 227.508 286.323 226.799 285.969L204.475 273.035L243.632 250.355L265.956 263.29C266.842 263.467 266.842 264.176 265.956 264.707Z" fill="#56548C"/>
<path fill-rule="evenodd" clip-rule="evenodd" d="M265.956 264.707L229.457 285.792C228.748 286.323 227.508 286.323 226.799 285.969L204.475 273.035L243.632 250.355L265.956 263.29C266.842 263.467 266.842 264.176 265.956 264.707Z" fill="#56548C"/>
<path fill-rule="evenodd" clip-rule="evenodd" d="M254.616 258.683L219.18 279.059L208.549 273.034L243.986 252.481L254.616 258.683Z" fill="#112B46"/>
<path fill-rule="evenodd" clip-rule="evenodd" d="M249.655 271.44L241.151 276.401C240.619 276.756 239.91 276.756 239.556 276.401L235.481 274.098C235.126 273.921 235.126 273.389 235.658 273.212L244.163 268.251C244.694 267.897 245.403 267.897 245.757 268.251L249.832 270.554C250.187 270.732 250.187 271.086 249.655 271.44Z" fill="#3C3C6D"/>
<path fill-rule="evenodd" clip-rule="evenodd" d="M61.6661 319.101C60.2486 340.363 84.3452 350.462 118.896 340.895C118.896 340.895 121.199 350.64 127.932 380.229C137.5 381.646 143.169 373.319 143.169 373.319C143.169 373.319 144.587 322.468 127.932 319.81C111.277 317.33 78.1439 316.975 78.1439 316.089L61.6661 319.101Z" fill="#3C3C6D"/>
<path fill-rule="evenodd" clip-rule="evenodd" d="M75.6636 198.618C79.7388 197.91 85.0542 197.91 88.9522 198.973C95.5079 200.922 99.0515 204.997 100.469 211.198C102.064 217.4 102.595 227.676 98.8743 233.523C96.571 237.067 91.7871 236.535 88.2435 235.472C83.9911 234.409 78.3213 232.46 74.9549 229.802C69.9938 226.081 67.5133 218.108 67.1589 212.261C66.9817 207.3 69.6395 199.682 75.6636 198.618Z" fill="#FFC8AF"/>
<path fill-rule="evenodd" clip-rule="evenodd" d="M70.525 199.859C66.6271 202.516 66.6271 208.541 66.8042 212.616C67.1586 218.463 69.9935 226.259 74.9546 229.979C77.6123 231.928 77.7895 232.283 81.3331 233.346C81.6874 233.169 82.3962 232.637 83.4592 231.928C85.4082 230.511 86.4713 227.853 85.7626 225.55C85.0539 223.247 84.8767 220.412 86.2942 219.703C88.4203 218.463 89.8378 222.715 89.8378 222.715C91.078 222.183 93.027 220.766 91.9639 218.285C90.9009 215.805 91.9639 213.147 91.9639 213.147C95.8619 213.147 97.6338 208.009 98.874 207.3C101.532 205.883 102.418 205.174 101.886 202.871C101.532 201.276 101 199.682 99.7599 198.441C98.3425 197.201 93.9129 195.429 91.9639 194.898C81.3331 192.24 73.0056 194.012 70.525 199.859Z" fill="#3C3C6D"/>
<path fill-rule="evenodd" clip-rule="evenodd" d="M94.445 238.484C84.8772 234.941 73.7148 228.562 58.1229 240.965C42.531 253.367 46.7833 303.864 50.6813 315.381C54.5793 326.898 80.2705 327.783 88.0665 326.898C95.8625 326.012 88.2437 312.546 90.7242 303.687C93.3819 295.005 113.581 245.571 94.445 238.484Z" fill="#DD6F6F"/>
<path fill-rule="evenodd" clip-rule="evenodd" d="M99.5826 240.61C103.658 243.091 114.111 273.743 114.111 273.743L117.832 249.646C117.832 249.646 126.514 245.571 131.475 251.064C128.109 274.452 126.16 298.371 117.832 299.789C109.505 301.206 95.8618 279.058 88.4202 268.25C81.1558 257.265 87.18 232.991 99.5826 240.61Z" fill="#EC827D"/>
<path d="M124.92 235.118L132.716 229.271L134.842 228.739L133.779 230.157L125.451 236.181L124.92 235.118Z" fill="#3C3C6D"/>
<path fill-rule="evenodd" clip-rule="evenodd" d="M119.604 251.064C119.604 250.355 116.592 242.914 117.833 240.256C119.073 237.598 120.49 235.826 120.49 235.826C121.73 231.574 125.274 232.106 128.109 234.763C130.944 237.598 134.842 244.331 129.704 250.001C124.565 254.608 119.604 251.064 119.604 251.064Z" fill="#FFC8AF"/>
<path fill-rule="evenodd" clip-rule="evenodd" d="M20.3826 258.151C20.3826 258.151 20.3826 258.329 20.3826 258.506C17.3706 258.151 13.8269 260.809 12.4095 264.53C9.92896 271.086 13.2954 342.135 19.3195 340.541C21.2685 342.49 63.6148 366.055 63.6148 366.055L66.0954 284.374C66.0954 284.551 36.1517 258.683 20.3826 258.151Z" fill="#46467C"/>
<path fill-rule="evenodd" clip-rule="evenodd" d="M63.6153 366.231C57.5911 367.826 54.0475 296.776 56.7052 290.221C59.1858 283.665 68.3992 280.476 69.9938 291.284C71.5885 301.915 79.7388 362.156 63.6153 366.231Z" fill="#56548C"/>
<path fill-rule="evenodd" clip-rule="evenodd" d="M311.492 403.971L298.026 402.731C298.026 402.731 289.344 405.212 284.383 405.92C279.245 406.629 275.701 405.743 274.461 407.692C274.284 408.046 274.106 408.401 274.106 408.932C273.929 411.59 276.233 414.071 277.473 415.134C280.131 417.083 282.966 418.146 290.939 417.614C293.065 416.728 296.608 416.197 298.026 418.323C300.152 419.209 307.948 420.449 311.492 418.323V416.551C313.618 414.425 311.492 403.971 311.492 403.971Z" fill="#56548C"/>
<path fill-rule="evenodd" clip-rule="evenodd" d="M317.516 280.299C321.945 303.155 305.999 328.138 307.417 346.742C309.188 372.079 310.074 383.064 312.732 403.794C312.732 403.794 302.456 409.818 294.837 402.908C287.041 362.511 283.674 355.246 284.737 281.362L317.516 280.299Z" fill="#D66565"/>
<path fill-rule="evenodd" clip-rule="evenodd" d="M254.793 175.053C250.186 180.368 254.084 202.161 260.463 207.477C266.841 212.792 272.157 210.843 277.649 206.237C283.142 201.453 286.331 189.759 285.091 181.077C283.319 168.851 267.904 159.815 254.793 175.053Z" fill="#FFC8AF"/>
<path fill-rule="evenodd" clip-rule="evenodd" d="M253.199 177.179C253.199 177.179 252.313 179.483 252.845 183.381C253.376 187.279 254.794 189.405 255.502 191.176C256.211 192.948 256.034 194.189 256.743 194.897C257.451 195.606 257.451 189.936 259.223 188.519C260.995 187.101 263.653 193.303 259.932 197.023C259.4 200.744 264.361 207.123 266.133 208.186C267.905 209.249 275.346 208.009 279.953 203.579C284.56 198.972 285.623 191.708 286.686 182.317C287.749 172.927 280.662 169.738 280.662 169.738C280.485 163.713 260.463 165.308 253.199 168.497C248.769 170.801 253.199 177.179 253.199 177.179Z" fill="#56548C"/>
<path fill-rule="evenodd" clip-rule="evenodd" d="M225.559 292.879C225.559 292.879 224.319 293.233 221.306 294.473C218.294 295.713 212.093 296.068 208.195 295.536C204.297 294.828 198.804 293.942 199.868 292.524C200.931 291.107 220.775 286.146 221.661 286.5C222.547 287.032 225.559 292.879 225.559 292.879Z" fill="#FFC8AF"/>
<path fill-rule="evenodd" clip-rule="evenodd" d="M285.8 416.197L272.335 414.957C272.335 414.957 263.653 417.437 258.692 418.146C253.553 418.855 250.01 417.969 248.77 419.918C248.592 420.272 248.415 420.626 248.415 421.158C248.238 423.816 250.541 426.296 251.782 427.359C254.439 429.308 257.274 430.371 265.247 429.84C267.374 428.954 270.917 428.422 272.335 430.549C274.461 431.434 282.257 432.675 285.8 430.549V428.777C287.927 426.473 285.8 416.197 285.8 416.197Z" fill="#56548C"/>
<path fill-rule="evenodd" clip-rule="evenodd" d="M307.239 286.146C308.656 309.534 289.521 335.048 288.458 353.829C286.863 379.698 286.863 397.947 286.863 419.032C286.863 419.032 269.676 427.182 268.968 414.602C266.487 373.319 263.652 362.511 274.46 287.209L307.239 286.146Z" fill="#EC827D"/>
<path fill-rule="evenodd" clip-rule="evenodd" d="M262.235 211.198C271.803 206.414 287.395 193.303 300.152 210.489C312.023 226.613 316.984 274.806 318.402 284.551C320.173 297.662 283.851 304.572 275.878 304.218C274.106 304.218 272.866 303.332 272.335 301.56C271.626 299.257 273.575 297.485 273.043 295.359C272.689 294.119 271.98 293.056 271.094 291.993C270.386 290.929 269.5 289.866 269.323 288.626C268.968 286.5 270.386 284.551 270.563 282.602C270.74 281.007 270.386 279.59 269.854 278.172C266.488 265.947 260.818 254.607 257.629 242.205C255.502 233.877 252.313 220.589 259.223 213.679C260.109 212.615 261.172 211.552 262.235 211.198Z" fill="#3C3C6D"/>
<path fill-rule="evenodd" clip-rule="evenodd" d="M256.388 217.754C248.769 242.028 248.061 254.253 240.442 263.821C239.91 264.53 219.18 286.854 219.18 286.854C219.18 286.854 222.015 291.815 229.28 293.233C240.796 288.272 254.085 270.022 257.451 266.124C259.4 263.821 270.917 242.913 272.689 232.105C274.461 221.297 259.577 208.009 256.388 217.754Z" fill="#3C3C6D"/>
<path fill-rule="evenodd" clip-rule="evenodd" d="M268.437 156.804L246.82 144.401L210.498 165.485L207.663 165.84V166.549C207.663 166.903 207.841 167.08 208.018 167.257L229.988 180.014C230.697 180.369 231.76 180.369 232.646 179.837L269.145 158.753C269.677 158.398 269.854 158.044 269.854 157.867V156.626L268.437 156.804Z" fill="#3C3C6D"/>
<path fill-rule="evenodd" clip-rule="evenodd" d="M269.145 157.512L232.646 178.597C231.937 179.128 230.697 179.128 229.988 178.774L207.663 165.84L246.82 143.161L269.145 156.095C269.854 156.449 269.854 156.981 269.145 157.512Z" fill="#56548C"/>
<path fill-rule="evenodd" clip-rule="evenodd" d="M269.145 157.512L232.646 178.597C231.937 179.128 230.697 179.128 229.988 178.774L207.663 165.84L246.82 143.161L269.145 156.095C269.854 156.449 269.854 156.981 269.145 157.512Z" fill="#56548C"/>
<path fill-rule="evenodd" clip-rule="evenodd" d="M267.019 157.158L231.583 177.711L220.952 171.51L256.565 151.134L267.019 157.158Z" fill="#3C3C6D"/>
<path fill-rule="evenodd" clip-rule="evenodd" d="M241.682 156.449L233.177 161.41C232.646 161.765 231.937 161.765 231.583 161.41L227.508 159.107C227.153 158.93 227.153 158.398 227.685 158.221L236.189 153.26C236.721 152.906 237.43 152.906 237.784 153.26L241.859 155.563C242.214 155.74 242.214 156.095 241.682 156.449Z" fill="#3C3C6D"/>
<path fill-rule="evenodd" clip-rule="evenodd" d="M178.074 114.635C187.819 119.419 188.705 147.945 196.147 155.209C200.399 159.284 217.231 156.095 222.901 156.095C225.204 161.233 222.015 167.258 222.015 167.258C189.945 168.852 186.047 169.738 177.897 154.146C171.696 141.921 165.14 111.446 178.074 114.635Z" fill="#FFE59B"/>
<path fill-rule="evenodd" clip-rule="evenodd" d="M242.746 147.945C234.241 143.692 232.292 140.326 228.04 136.605C220.598 130.049 217.586 104.004 211.385 100.814C207.309 99.9286 205.183 101.878 204.297 105.244C204.12 105.953 203.943 106.661 203.943 107.547C203.589 111.8 204.652 117.469 206.423 122.962C207.841 127.569 209.967 131.821 211.916 135.01C213.511 137.491 215.105 139.794 216.877 141.92C221.129 147.059 226.622 151.134 238.67 155.741C238.848 155.386 244.872 152.551 242.746 147.945Z" fill="#FFE59B"/>
<path fill-rule="evenodd" clip-rule="evenodd" d="M239.202 154.5C239.379 155.032 241.151 156.804 242.568 158.576C243.986 160.347 246.466 163.182 247.175 162.474C247.884 161.765 246.466 158.93 246.466 158.93C246.466 158.93 250.896 163.182 251.605 164.423C252.313 165.84 251.959 161.765 250.896 159.993C253.731 164.245 254.439 165.309 254.617 164.245C254.794 163.182 252.49 157.335 252.845 157.867C256.034 162.828 257.274 163.36 256.92 161.233C256.566 158.93 253.376 155.209 251.427 154.146C257.097 157.867 257.452 157.335 256.034 155.741C254.617 154.146 249.478 150.071 242.391 149.185C238.139 153.083 239.202 154.5 239.202 154.5Z" fill="#FFC8AF"/>
<path fill-rule="evenodd" clip-rule="evenodd" d="M242.923 163.537C241.151 160.702 238.493 157.513 235.127 156.627C232.824 155.918 230.343 156.449 228.04 157.158C226.268 157.69 223.61 158.044 221.661 158.753C220.775 160.879 220.421 162.828 220.421 164.777C220.775 164.954 221.13 164.954 221.661 165.131C223.61 165.309 225.559 166.017 227.508 166.017C228.748 166.017 230.875 166.372 232.115 166.017C231.583 166.194 231.052 166.372 231.052 166.903C231.052 167.258 231.406 167.789 231.76 167.789C234.595 168.498 237.076 164.954 238.848 163.36C238.671 163.537 245.226 167.08 242.923 163.537Z" fill="#FFC8AF"/>
<path fill-rule="evenodd" clip-rule="evenodd" d="M212.625 72.1109C212.625 72.1109 212.625 72.288 212.802 72.288C214.042 74.237 214.219 76.7175 214.042 79.0209C213.688 83.2732 211.03 88.4115 212.979 92.3095C213.865 94.0813 215.637 95.3216 216.168 97.0934C216.877 99.5739 215.105 102.232 212.802 103.649C209.967 105.421 206.424 106.13 203.411 105.067C200.222 104.003 197.742 101.169 197.387 97.9793C196.856 94.0813 199.336 90.3605 201.64 86.994C202.88 85.0451 204.652 82.5645 204.829 80.2612C205.006 78.135 203.766 76.186 204.297 73.8827C204.652 72.288 205.538 70.5162 207.132 69.9847C208.904 69.0988 211.385 70.339 212.625 72.1109Z" fill="#606BF1"/>
<path fill-rule="evenodd" clip-rule="evenodd" d="M189.236 90.5381C189.236 90.5381 191.894 99.5743 185.87 103.295C185.693 105.421 191.894 114.812 198.095 113.217C201.639 112.331 203.588 107.193 203.588 107.193C203.234 104.004 201.462 97.0938 201.462 97.0938L189.236 90.5381Z" fill="#FFC8AF"/>
<path fill-rule="evenodd" clip-rule="evenodd" d="M210.321 72.4655C210.321 72.4655 211.916 78.1353 211.384 82.5648C210.853 86.9944 210.321 95.6762 206.423 98.5111C202.525 101.346 196.855 97.9796 193.134 94.9675C189.414 91.9554 185.516 85.9313 185.339 79.0212C185.339 71.934 187.996 63.4293 198.096 63.7837C208.372 64.138 210.321 72.4655 210.321 72.4655Z" fill="#FFC8AF"/>
<path fill-rule="evenodd" clip-rule="evenodd" d="M203.234 68.036C205.892 71.2252 204.651 75.1232 201.285 77.6037C199.69 78.6668 197.918 79.3756 196.324 80.6158C194.729 81.6789 193.489 83.6279 193.843 85.3997C194.02 87.1715 195.615 88.7662 195.261 90.3608C194.906 91.7782 193.312 92.6641 193.135 94.0816C192.78 95.499 194.02 96.7393 194.729 97.9795C195.792 100.106 195.969 102.763 194.906 104.89C192.603 109.851 186.579 109.496 182.149 107.37C177.543 105.244 174.531 100.106 175.948 95.1447C176.657 92.487 178.429 90.1836 179.314 87.7031C180.378 84.3366 180.2 80.793 180.378 77.4266C180.732 70.8709 185.693 63.4293 192.603 62.3662C197.033 61.8346 200.399 64.6695 203.234 68.036Z" fill="#606BF1"/>
<path fill-rule="evenodd" clip-rule="evenodd" d="M206.601 64.1379C204.474 62.7205 196.501 60.2399 196.501 64.3151C196.501 68.3902 202.525 72.4654 205.715 74.4144C207.132 75.1231 208.55 75.8319 209.79 76.8949C211.385 78.1352 211.562 80.6157 212.979 81.6788C215.283 79.5527 214.574 74.2372 213.688 71.5795C212.625 68.2131 209.613 66.2641 206.601 64.1379Z" fill="#606BF1"/>
<path fill-rule="evenodd" clip-rule="evenodd" d="M269.145 157.513L232.646 178.597L245.58 151.489C245.935 150.603 246.821 149.54 247.529 149.185L281.725 129.341C282.434 128.987 282.611 129.341 282.08 130.227L269.145 157.513Z" fill="#56548C"/>
<path fill-rule="evenodd" clip-rule="evenodd" d="M88.7748 236.181V234.054C88.7748 234.054 83.4594 230.688 77.9668 230.511C72.4742 230.334 69.8165 231.751 69.6393 232.283C69.4621 232.991 69.2849 234.763 69.2849 234.763L88.7748 236.181Z" fill="#DD6F6F"/>
<path fill-rule="evenodd" clip-rule="evenodd" d="M202.171 99.5742C202.171 99.5742 201.639 103.295 201.817 103.827C201.994 104.535 203.234 105.244 203.234 105.244H205.715L202.171 99.5742Z" fill="#606BF1"/>
<path fill-rule="evenodd" clip-rule="evenodd" d="M218.294 122.962C218.117 118.001 217.231 114.812 216.345 112.863C216.345 113.394 216.345 114.103 216.522 114.635C216.7 121.19 215.636 130.581 214.573 138.2C215.459 139.44 216.168 140.503 217.054 141.566C217.763 135.188 218.471 128.1 218.294 122.962Z" fill="#EABD4E"/>
<path fill-rule="evenodd" clip-rule="evenodd" d="M131.476 153.26C131.476 160.701 128.995 172.927 127.046 181.963C127.755 183.203 128.641 184.266 129.349 185.152C131.121 176.47 132.893 166.194 132.716 159.993C132.716 157.158 132.184 155.032 131.476 153.26Z" fill="#3C3C6D"/>
<path fill-rule="evenodd" clip-rule="evenodd" d="M59.3628 92.8413C54.9332 100.46 59.0084 107.37 67.8675 107.902C76.195 108.433 85.4084 102.055 89.6607 95.1447C92.1413 91.0695 93.7359 83.6279 88.7748 80.6158C87.1802 79.5527 85.2312 79.5527 83.2822 79.7299C74.246 80.0843 64.3238 84.691 59.3628 92.8413Z" fill="url(#paint2_linear)" fill-opacity="0.2"/>
<path fill-rule="evenodd" clip-rule="evenodd" d="M303.341 60.7715C304.05 60.7715 304.759 60.7715 305.467 60.9487C310.606 62.5433 309.543 69.6305 305.822 72.2883C303.696 73.8829 301.392 73.1742 299.62 71.4023C296.077 68.0359 298.735 61.303 303.341 60.7715Z" fill="url(#paint3_linear)" fill-opacity="0.2"/>
<defs>
<linearGradient id="paint0_linear" x1="147.305" y1="56.2803" x2="307.865" y2="453.429" gradientUnits="userSpaceOnUse">
<stop stop-color="#A9007A"/>
<stop offset="1" stop-color="#027871" stop-opacity="0"/>
</linearGradient>
<linearGradient id="paint1_linear" x1="131.333" y1="211.909" x2="250.306" y2="569.728" gradientUnits="userSpaceOnUse">
<stop stop-color="#009FA9"/>
<stop offset="1" stop-color="#2D0278"/>
</linearGradient>
<linearGradient id="paint2_linear" x1="67.4589" y1="82.8082" x2="84.2478" y2="117.886" gradientUnits="userSpaceOnUse">
<stop stop-color="#A9007A"/>
<stop offset="0.994792" stop-color="#026A78" stop-opacity="0.87"/>
</linearGradient>
<linearGradient id="paint3_linear" x1="301.141" y1="62.1598" x2="309.822" y2="75.3513" gradientUnits="userSpaceOnUse">
<stop stop-color="#A9007A"/>
<stop offset="0.994792" stop-color="#026A78" stop-opacity="0.87"/>
</linearGradient>
</defs>
</svg>
