<svg width="1400" height="1553" viewBox="0 0 1400 1553" fill="none" xmlns="http://www.w3.org/2000/svg">
<path fill-rule="evenodd" clip-rule="evenodd" d="M1257.92 34.9112C1239.4 30.1361 1219.01 24.8763 1196.5 19.2631C1043.92 -18.7913 886.268 7.32316 743.477 30.9755C730.694 33.0929 718.03 35.1906 705.5 37.2208C544.667 51.8757 178.4 76.7891 0 59.2032V81H-0.000488281V325H-1V747H-0.000488281V1470L0 1470V1491.12C6.49929 1493.92 35.3043 1499.28 71.5076 1506.01C113.289 1513.78 164.925 1523.38 203.5 1533C356.078 1571.05 513.733 1544.94 656.524 1521.29L656.592 1521.28C669.352 1519.16 681.992 1517.07 694.5 1515.04C860.5 1481 1221.6 1475.47 1400 1493.06L1400 1470L1400 82.2631V61.1428C1371.5 64.1962 1328.28 53.0511 1257.92 34.9112Z" fill="#C4C4C4"/>
<path fill-rule="evenodd" clip-rule="evenodd" d="M1257.92 34.9112C1239.4 30.1361 1219.01 24.8763 1196.5 19.2631C1043.92 -18.7913 886.268 7.32316 743.477 30.9755C730.694 33.0929 718.03 35.1906 705.5 37.2208C544.667 51.8757 178.4 76.7891 0 59.2032V81H-0.000488281V325H-1V747H-0.000488281V1470L0 1470V1491.12C6.49929 1493.92 35.3043 1499.28 71.5076 1506.01C113.289 1513.78 164.925 1523.38 203.5 1533C356.078 1571.05 513.733 1544.94 656.524 1521.29L656.592 1521.28C669.352 1519.16 681.992 1517.07 694.5 1515.04C860.5 1481 1221.6 1475.47 1400 1493.06L1400 1470L1400 82.2631V61.1428C1371.5 64.1962 1328.28 53.0511 1257.92 34.9112Z" fill="url(#paint0_linear)"/>
<defs>
<linearGradient id="paint0_linear" x1="401.5" y1="173.718" x2="1479.58" y2="1843" gradientUnits="userSpaceOnUse">
<stop stop-color="#024E78"/>
<stop offset="0.286458" stop-color="#2D0278"/>
<stop offset="0.512929" stop-color="#13034E"/>
<stop offset="0.982875" stop-color="#BE4B61"/>
</linearGradient>
</defs>
</svg>
