<svg width="691" height="977" viewBox="0 0 691 977" fill="none" xmlns="http://www.w3.org/2000/svg">
<path d="M596.042 165.743C591.981 174.452 586.072 180.292 582.844 178.787C579.617 177.282 580.292 169.002 584.353 160.293C588.414 151.584 664.943 2.72519 664.943 2.72519C664.943 2.72519 600.103 157.034 596.042 165.743Z" fill="url(#paint0_linear)"/>
<path d="M19.0417 519.743C14.9807 528.452 9.072 534.292 5.84434 532.787C2.61669 531.282 3.29229 523.002 7.35333 514.293C11.4144 505.584 87.9433 356.725 87.9433 356.725C87.9433 356.725 23.1027 511.034 19.0417 519.743Z" fill="url(#paint1_linear)"/>
<path d="M540.441 945.033C532.293 962.505 523.072 975.449 519.844 973.943C516.617 972.438 520.605 957.054 528.752 939.582C536.899 922.11 684.553 620.725 684.553 620.725C684.553 620.725 548.588 927.561 540.441 945.033Z" fill="url(#paint2_linear)"/>
<defs>
<linearGradient id="paint0_linear" x1="664.943" y1="2.72519" x2="582.844" y2="178.787" gradientUnits="userSpaceOnUse">
<stop offset="0.228775" stop-color="#00F0FF" stop-opacity="0"/>
<stop offset="1" stop-color="#00F0FF"/>
</linearGradient>
<linearGradient id="paint1_linear" x1="87.9433" y1="356.725" x2="5.84434" y2="532.787" gradientUnits="userSpaceOnUse">
<stop offset="0.228775" stop-color="#00F0FF" stop-opacity="0"/>
<stop offset="1" stop-color="#00F0FF"/>
</linearGradient>
<linearGradient id="paint2_linear" x1="684.553" y1="620.725" x2="519.844" y2="973.943" gradientUnits="userSpaceOnUse">
<stop offset="0.228775" stop-color="#00F0FF" stop-opacity="0"/>
<stop offset="1" stop-color="#FF63CE"/>
</linearGradient>
</defs>
</svg>
