<?xml version="1.0" encoding="UTF-8"?> <svg xmlns="http://www.w3.org/2000/svg" width="457" height="383" viewBox="0 0 457 383" fill="none"> <path opacity="0.5" d="M455.366 244.172C470.326 304.218 380.912 364.907 255.616 379.717C130.32 394.527 16.5952 357.824 1.63447 297.859C-13.3263 237.813 76.0875 177.124 201.384 162.314C326.68 147.423 440.405 184.126 455.366 244.172Z" fill="url(#paint0_radial)"></path> <path d="M375.06 0L66.8897 145.505L72.02 121.8L40 103.225L375.06 0Z" fill="url(#paint1_linear)"></path> <path d="M375.06 0L145.701 164.7L186.036 210.165L231.324 211.138L375.06 0Z" fill="url(#paint2_linear)"></path> <path d="M375.06 0L199.569 82.5268L216.199 136.218L375.06 0Z" fill="url(#paint3_linear)"></path> <path d="M375.06 0L199.569 82.5268L216.199 136.218L375.06 0Z" fill="url(#paint4_linear)"></path> <path d="M375.06 0L199.569 82.5268L170.291 84.5612L152.955 68.4627L375.06 0Z" fill="url(#paint5_linear)"></path> <path d="M375.061 0L232.828 101.898L216.199 136.218L375.061 0Z" fill="url(#paint6_linear)"></path> <path d="M375.061 0L232.828 101.898L216.199 136.218L375.061 0Z" fill="url(#paint7_linear)"></path> <path d="M375.06 0L232.828 101.898L255.029 126.311L282.273 136.218L375.06 0Z" fill="url(#paint8_linear)"></path> <path d="M282.273 136.218L255.029 126.311L232.828 101.898L216.199 136.218L199.569 82.5269L170.291 84.5614L152.955 68.4629L170.911 84.0306L200.012 82.35L216.375 133.918L232.828 101.898L255.118 125.25L282.273 136.218Z" fill="white"></path> <path d="M301.059 344.369L291.152 334.02C290.533 333.401 289.825 333.312 289.56 333.843L287.172 339.239C286.906 339.769 287.26 340.742 287.791 341.362L297.698 351.711C298.317 352.33 299.025 352.418 299.29 351.888L301.678 346.492C301.943 345.961 301.678 344.988 301.059 344.369Z" fill="url(#paint9_linear)"></path> <path d="M300.794 344.457L290.799 334.108C290.179 333.489 289.472 333.401 289.207 333.931L286.818 339.327C286.553 339.858 286.907 340.831 287.437 341.45L297.344 351.799C297.963 352.418 298.671 352.507 298.936 351.976L301.325 346.58C301.678 346.05 301.413 345.077 300.794 344.457Z" fill="url(#paint10_linear)"></path> <path d="M300.794 344.458L290.799 334.109C290.357 333.666 289.826 333.49 289.561 333.666C289.826 333.666 290.18 333.843 290.534 334.197L300.44 344.546C301.059 345.165 301.325 346.138 301.059 346.669L298.671 352.065C298.583 352.242 298.494 352.33 298.406 352.418C298.671 352.418 298.937 352.33 299.025 352.065L301.413 346.669C301.679 346.05 301.413 345.077 300.794 344.458Z" fill="url(#paint11_radial)"></path> <path d="M290.091 333.667L293.452 344.723L301.413 345.431L293.806 344.016L290.091 333.667Z" fill="#BCBEC0"></path> <path d="M295.663 344.9L298.317 352.242L296.105 344.9H295.663Z" fill="#D1D3D4"></path> <path d="M292.302 341.008L286.995 340.565L292.391 341.627L292.302 341.008Z" fill="#D1D3D4"></path> <path d="M290.533 335.966C290.268 335.966 290.003 335.612 289.826 335.258C289.737 334.905 289.826 334.639 290.18 334.639C290.445 334.639 290.71 334.993 290.887 335.347C290.976 335.789 290.799 336.054 290.533 335.966Z" fill="#603913"></path> <path d="M290.445 335.612C290.356 335.612 290.268 335.612 290.268 335.524L280.007 320.31L280.361 320.044L290.445 334.993L300.528 320.044L300.882 320.31L290.622 335.524C290.622 335.612 290.533 335.612 290.445 335.612Z" fill="#9D9EB3"></path> <path d="M290.445 335.612C290.356 335.612 290.268 335.524 290.268 335.435L285.226 320.221L285.668 320.044L290.445 334.639L295.221 320.044L295.664 320.221L290.622 335.435C290.622 335.524 290.533 335.612 290.445 335.612Z" fill="#9D9EB3"></path> <path d="M303.713 315.622C303.713 315.091 303.624 314.472 303.536 313.941C303.447 313.233 303.359 312.614 303.182 312.083C302.74 310.314 301.855 308.634 300.794 307.218C296.902 302.796 290.356 304.123 290.356 304.123C290.356 304.123 283.811 302.796 279.919 307.218C278.858 308.634 278.061 310.314 277.531 312.083C277.354 312.703 277.265 313.322 277.177 313.941C277.088 314.472 277 315.002 277 315.622C277 317.125 277.354 318.717 279.477 319.69C281.865 321.459 285.845 322.609 290.268 322.609C294.779 322.609 298.671 321.459 301.059 319.69C303.271 318.894 303.713 317.125 303.713 315.622Z" fill="url(#paint12_radial)"></path> <path d="M286.199 322.256C287.968 323.848 292.833 323.937 294.602 322.256C294.514 312.172 292.656 304.123 290.356 304.123C288.145 304.212 286.288 312.261 286.199 322.256Z" fill="url(#paint13_radial)"></path> <path d="M292.833 302.265C292.037 302.088 291.241 302 290.445 302C289.649 302 288.764 302.088 288.057 302.265C289.472 303.15 290.445 304.211 290.445 304.211C290.445 304.211 291.418 303.238 292.833 302.265Z" fill="url(#paint14_radial)"></path> <path d="M290.445 304.211C284.607 304.211 279.831 311.111 279.654 319.691C279.654 322.167 284.43 323.14 286.288 322.256C286.288 312.261 288.145 304.211 290.445 304.211Z" fill="url(#paint15_linear)"></path> <path d="M290.445 304.211C292.745 304.211 294.603 312.261 294.691 322.344C296.195 323.229 301.06 322.256 301.325 319.779C301.06 311.111 296.283 304.211 290.445 304.211Z" fill="url(#paint16_linear)"></path> <path d="M279.919 307.219C283.811 302.796 290.356 304.123 290.356 304.123C290.356 304.123 289.383 303.15 287.968 302.177C284.695 302.884 281.865 304.742 279.919 307.219Z" fill="url(#paint17_linear)"></path> <path d="M300.883 307.307C298.937 304.742 296.106 302.973 292.834 302.354C291.418 303.238 290.445 304.299 290.445 304.299C290.445 304.299 296.991 302.884 300.883 307.307Z" fill="url(#paint18_linear)"></path> <path d="M305.039 346.669C305.039 347.731 304.685 348.438 304.066 348.792C304.066 348.792 303.093 349.411 303.005 349.411C302.385 349.765 302.828 348.969 301.855 348.438C299.997 347.377 298.494 344.723 298.494 342.6C298.494 341.539 297.521 341.539 298.14 341.185L299.29 340.566C299.909 340.212 300.705 340.3 301.678 340.831C303.535 341.893 305.039 344.546 305.039 346.669Z" fill="url(#paint19_linear)"></path> <path d="M303.889 347.377C303.889 349.499 302.386 350.384 300.528 349.323C298.671 348.261 297.167 345.607 297.167 343.485C297.167 341.362 298.671 340.477 300.528 341.539C302.386 342.6 303.889 345.165 303.889 347.377Z" fill="url(#paint20_linear)"></path> <path d="M300.705 341.45C299.821 340.92 299.024 340.831 298.405 341.185C298.936 341.008 299.644 341.185 300.44 341.627C302.297 342.689 303.801 345.342 303.801 347.465C303.801 348.615 303.359 349.323 302.739 349.676C303.536 349.411 304.066 348.615 304.066 347.377C304.066 345.077 302.563 342.512 300.705 341.45Z" fill="url(#paint21_radial)"></path> <path d="M299.644 347.199C299.467 346.934 299.29 346.757 299.113 346.492C299.024 346.227 298.936 346.05 298.936 345.873V345.784H299.024L299.555 346.05C299.644 346.138 299.644 346.138 299.732 346.227C299.821 346.58 300.086 346.846 300.44 347.111C300.617 347.2 300.794 347.288 300.97 347.199C301.059 347.199 301.147 347.023 301.147 346.846C301.147 346.669 301.059 346.403 300.97 346.315C300.882 346.138 300.705 346.05 300.44 345.873L299.909 345.519L299.821 345.43V345.342V345.077C299.821 344.988 299.821 344.988 299.909 344.9L300.882 344.369L299.378 343.484L299.29 343.396V343.308V342.865C299.29 342.777 299.29 342.777 299.29 342.777H299.378L301.678 344.104L301.767 344.192C301.767 344.192 301.767 344.281 301.767 344.369V344.723C301.767 344.811 301.767 344.811 301.678 344.811L300.794 345.342H300.882C301.236 345.607 301.501 345.873 301.678 346.138C301.855 346.492 301.943 346.846 301.943 347.199C301.943 347.465 301.855 347.642 301.767 347.819C301.678 347.907 301.501 347.996 301.236 347.996C300.97 347.996 300.794 347.907 300.44 347.73C300.174 347.642 299.909 347.465 299.644 347.199Z" fill="white"></path> <path d="M184.059 335.369L174.152 325.02C173.533 324.4 172.825 324.312 172.56 324.843L170.172 330.238C169.906 330.769 170.26 331.742 170.791 332.361L180.698 342.71C181.317 343.329 182.024 343.418 182.29 342.887L184.678 337.491C184.943 336.961 184.678 335.988 184.059 335.369Z" fill="url(#paint22_linear)"></path> <path d="M183.794 335.457L173.799 325.108C173.179 324.489 172.472 324.401 172.207 324.931L169.818 330.327C169.553 330.858 169.907 331.831 170.437 332.45L180.344 342.799C180.963 343.418 181.671 343.507 181.936 342.976L184.325 337.58C184.678 337.05 184.413 336.077 183.794 335.457Z" fill="url(#paint23_linear)"></path> <path d="M183.794 335.458L173.799 325.109C173.357 324.666 172.826 324.49 172.561 324.666C172.826 324.666 173.18 324.843 173.534 325.197L183.44 335.546C184.059 336.165 184.325 337.138 184.059 337.669L181.671 343.065C181.583 343.242 181.494 343.33 181.406 343.418C181.671 343.418 181.937 343.33 182.025 343.065L184.413 337.669C184.679 337.05 184.413 336.077 183.794 335.458Z" fill="url(#paint24_radial)"></path> <path d="M173.091 324.667L176.452 335.723L184.413 336.431L176.806 335.016L173.091 324.667Z" fill="#BCBEC0"></path> <path d="M178.663 335.899L181.317 343.241L179.105 335.899H178.663Z" fill="#D1D3D4"></path> <path d="M175.302 331.919L169.995 331.477L175.391 332.538L175.302 331.919Z" fill="#D1D3D4"></path> <path d="M173.533 326.966C173.268 326.966 173.003 326.612 172.826 326.258C172.737 325.905 172.826 325.639 173.18 325.639C173.445 325.639 173.71 325.993 173.887 326.347C173.976 326.789 173.799 327.054 173.533 326.966Z" fill="#603913"></path> <path d="M173.445 326.612C173.356 326.612 173.268 326.612 173.268 326.524L163.007 311.31L163.361 311.044L173.445 325.993L183.528 311.044L183.882 311.31L173.622 326.524C173.622 326.612 173.533 326.612 173.445 326.612Z" fill="#9D9EB3"></path> <path d="M173.445 326.612C173.356 326.612 173.268 326.524 173.268 326.435L168.226 311.221L168.668 311.044L173.445 325.639L178.221 311.044L178.664 311.221L173.622 326.435C173.622 326.524 173.533 326.612 173.445 326.612Z" fill="#9D9EB3"></path> <path d="M186.713 306.622C186.713 306.091 186.624 305.472 186.536 304.941C186.447 304.233 186.359 303.614 186.182 303.083C185.74 301.314 184.855 299.634 183.794 298.218C179.902 293.796 173.356 295.123 173.356 295.123C173.356 295.123 166.811 293.796 162.919 298.218C161.858 299.634 161.061 301.314 160.531 303.083C160.354 303.703 160.265 304.322 160.177 304.941C160.088 305.472 160 306.002 160 306.622C160 308.125 160.354 309.717 162.477 310.69C164.865 312.459 168.845 313.609 173.268 313.609C177.779 313.609 181.671 312.459 184.059 310.69C186.271 309.894 186.713 308.125 186.713 306.622Z" fill="url(#paint25_radial)"></path> <path d="M169.199 313.256C170.968 314.848 175.833 314.937 177.602 313.256C177.514 303.172 175.656 295.123 173.356 295.123C171.145 295.212 169.288 303.261 169.199 313.256Z" fill="url(#paint26_radial)"></path> <path d="M175.833 293.265C175.037 293.088 174.241 293 173.445 293C172.649 293 171.764 293.088 171.057 293.265C172.472 294.15 173.445 295.211 173.445 295.211C173.445 295.211 174.418 294.238 175.833 293.265Z" fill="url(#paint27_radial)"></path> <path d="M173.445 295.211C167.607 295.211 162.83 302.111 162.653 310.691C162.653 313.167 167.43 314.14 169.287 313.256C169.287 303.261 171.145 295.211 173.445 295.211Z" fill="url(#paint28_linear)"></path> <path d="M166.014 310.846C165.591 310.715 165.312 310.562 165.161 310.45C165.283 306.899 166.281 303.779 167.738 301.52C167.238 304.232 166.914 307.494 166.818 311.025C166.547 310.986 166.273 310.926 166.014 310.846Z" stroke="white" stroke-opacity="0.3" stroke-width="5"></path> <path d="M173.445 295.211C175.745 295.211 177.602 303.261 177.691 313.344C179.194 314.229 184.148 313.256 184.325 310.779C184.059 302.111 179.283 295.211 173.445 295.211Z" fill="url(#paint29_linear)"></path> <path d="M180.775 310.931C180.565 310.995 180.351 311.046 180.142 311.084C180.018 307.532 179.678 304.258 179.169 301.54C180.621 303.788 181.634 306.891 181.809 310.441C181.623 310.589 181.276 310.778 180.775 310.931ZM181.907 310.352C181.908 310.35 181.908 310.35 181.908 310.35C181.909 310.35 181.908 310.35 181.907 310.352ZM178.815 311.122C178.815 311.122 178.817 311.122 178.821 311.123C178.817 311.122 178.815 311.122 178.815 311.122Z" stroke="white" stroke-opacity="0.3" stroke-width="5"></path> <mask id="path-47-inside-1" fill="white"> <path d="M162.918 298.219C166.81 293.796 173.356 295.123 173.356 295.123C173.356 295.123 172.383 294.15 170.968 293.177C167.695 293.884 164.953 295.742 162.918 298.219Z"></path> </mask> <path d="M162.918 298.219C166.81 293.796 173.356 295.123 173.356 295.123C173.356 295.123 172.383 294.15 170.968 293.177C167.695 293.884 164.953 295.742 162.918 298.219Z" fill="url(#paint30_linear)"></path> <path d="M162.918 298.219L159.055 295.045L166.672 301.522L162.918 298.219ZM173.356 295.123L172.363 300.023L188.623 303.319L176.891 291.587L173.356 295.123ZM170.968 293.177L173.8 289.057L172.021 287.833L169.911 288.29L170.968 293.177ZM166.672 301.522C167.48 300.603 168.686 300.134 170.115 299.985C170.799 299.914 171.42 299.931 171.864 299.968C172.081 299.986 172.243 300.007 172.334 300.02C172.379 300.027 172.406 300.032 172.412 300.033C172.414 300.033 172.412 300.033 172.404 300.031C172.4 300.03 172.394 300.029 172.387 300.028C172.384 300.027 172.38 300.027 172.376 300.026C172.374 300.025 172.372 300.025 172.37 300.024C172.369 300.024 172.367 300.024 172.366 300.024C172.364 300.023 172.363 300.023 173.356 295.123C174.349 290.222 174.347 290.222 174.345 290.222C174.345 290.222 174.343 290.221 174.342 290.221C174.339 290.22 174.336 290.22 174.333 290.219C174.328 290.218 174.321 290.217 174.315 290.216C174.302 290.213 174.287 290.21 174.27 290.207C174.237 290.201 174.197 290.193 174.151 290.185C174.059 290.169 173.941 290.149 173.8 290.128C173.518 290.087 173.138 290.039 172.681 290.001C171.776 289.927 170.517 289.889 169.079 290.039C166.261 290.333 162.248 291.412 159.165 294.915L166.672 301.522ZM173.356 295.123C176.891 291.587 176.891 291.587 176.891 291.586C176.891 291.586 176.89 291.586 176.89 291.586C176.889 291.585 176.889 291.585 176.888 291.584C176.887 291.583 176.886 291.582 176.884 291.58C176.882 291.578 176.879 291.575 176.876 291.572C176.87 291.566 176.863 291.558 176.854 291.55C176.838 291.534 176.818 291.515 176.794 291.491C176.746 291.444 176.682 291.384 176.604 291.311C176.449 291.165 176.235 290.969 175.971 290.739C175.448 290.285 174.7 289.675 173.8 289.057L168.135 297.297C168.65 297.651 169.097 298.014 169.414 298.29C169.57 298.425 169.688 298.533 169.759 298.6C169.795 298.634 169.818 298.657 169.829 298.667C169.834 298.672 169.836 298.674 169.835 298.673C169.834 298.672 169.833 298.67 169.83 298.668C169.829 298.667 169.828 298.665 169.826 298.664C169.825 298.663 169.824 298.662 169.823 298.661C169.823 298.661 169.822 298.66 169.822 298.66C169.822 298.66 169.821 298.659 169.821 298.659C169.821 298.659 169.82 298.658 173.356 295.123ZM169.911 288.29C165.397 289.266 161.709 291.814 159.055 295.045L166.782 301.392C168.197 299.67 169.993 298.503 172.024 298.064L169.911 288.29Z" fill="white" fill-opacity="0.3" mask="url(#path-47-inside-1)"></path> <mask id="path-49-inside-2" fill="white"> <path d="M183.882 298.307C181.936 295.742 179.106 293.973 175.833 293.354C174.418 294.238 173.445 295.299 173.445 295.299C173.445 295.299 179.99 293.884 183.882 298.307Z"></path> </mask> <path d="M183.882 298.307C181.936 295.742 179.106 293.973 175.833 293.354C174.418 294.238 173.445 295.299 173.445 295.299C173.445 295.299 179.99 293.884 183.882 298.307Z" fill="url(#paint31_linear)"></path> <path d="M183.882 298.307L180.129 301.61L187.866 295.285L183.882 298.307ZM175.833 293.354L176.763 288.441L174.841 288.077L173.183 289.114L175.833 293.354ZM173.445 295.299L169.759 291.921L159.137 303.509L174.501 300.187L173.445 295.299ZM187.866 295.285C185.167 291.728 181.246 289.289 176.763 288.441L174.904 298.266C176.966 298.657 178.705 299.756 179.899 301.329L187.866 295.285ZM173.183 289.114C172.166 289.749 171.339 290.427 170.774 290.932C170.487 291.189 170.254 291.414 170.083 291.584C169.998 291.67 169.928 291.742 169.874 291.799C169.846 291.827 169.823 291.852 169.804 291.872C169.795 291.882 169.786 291.892 169.779 291.9C169.775 291.904 169.771 291.908 169.768 291.911C169.766 291.913 169.765 291.915 169.763 291.916C169.763 291.917 169.762 291.918 169.761 291.919C169.761 291.919 169.76 291.919 169.76 291.92C169.76 291.92 169.759 291.921 173.445 295.299C177.131 298.678 177.13 298.679 177.13 298.679C177.129 298.679 177.129 298.68 177.129 298.68C177.128 298.681 177.127 298.682 177.127 298.682C177.125 298.684 177.124 298.685 177.123 298.686C177.121 298.689 177.119 298.691 177.117 298.693C177.113 298.697 177.11 298.7 177.108 298.702C177.104 298.707 177.103 298.708 177.105 298.706C177.11 298.701 177.126 298.683 177.154 298.655C177.211 298.599 177.31 298.503 177.442 298.384C177.718 298.137 178.085 297.842 178.483 297.594L173.183 289.114ZM173.445 295.299C174.501 300.187 174.5 300.187 174.498 300.187C174.497 300.187 174.496 300.188 174.494 300.188C174.492 300.189 174.49 300.189 174.488 300.189C174.484 300.19 174.48 300.191 174.477 300.192C174.47 300.193 174.464 300.194 174.46 300.195C174.452 300.197 174.45 300.197 174.452 300.197C174.458 300.196 174.484 300.191 174.529 300.184C174.62 300.169 174.781 300.146 174.998 300.125C175.44 300.084 176.058 300.059 176.737 300.123C178.155 300.256 179.337 300.71 180.129 301.61L187.636 295.004C184.536 291.481 180.498 290.432 177.671 290.167C176.228 290.031 174.966 290.084 174.059 290.17C173.601 290.213 173.221 290.265 172.938 290.311C172.797 290.334 172.679 290.355 172.586 290.372C172.54 290.381 172.5 290.389 172.467 290.396C172.451 290.399 172.436 290.402 172.423 290.405C172.416 290.406 172.41 290.408 172.404 290.409C172.401 290.41 172.398 290.41 172.396 290.411C172.395 290.411 172.393 290.411 172.392 290.412C172.39 290.412 172.388 290.412 173.445 295.299Z" fill="white" fill-opacity="0.3" mask="url(#path-49-inside-2)"></path> <path d="M188.04 337.669C188.04 338.73 187.686 339.438 187.067 339.791C187.067 339.791 186.094 340.411 186.005 340.411C185.386 340.764 185.828 339.968 184.855 339.438C182.998 338.376 181.494 335.723 181.494 333.6C181.494 332.538 180.521 332.538 181.14 332.184L182.29 331.565C182.909 331.211 183.705 331.3 184.678 331.831C186.536 332.892 188.04 335.546 188.04 337.669Z" fill="url(#paint32_linear)"></path> <path d="M186.89 338.376C186.89 340.499 185.386 341.383 183.529 340.322C181.671 339.261 180.167 336.607 180.167 334.484C180.167 332.361 181.671 331.477 183.529 332.538C185.386 333.6 186.89 336.165 186.89 338.376Z" fill="url(#paint33_linear)"></path> <path d="M183.706 332.45C182.821 331.92 182.025 331.831 181.406 332.185C181.936 332.008 182.644 332.185 183.44 332.627C185.298 333.689 186.801 336.342 186.801 338.465C186.801 339.615 186.359 340.323 185.74 340.676C186.536 340.411 187.067 339.615 187.067 338.377C187.067 336.077 185.563 333.512 183.706 332.45Z" fill="url(#paint34_radial)"></path> <path d="M183.352 338.553V338.465V335.28L182.556 335.546H182.467L182.379 335.457L182.113 335.015V334.927C182.113 334.838 182.113 334.838 182.202 334.838L183.44 334.484C183.44 334.484 183.529 334.484 183.617 334.484L184.059 334.75L184.148 334.838V334.927V338.907V338.995H184.059L183.529 338.73C183.44 338.642 183.44 338.553 183.352 338.553Z" fill="white"></path> <path d="M241.098 374.369L231.192 364.02C230.573 363.401 229.865 363.312 229.6 363.843L227.211 369.239C226.946 369.769 227.3 370.742 227.83 371.362L237.737 381.711C238.356 382.33 239.064 382.418 239.329 381.888L241.718 376.492C241.983 375.961 241.718 374.988 241.098 374.369Z" fill="url(#paint35_linear)"></path> <path d="M240.834 374.457L230.927 364.108C230.308 363.489 229.6 363.401 229.335 363.931L226.947 369.327C226.681 369.858 227.035 370.831 227.566 371.45L237.473 381.799C238.092 382.418 238.799 382.507 239.065 381.976L241.453 376.58C241.718 376.05 241.453 375.077 240.834 374.457Z" fill="url(#paint36_linear)"></path> <path d="M240.834 374.458L230.927 364.109C230.485 363.666 229.954 363.49 229.688 363.666C229.954 363.666 230.308 363.843 230.661 364.197L240.568 374.546C241.187 375.165 241.453 376.138 241.187 376.669L238.799 382.065C238.711 382.242 238.622 382.33 238.534 382.418C238.799 382.418 239.065 382.33 239.153 382.065L241.541 376.669C241.718 376.05 241.453 375.077 240.834 374.458Z" fill="url(#paint37_radial)"></path> <path d="M230.13 363.667L233.492 374.723L241.452 375.431L233.845 374.016L230.13 363.667Z" fill="#BCBEC0"></path> <path d="M235.703 374.9L238.357 382.242L236.145 374.9H235.703Z" fill="#D1D3D4"></path> <path d="M232.342 370.919L227.035 370.477L232.43 371.538L232.342 370.919Z" fill="#D1D3D4"></path> <path d="M230.573 365.966C230.308 365.966 230.042 365.612 229.865 365.258C229.777 364.905 229.865 364.639 230.219 364.639C230.485 364.639 230.75 364.993 230.927 365.347C231.015 365.789 230.838 366.054 230.573 365.966Z" fill="#603913"></path> <path d="M230.484 365.612C230.396 365.612 230.307 365.612 230.307 365.524L220.047 350.31L220.401 350.044L230.484 364.993L240.568 350.044L240.922 350.31L230.661 365.524C230.661 365.612 230.573 365.612 230.484 365.612Z" fill="#9D9EB3"></path> <path d="M230.484 365.612C230.396 365.612 230.307 365.524 230.307 365.435L225.266 350.221L225.708 350.044L230.484 364.639L235.261 350.044L235.703 350.221L230.661 365.435C230.661 365.524 230.573 365.612 230.484 365.612Z" fill="#9D9EB3"></path> <path d="M243.752 345.622C243.752 345.091 243.664 344.472 243.575 343.941C243.487 343.233 243.399 342.614 243.222 342.083C242.779 340.314 241.895 338.634 240.833 337.218C236.941 332.796 230.396 334.123 230.396 334.123C230.396 334.123 223.85 332.796 219.958 337.218C218.897 338.634 218.101 340.314 217.57 342.083C217.393 342.703 217.305 343.322 217.216 343.941C217.128 344.472 217.04 345.002 217.04 345.622C217.04 347.125 217.393 348.717 219.516 349.69C221.904 351.459 225.885 352.609 230.308 352.609C234.819 352.609 238.711 351.459 241.099 349.69C243.31 348.894 243.752 347.125 243.752 345.622Z" fill="url(#paint38_radial)"></path> <path d="M226.239 352.256C228.008 353.848 232.873 353.937 234.642 352.256C234.553 342.172 232.696 334.123 230.396 334.123C228.185 334.212 226.327 342.261 226.239 352.256Z" fill="url(#paint39_radial)"></path> <path d="M232.873 332.265C232.077 332.088 231.28 332 230.484 332C229.688 332 228.804 332.088 228.096 332.265C229.511 333.15 230.484 334.211 230.484 334.211C230.484 334.211 231.457 333.238 232.873 332.265Z" fill="url(#paint40_radial)"></path> <path d="M230.484 334.211C224.646 334.211 219.87 341.111 219.693 349.691C219.693 352.167 224.469 353.14 226.327 352.256C226.327 342.261 228.184 334.211 230.484 334.211Z" fill="url(#paint41_linear)"></path> <path d="M230.484 334.211C224.646 334.211 219.87 341.111 219.693 349.691C219.693 352.167 224.469 353.14 226.327 352.256C226.327 342.261 228.184 334.211 230.484 334.211Z" fill="url(#paint42_radial)"></path> <path d="M230.484 334.211C232.784 334.211 234.642 342.261 234.73 352.344C236.234 353.229 241.187 352.256 241.364 349.779C241.099 341.111 236.322 334.211 230.484 334.211Z" fill="url(#paint43_linear)"></path> <path d="M230.484 334.211C232.784 334.211 234.642 342.261 234.73 352.344C236.234 353.229 241.187 352.256 241.364 349.779C241.099 341.111 236.322 334.211 230.484 334.211Z" fill="url(#paint44_radial)"></path> <path d="M219.958 337.219C223.85 332.796 230.395 334.123 230.395 334.123C230.395 334.123 229.422 333.15 228.007 332.177C224.734 332.884 221.992 334.742 219.958 337.219Z" fill="url(#paint45_linear)"></path> <path d="M219.958 337.219C223.85 332.796 230.395 334.123 230.395 334.123C230.395 334.123 229.422 333.15 228.007 332.177C224.734 332.884 221.992 334.742 219.958 337.219Z" fill="url(#paint46_radial)"></path> <path d="M240.922 337.307C238.976 334.742 236.145 332.973 232.873 332.354C231.457 333.238 230.484 334.299 230.484 334.299C230.484 334.299 237.03 332.884 240.922 337.307Z" fill="url(#paint47_linear)"></path> <path d="M240.922 337.307C238.976 334.742 236.145 332.973 232.873 332.354C231.457 333.238 230.484 334.299 230.484 334.299C230.484 334.299 237.03 332.884 240.922 337.307Z" fill="url(#paint48_radial)"></path> <path d="M245.079 376.669C245.079 377.731 244.725 378.438 244.106 378.792C244.106 378.792 243.133 379.411 243.044 379.411C242.425 379.765 242.867 378.969 241.894 378.438C240.037 377.377 238.533 374.723 238.533 372.6C238.533 371.539 237.56 371.539 238.179 371.185L239.329 370.566C239.948 370.212 240.744 370.3 241.717 370.831C243.575 371.893 245.079 374.546 245.079 376.669Z" fill="url(#paint49_linear)"></path> <path d="M243.929 377.377C243.929 379.499 242.425 380.384 240.568 379.323C238.71 378.261 237.207 375.607 237.207 373.485C237.207 371.362 238.71 370.477 240.568 371.539C242.425 372.6 243.929 375.165 243.929 377.377Z" fill="url(#paint50_linear)"></path> <path d="M240.745 371.45C239.86 370.92 239.064 370.831 238.445 371.185C238.976 371.008 239.683 371.185 240.479 371.627C242.337 372.689 243.84 375.342 243.84 377.465C243.84 378.615 243.398 379.323 242.779 379.676C243.575 379.411 244.106 378.615 244.106 377.377C244.106 375.077 242.602 372.512 240.745 371.45Z" fill="url(#paint51_radial)"></path> <path d="M239.241 376.757V376.669V376.315C239.241 376.226 239.33 376.138 239.418 376.138L240.214 375.696C240.48 375.607 240.656 375.519 240.833 375.43C241.01 375.342 241.099 375.253 241.099 375.165C241.187 375.076 241.187 374.988 241.187 374.9C241.187 374.723 241.099 374.546 241.01 374.369C240.922 374.192 240.745 374.104 240.568 373.927C240.391 373.838 240.214 373.838 240.126 373.838C240.037 373.927 239.949 374.015 239.949 374.192C239.949 374.192 239.949 374.28 239.86 374.28H239.772L239.33 374.015L239.241 373.927V373.838C239.241 373.573 239.33 373.396 239.418 373.219C239.507 373.042 239.683 372.954 239.86 372.954C240.037 372.954 240.303 373.042 240.568 373.131C240.833 373.307 241.099 373.484 241.276 373.75C241.453 374.015 241.629 374.192 241.718 374.457C241.806 374.723 241.895 374.988 241.895 375.253C241.895 375.519 241.806 375.696 241.718 375.873C241.541 376.049 241.364 376.138 241.099 376.226L240.391 376.669L241.895 377.553L241.983 377.642V377.73V378.172C241.983 378.261 241.983 378.261 241.983 378.261H241.895L239.33 376.757C239.33 376.846 239.33 376.757 239.241 376.757Z" fill="white"></path> <defs> <radialGradient id="paint0_radial" cx="0" cy="0" r="1" gradientUnits="userSpaceOnUse" gradientTransform="translate(228.492 270.98) rotate(-6.74641) scale(228.464 111.137)"> <stop stop-color="white" stop-opacity="0.52"></stop> <stop offset="1" stop-color="white" stop-opacity="0"></stop> </radialGradient> <linearGradient id="paint1_linear" x1="293.3" y1="29.4468" x2="90.8413" y2="109.533" gradientUnits="userSpaceOnUse"> <stop offset="0.557292" stop-color="#43E8E1" stop-opacity="0.57"></stop> <stop offset="0.938089" stop-color="#2CFFF6" stop-opacity="0"></stop> </linearGradient> <linearGradient id="paint2_linear" x1="319.093" y1="42.7291" x2="164.211" y2="71.631" gradientUnits="userSpaceOnUse"> <stop offset="0.415499" stop-color="#43E8E1" stop-opacity="0.57"></stop> <stop offset="0.841607" stop-color="#2CFFF6" stop-opacity="0"></stop> </linearGradient> <linearGradient id="paint3_linear" x1="307.968" y1="113.988" x2="282.02" y2="22.69" gradientUnits="userSpaceOnUse"> <stop stop-color="#D4D1D8"></stop> <stop offset="1" stop-color="white"></stop> </linearGradient> <linearGradient id="paint4_linear" x1="291.884" y1="59.8611" x2="283.876" y2="42.2421" gradientUnits="userSpaceOnUse"> <stop stop-color="white"></stop> <stop offset="1" stop-color="#E6E7E8"></stop> </linearGradient> <linearGradient id="paint5_linear" x1="116.549" y1="-50.5448" x2="263.046" y2="36.5448" gradientUnits="userSpaceOnUse"> <stop stop-color="#D4D1D8"></stop> <stop offset="1" stop-color="white"></stop> </linearGradient> <linearGradient id="paint6_linear" x1="220.845" y1="78.4104" x2="295.806" y2="68.0793" gradientUnits="userSpaceOnUse"> <stop stop-color="#D4D1D8"></stop> <stop offset="1" stop-color="white"></stop> </linearGradient> <linearGradient id="paint7_linear" x1="292.117" y1="141.898" x2="294.081" y2="100.654" gradientUnits="userSpaceOnUse"> <stop stop-color="white"></stop> <stop offset="1" stop-color="#DEDFE0"></stop> </linearGradient> <linearGradient id="paint8_linear" x1="409.614" y1="124.544" x2="295.091" y2="50.2243" gradientUnits="userSpaceOnUse"> <stop stop-color="#D4D1D8"></stop> <stop offset="1" stop-color="white"></stop> </linearGradient> <linearGradient id="paint9_linear" x1="291.093" y1="343.897" x2="313.904" y2="337.067" gradientUnits="userSpaceOnUse"> <stop offset="0.0353535" stop-color="#FFA98C"></stop> <stop offset="0.3169" stop-color="#FFB892"></stop> <stop offset="0.8601" stop-color="#FEE1A3"></stop> <stop offset="1" stop-color="#FEECA8"></stop> </linearGradient> <linearGradient id="paint10_linear" x1="273.804" y1="347.55" x2="315.451" y2="338.214" gradientUnits="userSpaceOnUse"> <stop offset="0.0353535" stop-color="#FFA98C"></stop> <stop offset="0.3169" stop-color="#FFB892"></stop> <stop offset="0.8601" stop-color="#FEE1A3"></stop> <stop offset="1" stop-color="#FEECA8"></stop> </linearGradient> <radialGradient id="paint11_radial" cx="0" cy="0" r="1" gradientUnits="userSpaceOnUse" gradientTransform="translate(295.545 342.984) scale(7.86472)"> <stop stop-color="white"></stop> <stop offset="0.0656227" stop-color="#D8D8D8"></stop> <stop offset="0.1615" stop-color="#A6A6A6"></stop> <stop offset="0.2622" stop-color="#797979"></stop> <stop offset="0.3658" stop-color="#545454"></stop> <stop offset="0.4731" stop-color="#353535"></stop> <stop offset="0.5852" stop-color="#1E1E1E"></stop> <stop offset="0.7042" stop-color="#0D0D0D"></stop> <stop offset="0.835" stop-color="#030303"></stop> <stop offset="1"></stop> </radialGradient> <radialGradient id="paint12_radial" cx="0" cy="0" r="1" gradientUnits="userSpaceOnUse" gradientTransform="translate(287.878 305.706) scale(21.7645)"> <stop stop-color="#EEEBF2"></stop> <stop offset="0.5808" stop-color="#D4D1D8"></stop> <stop offset="0.9392" stop-color="#A5A6B9"></stop> <stop offset="1" stop-color="#9D9EB3"></stop> </radialGradient> <radialGradient id="paint13_radial" cx="0" cy="0" r="1" gradientUnits="userSpaceOnUse" gradientTransform="translate(287.878 305.707) scale(21.7646)"> <stop stop-color="#EEEBF2"></stop> <stop offset="0.5808" stop-color="#D4D1D8"></stop> <stop offset="0.9392" stop-color="#A5A6B9"></stop> <stop offset="1" stop-color="#9D9EB3"></stop> </radialGradient> <radialGradient id="paint14_radial" cx="0" cy="0" r="1" gradientUnits="userSpaceOnUse" gradientTransform="translate(287.877 305.706) scale(21.7645)"> <stop stop-color="#EEEBF2"></stop> <stop offset="0.5808" stop-color="#D4D1D8"></stop> <stop offset="0.9392" stop-color="#A5A6B9"></stop> <stop offset="1" stop-color="#9D9EB3"></stop> </radialGradient> <linearGradient id="paint15_linear" x1="290.427" y1="301.823" x2="287.92" y2="323.116" gradientUnits="userSpaceOnUse"> <stop stop-color="#00D4FF" stop-opacity="0.71"></stop> <stop offset="1" stop-color="#DB6B6B"></stop> </linearGradient> <linearGradient id="paint16_linear" x1="301.307" y1="301.812" x2="298.796" y2="323.209" gradientUnits="userSpaceOnUse"> <stop stop-color="#00D4FF" stop-opacity="0.71"></stop> <stop offset="1" stop-color="#DB6B6B"></stop> </linearGradient> <linearGradient id="paint17_linear" x1="290.339" y1="301.521" x2="290.141" y2="307.441" gradientUnits="userSpaceOnUse"> <stop stop-color="#00D4FF" stop-opacity="0.71"></stop> <stop offset="1" stop-color="#DB6B6B"></stop> </linearGradient> <linearGradient id="paint18_linear" x1="300.865" y1="301.709" x2="300.674" y2="307.526" gradientUnits="userSpaceOnUse"> <stop stop-color="#00D4FF" stop-opacity="0.71"></stop> <stop offset="1" stop-color="#DB6B6B"></stop> </linearGradient> <linearGradient id="paint19_linear" x1="304.614" y1="348.492" x2="298.758" y2="340.644" gradientUnits="userSpaceOnUse"> <stop offset="0.0353535" stop-color="#1BB0D4"></stop> <stop offset="0.203" stop-color="#1EBFDD"></stop> <stop offset="0.5265" stop-color="#27E8F6"></stop> <stop offset="0.6313" stop-color="#2AF6FF"></stop> <stop offset="0.8737" stop-color="#1BB0D4"></stop> </linearGradient> <linearGradient id="paint20_linear" x1="291.132" y1="347.489" x2="310.321" y2="343.188" gradientUnits="userSpaceOnUse"> <stop offset="0.0353535" stop-color="#138BBD"></stop> <stop offset="0.2257" stop-color="#169AC7"></stop> <stop offset="0.5946" stop-color="#1FC3DF"></stop> <stop offset="1" stop-color="#2AF6FF"></stop> </linearGradient> <radialGradient id="paint21_radial" cx="0" cy="0" r="1" gradientUnits="userSpaceOnUse" gradientTransform="translate(302.679 344.832) scale(3.6607)"> <stop stop-color="white"></stop> <stop offset="0.0656227" stop-color="#D8D8D8"></stop> <stop offset="0.1615" stop-color="#A6A6A6"></stop> <stop offset="0.2622" stop-color="#797979"></stop> <stop offset="0.3658" stop-color="#545454"></stop> <stop offset="0.4731" stop-color="#353535"></stop> <stop offset="0.5852" stop-color="#1E1E1E"></stop> <stop offset="0.7042" stop-color="#0D0D0D"></stop> <stop offset="0.835" stop-color="#030303"></stop> <stop offset="1"></stop> </radialGradient> <linearGradient id="paint22_linear" x1="174.095" y1="334.894" x2="196.907" y2="328.063" gradientUnits="userSpaceOnUse"> <stop offset="0.0353535" stop-color="#FFA98C"></stop> <stop offset="0.3169" stop-color="#FFB892"></stop> <stop offset="0.8601" stop-color="#FEE1A3"></stop> <stop offset="1" stop-color="#FEECA8"></stop> </linearGradient> <linearGradient id="paint23_linear" x1="156.807" y1="338.548" x2="198.454" y2="329.212" gradientUnits="userSpaceOnUse"> <stop offset="0.0353535" stop-color="#FFA98C"></stop> <stop offset="0.3169" stop-color="#FFB892"></stop> <stop offset="0.8601" stop-color="#FEE1A3"></stop> <stop offset="1" stop-color="#FEECA8"></stop> </linearGradient> <radialGradient id="paint24_radial" cx="0" cy="0" r="1" gradientUnits="userSpaceOnUse" gradientTransform="translate(178.547 333.981) scale(7.86472)"> <stop stop-color="white"></stop> <stop offset="0.0656227" stop-color="#D8D8D8"></stop> <stop offset="0.1615" stop-color="#A6A6A6"></stop> <stop offset="0.2622" stop-color="#797979"></stop> <stop offset="0.3658" stop-color="#545454"></stop> <stop offset="0.4731" stop-color="#353535"></stop> <stop offset="0.5852" stop-color="#1E1E1E"></stop> <stop offset="0.7042" stop-color="#0D0D0D"></stop> <stop offset="0.835" stop-color="#030303"></stop> <stop offset="1"></stop> </radialGradient> <radialGradient id="paint25_radial" cx="0" cy="0" r="1" gradientUnits="userSpaceOnUse" gradientTransform="translate(170.56 296.776) scale(23.2058)"> <stop stop-color="#EEEBF2"></stop> <stop offset="0.5808" stop-color="#D4D1D8"></stop> <stop offset="0.9392" stop-color="#A5A6B9"></stop> <stop offset="1" stop-color="#9D9EB3"></stop> </radialGradient> <radialGradient id="paint26_radial" cx="0" cy="0" r="1" gradientUnits="userSpaceOnUse" gradientTransform="translate(170.56 296.777) scale(23.2058)"> <stop stop-color="#EEEBF2"></stop> <stop offset="0.5808" stop-color="#D4D1D8"></stop> <stop offset="0.9392" stop-color="#A5A6B9"></stop> <stop offset="1" stop-color="#9D9EB3"></stop> </radialGradient> <radialGradient id="paint27_radial" cx="0" cy="0" r="1" gradientUnits="userSpaceOnUse" gradientTransform="translate(170.56 296.776) scale(23.2057)"> <stop stop-color="#EEEBF2"></stop> <stop offset="0.5808" stop-color="#D4D1D8"></stop> <stop offset="0.9392" stop-color="#A5A6B9"></stop> <stop offset="1" stop-color="#9D9EB3"></stop> </radialGradient> <linearGradient id="paint28_linear" x1="173.445" y1="295.211" x2="160.979" y2="296.429" gradientUnits="userSpaceOnUse"> <stop offset="0.0223687" stop-color="#2E8EE7"></stop> <stop offset="1" stop-color="#3444D0"></stop> </linearGradient> <linearGradient id="paint29_linear" x1="184.325" y1="295.211" x2="171.757" y2="296.443" gradientUnits="userSpaceOnUse"> <stop offset="0.0223687" stop-color="#2E8EE7"></stop> <stop offset="1" stop-color="#3444D0"></stop> </linearGradient> <linearGradient id="paint30_linear" x1="173.356" y1="293.177" x2="162.472" y2="296.922" gradientUnits="userSpaceOnUse"> <stop offset="0.0223687" stop-color="#2E8EE7"></stop> <stop offset="1" stop-color="#3444D0"></stop> </linearGradient> <linearGradient id="paint31_linear" x1="183.882" y1="293.354" x2="173.04" y2="297.151" gradientUnits="userSpaceOnUse"> <stop offset="0.0223687" stop-color="#2E8EE7"></stop> <stop offset="1" stop-color="#3444D0"></stop> </linearGradient> <linearGradient id="paint32_linear" x1="187.617" y1="339.489" x2="181.761" y2="331.641" gradientUnits="userSpaceOnUse"> <stop offset="0.0353535" stop-color="#6B24D6"></stop> <stop offset="0.1954" stop-color="#7733DC"></stop> <stop offset="0.5042" stop-color="#975CED"></stop> <stop offset="0.6313" stop-color="#A56EF4"></stop> <stop offset="0.8737" stop-color="#6B24D6"></stop> </linearGradient> <linearGradient id="paint33_linear" x1="174.136" y1="338.486" x2="193.325" y2="334.185" gradientUnits="userSpaceOnUse"> <stop offset="0.0353535" stop-color="#6B24D6"></stop> <stop offset="0.2945" stop-color="#7733DC"></stop> <stop offset="0.7943" stop-color="#975CED"></stop> <stop offset="1" stop-color="#A56EF4"></stop> </linearGradient> <radialGradient id="paint34_radial" cx="0" cy="0" r="1" gradientUnits="userSpaceOnUse" gradientTransform="translate(185.683 335.829) scale(3.66072)"> <stop stop-color="white"></stop> <stop offset="0.0656227" stop-color="#D8D8D8"></stop> <stop offset="0.1615" stop-color="#A6A6A6"></stop> <stop offset="0.2622" stop-color="#797979"></stop> <stop offset="0.3658" stop-color="#545454"></stop> <stop offset="0.4731" stop-color="#353535"></stop> <stop offset="0.5852" stop-color="#1E1E1E"></stop> <stop offset="0.7042" stop-color="#0D0D0D"></stop> <stop offset="0.835" stop-color="#030303"></stop> <stop offset="1"></stop> </radialGradient> <linearGradient id="paint35_linear" x1="231.138" y1="373.896" x2="253.949" y2="367.065" gradientUnits="userSpaceOnUse"> <stop offset="0.0353535" stop-color="#FFA98C"></stop> <stop offset="0.3169" stop-color="#FFB892"></stop> <stop offset="0.8601" stop-color="#FEE1A3"></stop> <stop offset="1" stop-color="#FEECA8"></stop> </linearGradient> <linearGradient id="paint36_linear" x1="213.85" y1="377.549" x2="255.497" y2="368.213" gradientUnits="userSpaceOnUse"> <stop offset="0.0353535" stop-color="#FFA98C"></stop> <stop offset="0.3169" stop-color="#FFB892"></stop> <stop offset="0.8601" stop-color="#FEE1A3"></stop> <stop offset="1" stop-color="#FEECA8"></stop> </linearGradient> <radialGradient id="paint37_radial" cx="0" cy="0" r="1" gradientUnits="userSpaceOnUse" gradientTransform="translate(235.59 372.982) scale(7.86472)"> <stop stop-color="white"></stop> <stop offset="0.0656227" stop-color="#D8D8D8"></stop> <stop offset="0.1615" stop-color="#A6A6A6"></stop> <stop offset="0.2622" stop-color="#797979"></stop> <stop offset="0.3658" stop-color="#545454"></stop> <stop offset="0.4731" stop-color="#353535"></stop> <stop offset="0.5852" stop-color="#1E1E1E"></stop> <stop offset="0.7042" stop-color="#0D0D0D"></stop> <stop offset="0.835" stop-color="#030303"></stop> <stop offset="1"></stop> </radialGradient> <radialGradient id="paint38_radial" cx="0" cy="0" r="1" gradientUnits="userSpaceOnUse" gradientTransform="translate(228.045 335.925) scale(21.8513)"> <stop stop-color="#EEEBF2"></stop> <stop offset="0.5808" stop-color="#D4D1D8"></stop> <stop offset="0.9392" stop-color="#A5A6B9"></stop> <stop offset="1" stop-color="#9D9EB3"></stop> </radialGradient> <radialGradient id="paint39_radial" cx="0" cy="0" r="1" gradientUnits="userSpaceOnUse" gradientTransform="translate(228.045 335.925) scale(21.8514)"> <stop stop-color="#EEEBF2"></stop> <stop offset="0.5808" stop-color="#D4D1D8"></stop> <stop offset="0.9392" stop-color="#A5A6B9"></stop> <stop offset="1" stop-color="#9D9EB3"></stop> </radialGradient> <radialGradient id="paint40_radial" cx="0" cy="0" r="1" gradientUnits="userSpaceOnUse" gradientTransform="translate(228.045 335.925) scale(21.8513)"> <stop stop-color="#EEEBF2"></stop> <stop offset="0.5808" stop-color="#D4D1D8"></stop> <stop offset="0.9392" stop-color="#A5A6B9"></stop> <stop offset="1" stop-color="#9D9EB3"></stop> </radialGradient> <linearGradient id="paint41_linear" x1="219.693" y1="335.589" x2="235.814" y2="345.156" gradientUnits="userSpaceOnUse"> <stop stop-color="#A634FF"></stop> <stop offset="1" stop-color="#FD5925"></stop> </linearGradient> <radialGradient id="paint42_radial" cx="0" cy="0" r="1" gradientUnits="userSpaceOnUse" gradientTransform="translate(221.867 336.872) rotate(62.2605) scale(17.1215 14.7289)"> <stop stop-color="#D85855"></stop> <stop offset="1" stop-color="#6E2287"></stop> </radialGradient> <linearGradient id="paint43_linear" x1="230.484" y1="335.595" x2="246.709" y2="345.257" gradientUnits="userSpaceOnUse"> <stop stop-color="#A634FF"></stop> <stop offset="1" stop-color="#FD5925"></stop> </linearGradient> <radialGradient id="paint44_radial" cx="0" cy="0" r="1" gradientUnits="userSpaceOnUse" gradientTransform="translate(232.677 336.885) rotate(62.181) scale(17.2165 14.8388)"> <stop stop-color="#D85855"></stop> <stop offset="1" stop-color="#6E2287"></stop> </radialGradient> <linearGradient id="paint45_linear" x1="219.958" y1="332.555" x2="223.883" y2="340.762" gradientUnits="userSpaceOnUse"> <stop stop-color="#A634FF"></stop> <stop offset="1" stop-color="#FD5925"></stop> </linearGradient> <radialGradient id="paint46_radial" cx="0" cy="0" r="1" gradientUnits="userSpaceOnUse" gradientTransform="translate(222.061 332.907) rotate(28.3568) scale(8.759 7.64488)"> <stop stop-color="#D85855"></stop> <stop offset="1" stop-color="#6E2287"></stop> </radialGradient> <linearGradient id="paint47_linear" x1="230.484" y1="332.725" x2="234.298" y2="340.84" gradientUnits="userSpaceOnUse"> <stop stop-color="#A634FF"></stop> <stop offset="1" stop-color="#FD5925"></stop> </linearGradient> <radialGradient id="paint48_radial" cx="0" cy="0" r="1" gradientUnits="userSpaceOnUse" gradientTransform="translate(232.588 333.071) rotate(27.9349) scale(8.72458 7.54038)"> <stop stop-color="#D85855"></stop> <stop offset="1" stop-color="#6E2287"></stop> </radialGradient> <linearGradient id="paint49_linear" x1="244.659" y1="378.49" x2="238.803" y2="370.642" gradientUnits="userSpaceOnUse"> <stop offset="0.0353535" stop-color="#9F19AB"></stop> <stop offset="0.1641" stop-color="#AE25B1"></stop> <stop offset="0.4123" stop-color="#D744BF"></stop> <stop offset="0.6313" stop-color="#FF63CE"></stop> <stop offset="0.8737" stop-color="#DC48C1"></stop> </linearGradient> <linearGradient id="paint50_linear" x1="231.177" y1="377.488" x2="250.367" y2="373.186" gradientUnits="userSpaceOnUse"> <stop offset="0.0353535" stop-color="#9F19AB"></stop> <stop offset="0.2438" stop-color="#AE25B1"></stop> <stop offset="0.6455" stop-color="#D744BF"></stop> <stop offset="1" stop-color="#FF63CE"></stop> </linearGradient> <radialGradient id="paint51_radial" cx="0" cy="0" r="1" gradientUnits="userSpaceOnUse" gradientTransform="translate(242.725 374.831) scale(3.66072)"> <stop stop-color="white"></stop> <stop offset="0.0656227" stop-color="#D8D8D8"></stop> <stop offset="0.1615" stop-color="#A6A6A6"></stop> <stop offset="0.2622" stop-color="#797979"></stop> <stop offset="0.3658" stop-color="#545454"></stop> <stop offset="0.4731" stop-color="#353535"></stop> <stop offset="0.5852" stop-color="#1E1E1E"></stop> <stop offset="0.7042" stop-color="#0D0D0D"></stop> <stop offset="0.835" stop-color="#030303"></stop> <stop offset="1"></stop> </radialGradient> </defs> </svg> 