<svg width="260" height="135" viewBox="0 0 260 135" fill="none" xmlns="http://www.w3.org/2000/svg">
<g clip-path="url(#clip0)">
<rect width="260" height="135" fill="url(#paint0_linear)"/>
<path opacity="0.1" d="M165.495 42.6832C164.765 44.2482 162.791 44.8725 161.087 44.0775C159.382 43.2826 158.592 41.3695 159.321 39.8045C160.051 38.2395 175.84 12.4395 175.84 12.4395C175.84 12.4395 166.225 41.1182 165.495 42.6832Z" fill="url(#paint1_linear)"/>
<path opacity="0.1" d="M195.505 35.09C194.88 36.4294 192.723 36.7454 190.687 35.7958C188.651 34.8463 187.506 32.9908 188.131 31.6514C188.755 30.3121 203.313 8.71924 203.313 8.71924C203.313 8.71924 196.129 33.7507 195.505 35.09Z" fill="url(#paint2_linear)"/>
<path d="M217.934 122.125C237.78 122.125 253.868 106.203 253.868 86.5624C253.868 66.9218 237.78 51 217.934 51C198.088 51 182 66.9218 182 86.5624C182 106.203 198.088 122.125 217.934 122.125Z" fill="#1D95C4"/>
<path opacity="0.4" d="M243.654 100.304C244.936 100.304 245.975 99.2654 245.975 97.9834C245.975 96.7013 244.936 95.6621 243.654 95.6621C242.372 95.6621 241.333 96.7013 241.333 97.9834C241.333 99.2654 242.372 100.304 243.654 100.304Z" fill="#2A5E80"/>
<path opacity="0.4" d="M243.932 88.3265C244.856 88.3265 245.604 87.5783 245.604 86.6552C245.604 85.7322 244.856 84.9839 243.932 84.9839C243.009 84.9839 242.261 85.7322 242.261 86.6552C242.261 87.5783 243.009 88.3265 243.932 88.3265Z" fill="#2A5E80"/>
<path opacity="0.4" d="M222.669 100.49C223.592 100.49 224.341 99.7414 224.341 98.8184C224.341 97.8953 223.592 97.147 222.669 97.147C221.746 97.147 220.998 97.8953 220.998 98.8184C220.998 99.7414 221.746 100.49 222.669 100.49Z" fill="#2A5E80"/>
<path opacity="0.4" d="M242.633 68.7343C243.556 68.7343 244.304 67.986 244.304 67.063C244.304 66.1399 243.556 65.3916 242.633 65.3916C241.71 65.3916 240.961 66.1399 240.961 67.063C240.961 67.986 241.71 68.7343 242.633 68.7343Z" fill="#2A5E80"/>
<path opacity="0.4" d="M233.812 95.7549C234.478 95.7549 235.019 95.2145 235.019 94.5478C235.019 93.8812 234.478 93.3408 233.812 93.3408C233.145 93.3408 232.604 93.8812 232.604 94.5478C232.604 95.2145 233.145 95.7549 233.812 95.7549Z" fill="#2A5E80"/>
<path opacity="0.4" d="M222.762 83.4054C223.429 83.4054 223.969 82.865 223.969 82.1983C223.969 81.5317 223.429 80.9912 222.762 80.9912C222.095 80.9912 221.555 81.5317 221.555 82.1983C221.555 82.865 222.095 83.4054 222.762 83.4054Z" fill="#2A5E80"/>
<path opacity="0.4" d="M189.985 94.6403C190.652 94.6403 191.192 94.0998 191.192 93.4332C191.192 92.7665 190.652 92.2261 189.985 92.2261C189.318 92.2261 188.778 92.7665 188.778 93.4332C188.778 94.0998 189.318 94.6403 189.985 94.6403Z" fill="#2A5E80"/>
<path opacity="0.4" d="M205.027 76.1627C205.694 76.1627 206.234 75.6223 206.234 74.9556C206.234 74.289 205.694 73.7485 205.027 73.7485C204.361 73.7485 203.82 74.289 203.82 74.9556C203.82 75.6223 204.361 76.1627 205.027 76.1627Z" fill="#2A5E80"/>
<path opacity="0.4" d="M198.342 94.4547C199.008 94.4547 199.549 93.9143 199.549 93.2476C199.549 92.581 199.008 92.0405 198.342 92.0405C197.675 92.0405 197.135 92.581 197.135 93.2476C197.135 93.9143 197.675 94.4547 198.342 94.4547Z" fill="#2A5E80"/>
<path opacity="0.4" d="M231.211 66.8775C231.878 66.8775 232.419 66.3371 232.419 65.6704C232.419 65.0038 231.878 64.4634 231.211 64.4634C230.545 64.4634 230.004 65.0038 230.004 65.6704C230.004 66.3371 230.545 66.8775 231.211 66.8775Z" fill="#2A5E80"/>
<path opacity="0.4" d="M210.691 64.4635C211.358 64.4635 211.898 63.923 211.898 63.2564C211.898 62.5897 211.358 62.0493 210.691 62.0493C210.024 62.0493 209.484 62.5897 209.484 63.2564C209.484 63.923 210.024 64.4635 210.691 64.4635Z" fill="#2A5E80"/>
<path opacity="0.4" d="M197.692 81.2697C198.051 81.2697 198.342 80.9787 198.342 80.6197C198.342 80.2607 198.051 79.9697 197.692 79.9697C197.333 79.9697 197.042 80.2607 197.042 80.6197C197.042 80.9787 197.333 81.2697 197.692 81.2697Z" fill="#2A5E80"/>
<path opacity="0.4" d="M218.119 81.9196C218.478 81.9196 218.769 81.6286 218.769 81.2696C218.769 80.9106 218.478 80.6196 218.119 80.6196C217.76 80.6196 217.469 80.9106 217.469 81.2696C217.469 81.6286 217.76 81.9196 218.119 81.9196Z" fill="#2A5E80"/>
<path opacity="0.4" d="M215.705 91.9475C216.064 91.9475 216.355 91.6564 216.355 91.2975C216.355 90.9385 216.064 90.6475 215.705 90.6475C215.346 90.6475 215.055 90.9385 215.055 91.2975C215.055 91.6564 215.346 91.9475 215.705 91.9475Z" fill="#2A5E80"/>
<path opacity="0.4" d="M239.011 94.6407C239.37 94.6407 239.661 94.3497 239.661 93.9907C239.661 93.6318 239.37 93.3408 239.011 93.3408C238.652 93.3408 238.361 93.6318 238.361 93.9907C238.361 94.3497 238.652 94.6407 239.011 94.6407Z" fill="#2A5E80"/>
<path opacity="0.4" d="M249.689 91.3907C250.048 91.3907 250.339 91.0997 250.339 90.7407C250.339 90.3818 250.048 90.0908 249.689 90.0908C249.33 90.0908 249.039 90.3818 249.039 90.7407C249.039 91.0997 249.33 91.3907 249.689 91.3907Z" fill="#2A5E80"/>
<path opacity="0.4" d="M243.004 80.2486C243.363 80.2486 243.654 79.9576 243.654 79.5986C243.654 79.2397 243.363 78.9487 243.004 78.9487C242.645 78.9487 242.354 79.2397 242.354 79.5986C242.354 79.9576 242.645 80.2486 243.004 80.2486Z" fill="#2A5E80"/>
<path opacity="0.4" d="M246.068 72.9128C246.427 72.9128 246.718 72.6218 246.718 72.2628C246.718 71.9038 246.427 71.6128 246.068 71.6128C245.709 71.6128 245.418 71.9038 245.418 72.2628C245.418 72.6218 245.709 72.9128 246.068 72.9128Z" fill="#2A5E80"/>
<path opacity="0.4" d="M239.568 69.756C239.927 69.756 240.218 69.465 240.218 69.106C240.218 68.7471 239.927 68.4561 239.568 68.4561C239.209 68.4561 238.918 68.7471 238.918 69.106C238.918 69.465 239.209 69.756 239.568 69.756Z" fill="#2A5E80"/>
<path opacity="0.4" d="M231.026 76.3487C231.385 76.3487 231.676 76.0577 231.676 75.6988C231.676 75.3398 231.385 75.0488 231.026 75.0488C230.667 75.0488 230.376 75.3398 230.376 75.6988C230.376 76.0577 230.667 76.3487 231.026 76.3487Z" fill="#2A5E80"/>
<path opacity="0.4" d="M227.59 69.4776C227.949 69.4776 228.24 69.1866 228.24 68.8276C228.24 68.4687 227.949 68.1777 227.59 68.1777C227.231 68.1777 226.94 68.4687 226.94 68.8276C226.94 69.1866 227.231 69.4776 227.59 69.4776Z" fill="#2A5E80"/>
<path opacity="0.4" d="M226.012 60.5636C226.371 60.5636 226.662 60.2726 226.662 59.9136C226.662 59.5547 226.371 59.2637 226.012 59.2637C225.653 59.2637 225.362 59.5547 225.362 59.9136C225.362 60.2726 225.653 60.5636 226.012 60.5636Z" fill="#2A5E80"/>
<path opacity="0.4" d="M217.841 69.1989C218.2 69.1989 218.491 68.9079 218.491 68.5489C218.491 68.1899 218.2 67.8989 217.841 67.8989C217.482 67.8989 217.191 68.1899 217.191 68.5489C217.191 68.9079 217.482 69.1989 217.841 69.1989Z" fill="#2A5E80"/>
<path opacity="0.4" d="M203.078 68.6417C203.437 68.6417 203.728 68.3507 203.728 67.9917C203.728 67.6328 203.437 67.3418 203.078 67.3418C202.719 67.3418 202.428 67.6328 202.428 67.9917C202.428 68.3507 202.719 68.6417 203.078 68.6417Z" fill="#2A5E80"/>
<path opacity="0.4" d="M191.099 71.149C191.458 71.149 191.749 70.858 191.749 70.4991C191.749 70.1401 191.458 69.8491 191.099 69.8491C190.74 69.8491 190.449 70.1401 190.449 70.4991C190.449 70.858 190.74 71.149 191.099 71.149Z" fill="#2A5E80"/>
<path opacity="0.4" d="M199.085 78.484C199.444 78.484 199.735 78.193 199.735 77.8341C199.735 77.4751 199.444 77.1841 199.085 77.1841C198.726 77.1841 198.435 77.4751 198.435 77.8341C198.435 78.193 198.726 78.484 199.085 78.484Z" fill="#2A5E80"/>
<path opacity="0.4" d="M184.785 87.1193C185.144 87.1193 185.435 86.8283 185.435 86.4693C185.435 86.1103 185.144 85.8193 184.785 85.8193C184.426 85.8193 184.135 86.1103 184.135 86.4693C184.135 86.8283 184.426 87.1193 184.785 87.1193Z" fill="#2A5E80"/>
<path opacity="0.4" d="M197.321 87.3049C197.68 87.3049 197.971 87.0139 197.971 86.6549C197.971 86.2959 197.68 86.0049 197.321 86.0049C196.962 86.0049 196.671 86.2959 196.671 86.6549C196.671 87.0139 196.962 87.3049 197.321 87.3049Z" fill="#2A5E80"/>
<path opacity="0.4" d="M212.177 89.9981C212.536 89.9981 212.827 89.7071 212.827 89.3481C212.827 88.9892 212.536 88.6982 212.177 88.6982C211.818 88.6982 211.527 88.9892 211.527 89.3481C211.527 89.7071 211.818 89.9981 212.177 89.9981Z" fill="#2A5E80"/>
<path opacity="0.4" d="M205.956 82.941C206.315 82.941 206.606 82.65 206.606 82.2911C206.606 81.9321 206.315 81.6411 205.956 81.6411C205.597 81.6411 205.306 81.9321 205.306 82.2911C205.306 82.65 205.597 82.941 205.956 82.941Z" fill="#2A5E80"/>
<path opacity="0.4" d="M230.654 88.8834C231.013 88.8834 231.304 88.5924 231.304 88.2335C231.304 87.8745 231.013 87.5835 230.654 87.5835C230.295 87.5835 230.004 87.8745 230.004 88.2335C230.004 88.5924 230.295 88.8834 230.654 88.8834Z" fill="#2A5E80"/>
<path opacity="0.4" d="M230.097 100.769C230.456 100.769 230.747 100.478 230.747 100.119C230.747 99.7597 230.456 99.4688 230.097 99.4688C229.738 99.4688 229.447 99.7597 229.447 100.119C229.447 100.478 229.738 100.769 230.097 100.769Z" fill="#2A5E80"/>
<path opacity="0.4" d="M249.689 83.034C250.253 83.034 250.711 82.5767 250.711 82.0126C250.711 81.4485 250.253 80.9912 249.689 80.9912C249.125 80.9912 248.668 81.4485 248.668 82.0126C248.668 82.5767 249.125 83.034 249.689 83.034Z" fill="#2A5E80"/>
<path opacity="0.4" d="M237.618 86.5623C238.182 86.5623 238.64 86.105 238.64 85.5409C238.64 84.9768 238.182 84.5195 237.618 84.5195C237.054 84.5195 236.597 84.9768 236.597 85.5409C236.597 86.105 237.054 86.5623 237.618 86.5623Z" fill="#2A5E80"/>
<path opacity="0.4" d="M205.213 58.2423C205.572 58.2423 205.863 57.9513 205.863 57.5924C205.863 57.2334 205.572 56.9424 205.213 56.9424C204.854 56.9424 204.563 57.2334 204.563 57.5924C204.563 57.9513 204.854 58.2423 205.213 58.2423Z" fill="#2A5E80"/>
<path opacity="0.33" d="M242.639 112.003C251.994 102.648 254.258 89.7436 247.695 83.1804C241.131 76.6172 228.227 78.8806 218.872 88.2359C209.516 97.5911 207.253 110.496 213.816 117.059C220.379 123.622 233.284 121.359 242.639 112.003Z" fill="#3F419B"/>
<path opacity="0.28" d="M188.407 93.0621C188.407 73.3774 204.47 57.4997 224.341 57.4997C232.79 57.4997 240.59 60.3781 246.718 65.2064C240.126 56.5711 229.726 51 217.934 51C198.063 51 182 66.8777 182 86.5624C182 97.7975 187.293 107.918 195.556 114.418C191.1 108.476 188.407 101.047 188.407 93.0621Z" fill="white"/>
<path opacity="0.28" d="M210.826 79.0304C216.45 72.5723 216.966 63.8148 211.977 59.4699C206.989 55.125 198.385 56.8381 192.76 63.2961C187.136 69.7542 186.62 78.5117 191.608 82.8566C196.597 87.2014 205.201 85.4884 210.826 79.0304Z" fill="white"/>
<path d="M159.866 13.4327C159.866 9.32779 156.538 6.00012 152.433 6.00012C148.328 6.00012 145 9.32779 145 13.4327C145 17.5376 148.328 20.8652 152.433 20.8652C156.538 20.8652 159.866 17.5376 159.866 13.4327Z" fill="url(#paint3_radial)"/>
<path d="M39.575 46.7999C44 43.7999 42.75 35.5249 35.875 35.4999C33.325 35.4999 30.725 35.4999 28.2 35.4999C28.2 41.3499 28.2 47.1749 28.2 52.9999C29.65 52.9999 31.1749 52.9999 32.6749 52.9999V47.8499H35L38 52.9999H43V52.3499L39.575 46.7999ZM35.875 43.8749H32.6749C32.6749 42.4749 32.6749 40.9249 32.6749 39.4999C33.7249 39.4999 34.825 39.4749 35.875 39.4999C38.425 39.5249 38.3 43.8749 35.875 43.8749ZM57.8805 35.4999C53.7805 35.4999 51.0055 35.4999 46.9555 35.4999C46.9555 41.2999 46.9555 47.1499 46.9555 52.9999C51.0055 52.9999 54.0054 52.9999 58.1054 52.9999C58.1054 51.6749 58.1054 50.3249 58.1054 49.0249C55.4804 49.0249 53.9804 49.0249 51.4054 49.0249C51.4054 47.9749 51.4054 46.9749 51.4054 45.9499H57.3554C57.3554 44.6249 57.3554 43.2999 57.3554 41.9749H51.4054V39.4999C53.9804 39.4999 55.2805 39.4999 57.8805 39.4999C57.8805 38.1499 57.8805 36.7999 57.8805 35.4999ZM74.3207 52.9999H78.6957V52.3499L70.7957 35.2749H68.8706L60.9957 52.3499V52.9999H65.3706L66.3956 50.7999H73.2957L74.3207 52.9999ZM71.8207 46.9499H67.8706L69.8207 42.3499L71.8207 46.9499ZM81.1936 44.2499C81.2186 50.1999 85.7186 53.1999 90.1686 53.1749C93.8936 53.1749 97.8186 51.2249 98.4686 46.2749C96.9436 46.2749 95.5686 46.2749 94.0686 46.2749C93.5936 48.1499 92.0686 49.0999 90.1686 49.0999C87.5186 49.0749 85.8186 46.8249 85.8186 44.2499C85.8186 41.3499 87.5436 39.3749 90.1686 39.3749C92.0436 39.3749 93.3685 40.1749 93.9935 41.9499C95.5185 41.9499 96.8686 41.9499 98.3936 41.9499C97.7186 37.2749 93.7936 35.2999 90.1686 35.2999C85.7186 35.2999 81.2186 38.2999 81.1936 44.2499ZM105.722 39.4999V52.9999C107.197 52.9999 108.672 52.9999 110.147 52.9999V39.4999H114.422C114.422 38.1499 114.422 36.8249 114.422 35.4999H101.422C101.422 36.8249 101.422 38.1499 101.422 39.4999H105.722Z" fill="#FF77CF"/>
<path d="M37.575 46.7999C42 43.7999 40.75 35.5249 33.875 35.4999C31.325 35.4999 28.725 35.4999 26.2 35.4999C26.2 41.3499 26.2 47.1749 26.2 52.9999C27.65 52.9999 29.1749 52.9999 30.6749 52.9999V47.8499H33L36 52.9999H41V52.3499L37.575 46.7999ZM33.875 43.8749H30.6749C30.6749 42.4749 30.6749 40.9249 30.6749 39.4999C31.7249 39.4999 32.825 39.4749 33.875 39.4999C36.425 39.5249 36.3 43.8749 33.875 43.8749ZM55.8805 35.4999C51.7805 35.4999 49.0055 35.4999 44.9555 35.4999C44.9555 41.2999 44.9555 47.1499 44.9555 52.9999C49.0055 52.9999 52.0054 52.9999 56.1054 52.9999C56.1054 51.6749 56.1054 50.3249 56.1054 49.0249C53.4804 49.0249 51.9804 49.0249 49.4054 49.0249C49.4054 47.9749 49.4054 46.9749 49.4054 45.9499H55.3554C55.3554 44.6249 55.3554 43.2999 55.3554 41.9749H49.4054V39.4999C51.9804 39.4999 53.2805 39.4999 55.8805 39.4999C55.8805 38.1499 55.8805 36.7999 55.8805 35.4999ZM72.3207 52.9999H76.6957V52.3499L68.7957 35.2749H66.8706L58.9957 52.3499V52.9999H63.3707L64.3956 50.7999H71.2957L72.3207 52.9999ZM69.8207 46.9499H65.8706L67.8207 42.3499L69.8207 46.9499ZM79.1936 44.2499C79.2186 50.1999 83.7186 53.1999 88.1686 53.1749C91.8936 53.1749 95.8186 51.2249 96.4686 46.2749C94.9436 46.2749 93.5686 46.2749 92.0686 46.2749C91.5936 48.1499 90.0686 49.0999 88.1686 49.0999C85.5186 49.0749 83.8186 46.8249 83.8186 44.2499C83.8186 41.3499 85.5436 39.3749 88.1686 39.3749C90.0436 39.3749 91.3685 40.1749 91.9935 41.9499C93.5185 41.9499 94.8686 41.9499 96.3936 41.9499C95.7186 37.2749 91.7936 35.2999 88.1686 35.2999C83.7186 35.2999 79.2186 38.2999 79.1936 44.2499ZM103.722 39.4999V52.9999C105.197 52.9999 106.672 52.9999 108.147 52.9999V39.4999H112.422C112.422 38.1499 112.422 36.8249 112.422 35.4999H99.4218C99.4218 36.8249 99.4218 38.1499 99.4218 39.4999H103.722Z" fill="white"/>
<path d="M-5 101H282C192.588 94.4701 145.123 89.4691 72.2692 82.8897C31.2062 79.1813 16.525 87.4211 -5 101Z" fill="#F8FBFF"/>
<rect x="-11" y="99" width="275" height="54" fill="#F8FBFF"/>
</g>
<defs>
<linearGradient id="paint0_linear" x1="260" y1="-9.86851e-06" x2="-15.0321" y2="88.0416" gradientUnits="userSpaceOnUse">
<stop offset="0.0223687" stop-color="#376A99"/>
<stop offset="0.536458" stop-color="#1F2666"/>
<stop offset="1" stop-color="#0C1249"/>
</linearGradient>
<linearGradient id="paint1_linear" x1="175.84" y1="12.4395" x2="161.087" y2="44.0775" gradientUnits="userSpaceOnUse">
<stop offset="0.228775" stop-color="white" stop-opacity="0"/>
<stop offset="1" stop-color="white"/>
</linearGradient>
<linearGradient id="paint2_linear" x1="203.313" y1="8.71924" x2="190.687" y2="35.7958" gradientUnits="userSpaceOnUse">
<stop offset="0.228775" stop-color="white" stop-opacity="0"/>
<stop offset="1" stop-color="white"/>
</linearGradient>
<radialGradient id="paint3_radial" cx="0" cy="0" r="1" gradientUnits="userSpaceOnUse" gradientTransform="translate(152.433 13.4327) scale(7.43256)">
<stop stop-color="white" stop-opacity="0.52"/>
<stop offset="0.395833" stop-color="white" stop-opacity="0.14"/>
<stop offset="0.677083" stop-color="white" stop-opacity="0"/>
</radialGradient>
<clipPath id="clip0">
<rect width="260" height="135" fill="white"/>
</clipPath>
</defs>
</svg>
