<svg width="552" height="573" viewBox="0 0 552 573" fill="none" xmlns="http://www.w3.org/2000/svg">
<path d="M541.393 232.887V237.3C526.933 245.707 509.747 285.418 494.295 293.268C476.447 302.372 466.945 338.925 466.945 338.925L464.094 329.496C464.094 329.496 475.828 292.571 489.007 289.274C502.186 285.976 519.125 261.545 529.205 245.753C533.75 238.507 538.088 234.792 541.393 232.887Z" fill="url(#paint0_linear)"/>
<path d="M405.05 281.714C405.05 281.714 400.017 250.537 380.211 239.212C360.404 227.888 348.101 197.689 336.777 192.936V190.093C336.777 190.093 350.525 198.714 361.336 216.843C369.865 231.15 386.176 232.268 394.704 240.144C403.186 248.02 411.994 265.31 411.994 265.31L405.05 281.714Z" fill="url(#paint1_linear)"/>
<path d="M472.023 42.6133H404.634V572.803H472.023V42.6133Z" fill="url(#paint2_linear)"/>
<path d="M472.023 42.6133H404.634V572.803H472.023V42.6133Z" fill="url(#paint3_linear)"/>
<path d="M472.023 42.6133H424.454V572.803H472.023V42.6133Z" fill="url(#paint4_linear)"/>
<path d="M489.974 449.918C489.974 449.918 490.27 468.977 468.544 480.843C446.817 492.709 425.461 488.778 431.171 509.395C436.881 530.012 390.165 520.519 380.525 541.878C370.885 563.31 396.171 572.803 396.171 572.803H530.016C530.016 572.803 554.412 545.883 530.016 520.445C505.694 495.082 489.974 449.918 489.974 449.918Z" fill="url(#paint5_linear)"/>
<path d="M525.018 518C525.018 518 525.158 526.482 516.629 531.794C508.148 537.107 499.759 535.336 501.996 544.517C504.233 553.698 485.965 549.457 482.19 559.011C478.415 568.564 488.341 572.805 488.341 572.805H540.676C540.676 572.805 550.23 560.781 540.676 549.457C531.169 538.132 525.018 518 525.018 518Z" fill="url(#paint6_linear)"/>
<path d="M130 0C131.026 46.8665 177.998 51.4741 181.59 56.8728C181.59 56.8728 153.929 72.6966 184.015 93.0349C214.149 113.327 302.727 88.9858 311.357 113.745C319.986 138.505 372.089 143.392 391.633 119.004C396.765 112.629 396.438 107.183 393.546 102.436C402.595 103.972 411.551 104.996 419.573 105.414C449.427 107.044 448.215 89.5444 454.792 78.3746C460.249 76.8853 464.027 74.372 465.333 70.323C467.946 69.6715 471.07 69.3456 474.895 69.5784C510.299 71.4866 444.996 117.608 507.874 125.334C549.481 130.454 547.243 120.634 552 110.395V0H130Z" fill="url(#paint7_linear)"/>
<path d="M490.147 342.997C490.147 342.997 500.586 324.17 512.703 323.611C524.82 323.098 523.421 309.257 523.421 309.257C523.421 309.257 539.546 349.475 490.147 342.997Z" fill="url(#paint8_linear)"/>
<path d="M352.333 302.569C352.333 302.569 358.75 291.091 366.198 290.751C373.647 290.438 372.787 282 372.787 282C372.787 282 382.699 306.519 352.333 302.569Z" fill="url(#paint9_linear)"/>
<path d="M146 464C218.349 464 277 387.217 277 292.5C277 197.783 218.349 121 146 121C73.6507 121 15 197.783 15 292.5C15 387.217 73.6507 464 146 464Z" fill="url(#paint10_radial)"/>
<path d="M87.3699 436.403C90.7549 436.629 113.773 449.943 119.188 453.159C110.895 448.815 79.4717 440.183 79.4717 440.183C81.0513 439.732 84.267 438.096 87.3699 436.403Z" fill="#363957"/>
<path d="M205.562 440.184C205.562 440.184 165.958 449.774 158.736 453.836C159.075 453.611 179.61 437.983 190.386 435.896C190.386 435.896 200.992 439.225 204.433 440.184C204.602 440.24 204.997 440.24 205.562 440.184Z" fill="#363957"/>
<path d="M97.4122 446.558C97.4686 446.671 97.4686 446.784 97.3558 446.84C96.9044 447.179 97.0172 447.009 97.4122 446.558Z" fill="#C75454"/>
<path d="M230.159 392.851C229.764 392.061 208.833 359.17 203.192 344.164C197.55 329.157 183.898 322.274 177.466 320.131C175.153 319.341 171.091 318.043 166.747 316.633C158.962 314.094 150.499 311.386 150.499 311.386H123.702C123.702 311.386 114.393 314.489 104.577 317.93C95.4939 321.09 85.9033 324.588 82.6876 326.224C75.9741 329.609 64.6344 353.642 62.3214 356.406C60.0083 359.17 42.3502 391.892 39.8115 404.472C37.8369 414.232 95.8325 442.892 97.4121 446.559C99.2738 444.528 107.68 436.404 107.68 436.404C107.68 436.404 104.972 434.711 101.192 432.173C116.706 432.906 154.674 431.552 160.147 431.834C161.219 431.891 162.403 431.834 163.644 431.778C165.337 433.019 176.225 442.61 176.225 442.61C176.225 442.61 203.023 431.496 215.321 419.028C232.81 401.37 232.077 396.743 230.159 392.851ZM77.7794 414.627C72.0249 407.745 64.1267 403.57 66.1013 400.523C68.0758 397.477 84.9442 368.366 84.9442 368.366C84.9442 368.366 93.6886 387.491 96.1145 397.477C98.5404 407.406 98.3712 411.976 97.3557 415.079C96.4531 417.843 95.6632 419.761 94.8734 427.998C87.9907 423.259 80.4309 417.787 77.7794 414.627ZM196.253 411.355C193.996 413.894 185.082 419.592 177.071 424.218C176.451 418.689 175.548 409.945 175.435 406.785C175.266 402.047 177.297 388.394 179.723 383.204C182.149 378.013 183.841 363.74 183.841 363.74C183.841 363.74 204.151 391.328 207.367 394.205C210.582 397.138 203.869 402.667 196.253 411.355Z" fill="url(#paint11_linear)"/>
<path d="M230.159 392.851C229.764 392.061 208.833 359.17 203.192 344.164C197.55 329.157 183.898 322.274 177.466 320.131C175.153 319.341 171.091 318.043 166.747 316.633C158.962 314.094 150.499 311.386 150.499 311.386H123.702C123.702 311.386 114.393 314.489 104.577 317.93C95.4939 321.09 85.9033 324.588 82.6876 326.224C75.9741 329.609 64.6344 353.642 62.3214 356.406C60.0083 359.17 42.3502 391.892 39.8115 404.472C37.8369 414.232 95.8325 442.892 97.4121 446.559C99.2738 444.528 107.68 436.404 107.68 436.404C107.68 436.404 104.972 434.711 101.192 432.173C116.706 432.906 154.674 431.552 160.147 431.834C161.219 431.891 162.403 431.834 163.644 431.778C165.337 433.019 176.225 442.61 176.225 442.61C176.225 442.61 203.023 431.496 215.321 419.028C232.81 401.37 232.077 396.743 230.159 392.851ZM77.7794 414.627C72.0249 407.745 64.1267 403.57 66.1013 400.523C68.0758 397.477 84.9442 368.366 84.9442 368.366C84.9442 368.366 93.6886 387.491 96.1145 397.477C98.5404 407.406 98.3712 411.976 97.3557 415.079C96.4531 417.843 95.6632 419.761 94.8734 427.998C87.9907 423.259 80.4309 417.787 77.7794 414.627ZM196.253 411.355C193.996 413.894 185.082 419.592 177.071 424.218C176.451 418.689 175.548 409.945 175.435 406.785C175.266 402.047 177.297 388.394 179.723 383.204C182.149 378.013 183.841 363.74 183.841 363.74C183.841 363.74 204.151 391.328 207.367 394.205C210.582 397.138 203.869 402.667 196.253 411.355Z" fill="url(#paint12_linear)"/>
<path d="M137.975 519.391L163.644 511.549L145.817 521.93L137.975 519.391Z" fill="#252638"/>
<path d="M120.317 453.836C120.26 453.78 119.865 453.554 119.188 453.159C119.64 453.385 120.035 453.611 120.317 453.836Z" fill="#535353"/>
<path d="M283.866 455.077C283.189 459.872 254.192 480.182 248.494 484.244C243.924 487.516 239.919 488.983 233.036 491.578C217.296 495.696 118.624 525.146 118.624 525.146C118.342 524.13 118.229 523.284 117.665 522.155C113.998 523.622 110.162 524.581 107.792 525.315C104.125 526.443 74.9584 527.402 68.9783 528.53C62.9982 529.659 51.038 531.52 46.2427 526.894C41.4473 522.325 49.2328 512.452 55.8899 509.913C62.5469 507.374 86.9186 506.698 91.2626 506.246C95.6066 505.795 101.361 504.159 104.125 505.118C104.972 505.4 108.864 504.272 113.716 502.579C113.603 500.774 113.547 499.645 113.547 499.645L139.442 492.199L134.646 446.332C134.646 446.332 145.93 403.851 190.949 436.234C190.949 436.234 200.992 439.168 204.433 440.127C204.659 440.183 205.054 440.183 205.561 440.183C212.444 439.675 241.949 430.762 252.612 430.762C264.121 430.762 267.788 430.085 271.906 432.116C276.025 434.203 284.543 450.282 283.866 455.077Z" fill="#363957"/>
<path d="M237.719 526.951C232.923 531.521 220.963 529.716 214.983 528.587C209.003 527.459 179.836 526.5 176.169 525.372C172.502 524.243 165.619 522.607 160.767 519.392C160.372 519.11 159.47 518.771 158.172 518.263L150.894 523.51L49.515 491.24C43.4221 489.548 38.6268 487.065 35.4111 484.245C30.108 479.675 0.715313 459.929 0.0383223 455.078C-0.638668 450.282 7.82369 434.204 11.9985 432.116C16.1168 430.029 19.7838 430.762 31.2927 430.762C42.8015 430.762 76.0869 441.086 79.5283 440.184C81.1079 439.789 84.3236 438.096 87.4265 436.46C91.0935 434.429 94.5349 432.398 94.5349 432.398C143.842 410.396 149.371 446.39 149.371 446.39L146.438 490.845C146.438 490.845 150.556 492.876 155.915 495.415L180.343 502.298L177.128 504.611C178.538 505.062 179.497 505.288 179.892 505.118C182.657 504.216 188.411 505.795 192.755 506.247C197.099 506.698 221.471 507.375 228.128 509.914C234.728 512.509 242.514 522.382 237.719 526.951Z" fill="#363957"/>
<path d="M109.485 479.223C109.485 479.223 77.3843 459.985 63.3932 456.995C50.1354 454.118 45.3401 449.21 45.3401 449.21C45.3401 449.21 66.3832 449.21 80.3743 459.139C89.9086 465.909 109.485 479.223 109.485 479.223Z" fill="#252638"/>
<path d="M137.975 492.65C137.975 492.65 193.77 463.37 216.562 456.995C229.595 453.385 234.616 449.21 234.616 449.21C234.616 449.21 200.145 452.595 179.159 465.232C169.117 471.212 137.975 492.65 137.975 492.65Z" fill="#252638"/>
<path d="M237.719 526.951C232.924 531.521 220.963 529.715 214.983 528.587C209.003 527.459 179.836 526.5 176.169 525.371C175.097 525.033 173.8 524.694 172.333 524.243C168.722 523.171 164.209 521.704 160.768 519.391C160.373 519.109 159.47 518.771 158.172 518.263L176.508 505.005L177.015 504.61C178.426 505.062 179.385 505.287 179.78 505.118C182.544 504.215 188.298 505.795 192.643 506.246C196.987 506.698 221.358 507.375 228.015 509.913C234.729 512.509 242.514 522.381 237.719 526.951Z" fill="#F4C9AF"/>
<path d="M117.609 522.156C113.942 523.623 110.106 524.582 107.736 525.315C104.069 526.443 74.9023 527.403 68.9222 528.531C62.9421 529.659 50.9819 531.521 46.1865 526.895C41.3912 522.325 49.1766 512.452 55.8337 509.914C62.4907 507.375 86.8624 506.698 91.2065 506.247C95.5505 505.795 101.305 504.159 104.069 505.118C104.915 505.4 108.808 504.272 113.66 502.58C113.773 505.513 117.609 522.156 117.609 522.156Z" fill="#F4C9AF"/>
<path d="M147.809 303.93C147.809 303.93 136.921 308.838 126.089 299.981C126.089 299.981 130.151 309.12 137.88 309.684C145.553 310.249 147.809 303.93 147.809 303.93Z" fill="black" fill-opacity="0.2"/>
<path d="M150.781 311.499C150.781 311.442 150.781 311.442 150.725 311.386C149.427 308.452 150.048 294.236 150.048 294.236C150.048 294.236 123.363 287.466 124.097 292.656C124.83 297.846 121.784 312.007 121.784 312.007L108.075 316.689C108.075 316.689 122.686 355.842 139.442 350.821C156.197 345.743 162.516 315.279 162.516 315.279L150.781 311.499Z" fill="#F4C9AF"/>
<path fill-rule="evenodd" clip-rule="evenodd" d="M116.3 280.133C116.325 280.3 116.342 280.395 116.342 280.395C111.039 259.368 113.481 250.271 117.913 241.483C122.344 232.695 140.324 226.091 153.507 237.242C166.69 248.394 160.513 272.545 160.513 272.545C160.513 272.545 160.446 272.645 160.352 272.756C154.746 300.745 141.53 308.63 138.901 307.316C138.079 306.905 137.242 306.51 136.397 306.112C128.876 302.565 120.705 298.712 116.3 280.133Z" fill="#F4C9AF"/>
<path fill-rule="evenodd" clip-rule="evenodd" d="M116.341 281.344C116.341 281.344 116.337 281.321 116.33 281.279C116.864 283.552 117.453 285.634 118.093 287.537L121.401 294.815L124.901 298.315L129.901 302.815H130.401C127.472 301.589 125.359 297.084 124.104 291.873C123.108 287.738 120.33 282.099 115.522 277.92C115.771 279.025 116.044 280.166 116.341 281.344ZM150.198 291.873C151.202 287.704 154.019 282.005 158.901 277.815L157.901 283.815L152.901 294.815L149.401 298.315L144.401 302.815H143.901C146.83 301.589 148.943 297.084 150.198 291.873Z" fill="#101010" fill-opacity="0.07"/>
<path fill-rule="evenodd" clip-rule="evenodd" d="M135.104 298.216C134.144 298.422 132.966 298.675 131.401 299.315C130.023 299.879 129.436 299.308 128.277 298.18C127.376 297.304 126.131 296.092 123.901 294.815C119.79 289.544 115.401 276.315 115.401 276.315C115.401 276.315 115.401 281.865 117.339 287.443C117.452 289.53 118.699 294.454 122.779 297.458C124.072 298.41 124.808 299.145 125.593 299.929C127.285 301.619 129.201 303.532 137.401 308.315C145.601 303.532 147.516 301.619 149.209 299.929C149.994 299.145 150.73 298.41 152.022 297.458C156.103 294.454 157.35 289.53 157.463 287.443C159.401 281.865 159.401 276.315 159.401 276.315C159.401 276.315 155.012 289.544 150.901 294.815C148.671 296.092 147.425 297.304 146.525 298.18C145.366 299.308 144.779 299.879 143.401 299.315C141.835 298.675 140.657 298.422 139.698 298.216C138.782 298.02 138.065 297.866 137.401 297.458C136.736 297.866 136.02 298.02 135.104 298.216Z" fill="#363957"/>
<path fill-rule="evenodd" clip-rule="evenodd" d="M145.332 285.641C145.009 285.34 144.627 285.209 144.426 285.148C144.181 285.073 143.918 285.023 143.669 284.987C143.169 284.913 142.571 284.872 141.972 284.849C140.983 284.81 139.864 284.812 138.956 284.815C138.76 284.815 138.574 284.815 138.401 284.815V284.817C138.213 284.817 138.008 284.817 137.789 284.817C136.757 284.814 135.42 284.812 134.22 284.85C133.494 284.874 132.782 284.913 132.195 284.983C131.903 285.018 131.609 285.063 131.345 285.128C131.137 285.179 130.734 285.289 130.391 285.555C129.61 286.161 128.9 287.173 128.431 288.012C128.185 288.451 127.967 288.911 127.82 289.334C127.747 289.545 127.679 289.78 127.642 290.02C127.61 290.224 127.57 290.602 127.7 291.008C127.789 291.282 127.74 291.986 127.214 293.159C126.73 294.237 125.983 295.404 125.214 296.398L127.587 298.233C128.455 297.112 129.344 295.741 129.951 294.387C130.478 293.211 130.946 291.721 130.635 290.375C130.64 290.358 130.647 290.339 130.654 290.319C130.727 290.107 130.862 289.81 131.049 289.476C131.396 288.855 131.803 288.316 132.107 288.031C132.206 288.009 132.351 287.985 132.548 287.962C133.008 287.908 133.62 287.871 134.317 287.849C135.46 287.812 136.73 287.814 137.764 287.817C137.989 287.817 138.202 287.817 138.401 287.817V286.316V287.815C138.588 287.815 138.785 287.815 138.987 287.815H138.988C139.896 287.812 140.935 287.81 141.853 287.846C142.417 287.869 142.889 287.904 143.232 287.955C143.312 287.966 143.377 287.978 143.428 287.988C143.665 288.273 143.982 288.781 144.259 289.376C144.416 289.713 144.532 290.018 144.597 290.243C144.612 290.294 144.622 290.335 144.63 290.367C144.363 291.646 144.729 293.098 145.178 294.297C145.679 295.639 146.416 297.005 147.14 298.128L149.662 296.503C149.022 295.51 148.395 294.338 147.988 293.247C147.551 292.08 147.479 291.3 147.577 290.935C147.672 290.579 147.644 290.247 147.619 290.056C147.59 289.835 147.538 289.613 147.478 289.408C147.359 288.997 147.181 288.545 146.978 288.109C146.594 287.284 146.002 286.264 145.332 285.641ZM143.581 288.027C143.58 288.028 143.573 288.025 143.559 288.02C143.575 288.025 143.581 288.027 143.581 288.027ZM144.645 290.445C144.647 290.463 144.645 290.461 144.644 290.442L144.645 290.445ZM131.993 288.061C131.993 288.061 132 288.059 132.012 288.054C131.998 288.059 131.992 288.061 131.993 288.061Z" fill="#363957"/>
<path fill-rule="evenodd" clip-rule="evenodd" d="M110.449 251.142C109.028 253.705 108.652 256.616 108.652 257.87C106.537 247.293 110.944 239.184 113.412 236.452C114.724 235.497 117.166 234.212 119.264 234.333C121.322 231.384 129.859 223.715 154.897 231.152C153.389 230.914 150.18 230.804 148.321 232.02C151.093 232.079 154.139 232.485 156.748 233.267C157.236 233.536 157.875 233.859 158.539 234.196C160.277 235.074 162.189 236.042 162.036 236.348C161.938 236.544 161.369 236.377 160.571 236.143C159.212 235.746 157.189 235.153 155.69 235.819C155.446 235.928 155.192 236.052 154.927 236.188C156.866 236.792 158.565 237.448 159.392 238.027C162.036 239.878 165.738 242.522 165.738 245.959C165.121 245.254 163.623 243.633 162.565 243.844C162.395 243.878 162.101 243.886 161.716 243.871C163.286 245.458 164.881 248.22 165.739 253.363C165.122 252.658 163.835 251.248 163.623 251.248C163.58 251.248 163.453 251.164 163.269 251.02C163.81 252.397 164.152 253.596 164.152 254.421C164.152 254.833 164.178 255.344 164.215 255.937C164.589 256.279 164.816 256.583 164.772 256.788C164.683 257.202 165.063 260.014 165.429 262.73C165.787 265.383 166.133 267.946 166.017 268.09C165.909 268.225 165.807 267.902 165.671 267.47C165.514 266.971 165.31 266.325 164.997 266.074C164.795 265.912 164.545 265.597 164.287 265.2C163.88 269.372 162.639 273.944 159.392 277.69C160.361 271.344 161.507 257.594 158.334 253.363C158.032 252.96 157.75 252.572 157.48 252.202L157.479 252.201V252.2C154.664 248.335 153.206 246.333 144.601 248.186C143.33 249.153 141.797 249.78 139.957 249.894C141.466 250.597 143.62 251.357 145.114 250.984C147.691 250.68 149.399 250.116 150.388 249.79C151.123 249.547 151.46 249.436 151.46 249.662C151.46 250.19 148.022 252.041 146.7 252.57C145.631 252.998 141.796 252.907 139.668 252.856C139.164 252.844 138.756 252.835 138.503 252.835C137.978 252.835 136.829 252.376 135.649 251.906C133.858 251.192 131.997 250.451 132.157 251.248C132.427 252.601 133.784 252.832 135.02 253.043C135.523 253.128 136.006 253.211 136.388 253.364C136.133 253.448 135.961 253.56 135.8 253.664C135.459 253.885 135.171 254.072 134.272 253.892C133.443 253.726 129.513 251.601 127.662 250.455C126.879 250.142 124.398 249.592 120.294 249.621C119.605 250.335 118.971 251.206 118.247 252.2V252.201H118.246C117.976 252.572 117.694 252.96 117.391 253.363C114.218 257.594 115.364 271.344 116.334 277.69C113.163 274.032 111.905 269.587 111.469 265.495C111.43 265.806 111.391 266.113 111.353 266.413V266.416V266.418C110.993 269.278 110.708 271.547 110.474 271.08C109.949 270.03 109.425 257.791 110.449 251.142Z" fill="#363957"/>
<path opacity="0.3" d="M156.082 233.25C149.483 231.451 143.447 231.079 140.486 232.348C141.191 233.847 143.236 237.055 145.774 237.901C148.947 238.959 153.102 236.707 155.482 235.65C157.881 235.05 161.816 236.778 162.08 236.249C162.292 235.826 159.376 234.149 156.082 233.25Z" fill="url(#paint13_linear)"/>
<path opacity="0.3" d="M159.847 237.7C157.886 236.328 151.033 234.527 147.684 233.999C148.389 235.938 150.116 240.08 151.386 241.138C152.972 242.46 161.698 243.782 163.02 243.518C164.078 243.306 165.576 244.928 166.193 245.633C166.193 242.196 162.491 239.551 159.847 237.7Z" fill="url(#paint14_linear)"/>
<path opacity="0.3" d="M165.478 253.36C163.627 242.254 158.339 242.254 157.281 241.197C157.898 242.96 159.185 246.644 159.397 247.278C159.661 248.072 163.098 251.245 163.363 251.245C163.574 251.245 164.861 252.655 165.478 253.36Z" fill="url(#paint15_linear)"/>
<path d="M158.878 254.765C162.051 258.996 160.905 272.746 159.936 279.092C166.811 271.159 164.695 259.525 164.695 255.823C164.695 252.861 160.288 245.069 158.085 241.544L126.09 235.198C126.178 241.72 129.157 253.972 140.368 250.799C154.383 246.832 154.912 249.477 158.878 254.765Z" fill="url(#paint16_linear)"/>
<path opacity="0.5" d="M165.315 258.19C165.456 257.536 162.845 255.891 161.522 255.15C162.065 257.662 163.232 262.942 163.558 263.97C163.966 265.255 164.957 267.008 165.541 267.476C166.124 267.944 166.327 269.784 166.561 269.492C166.795 269.2 165.139 259.008 165.315 258.19Z" fill="url(#paint17_linear)"/>
<path fill-rule="evenodd" clip-rule="evenodd" d="M119.449 234.021C121.87 230.886 130.656 223.965 154.853 231.152C153.178 230.887 149.406 230.782 147.713 232.474C146.021 234.166 141.015 236.528 138.723 237.498H123.915C123.178 237.498 122.39 237.233 121.65 236.858C121.339 238.859 120.881 241.348 120.551 241.678C120.431 241.798 119.997 242.109 119.37 242.559C117.237 244.088 112.871 247.219 111.032 249.875C109.128 252.625 108.652 256.133 108.652 257.543C106.537 246.966 110.944 238.857 113.412 236.125C114.763 235.142 117.312 233.809 119.449 234.021Z" fill="url(#paint18_linear)"/>
<path opacity="0.5" d="M111.104 271.096C110.576 270.038 110.047 257.61 111.104 251L116.128 243.596C116.657 245.006 117.662 248.461 117.451 251C117.186 254.173 115.071 254.966 113.749 257.081C112.427 259.197 111.633 272.153 111.104 271.096Z" fill="url(#paint19_linear)"/>
<path d="M127.882 250.391C127 250.038 123.968 249.386 118.891 249.597C126.569 245.516 135.312 247.544 138.723 249.069C139.781 249.703 143.218 251.448 145.334 250.92C149.829 250.391 151.68 249.069 151.68 249.597C151.68 250.126 148.242 251.977 146.92 252.506C145.598 253.035 140.045 252.771 138.723 252.771C137.401 252.771 132.113 249.862 132.377 251.184C132.757 253.086 135.286 252.771 136.608 253.299C135.814 253.564 135.814 254.093 134.492 253.828C133.663 253.662 129.733 251.537 127.882 250.391Z" fill="url(#paint20_linear)"/>
<path d="M131.804 448.369C169.022 448.369 199.192 405.775 199.192 353.232C199.192 300.689 169.022 258.095 131.804 258.095C94.5862 258.095 64.4153 300.689 64.4153 353.232C64.4153 405.775 94.5862 448.369 131.804 448.369Z" fill="url(#paint21_radial)"/>
<path d="M90.7901 449.546C90.0427 449.336 89.4848 448.722 89.3502 447.957L81.512 403.436C81.2996 402.23 82.2111 401.118 83.4352 401.09L188.011 398.66C189.252 398.631 190.219 399.727 190.036 400.954L183.509 444.762C183.401 445.487 182.926 446.087 182.239 446.342C176.753 448.376 152.045 457.66 139.742 464.328C138.359 465.078 134.749 465.352 133.29 464.763C125.264 461.525 104.506 453.392 90.7901 449.546Z" fill="url(#paint22_linear)"/>
<path d="M90.7901 449.546C90.0427 449.336 89.4848 448.722 89.3502 447.957L81.512 403.436C81.2996 402.23 82.2111 401.118 83.4352 401.09L188.011 398.66C189.252 398.631 190.219 399.727 190.036 400.954L183.509 444.762C183.401 445.487 182.926 446.087 182.239 446.342C176.753 448.376 152.045 457.66 139.742 464.328C138.359 465.078 134.749 465.352 133.29 464.763C125.264 461.525 104.506 453.392 90.7901 449.546Z" fill="url(#paint23_linear)"/>
<defs>
<linearGradient id="paint0_linear" x1="502.744" y1="232.887" x2="502.744" y2="338.925" gradientUnits="userSpaceOnUse">
<stop stop-color="#CD7744"/>
<stop offset="1" stop-color="#EE253B"/>
</linearGradient>
<linearGradient id="paint1_linear" x1="374.385" y1="190.093" x2="374.385" y2="281.714" gradientUnits="userSpaceOnUse">
<stop stop-color="#CD7744"/>
<stop offset="1" stop-color="#EE253B"/>
</linearGradient>
<linearGradient id="paint2_linear" x1="425.941" y1="554.469" x2="478.162" y2="553.9" gradientUnits="userSpaceOnUse">
<stop stop-color="#5D3F9C"/>
<stop offset="1" stop-color="#FCA758"/>
</linearGradient>
<linearGradient id="paint3_linear" x1="438.328" y1="42.6133" x2="438.328" y2="572.803" gradientUnits="userSpaceOnUse">
<stop stop-color="#D85855"/>
<stop offset="1" stop-color="#6E2287"/>
</linearGradient>
<linearGradient id="paint4_linear" x1="472.023" y1="276.491" x2="406.616" y2="276.491" gradientUnits="userSpaceOnUse">
<stop stop-opacity="0.25"/>
<stop offset="0.701536" stop-color="#272727" stop-opacity="0"/>
</linearGradient>
<linearGradient id="paint5_linear" x1="459.596" y1="449.918" x2="459.596" y2="572.803" gradientUnits="userSpaceOnUse">
<stop stop-color="#D85855"/>
<stop offset="1" stop-color="#6E2287"/>
</linearGradient>
<linearGradient id="paint6_linear" x1="513.128" y1="518" x2="513.128" y2="572.805" gradientUnits="userSpaceOnUse">
<stop stop-color="#D85855"/>
<stop offset="1" stop-color="#6E2287"/>
</linearGradient>
<linearGradient id="paint7_linear" x1="341" y1="0" x2="341" y2="135" gradientUnits="userSpaceOnUse">
<stop stop-color="#D85855"/>
<stop offset="1" stop-color="#6E2287"/>
</linearGradient>
<linearGradient id="paint8_linear" x1="508.042" y1="309.257" x2="508.042" y2="343.704" gradientUnits="userSpaceOnUse">
<stop stop-color="#CD7744"/>
<stop offset="1" stop-color="#EE253B"/>
</linearGradient>
<linearGradient id="paint9_linear" x1="363.333" y1="282" x2="363.333" y2="303" gradientUnits="userSpaceOnUse">
<stop stop-color="#CD7744"/>
<stop offset="1" stop-color="#EE253B"/>
</linearGradient>
<radialGradient id="paint10_radial" cx="0" cy="0" r="1" gradientUnits="userSpaceOnUse" gradientTransform="translate(146 403.315) rotate(-90) scale(287.592 95.8724)">
<stop stop-color="#FFE0D6" stop-opacity="0.74"/>
<stop offset="0.532678" stop-color="#3C66FB" stop-opacity="0.13"/>
<stop offset="1" stop-color="#9309FF" stop-opacity="0.01"/>
</radialGradient>
<linearGradient id="paint11_linear" x1="135.44" y1="311.386" x2="135.44" y2="446.559" gradientUnits="userSpaceOnUse">
<stop stop-color="#D85855"/>
<stop offset="1" stop-color="#6E2287"/>
</linearGradient>
<linearGradient id="paint12_linear" x1="135.417" y1="311.386" x2="135.417" y2="446.559" gradientUnits="userSpaceOnUse">
<stop stop-color="#4B12AD"/>
<stop offset="1" stop-color="#150456"/>
</linearGradient>
<linearGradient id="paint13_linear" x1="141.187" y1="231.451" x2="161.626" y2="235.724" gradientUnits="userSpaceOnUse">
<stop stop-color="#B241EA" stop-opacity="0"/>
<stop offset="1" stop-color="#06B7B8"/>
</linearGradient>
<linearGradient id="paint14_linear" x1="148.285" y1="233.736" x2="166.375" y2="235.568" gradientUnits="userSpaceOnUse">
<stop stop-color="#B241EA" stop-opacity="0"/>
<stop offset="1" stop-color="#06B7B8"/>
</linearGradient>
<linearGradient id="paint15_linear" x1="157.547" y1="240.922" x2="165.626" y2="241.269" gradientUnits="userSpaceOnUse">
<stop stop-color="#B241EA" stop-opacity="0"/>
<stop offset="1" stop-color="#06B7B8"/>
</linearGradient>
<linearGradient id="paint16_linear" x1="143.655" y1="229.961" x2="143.655" y2="279.423" gradientUnits="userSpaceOnUse">
<stop stop-color="#320B84" stop-opacity="0"/>
<stop offset="1" stop-color="#00D4FF" stop-opacity="0.23"/>
</linearGradient>
<linearGradient id="paint17_linear" x1="161.641" y1="255.137" x2="165.257" y2="254.797" gradientUnits="userSpaceOnUse">
<stop stop-color="#B241EA" stop-opacity="0"/>
<stop offset="1" stop-color="#06B7B8" stop-opacity="0.2"/>
</linearGradient>
<linearGradient id="paint18_linear" x1="129.202" y1="224.475" x2="129.202" y2="257.766" gradientUnits="userSpaceOnUse">
<stop stop-color="#00D4FF" stop-opacity="0.29"/>
<stop offset="1" stop-color="#320B84" stop-opacity="0"/>
</linearGradient>
<linearGradient id="paint19_linear" x1="116.492" y1="245.395" x2="122.894" y2="248.658" gradientUnits="userSpaceOnUse">
<stop stop-color="#B241EA" stop-opacity="0"/>
<stop offset="1" stop-color="#06B7B8" stop-opacity="0.29"/>
</linearGradient>
<linearGradient id="paint20_linear" x1="133.693" y1="246.395" x2="133.693" y2="253.951" gradientUnits="userSpaceOnUse">
<stop stop-color="#320B84" stop-opacity="0"/>
<stop offset="1" stop-color="#00D4FF" stop-opacity="0.69"/>
</linearGradient>
<radialGradient id="paint21_radial" cx="0" cy="0" r="1" gradientUnits="userSpaceOnUse" gradientTransform="translate(131.804 414.705) rotate(-90) scale(159.537 67.3885)">
<stop stop-color="#E8BAFF" stop-opacity="0.74"/>
<stop offset="0.532678" stop-color="#46FFD3" stop-opacity="0.15"/>
<stop offset="1" stop-color="#46FFD3" stop-opacity="0"/>
</radialGradient>
<linearGradient id="paint22_linear" x1="135.747" y1="398.605" x2="135.747" y2="466.135" gradientUnits="userSpaceOnUse">
<stop stop-color="#BCBCBC"/>
<stop offset="1" stop-color="#DDDDDD"/>
</linearGradient>
<linearGradient id="paint23_linear" x1="84.8238" y1="398.605" x2="196.454" y2="410.86" gradientUnits="userSpaceOnUse">
<stop stop-color="#4170EA"/>
<stop offset="1" stop-color="#06B7B8"/>
</linearGradient>
</defs>
</svg>
