<svg width="294" height="345" viewBox="0 0 294 345" fill="none" xmlns="http://www.w3.org/2000/svg">
<path d="M136.126 269.479C211.306 269.479 272.251 209.154 272.251 134.739C272.251 60.3249 211.306 0 136.126 0C60.9457 0 0.00012207 60.3249 0.00012207 134.739C0.00012207 209.154 60.9457 269.479 136.126 269.479Z" fill="url(#paint0_linear)"/>
<path opacity="0.33" d="M105.074 3.604C65.4288 13.0302 32.4371 39.3682 14.6936 74.5779C55.7254 67.6469 87.6082 39.9227 105.074 3.604Z" fill="#E9B9A3"/>
<path opacity="0.33" d="M53.231 170.226C64.0434 155.255 72.6379 138.897 84.0048 123.926C91.7676 113.668 101.471 104.242 107.848 93.1525C108.679 91.4891 109.511 89.8256 110.066 88.1621C109.511 88.1621 108.679 88.1621 108.125 88.1621C100.917 90.38 94.8172 90.6573 87.8862 94.5387C76.7965 100.638 67.093 108.955 57.1124 116.441C39.3689 129.748 20.7937 137.234 0.555054 134.184C0.555054 134.461 0.555054 134.462 0.555054 134.739C0.555054 158.582 6.9316 180.761 17.744 200.168C31.3289 192.405 44.082 182.702 53.231 170.226Z" fill="#D587A6"/>
<path opacity="0.33" d="M156.642 122.541C159.692 137.235 179.931 117.828 184.089 112.838C194.347 100.085 201.278 85.1137 209.595 71.2516C216.526 59.8847 222.903 48.5178 230.111 37.1509C210.982 19.1302 186.584 6.65427 159.692 1.94116C156.92 7.20875 154.702 12.7537 154.979 18.2985C155.256 27.7247 160.524 29.9426 168.564 32.4377C179.653 35.7647 184.921 42.4185 184.644 54.3399C184.366 67.3703 177.713 77.9054 171.613 88.7179C166.346 97.0351 154.424 112.561 156.642 122.541Z" fill="#D587A6"/>
<path opacity="0.33" d="M140.838 126.7C127.253 114.224 67.6461 229.557 54.8929 242.864C66.8143 251.459 79.8447 258.39 94.2613 263.103C98.1426 255.34 102.856 247.855 106.737 239.815C112.836 227.616 165.512 149.157 140.838 126.7Z" fill="#D587A6"/>
<path opacity="0.33" d="M198.228 216.803C204.05 210.981 225.952 193.238 221.516 182.98C217.635 173.831 195.178 178.821 188.525 181.871C164.127 193.792 159.137 230.665 146.938 252.567C143.611 258.389 140.285 263.934 136.126 269.202C147.77 269.202 159.414 267.816 170.227 265.043C176.326 247.3 184.089 230.665 198.228 216.803Z" fill="#D587A6"/>
<path opacity="0.33" d="M245.081 113.115C240.368 131.69 232.883 149.156 230.11 168.563C228.724 177.989 229.833 189.911 240.923 192.406C245.913 193.515 266.152 156.364 271.419 150.82C271.974 145.552 272.528 140.007 272.528 134.74C272.528 112.006 266.706 90.6582 256.726 72.083C251.458 85.6678 248.408 99.2527 245.081 113.115Z" fill="#D587A6"/>
<g opacity="0.43">
<path d="M229.448 230.714C264.852 195.31 273.453 146.51 248.659 121.717C223.866 96.9235 175.066 105.525 139.663 140.929C104.259 176.332 95.6573 225.132 120.451 249.926C145.244 274.719 194.044 266.118 229.448 230.714Z" fill="#4E5B9B"/>
<path d="M229.448 230.714C264.852 195.31 273.453 146.51 248.659 121.717C223.866 96.9235 175.066 105.525 139.663 140.929C104.259 176.332 95.6573 225.132 120.451 249.926C145.244 274.719 194.044 266.118 229.448 230.714Z" fill="#E9B9A3"/>
</g>
<path opacity="0.28" d="M24.3973 159.415C24.3973 85.1138 85.3904 24.6751 160.523 24.6751C192.406 24.6751 221.793 35.7647 245.082 54.0627C220.13 21.3482 180.762 0.277832 136.126 0.277832C60.9932 0.277832 0 60.4392 0 135.017C0 177.712 19.9614 215.695 51.2897 240.369C34.6552 217.635 24.3973 189.634 24.3973 159.415Z" fill="white"/>
<path opacity="0.23" d="M109.188 105.928C130.509 81.4498 132.535 48.3173 113.714 31.9249C94.8931 15.5326 62.3524 22.0877 41.0322 46.5663C19.7121 71.0449 17.686 104.177 36.5068 120.57C55.3276 136.962 87.8682 130.407 109.188 105.928Z" fill="white"/>
<g filter="url(#filter0_d)">
<path d="M232.466 137.439C249.309 137.439 262.963 123.909 262.963 107.219C262.963 90.5296 249.309 77 232.466 77C215.624 77 201.97 90.5296 201.97 107.219C201.97 123.909 215.624 137.439 232.466 137.439Z" fill="url(#paint1_linear)"/>
<path opacity="0.48" d="M222.543 94.5802C226.681 91.9564 228.64 87.6282 226.918 84.9127C225.196 82.1973 220.446 82.123 216.308 84.7468C212.17 87.3706 210.211 91.6989 211.933 94.4143C213.655 97.1297 218.405 97.204 222.543 94.5802Z" fill="#FCFCFC"/>
<path opacity="0.33" d="M254.418 126.776C263.569 116.269 264.904 102.452 257.399 95.9148C249.894 89.378 236.391 92.5967 227.239 103.104C218.087 113.611 216.753 127.428 224.258 133.965C231.763 140.502 245.266 137.283 254.418 126.776Z" fill="#D587A6"/>
<path opacity="0.33" d="M254.354 126.759C262.199 117.753 264.626 107.028 259.777 102.804C254.927 98.5805 244.637 102.457 236.793 111.464C228.949 120.47 226.521 131.195 231.37 135.419C236.22 139.643 246.51 135.766 254.354 126.759Z" fill="#D587A6"/>
</g>
<g filter="url(#filter1_d)">
<path d="M79.4967 303.499C103.536 303.499 123.024 284.136 123.024 260.25C123.024 236.364 103.536 217 79.4967 217C55.4574 217 35.9697 236.364 35.9697 260.25C35.9697 284.136 55.4574 303.499 79.4967 303.499Z" fill="url(#paint2_linear)"/>
<path opacity="0.48" d="M65.0871 241.982C71.0352 238.21 73.863 232.008 71.4032 228.129C68.9434 224.25 62.1274 224.163 56.1793 227.934C50.2312 231.706 47.4034 237.908 49.8632 241.788C52.323 245.667 59.139 245.754 65.0871 241.982Z" fill="#FCFCFC"/>
<path opacity="0.33" d="M110.771 287.929C123.845 272.918 125.738 253.168 115 243.815C104.262 234.463 84.9581 239.049 71.8844 254.06C58.8107 269.07 56.9175 288.82 67.6558 298.173C78.394 307.526 97.6974 302.939 110.771 287.929Z" fill="#D587A6"/>
<path opacity="0.33" d="M110.711 288.065C121.874 275.248 125.307 259.967 118.379 253.933C111.451 247.899 96.7857 253.397 85.6228 266.214C74.4599 279.03 71.0267 294.312 77.9546 300.346C84.8825 306.38 99.548 300.881 110.711 288.065Z" fill="#D587A6"/>
</g>
<defs>
<filter id="filter0_d" x="176.97" y="67" width="110.993" height="110.439" filterUnits="userSpaceOnUse" color-interpolation-filters="sRGB">
<feFlood flood-opacity="0" result="BackgroundImageFix"/>
<feColorMatrix in="SourceAlpha" type="matrix" values="0 0 0 0 0 0 0 0 0 0 0 0 0 0 0 0 0 0 127 0"/>
<feOffset dy="15"/>
<feGaussianBlur stdDeviation="12.5"/>
<feColorMatrix type="matrix" values="0 0 0 0 0 0 0 0 0 0 0 0 0 0 0 0 0 0 0.25 0"/>
<feBlend mode="normal" in2="BackgroundImageFix" result="effect1_dropShadow"/>
<feBlend mode="normal" in="SourceGraphic" in2="effect1_dropShadow" result="shape"/>
</filter>
<filter id="filter1_d" x="10.9697" y="196" width="148.473" height="148.108" filterUnits="userSpaceOnUse" color-interpolation-filters="sRGB">
<feFlood flood-opacity="0" result="BackgroundImageFix"/>
<feColorMatrix in="SourceAlpha" type="matrix" values="0 0 0 0 0 0 0 0 0 0 0 0 0 0 0 0 0 0 127 0"/>
<feOffset dy="4"/>
<feGaussianBlur stdDeviation="12.5"/>
<feColorMatrix type="matrix" values="0 0 0 0 0 0 0 0 0 0 0 0 0 0 0 0 0 0 0.25 0"/>
<feBlend mode="normal" in2="BackgroundImageFix" result="effect1_dropShadow"/>
<feBlend mode="normal" in="SourceGraphic" in2="effect1_dropShadow" result="shape"/>
</filter>
<linearGradient id="paint0_linear" x1="31.2216" y1="42.0288" x2="293.14" y2="319.748" gradientUnits="userSpaceOnUse">
<stop stop-color="#FCF4A7"/>
<stop offset="1" stop-color="#DB6B93"/>
</linearGradient>
<linearGradient id="paint1_linear" x1="208.965" y1="86.4262" x2="267.711" y2="148.648" gradientUnits="userSpaceOnUse">
<stop stop-color="#FCF4A7"/>
<stop offset="1" stop-color="#DB6B93"/>
</linearGradient>
<linearGradient id="paint2_linear" x1="45.953" y1="230.491" x2="130.044" y2="319.312" gradientUnits="userSpaceOnUse">
<stop stop-color="#FCF4A7"/>
<stop offset="1" stop-color="#DB6B93"/>
</linearGradient>
</defs>
</svg>
