<svg width="1400" height="747" viewBox="0 0 1400 747" fill="none" xmlns="http://www.w3.org/2000/svg">
<path fill-rule="evenodd" clip-rule="evenodd" d="M1400 22.8193C1396.9 21.4813 1388.21 22.6858 1372.61 24.8502C1317.84 32.4478 1177.8 51.8731 894.5 14.6767C805.995 3.05605 752.685 -0.578033 706.252 0.0726516C659.818 -0.578441 606.508 3.05538 518 14.6763C235.207 51.8068 87.6161 32.5166 29.2721 24.891C12.518 22.7012 3.12335 21.4733 0 22.8196V43V43.94V703V724.12C3.1233 725.467 12.5177 724.239 29.2713 722.049L29.2721 722.049C87.6159 714.423 235.207 695.133 518 732.264C606.508 743.885 659.818 747.518 706.252 746.867C752.685 747.518 805.995 743.884 894.5 732.263C1177.79 695.067 1317.84 714.492 1372.61 722.09L1372.61 722.09C1388.21 724.254 1396.9 725.459 1400 724.121V703V43.9396V43V22.8193Z" fill="url(#paint0_linear)"/>
<defs>
<linearGradient id="paint0_linear" x1="-3.76329e-05" y1="43" x2="556.999" y2="1133.56" gradientUnits="userSpaceOnUse">
<stop stop-color="#6019DB"/>
<stop offset="1" stop-color="#150456"/>
</linearGradient>
</defs>
</svg>
