<svg width="170" height="65" viewBox="0 0 170 65" fill="none" xmlns="http://www.w3.org/2000/svg">
<path fill-rule="evenodd" clip-rule="evenodd" d="M83.8756 18.2586V3.65186H80.3371V18.2586H83.8756ZM97.8652 6.46162V3.65186H86.4011V6.46162H90.3332V18.2586H93.8921V6.46162H97.8652ZM87.0591 26.0701C88.8178 26.0701 90.2704 26.5325 91.417 27.4575C92.5768 28.3825 93.3254 29.6331 93.6643 31.2094H90.1272C89.8665 30.5711 89.4626 30.0695 88.9156 29.7047C88.3817 29.3399 87.7434 29.1576 87.0007 29.1576C86.0235 29.1576 85.2355 29.5158 84.6358 30.2323C84.037 30.9489 83.7375 31.9064 83.7375 33.1049C83.7375 34.3034 84.037 35.261 84.6358 35.9775C85.2355 36.681 86.0235 37.0327 87.0007 37.0327C87.7434 37.0327 88.3817 36.8504 88.9156 36.4855C89.4626 36.1208 89.8665 35.6257 90.1272 35.0004H93.6643C93.3254 36.5637 92.5768 37.8144 91.417 38.7524C90.2704 39.6773 88.8178 40.1398 87.0591 40.1398C85.7175 40.1398 84.5387 39.8466 83.5221 39.2604C82.5062 38.6611 81.7181 37.8274 81.158 36.7591C80.611 35.6909 80.3371 34.4728 80.3371 33.1049C80.3371 31.737 80.611 30.5189 81.158 29.4507C81.7181 28.3825 82.5062 27.5552 83.5221 26.969C84.5387 26.3696 85.7175 26.0701 87.0591 26.0701ZM99.8553 25.562V40.0225H96.514V25.562H99.8553ZM113.985 29.1185V40.0225H110.624V38.0488C110.312 38.6872 109.843 39.1953 109.217 39.573C108.605 39.9508 107.888 40.1398 107.067 40.1398C105.817 40.1398 104.82 39.7229 104.077 38.8892C103.349 38.0554 102.983 36.9089 102.983 35.4499V29.1185H106.306V35.0395C106.306 35.7821 106.494 36.3618 106.872 36.7787C107.263 37.1825 107.784 37.3844 108.435 37.3844C109.113 37.3844 109.647 37.1695 110.038 36.7396C110.428 36.3097 110.624 35.6974 110.624 34.9027V29.1185H113.985ZM121.232 28.9817C122.613 28.9817 123.714 29.3269 124.535 30.0174C125.368 30.7078 125.89 31.6197 126.098 32.7532H122.971C122.88 32.3102 122.672 31.965 122.346 31.7175C122.033 31.457 121.636 31.3267 121.154 31.3267C120.776 31.3267 120.49 31.4113 120.294 31.5807C120.099 31.737 120.001 31.965 120.001 32.2646C120.001 32.6034 120.177 32.8574 120.529 33.0267C120.893 33.1961 121.46 33.3655 122.228 33.5348C123.063 33.7302 123.746 33.9321 124.281 34.1406C124.815 34.336 125.277 34.6617 125.668 35.1177C126.059 35.5736 126.254 36.1859 126.254 36.9546C126.254 37.5799 126.085 38.1336 125.747 38.6156C125.408 39.0976 124.919 39.4754 124.281 39.749C123.642 40.0225 122.887 40.1593 122.014 40.1593C120.541 40.1593 119.363 39.8336 118.477 39.1822C117.591 38.5309 117.05 37.5994 116.855 36.3878H120.079C120.131 36.8569 120.327 37.2151 120.666 37.4626C121.017 37.7102 121.467 37.8339 122.014 37.8339C122.391 37.8339 122.678 37.7492 122.873 37.5799C123.069 37.3975 123.167 37.163 123.167 36.8764C123.167 36.4985 122.984 36.2315 122.62 36.0752C122.268 35.9058 121.688 35.7299 120.88 35.5476C120.073 35.3782 119.408 35.1958 118.887 35.0004C118.366 34.805 117.917 34.4923 117.539 34.0624C117.161 33.6195 116.972 33.0202 116.972 32.2646C116.972 31.2876 117.343 30.4994 118.086 29.9002C118.829 29.2879 119.878 28.9817 121.232 28.9817ZM135.257 37.1499V40.0225H133.752C132.475 40.0225 131.479 39.7098 130.762 39.0845C130.058 38.4462 129.707 37.3975 129.707 35.9384V31.9324H128.241V29.1185H129.707V26.4413H133.048V29.1185H135.237V31.9324H133.048V35.997C133.048 36.4269 133.133 36.7266 133.303 36.8959C133.485 37.0653 133.785 37.1499 134.202 37.1499H135.257ZM148.469 34.2774C148.469 34.551 148.437 34.8506 148.371 35.1763H140.809C140.848 35.997 141.057 36.5898 141.434 36.9546C141.812 37.3063 142.294 37.4822 142.88 37.4822C143.375 37.4822 143.786 37.3584 144.112 37.1109C144.437 36.8633 144.652 36.5442 144.756 36.1534H148.293C148.15 36.922 147.837 37.6125 147.355 38.2247C146.873 38.824 146.261 39.2995 145.518 39.6513C144.775 39.9899 143.949 40.1593 143.037 40.1593C141.968 40.1593 141.017 39.9379 140.183 39.4949C139.363 39.039 138.718 38.3876 138.249 37.5408C137.78 36.694 137.545 35.7039 137.545 34.5705C137.545 33.4241 137.773 32.434 138.229 31.6002C138.698 30.7534 139.35 30.1086 140.183 29.6657C141.017 29.2097 141.968 28.9817 143.037 28.9817C144.117 28.9817 145.069 29.2031 145.889 29.6461C146.71 30.089 147.342 30.7144 147.785 31.522C148.241 32.3167 148.469 33.2352 148.469 34.2774ZM145.088 33.7693C145.101 33.0528 144.906 32.5186 144.502 32.1669C144.111 31.8022 143.623 31.6197 143.037 31.6197C142.425 31.6197 141.916 31.8022 141.512 32.1669C141.108 32.5317 140.881 33.0658 140.828 33.7693H145.088ZM154.529 31.1703C154.946 30.5059 155.481 29.9783 156.131 29.5874C156.796 29.1966 157.513 29.0013 158.282 29.0013V32.5773H157.324C156.438 32.5773 155.747 32.7662 155.252 33.144C154.77 33.5218 154.529 34.1602 154.529 35.0591V40.0225H151.188V29.1185H154.529V31.1703ZM82.0395 60.3259L83.0642 57.4946H88.4489L89.4736 60.3259H91.176L86.6596 48.3058H84.871L80.3371 60.3259H82.0395ZM85.7562 50.0776L87.9976 56.2613H83.5155L85.7562 50.0776ZM100.888 51.6409C100.089 50.9924 99.0812 50.6682 97.8652 50.6682C96.9508 50.6682 96.1401 50.8651 95.4339 51.2587C94.7269 51.6525 94.1711 52.2199 93.7658 52.961C93.3721 53.7021 93.1757 54.5706 93.1757 55.5666C93.1757 56.5624 93.3721 57.431 93.7658 58.172C94.1711 58.9016 94.7269 59.4632 95.4339 59.8569C96.1401 60.2506 96.9508 60.4475 97.8652 60.4475C99.0812 60.4475 100.089 60.129 100.888 59.4922C101.687 58.8436 102.179 57.9694 102.364 56.8693H100.697C100.581 57.5525 100.262 58.091 99.7414 58.4847C99.2316 58.8784 98.5948 59.0752 97.8308 59.0752C97.2751 59.0752 96.7653 58.9479 96.3023 58.6931C95.8502 58.4384 95.4857 58.0504 95.2075 57.5293C94.9299 56.9967 94.7912 56.3424 94.7912 55.5666C94.7912 54.7906 94.9299 54.1422 95.2075 53.6211C95.4857 53.0884 95.8502 52.6946 96.3023 52.4399C96.7653 52.1852 97.2751 52.0578 97.8308 52.0578C98.5948 52.0578 99.2316 52.2546 99.7414 52.6483C100.262 53.0305 100.581 53.5632 100.697 54.2464H102.364C102.179 53.1579 101.687 52.2894 100.888 51.6409ZM111.555 51.363C110.918 50.8998 110.136 50.6682 109.21 50.6682C108.365 50.6682 107.612 50.8651 106.951 51.2587C106.292 51.6525 105.77 52.2199 105.388 52.961C105.017 53.7021 104.833 54.5706 104.833 55.5666C104.833 56.5624 105.017 57.431 105.388 58.172C105.77 58.9016 106.292 59.4632 106.951 59.8569C107.612 60.2506 108.365 60.4475 109.21 60.4475C110.136 60.4475 110.918 60.2159 111.555 59.7527C112.203 59.2895 112.654 58.67 112.909 57.8941V60.3259H114.49V50.7898H112.909V53.2216C112.654 52.4457 112.203 51.8261 111.555 51.363ZM107.316 53.0131C107.907 52.3878 108.689 52.0752 109.662 52.0752C110.287 52.0752 110.843 52.2199 111.329 52.5094C111.827 52.7873 112.215 53.1927 112.492 53.7253C112.771 54.2579 112.909 54.8717 112.909 55.5666C112.909 56.2613 112.771 56.8751 112.492 57.4077C112.215 57.9288 111.827 58.3342 111.329 58.6237C110.843 58.9131 110.287 59.0579 109.662 59.0579C108.689 59.0579 107.907 58.751 107.316 58.1373C106.737 57.512 106.448 56.655 106.448 55.5666C106.448 54.478 106.737 53.6269 107.316 53.0131ZM124.127 51.363C123.491 50.8998 122.709 50.6682 121.782 50.6682C120.937 50.6682 120.184 50.8651 119.525 51.2587C118.865 51.6525 118.343 52.2199 117.961 52.961C117.591 53.7021 117.405 54.5706 117.405 55.5666C117.405 56.5624 117.591 57.431 117.961 58.172C118.343 58.9016 118.865 59.4632 119.525 59.8569C120.184 60.2506 120.937 60.4475 121.782 60.4475C122.709 60.4475 123.491 60.2159 124.127 59.7527C124.776 59.2895 125.228 58.67 125.482 57.8941V60.3259H127.063V47.4721H125.482V53.2216C125.228 52.4457 124.776 51.8261 124.127 51.363ZM119.889 53.0131C120.48 52.3878 121.262 52.0752 122.234 52.0752C122.86 52.0752 123.415 52.2199 123.902 52.5094C124.4 52.7873 124.788 53.1927 125.065 53.7253C125.343 54.2579 125.482 54.8717 125.482 55.5666C125.482 56.2613 125.343 56.8751 125.065 57.4077C124.788 57.9288 124.4 58.3342 123.902 58.6237C123.415 58.9131 122.86 59.0579 122.234 59.0579C121.262 59.0579 120.48 58.751 119.889 58.1373C119.31 57.512 119.021 56.655 119.021 55.5666C119.021 54.478 119.31 53.6269 119.889 53.0131ZM139.15 55.8965C139.196 55.6534 139.219 55.3639 139.219 55.0281C139.219 54.229 139.034 53.4995 138.663 52.8394C138.304 52.1794 137.777 51.6525 137.083 51.2587C136.399 50.8651 135.594 50.6682 134.668 50.6682C133.753 50.6682 132.943 50.8651 132.236 51.2587C131.53 51.6525 130.974 52.2199 130.569 52.961C130.175 53.7021 129.978 54.5706 129.978 55.5666C129.978 56.5624 130.175 57.431 130.569 58.172C130.974 58.9016 131.53 59.4632 132.236 59.8569C132.943 60.2506 133.753 60.4475 134.668 60.4475C135.467 60.4475 136.185 60.3027 136.822 60.0133C137.459 59.7238 137.974 59.3184 138.368 58.7973C138.773 58.2762 139.034 57.6857 139.15 57.0256H137.465C137.349 57.6741 137.031 58.1952 136.509 58.5889C136 58.971 135.363 59.1621 134.599 59.1621C133.753 59.1621 133.035 58.89 132.444 58.3457C131.866 57.8015 131.559 56.9851 131.524 55.8965H139.15ZM137.274 53.3605C137.54 53.8354 137.656 54.4259 137.621 55.1323H131.524C131.57 54.0901 131.889 53.3026 132.48 52.7699C133.07 52.2257 133.8 51.9536 134.668 51.9536C135.212 51.9536 135.716 52.0693 136.179 52.3009C136.642 52.5326 137.008 52.8857 137.274 53.3605ZM156.554 51.7104C155.883 50.9924 154.991 50.6334 153.88 50.6334C153.093 50.6334 152.386 50.8477 151.76 51.2761C151.135 51.693 150.69 52.2894 150.423 53.0652C150.168 52.2662 149.74 51.6641 149.138 51.2587C148.547 50.8419 147.847 50.6334 147.036 50.6334C146.26 50.6334 145.572 50.8361 144.969 51.2414C144.378 51.6351 143.968 52.2083 143.735 52.961V50.7898H142.155V60.3259H143.735V55.2712C143.735 54.2059 143.984 53.4011 144.483 52.8568C144.992 52.3009 145.669 52.023 146.515 52.023C147.302 52.023 147.928 52.272 148.391 52.7699C148.854 53.2679 149.086 53.9859 149.086 54.9239V60.3259H150.666V55.2712C150.666 54.2059 150.915 53.4011 151.413 52.8568C151.923 52.3009 152.594 52.023 153.428 52.023C154.227 52.023 154.853 52.272 155.304 52.7699C155.768 53.2679 155.999 53.9859 155.999 54.9239V60.3259H157.58V54.7849C157.58 53.4416 157.238 52.4168 156.554 51.7104ZM164.654 58.2936L161.563 50.7898H159.791L163.804 60.1696L161.823 64.8421H163.612L169.275 50.7898H167.52L164.654 58.2936Z" fill="#40175B"/>
<path fill-rule="evenodd" clip-rule="evenodd" d="M10.9551 0C4.90475 0 0 4.90475 0 10.9551V54.0449C0 60.0953 4.90475 65 10.9551 65H54.0449C60.0953 65 65 60.0953 65 54.0449V10.9551C65 4.90475 60.0953 0 54.0449 0H10.9551ZM16.3913 20.0112C18.3905 20.0112 20.0112 18.3905 20.0112 16.3913C20.0112 14.3921 18.3905 12.7714 16.3913 12.7714C14.3921 12.7714 12.7714 14.3921 12.7714 16.3913C12.7714 18.3905 14.3921 20.0112 16.3913 20.0112ZM21.0103 17.2963C20.5883 19.4623 18.6808 21.0972 16.3913 21.0972C13.7923 21.0972 11.6854 18.9903 11.6854 16.3913C11.6854 13.7923 13.7923 11.6854 16.3913 11.6854C18.9297 11.6854 20.9987 13.6952 21.0938 16.2103H27.7974C27.8925 13.6952 29.9616 11.6854 32.5 11.6854C35.0384 11.6854 37.1075 13.6952 37.2024 16.2103H43.9062C44.0012 13.6952 46.0702 11.6854 48.6087 11.6854C51.2076 11.6854 53.3146 13.7923 53.3146 16.3913C53.3146 18.9903 51.2076 21.0972 48.6087 21.0972C46.3192 21.0972 44.4116 19.4623 43.9896 17.2963H37.119C36.7309 19.2886 35.0859 20.8315 33.0429 21.0663V27.8251C35.3861 28.0943 37.2059 30.0846 37.2059 32.5H43.9028C43.9028 29.9011 46.0098 27.7941 48.6087 27.7941C51.2076 27.7941 53.3146 29.9011 53.3146 32.5C53.3146 35.0989 51.2076 37.2059 48.6087 37.2059C46.3835 37.2059 44.5189 35.6615 44.0287 33.586H37.0799C36.6301 35.4901 35.0236 36.9475 33.0429 37.175V43.9337C35.3861 44.2031 37.2059 46.1933 37.2059 48.6087C37.2059 51.2077 35.0989 53.3146 32.5 53.3146C29.901 53.3146 27.794 51.2077 27.794 48.6087C27.794 46.1933 29.6137 44.2031 31.957 43.9337V37.175C29.6137 36.9056 27.794 34.9154 27.794 32.5C27.794 30.0846 29.6137 28.0943 31.957 27.8251V21.0663C29.914 20.8315 28.2691 19.2886 27.881 17.2963H21.0103ZM18.7442 16.3913C18.7442 17.6908 17.6908 18.7442 16.3913 18.7442C15.0918 18.7442 14.0383 17.6908 14.0383 16.3913C14.0383 15.0918 15.0918 14.0383 16.3913 14.0383C17.6908 14.0383 18.7442 15.0918 18.7442 16.3913ZM36.1199 16.3913C36.1199 18.3905 34.4992 20.0112 32.5 20.0112C30.5006 20.0112 28.88 18.3905 28.88 16.3913C28.88 14.3921 30.5006 12.7714 32.5 12.7714C34.4992 12.7714 36.1199 14.3921 36.1199 16.3913ZM52.2286 16.3913C52.2286 18.3905 50.608 20.0112 48.6087 20.0112C46.6094 20.0112 44.9887 18.3905 44.9887 16.3913C44.9887 14.3921 46.6094 12.7714 48.6087 12.7714C50.608 12.7714 52.2286 14.3921 52.2286 16.3913ZM36.1199 32.5C36.1199 34.4993 34.4992 36.12 32.5 36.12C30.5006 36.12 28.88 34.4993 28.88 32.5C28.88 30.5007 30.5006 28.88 32.5 28.88C34.4992 28.88 36.1199 30.5007 36.1199 32.5ZM36.1199 48.6087C36.1199 50.608 34.4992 52.2286 32.5 52.2286C30.5006 52.2286 28.88 50.608 28.88 48.6087C28.88 46.6094 30.5006 44.9888 32.5 44.9888C34.4992 44.9888 36.1199 46.6094 36.1199 48.6087ZM48.6087 36.3009C50.7079 36.3009 52.4096 34.5992 52.4096 32.5C52.4096 30.4008 50.7079 28.6991 48.6087 28.6991C46.5095 28.6991 44.8077 30.4008 44.8077 32.5C44.8077 34.5992 46.5095 36.3009 48.6087 36.3009ZM50.9616 32.5C50.9616 33.7996 49.9082 34.8529 48.6087 34.8529C47.3091 34.8529 46.2558 33.7996 46.2558 32.5C46.2558 31.2004 47.3091 30.1471 48.6087 30.1471C49.9082 30.1471 50.9616 31.2004 50.9616 32.5Z" fill="url(#paint0_linear)"/>
<defs>
<linearGradient id="paint0_linear" x1="32.5" y1="0" x2="32.5" y2="65" gradientUnits="userSpaceOnUse">
<stop stop-color="#D85855"/>
<stop offset="1" stop-color="#6E2287"/>
</linearGradient>
</defs>
</svg>
