<svg width="335" height="432" viewBox="0 0 335 432" fill="none" xmlns="http://www.w3.org/2000/svg">
<ellipse cx="161" cy="171.5" rx="131" ry="171.5" fill="url(#paint0_radial)"/>
<g opacity="0.2" filter="url(#filter0_f)">
<path fill-rule="evenodd" clip-rule="evenodd" d="M180.137 107.952L180.184 107.966C179.659 107.883 178.927 107.816 178.119 107.815C176.765 107.817 175.202 108.006 174.028 108.615C175.027 108.727 176.073 108.883 177.153 109.084C178.85 109.29 180.54 109.62 182.079 110.082C182.341 110.226 182.647 110.386 182.977 110.556C185.572 111.475 187.588 112.709 187.411 113.064C187.402 113.081 187.39 113.095 187.374 113.108C187.377 113.128 187.375 113.146 187.367 113.162C187.272 113.353 186.732 113.201 185.968 112.977C185.833 112.947 185.691 112.914 185.543 112.88L185.542 112.88C184.588 112.661 183.4 112.388 182.298 112.342C181.851 112.369 181.417 112.457 181.021 112.634C180.961 112.66 180.901 112.687 180.84 112.716C182.726 113.309 184.369 113.948 185.178 114.515C187.822 116.366 191.524 119.01 191.524 122.447C191.384 122.287 191.197 122.078 190.981 121.855C191.038 122.155 191.069 122.461 191.069 122.774C190.452 122.069 188.954 120.447 187.896 120.659C187.726 120.693 187.432 120.7 187.047 120.685C188.617 122.273 190.212 125.034 191.069 130.178C190.975 130.071 190.866 129.947 190.747 129.815C190.768 129.933 190.789 130.053 190.809 130.175C190.192 129.469 188.905 128.059 188.694 128.059L188.691 128.059L188.687 128.059C188.759 128.246 188.826 128.431 188.89 128.611C189.575 130.249 190.026 131.69 190.026 132.637C190.026 132.844 190.033 133.077 190.044 133.332C190.098 133.434 190.12 133.525 190.103 133.602C190.084 133.69 190.086 133.887 190.105 134.168C190.47 134.504 190.69 134.802 190.647 135.005C190.586 135.288 190.745 136.699 190.969 138.433L191.01 138.405L190.991 138.607C191.089 139.353 191.197 140.154 191.304 140.947C191.662 143.6 192.008 146.162 191.892 146.307C191.784 146.442 191.682 146.119 191.546 145.687C191.471 145.449 191.386 145.179 191.283 144.933C191.22 144.912 191.156 144.757 191.084 144.539C191.019 144.438 190.949 144.352 190.872 144.291C190.764 144.204 190.642 144.073 190.512 143.91L189.428 155.89C187.902 158.505 186.388 161.396 184.885 164.264C183.756 166.421 182.633 168.565 181.516 170.569C181.314 171.409 181.076 172.27 180.812 173.062C180.265 173.974 179.909 174.784 179.584 175.523C178.841 177.215 178.261 178.536 175.924 179.861C175.708 179.983 175.481 180.121 175.245 180.271C175.298 183.648 175.502 186.95 176.055 188.2L176.056 188.201C176.103 188.248 176.111 188.256 176.112 188.291C177.64 188.78 185.129 191.181 192.078 193.447C193.261 193.831 194.424 194.207 195.536 194.567H195.538L195.539 194.568L195.543 194.569C198.51 195.528 201.116 196.371 202.797 196.945C209.228 199.089 222.881 205.972 228.523 220.978C233.384 233.911 249.601 260.125 254.243 267.63L233.084 274.536C233.737 273.1 233.7 271.934 232.697 271.019C229.482 268.142 209.172 240.554 209.172 240.554C209.172 240.554 207.48 254.828 205.054 260.018C203.508 263.325 202.122 270.069 201.364 275.753L213.342 275.474C214.582 275.446 215.549 276.542 215.366 277.769L214.967 280.449L233.084 274.536C232.696 275.387 232.065 276.333 231.249 277.377L214.358 284.537L212.848 294.669C216.964 292.007 220.319 289.592 221.584 288.169C223.197 286.329 224.77 284.631 226.216 283.068C228.208 280.917 229.96 279.025 231.249 277.377L254.243 267.63L254.245 267.632L254.247 267.636C254.989 268.836 255.435 269.556 255.489 269.665C257.408 273.558 258.141 278.184 240.652 295.842C234.323 302.259 224.153 308.316 215.772 312.685L215.879 312.761C216.759 313.037 221.04 314.377 224.796 315.522C226.772 316.093 228.627 316.624 229.763 316.941C229.989 316.997 230.384 316.997 230.892 316.997C233.655 316.794 240.062 315.235 247.433 313.443H247.434C258.426 310.77 271.56 307.576 277.943 307.576C280.566 307.576 282.781 307.541 284.688 307.51C291.146 307.408 294.057 307.362 297.237 308.93C301.355 311.017 309.874 327.096 309.197 331.891C308.56 336.401 282.88 354.629 275.081 360.165L275.062 360.179L274.36 360.677L274.093 360.867L273.824 361.058C269.377 364.242 265.465 365.717 258.915 368.186L258.366 368.392C252.066 370.041 232.477 375.748 211.248 382L211.213 382.011C212.045 382.134 212.901 382.278 213.755 382.421H213.758L213.764 382.422C215.253 382.672 216.737 382.921 218.086 383.061C219.117 383.168 221.276 383.288 224.058 383.442H224.061H224.062H224.064C233.007 383.939 248.382 384.792 253.458 386.728C260.059 389.323 267.844 399.196 263.049 403.765C258.254 408.335 246.294 406.53 240.313 405.402C237.451 404.861 229.276 404.36 221.128 403.86C212.253 403.316 203.411 402.774 201.499 402.186C200.902 402.002 200.22 401.805 199.474 401.589C195.644 400.483 190.159 398.898 186.098 396.206C185.741 395.951 184.969 395.65 183.867 395.22L183.503 395.077L176.225 400.324L171.188 398.721L171.147 398.744L164.482 396.586L163.282 396.204C151.738 399.637 143.955 401.96 143.955 401.96C143.884 401.705 143.824 401.462 143.765 401.222C143.588 400.503 143.419 399.815 142.996 398.97C140.286 400.054 137.484 400.86 135.249 401.503L135.246 401.504L135.243 401.505L135.231 401.509C134.449 401.734 133.737 401.939 133.123 402.129C131.211 402.717 122.369 403.259 113.494 403.804C105.346 404.303 97.171 404.805 94.309 405.345C91.325 405.908 86.8536 406.653 82.5255 406.684C78.1584 406.722 73.9304 406.037 71.5171 403.709C66.7217 399.139 74.5071 389.267 81.1642 386.728C86.2406 384.792 101.618 383.939 110.56 383.442H110.561C113.345 383.288 115.506 383.168 116.537 383.061C117.707 382.939 118.979 382.732 120.267 382.512L74.8456 368.054C68.7527 366.362 63.9573 363.879 60.7416 361.059C59.2292 359.755 55.7576 357.218 51.5515 354.144C41.0091 346.438 25.8528 335.36 25.3689 331.892C24.6919 327.096 33.1543 311.018 37.329 308.93C40.4754 307.336 43.3583 307.387 49.6757 307.501C51.6274 307.536 53.9069 307.576 56.6232 307.576C63.0603 307.576 76.31 310.806 87.3398 313.495C95.975 315.6 103.249 317.373 104.829 317.005L104.803 316.998C105.873 316.692 107.694 315.842 109.723 314.8L109.773 314.832C109.86 314.788 109.947 314.743 110.035 314.698L109.723 314.8C108.731 314.214 107.703 313.609 106.646 312.988C89.1411 302.687 63.8264 287.791 65.1422 281.287C67.681 268.706 85.3391 235.985 87.6521 233.22C88.316 232.427 89.7233 229.882 91.551 226.576L91.552 226.575C96.093 218.362 103.232 205.451 108.018 203.038C111.234 201.402 120.825 197.904 129.908 194.745C131.088 194.331 132.262 193.922 133.412 193.523L133.405 193.503L147.114 188.821C147.114 188.821 148.138 184.061 148.856 179.05C146.669 177.161 145.939 174.795 145.86 173.68C144.809 171.358 144.432 169.043 144.297 167.683C142.537 163.24 140.701 158.565 139.423 155.298V152.761C138.197 150.886 137.371 148.875 136.823 146.853C136.679 147.702 136.551 148.141 136.435 147.91C136.357 147.754 136.279 147.35 136.206 146.755C136.057 147.658 135.924 148.133 135.805 147.894C135.28 146.845 134.756 134.606 135.78 127.957C134.359 130.52 133.983 133.431 133.983 134.684C133.581 132.676 133.415 130.757 133.426 128.947C133.379 121.057 136.715 115.184 138.743 112.939C140.094 111.957 142.643 110.623 144.78 110.835C146.429 108.7 151.03 104.809 161.442 104.814C166.324 104.812 172.487 105.667 180.228 107.966C180.198 107.962 180.168 107.957 180.137 107.952ZM109.856 297.371L106.842 280.25C106.63 279.044 107.541 277.932 108.766 277.904L122.199 277.592C121.982 276.562 121.732 275.464 121.445 274.291C119.019 264.306 110.275 245.181 110.275 245.181C110.275 245.181 93.407 274.291 91.432 277.338C90.198 279.241 92.819 281.585 96.362 284.755C98.49 286.658 100.951 288.859 103.11 291.442C104.405 292.985 106.871 295.079 109.856 297.371ZM185.607 153.399C185.375 153.714 185.13 154.025 184.872 154.33L184.851 154.439C185.086 154.248 185.318 154.065 185.546 153.892C185.567 153.73 185.587 153.566 185.607 153.399Z" fill="black"/>
</g>
<path d="M102.37 315.403C105.755 315.629 128.773 328.943 134.188 332.159C125.895 327.815 94.4717 319.183 94.4717 319.183C96.0513 318.732 99.267 317.096 102.37 315.403Z" fill="#363957"/>
<path d="M220.562 319.184C220.562 319.184 180.958 328.774 173.736 332.836C174.075 332.611 194.61 316.983 205.386 314.896C205.386 314.896 215.992 318.225 219.433 319.184C219.602 319.24 219.997 319.24 220.562 319.184Z" fill="#363957"/>
<path d="M112.412 325.558C112.469 325.671 112.469 325.784 112.356 325.84C111.904 326.179 112.017 326.009 112.412 325.558Z" fill="#C75454"/>
<path d="M245.159 271.851C244.764 271.061 223.833 238.17 218.192 223.164C212.55 208.157 198.898 201.274 192.466 199.131C190.153 198.341 186.091 197.043 181.747 195.633C173.962 193.094 165.499 190.386 165.499 190.386H138.702C138.702 190.386 129.393 193.489 119.577 196.93C110.494 200.09 100.903 203.588 97.6876 205.224C90.9741 208.609 79.6344 232.642 77.3214 235.406C75.0083 238.17 57.3502 270.892 54.8115 283.472C52.8369 293.232 110.832 321.892 112.412 325.559C114.274 323.528 122.68 315.404 122.68 315.404C122.68 315.404 119.972 313.711 116.192 311.173C131.706 311.906 169.674 310.552 175.147 310.834C176.219 310.891 177.403 310.834 178.644 310.778C180.337 312.019 191.225 321.61 191.225 321.61C191.225 321.61 218.023 310.496 230.321 298.028C247.81 280.37 247.077 275.743 245.159 271.851ZM92.7794 293.627C87.0249 286.745 79.1267 282.57 81.1013 279.523C83.0758 276.477 99.9442 247.366 99.9442 247.366C99.9442 247.366 108.689 266.491 111.115 276.477C113.54 286.406 113.371 290.976 112.356 294.079C111.453 296.843 110.663 298.761 109.873 306.998C102.991 302.259 95.4309 296.787 92.7794 293.627ZM211.253 290.355C208.996 292.894 200.082 298.592 192.071 303.218C191.451 297.689 190.548 288.945 190.435 285.785C190.266 281.047 192.297 267.394 194.723 262.204C197.149 257.013 198.841 242.74 198.841 242.74C198.841 242.74 219.151 270.328 222.367 273.205C225.582 276.138 218.869 281.667 211.253 290.355Z" fill="url(#paint1_linear)"/>
<path d="M245.159 271.851C244.764 271.061 223.833 238.17 218.192 223.164C212.55 208.157 198.898 201.274 192.466 199.131C190.153 198.341 186.091 197.043 181.747 195.633C173.962 193.094 165.499 190.386 165.499 190.386H138.702C138.702 190.386 129.393 193.489 119.577 196.93C110.494 200.09 100.903 203.588 97.6876 205.224C90.9741 208.609 79.6344 232.642 77.3214 235.406C75.0083 238.17 57.3502 270.892 54.8115 283.472C52.8369 293.232 110.832 321.892 112.412 325.559C114.274 323.528 122.68 315.404 122.68 315.404C122.68 315.404 119.972 313.711 116.192 311.173C131.706 311.906 169.674 310.552 175.147 310.834C176.219 310.891 177.403 310.834 178.644 310.778C180.337 312.019 191.225 321.61 191.225 321.61C191.225 321.61 218.023 310.496 230.321 298.028C247.81 280.37 247.077 275.743 245.159 271.851ZM92.7794 293.627C87.0249 286.745 79.1267 282.57 81.1013 279.523C83.0758 276.477 99.9442 247.366 99.9442 247.366C99.9442 247.366 108.689 266.491 111.115 276.477C113.54 286.406 113.371 290.976 112.356 294.079C111.453 296.843 110.663 298.761 109.873 306.998C102.991 302.259 95.4309 296.787 92.7794 293.627ZM211.253 290.355C208.996 292.894 200.082 298.592 192.071 303.218C191.451 297.689 190.548 288.945 190.435 285.785C190.266 281.047 192.297 267.394 194.723 262.204C197.149 257.013 198.841 242.74 198.841 242.74C198.841 242.74 219.151 270.328 222.367 273.205C225.582 276.138 218.869 281.667 211.253 290.355Z" fill="url(#paint2_linear)"/>
<path d="M152.975 398.391L178.644 390.549L160.817 400.93L152.975 398.391Z" fill="#252638"/>
<path d="M135.317 332.836C135.26 332.78 134.865 332.554 134.188 332.159C134.64 332.385 135.035 332.611 135.317 332.836Z" fill="#535353"/>
<path d="M298.866 334.077C298.189 338.872 269.192 359.182 263.494 363.244C258.924 366.516 254.919 367.983 248.036 370.578C232.296 374.696 133.624 404.146 133.624 404.146C133.342 403.13 133.229 402.284 132.665 401.155C128.998 402.622 125.162 403.581 122.792 404.315C119.125 405.443 89.9584 406.402 83.9783 407.53C77.9982 408.659 66.038 410.52 61.2427 405.894C56.4473 401.325 64.2328 391.452 70.8899 388.913C77.5469 386.374 101.919 385.698 106.263 385.246C110.607 384.795 116.361 383.159 119.125 384.118C119.972 384.4 123.864 383.272 128.716 381.579C128.603 379.774 128.547 378.645 128.547 378.645L154.442 371.199L149.646 325.332C149.646 325.332 160.93 282.851 205.949 315.234C205.949 315.234 215.992 318.168 219.433 319.127C219.659 319.183 220.054 319.183 220.561 319.183C227.444 318.675 256.949 309.762 267.612 309.762C279.121 309.762 282.788 309.085 286.906 311.116C291.025 313.203 299.543 329.282 298.866 334.077Z" fill="#363957"/>
<path d="M252.719 405.951C247.923 410.521 235.963 408.716 229.983 407.587C224.003 406.459 194.836 405.5 191.169 404.372C187.502 403.243 180.619 401.607 175.767 398.392C175.372 398.11 174.47 397.771 173.172 397.263L165.894 402.51L64.515 370.24C58.4221 368.548 53.6268 366.065 50.4111 363.245C45.108 358.675 15.7153 338.929 15.0383 334.078C14.3613 329.282 22.8237 313.204 26.9985 311.116C31.1168 309.029 34.7838 309.762 46.2927 309.762C57.8015 309.762 91.0869 320.086 94.5283 319.184C96.1079 318.789 99.3236 317.096 102.426 315.46C106.094 313.429 109.535 311.398 109.535 311.398C158.842 289.396 164.371 325.39 164.371 325.39L161.438 369.845C161.438 369.845 165.556 371.876 170.915 374.415L195.343 381.298L192.128 383.611C193.538 384.062 194.497 384.288 194.892 384.118C197.657 383.216 203.411 384.795 207.755 385.247C212.099 385.698 236.471 386.375 243.128 388.914C249.728 391.509 257.514 401.382 252.719 405.951Z" fill="#363957"/>
<path d="M124.485 358.223C124.485 358.223 92.3843 338.985 78.3932 335.995C65.1354 333.118 60.3401 328.21 60.3401 328.21C60.3401 328.21 81.3832 328.21 95.3743 338.139C104.909 344.909 124.485 358.223 124.485 358.223Z" fill="#252638"/>
<path d="M152.975 371.65C152.975 371.65 208.77 342.37 231.562 335.995C244.595 332.385 249.616 328.21 249.616 328.21C249.616 328.21 215.145 331.595 194.159 344.232C184.117 350.212 152.975 371.65 152.975 371.65Z" fill="#252638"/>
<path d="M252.719 405.951C247.924 410.521 235.963 408.715 229.983 407.587C224.003 406.459 194.836 405.5 191.169 404.371C190.097 404.033 188.8 403.694 187.333 403.243C183.722 402.171 179.209 400.704 175.768 398.391C175.373 398.109 174.47 397.771 173.172 397.263L191.508 384.005L192.015 383.61C193.426 384.062 194.385 384.287 194.78 384.118C197.544 383.215 203.298 384.795 207.643 385.246C211.987 385.698 236.358 386.375 243.015 388.913C249.729 391.509 257.514 401.381 252.719 405.951Z" fill="#F4C9AF"/>
<path d="M132.609 401.156C128.942 402.623 125.106 403.582 122.736 404.315C119.069 405.443 89.9023 406.403 83.9222 407.531C77.9421 408.659 65.9819 410.521 61.1865 405.895C56.3912 401.325 64.1766 391.452 70.8337 388.914C77.4907 386.375 101.862 385.698 106.206 385.247C110.55 384.795 116.305 383.159 119.069 384.118C119.915 384.4 123.808 383.272 128.66 381.58C128.773 384.513 132.609 401.156 132.609 401.156Z" fill="#F4C9AF"/>
<path d="M162.809 182.93C162.809 182.93 151.921 187.838 141.089 178.981C141.089 178.981 145.151 188.12 152.88 188.684C160.553 189.249 162.809 182.93 162.809 182.93Z" fill="black" fill-opacity="0.2"/>
<path d="M165.781 190.499C165.781 190.442 165.781 190.442 165.725 190.386C164.427 187.452 165.048 173.236 165.048 173.236C165.048 173.236 138.363 166.466 139.097 171.656C139.83 176.846 136.784 191.007 136.784 191.007L123.075 195.689C123.075 195.689 137.686 234.842 154.442 229.821C171.197 224.743 177.516 194.279 177.516 194.279L165.781 190.499Z" fill="#F4C9AF"/>
<path fill-rule="evenodd" clip-rule="evenodd" d="M131.3 159.133C131.325 159.3 131.342 159.395 131.342 159.395C126.039 138.368 128.481 129.271 132.913 120.483C137.344 111.695 155.324 105.091 168.507 116.242C181.69 127.394 175.513 151.545 175.513 151.545C175.513 151.545 175.446 151.645 175.352 151.756C169.746 179.745 156.53 187.63 153.901 186.316C153.079 185.905 152.242 185.51 151.397 185.112C143.876 181.565 135.705 177.712 131.3 159.133Z" fill="#F4C9AF"/>
<path fill-rule="evenodd" clip-rule="evenodd" d="M131.341 160.344C131.341 160.344 131.337 160.321 131.33 160.279C131.864 162.552 132.453 164.634 133.093 166.537L136.401 173.815L139.901 177.315L144.901 181.815H145.401C142.472 180.589 140.359 176.084 139.104 170.873C138.108 166.738 135.33 161.099 130.522 156.92C130.771 158.025 131.044 159.166 131.341 160.344ZM165.198 170.873C166.202 166.704 169.019 161.005 173.901 156.815L172.901 162.815L167.901 173.815L164.401 177.315L159.401 181.815H158.901C161.83 180.589 163.943 176.084 165.198 170.873Z" fill="#101010" fill-opacity="0.07"/>
<path fill-rule="evenodd" clip-rule="evenodd" d="M150.104 177.216C149.144 177.422 147.966 177.675 146.401 178.315C145.023 178.879 144.436 178.308 143.277 177.18C142.376 176.304 141.131 175.092 138.901 173.815C134.79 168.544 130.401 155.315 130.401 155.315C130.401 155.315 130.401 160.865 132.339 166.443C132.452 168.53 133.699 173.454 137.779 176.458C139.072 177.41 139.808 178.145 140.593 178.929C142.285 180.619 144.201 182.532 152.401 187.315C160.601 182.532 162.516 180.619 164.209 178.929C164.994 178.145 165.73 177.41 167.022 176.458C171.103 173.454 172.35 168.53 172.463 166.443C174.401 160.865 174.401 155.315 174.401 155.315C174.401 155.315 170.012 168.544 165.901 173.815C163.671 175.092 162.425 176.304 161.525 177.18C160.366 178.308 159.779 178.879 158.401 178.315C156.835 177.675 155.657 177.422 154.698 177.216C153.782 177.02 153.065 176.866 152.401 176.458C151.736 176.866 151.02 177.02 150.104 177.216Z" fill="#363957"/>
<path fill-rule="evenodd" clip-rule="evenodd" d="M160.332 164.641C160.009 164.34 159.627 164.209 159.426 164.148C159.181 164.073 158.918 164.023 158.669 163.987C158.169 163.913 157.571 163.872 156.972 163.849C155.983 163.81 154.864 163.812 153.956 163.815L153.956 163.815C153.76 163.815 153.574 163.815 153.401 163.815V163.817C153.213 163.817 153.008 163.817 152.789 163.817L152.789 163.817L152.789 163.817C151.757 163.814 150.42 163.812 149.22 163.85C148.494 163.874 147.782 163.913 147.195 163.983C146.903 164.018 146.609 164.063 146.345 164.128C146.137 164.179 145.734 164.289 145.391 164.555C144.61 165.161 143.9 166.173 143.431 167.012C143.185 167.451 142.967 167.911 142.82 168.334C142.747 168.545 142.679 168.78 142.642 169.02C142.61 169.224 142.57 169.602 142.7 170.008C142.789 170.282 142.74 170.986 142.214 172.159C141.73 173.237 140.983 174.404 140.214 175.398L142.587 177.233C143.455 176.112 144.344 174.741 144.951 173.387C145.478 172.211 145.946 170.721 145.635 169.375C145.64 169.358 145.647 169.339 145.654 169.319C145.727 169.107 145.862 168.81 146.049 168.476C146.396 167.855 146.803 167.316 147.107 167.031C147.206 167.009 147.351 166.985 147.548 166.962C148.008 166.908 148.62 166.871 149.317 166.849C150.46 166.812 151.73 166.814 152.764 166.817H152.764C152.989 166.817 153.202 166.817 153.401 166.817L153.401 165.316L153.401 166.815C153.588 166.815 153.785 166.815 153.987 166.815L153.988 166.815C154.896 166.812 155.935 166.81 156.853 166.846C157.417 166.869 157.889 166.904 158.232 166.955C158.312 166.966 158.377 166.978 158.428 166.988C158.665 167.273 158.982 167.781 159.259 168.376C159.416 168.713 159.532 169.018 159.597 169.243C159.612 169.294 159.622 169.335 159.63 169.367C159.363 170.646 159.729 172.098 160.178 173.297C160.679 174.639 161.416 176.005 162.14 177.128L164.662 175.503C164.022 174.51 163.395 173.338 162.988 172.247C162.551 171.08 162.479 170.3 162.577 169.935C162.672 169.579 162.644 169.247 162.619 169.056C162.59 168.835 162.538 168.613 162.478 168.408C162.359 167.997 162.181 167.545 161.978 167.109C161.594 166.284 161.002 165.264 160.332 164.641ZM158.581 167.027C158.58 167.028 158.573 167.025 158.559 167.02C158.575 167.025 158.581 167.027 158.581 167.027ZM159.645 169.445C159.647 169.463 159.645 169.461 159.644 169.442L159.645 169.445ZM146.993 167.061C146.993 167.061 147 167.059 147.012 167.054C146.998 167.059 146.992 167.061 146.993 167.061Z" fill="#363957"/>
<path fill-rule="evenodd" clip-rule="evenodd" d="M125.449 130.142C124.028 132.705 123.652 135.616 123.652 136.87C121.537 126.293 125.944 118.184 128.412 115.452C129.724 114.497 132.166 113.212 134.264 113.333C136.322 110.384 144.859 102.715 169.897 110.152C168.389 109.914 165.18 109.804 163.321 111.02C166.093 111.079 169.139 111.485 171.748 112.267C172.236 112.536 172.875 112.859 173.539 113.196C175.277 114.074 177.189 115.042 177.036 115.348C176.938 115.544 176.369 115.377 175.571 115.143C174.212 114.746 172.189 114.153 170.69 114.819C170.446 114.928 170.192 115.052 169.927 115.188C171.866 115.792 173.565 116.448 174.392 117.027C177.036 118.878 180.738 121.522 180.738 124.959C180.121 124.254 178.623 122.633 177.565 122.844C177.395 122.878 177.101 122.886 176.716 122.871C178.286 124.458 179.881 127.22 180.739 132.363C180.122 131.658 178.835 130.248 178.623 130.248C178.58 130.248 178.453 130.164 178.269 130.02C178.81 131.397 179.152 132.596 179.152 133.421C179.152 133.833 179.178 134.344 179.215 134.937C179.589 135.279 179.816 135.583 179.772 135.788C179.683 136.202 180.063 139.014 180.429 141.73C180.787 144.383 181.133 146.946 181.017 147.09C180.909 147.225 180.807 146.902 180.671 146.47C180.514 145.971 180.31 145.325 179.997 145.074C179.795 144.912 179.545 144.597 179.287 144.2C178.88 148.372 177.639 152.944 174.392 156.69C175.361 150.344 176.507 136.594 173.334 132.363C173.032 131.96 172.75 131.572 172.48 131.202L172.479 131.201L172.479 131.201L172.479 131.2C169.664 127.335 168.206 125.333 159.601 127.186C158.33 128.153 156.797 128.78 154.957 128.894C156.466 129.597 158.62 130.357 160.114 129.984C162.691 129.68 164.399 129.116 165.388 128.79C166.123 128.547 166.46 128.436 166.46 128.662C166.46 129.19 163.022 131.041 161.7 131.57C160.631 131.998 156.796 131.907 154.668 131.856C154.164 131.844 153.756 131.835 153.503 131.835C152.978 131.835 151.829 131.376 150.649 130.906C148.858 130.192 146.997 129.451 147.157 130.248C147.427 131.601 148.784 131.832 150.02 132.043C150.523 132.128 151.006 132.211 151.388 132.364C151.133 132.448 150.961 132.56 150.8 132.664C150.459 132.885 150.171 133.072 149.272 132.892C148.443 132.726 144.513 130.601 142.662 129.455C141.879 129.142 139.398 128.592 135.294 128.621C134.605 129.335 133.971 130.206 133.247 131.2L133.247 131.201L133.247 131.201L133.246 131.201C132.976 131.572 132.694 131.96 132.391 132.363C129.218 136.594 130.364 150.344 131.334 156.69C128.163 153.032 126.905 148.587 126.469 144.495C126.43 144.806 126.391 145.113 126.353 145.413L126.353 145.413L126.353 145.416L126.353 145.418C125.993 148.278 125.708 150.547 125.474 150.08C124.949 149.03 124.425 136.791 125.449 130.142Z" fill="#363957"/>
<path opacity="0.3" d="M171.082 112.25C164.483 110.451 158.447 110.079 155.486 111.348C156.191 112.847 158.236 116.055 160.774 116.901C163.947 117.959 168.102 115.707 170.482 114.65C172.881 114.05 176.816 115.778 177.08 115.249C177.292 114.826 174.376 113.149 171.082 112.25Z" fill="url(#paint3_linear)"/>
<path opacity="0.3" d="M174.847 116.7C172.886 115.328 166.033 113.527 162.684 112.999C163.389 114.938 165.116 119.08 166.386 120.138C167.972 121.46 176.698 122.782 178.02 122.518C179.078 122.306 180.576 123.928 181.193 124.633C181.193 121.196 177.491 118.551 174.847 116.7Z" fill="url(#paint4_linear)"/>
<path opacity="0.3" d="M180.478 132.36C178.627 121.254 173.339 121.254 172.281 120.197C172.898 121.96 174.185 125.644 174.397 126.278C174.661 127.072 178.098 130.245 178.363 130.245C178.574 130.245 179.861 131.655 180.478 132.36Z" fill="url(#paint5_linear)"/>
<path d="M173.878 133.765C177.051 137.996 175.905 151.746 174.936 158.092C181.811 150.159 179.695 138.525 179.695 134.823C179.695 131.861 175.288 124.069 173.085 120.544L141.09 114.198C141.178 120.72 144.157 132.972 155.368 129.799C169.383 125.832 169.912 128.477 173.878 133.765Z" fill="url(#paint6_linear)"/>
<path opacity="0.5" d="M180.315 137.19C180.456 136.536 177.845 134.891 176.522 134.15C177.065 136.662 178.232 141.942 178.558 142.97C178.966 144.255 179.957 146.008 180.541 146.476C181.124 146.944 181.327 148.784 181.561 148.492C181.795 148.2 180.139 138.008 180.315 137.19Z" fill="url(#paint7_linear)"/>
<path fill-rule="evenodd" clip-rule="evenodd" d="M134.449 113.021C136.87 109.886 145.656 102.965 169.853 110.152C168.178 109.887 164.406 109.782 162.713 111.474C161.021 113.166 156.015 115.528 153.723 116.498H138.915C138.178 116.498 137.39 116.233 136.65 115.858C136.339 117.859 135.881 120.348 135.551 120.678C135.431 120.798 134.997 121.109 134.37 121.559C132.237 123.088 127.871 126.219 126.032 128.875C124.128 131.625 123.652 135.133 123.652 136.543C121.537 125.966 125.944 117.857 128.412 115.125C129.763 114.142 132.312 112.809 134.449 113.021Z" fill="url(#paint8_linear)"/>
<path opacity="0.5" d="M126.104 150.096C125.576 149.038 125.047 136.61 126.104 130L131.128 122.596C131.657 124.006 132.662 127.461 132.451 130C132.186 133.173 130.071 133.966 128.749 136.081C127.427 138.197 126.633 151.153 126.104 150.096Z" fill="url(#paint9_linear)"/>
<path d="M142.882 129.391C142 129.038 138.968 128.386 133.891 128.597C141.569 124.516 150.312 126.544 153.723 128.069C154.781 128.703 158.218 130.448 160.334 129.92C164.829 129.391 166.68 128.069 166.68 128.597C166.68 129.126 163.242 130.977 161.92 131.506C160.598 132.035 155.045 131.771 153.723 131.771C152.401 131.771 147.113 128.862 147.377 130.184C147.757 132.086 150.286 131.771 151.608 132.299C150.814 132.564 150.814 133.093 149.492 132.828C148.663 132.662 144.733 130.537 142.882 129.391Z" fill="url(#paint10_linear)"/>
<ellipse cx="146.804" cy="232.232" rx="67.3886" ry="95.1368" fill="url(#paint11_radial)"/>
<path d="M105.79 328.546C105.043 328.336 104.485 327.722 104.35 326.957L96.512 282.436C96.2996 281.23 97.2111 280.118 98.4352 280.09L203.011 277.66C204.252 277.631 205.219 278.727 205.036 279.954L198.509 323.762C198.401 324.487 197.926 325.087 197.239 325.342C191.753 327.376 167.045 336.66 154.742 343.328C153.359 344.078 149.749 344.352 148.29 343.763C140.264 340.525 119.506 332.392 105.79 328.546Z" fill="url(#paint12_linear)"/>
<path d="M105.79 328.546C105.043 328.336 104.485 327.722 104.35 326.957L96.512 282.436C96.2996 281.23 97.2111 280.118 98.4352 280.09L203.011 277.66C204.252 277.631 205.219 278.727 205.036 279.954L198.509 323.762C198.401 324.487 197.926 325.087 197.239 325.342C191.753 327.376 167.045 336.66 154.742 343.328C153.359 344.078 149.749 344.352 148.29 343.763C140.264 340.525 119.506 332.392 105.79 328.546Z" fill="url(#paint13_linear)"/>
<defs>
<filter id="filter0_f" x="0.330566" y="79.8145" width="333.905" height="351.906" filterUnits="userSpaceOnUse" color-interpolation-filters="sRGB">
<feFlood flood-opacity="0" result="BackgroundImageFix"/>
<feBlend mode="normal" in="SourceGraphic" in2="BackgroundImageFix" result="shape"/>
<feGaussianBlur stdDeviation="12.5" result="effect1_foregroundBlur"/>
</filter>
<radialGradient id="paint0_radial" cx="0" cy="0" r="1" gradientUnits="userSpaceOnUse" gradientTransform="translate(161 282.315) rotate(-90) scale(287.592 95.8724)">
<stop stop-color="#FFE0D6" stop-opacity="0.74"/>
<stop offset="0.532678" stop-color="#3C66FB" stop-opacity="0.13"/>
<stop offset="1" stop-color="#46FFD3" stop-opacity="0"/>
<stop offset="1" stop-color="#9309FF" stop-opacity="0.01"/>
</radialGradient>
<linearGradient id="paint1_linear" x1="150.44" y1="190.386" x2="150.44" y2="325.559" gradientUnits="userSpaceOnUse">
<stop stop-color="#D85855"/>
<stop offset="1" stop-color="#6E2287"/>
</linearGradient>
<linearGradient id="paint2_linear" x1="150.417" y1="190.386" x2="150.417" y2="325.559" gradientUnits="userSpaceOnUse">
<stop stop-color="#4B12AD"/>
<stop offset="1" stop-color="#150456"/>
</linearGradient>
<linearGradient id="paint3_linear" x1="156.187" y1="110.451" x2="176.626" y2="114.724" gradientUnits="userSpaceOnUse">
<stop stop-color="#B241EA" stop-opacity="0"/>
<stop offset="1" stop-color="#06B7B8"/>
</linearGradient>
<linearGradient id="paint4_linear" x1="163.285" y1="112.736" x2="181.375" y2="114.568" gradientUnits="userSpaceOnUse">
<stop stop-color="#B241EA" stop-opacity="0"/>
<stop offset="1" stop-color="#06B7B8"/>
</linearGradient>
<linearGradient id="paint5_linear" x1="172.547" y1="119.922" x2="180.626" y2="120.269" gradientUnits="userSpaceOnUse">
<stop stop-color="#B241EA" stop-opacity="0"/>
<stop offset="1" stop-color="#06B7B8"/>
</linearGradient>
<linearGradient id="paint6_linear" x1="158.655" y1="108.961" x2="158.655" y2="158.423" gradientUnits="userSpaceOnUse">
<stop stop-color="#320B84" stop-opacity="0"/>
<stop offset="1" stop-color="#00D4FF" stop-opacity="0.23"/>
</linearGradient>
<linearGradient id="paint7_linear" x1="176.641" y1="134.137" x2="180.257" y2="133.797" gradientUnits="userSpaceOnUse">
<stop stop-color="#B241EA" stop-opacity="0"/>
<stop offset="1" stop-color="#06B7B8" stop-opacity="0.2"/>
</linearGradient>
<linearGradient id="paint8_linear" x1="144.202" y1="103.475" x2="144.202" y2="136.766" gradientUnits="userSpaceOnUse">
<stop stop-color="#00D4FF" stop-opacity="0.29"/>
<stop offset="1" stop-color="#320B84" stop-opacity="0"/>
</linearGradient>
<linearGradient id="paint9_linear" x1="131.492" y1="124.395" x2="137.894" y2="127.658" gradientUnits="userSpaceOnUse">
<stop stop-color="#B241EA" stop-opacity="0"/>
<stop offset="1" stop-color="#06B7B8" stop-opacity="0.29"/>
</linearGradient>
<linearGradient id="paint10_linear" x1="148.693" y1="125.395" x2="148.693" y2="132.951" gradientUnits="userSpaceOnUse">
<stop stop-color="#320B84" stop-opacity="0"/>
<stop offset="1" stop-color="#00D4FF" stop-opacity="0.69"/>
</linearGradient>
<radialGradient id="paint11_radial" cx="0" cy="0" r="1" gradientUnits="userSpaceOnUse" gradientTransform="translate(146.804 293.705) rotate(-90) scale(159.537 67.3885)">
<stop stop-color="#E8BAFF" stop-opacity="0.74"/>
<stop offset="0.532678" stop-color="#46FFD3" stop-opacity="0.15"/>
<stop offset="1" stop-color="#46FFD3" stop-opacity="0"/>
</radialGradient>
<linearGradient id="paint12_linear" x1="150.747" y1="277.605" x2="150.747" y2="345.135" gradientUnits="userSpaceOnUse">
<stop stop-color="#BCBCBC"/>
<stop offset="1" stop-color="#DDDDDD"/>
</linearGradient>
<linearGradient id="paint13_linear" x1="99.8238" y1="277.605" x2="211.454" y2="289.86" gradientUnits="userSpaceOnUse">
<stop stop-color="#4170EA"/>
<stop offset="1" stop-color="#06B7B8"/>
</linearGradient>
</defs>
</svg>
